<svg xmlns="http://www.w3.org/2000/svg" xmlns:xlink="http://www.w3.org/1999/xlink" width="2000" zoomAndPan="magnify" viewBox="0 0 1500 1499.999933" height="2000" preserveAspectRatio="xMidYMid meet" version="1.0"><defs><g/><clipPath id="5b8eb5f0d6"><path d="M 357.734375 685 L 415 685 L 415 718 L 357.734375 718 Z M 357.734375 685 " clip-rule="nonzero"/></clipPath><clipPath id="1ca88e39fa"><path d="M 414 637.402344 L 487 637.402344 L 487 678 L 414 678 Z M 414 637.402344 " clip-rule="nonzero"/></clipPath><clipPath id="7ef864cab1"><path d="M 534.363281 757.707031 L 607.300781 757.707031 L 607.300781 798.554688 L 534.363281 798.554688 Z M 534.363281 757.707031 " clip-rule="nonzero"/></clipPath><clipPath id="821c874ca7"><path d="M 398 822.058594 L 454.824219 822.058594 L 454.824219 862.402344 L 398 862.402344 Z M 398 822.058594 " clip-rule="nonzero"/></clipPath><clipPath id="6fbf07e368"><path d="M 414 854 L 430.738281 854 L 430.738281 862.402344 L 414 862.402344 Z M 414 854 " clip-rule="nonzero"/></clipPath><clipPath id="6c62d8d1bc"><path d="M 438.019531 774 L 502.996094 774 L 502.996094 862.402344 L 438.019531 862.402344 Z M 438.019531 774 " clip-rule="nonzero"/></clipPath></defs><g clip-path="url(#5b8eb5f0d6)"><path fill="#63c442" d="M 357.929688 717.769531 L 357.921875 709.726562 L 365.972656 709.722656 L 365.96875 701.695312 L 382.066406 701.691406 L 382.058594 693.664062 L 390.105469 693.660156 L 390.097656 685.621094 L 414.238281 685.613281 L 414.242188 693.664062 L 406.195312 693.671875 L 406.203125 709.726562 L 382.066406 709.734375 L 382.070312 717.769531 L 357.929688 717.769531 " fill-opacity="1" fill-rule="nonzero"/><path fill="#63c442" d="M 382.066406 709.726562 L 382.066406 717.765625 L 357.929688 717.765625 L 357.929688 709.726562 L 365.972656 709.726562 L 365.972656 701.695312 L 382.066406 701.695312 L 382.066406 693.664062 L 390.105469 693.664062 L 390.105469 685.621094 L 414.238281 685.621094 L 414.238281 693.664062 L 406.195312 693.664062 L 406.195312 709.726562 L 382.066406 709.726562 " fill-opacity="1" fill-rule="nonzero"/></g><path fill="#63c442" d="M 494.675781 806.160156 L 494.671875 798.125 L 510.761719 798.117188 L 510.757812 790.085938 L 518.808594 790.082031 L 518.8125 798.125 L 526.855469 798.117188 L 526.859375 806.160156 L 494.675781 806.160156 " fill-opacity="1" fill-rule="nonzero"/><path fill="#63c442" d="M 518.808594 798.125 L 526.855469 798.125 L 526.855469 806.15625 L 494.675781 806.15625 L 494.675781 798.125 L 510.761719 798.125 L 510.761719 790.085938 L 518.808594 790.085938 L 518.808594 798.125 " fill-opacity="1" fill-rule="nonzero"/><path fill="#63c442" d="M 390.105469 782.058594 L 390.097656 774.015625 L 398.144531 774.011719 L 398.140625 765.980469 L 406.195312 765.972656 L 406.191406 757.949219 L 430.320312 757.941406 L 430.328125 765.980469 L 422.28125 765.984375 L 422.289062 774.015625 L 406.195312 774.023438 L 406.203125 782.058594 L 390.105469 782.058594 " fill-opacity="1" fill-rule="nonzero"/><path fill="#63c442" d="M 430.320312 757.949219 L 430.320312 765.980469 L 422.28125 765.980469 L 422.28125 774.015625 L 406.195312 774.015625 L 406.195312 782.054688 L 390.105469 782.054688 L 390.105469 774.015625 L 398.144531 774.015625 L 398.144531 765.980469 L 406.195312 765.980469 L 406.195312 757.949219 L 430.320312 757.949219 " fill-opacity="1" fill-rule="nonzero"/><g clip-path="url(#1ca88e39fa)"><path fill="#63c442" d="M 414.238281 677.59375 L 414.230469 661.511719 L 422.28125 661.507812 L 422.277344 653.484375 L 430.320312 653.476562 L 430.316406 645.445312 L 446.414062 645.4375 L 446.40625 637.40625 L 486.636719 637.402344 L 486.644531 645.445312 L 478.585938 645.449219 L 478.589844 653.484375 L 470.546875 653.488281 L 470.550781 661.511719 L 430.320312 661.519531 L 430.328125 669.546875 L 422.28125 669.550781 L 422.289062 677.59375 L 414.238281 677.59375 " fill-opacity="1" fill-rule="nonzero"/><path fill="#63c442" d="M 478.585938 653.484375 L 470.546875 653.484375 L 470.546875 661.511719 L 430.320312 661.511719 L 430.320312 669.546875 L 422.28125 669.546875 L 422.28125 677.589844 L 414.238281 677.589844 L 414.238281 661.511719 L 422.28125 661.511719 L 422.28125 653.484375 L 430.320312 653.484375 L 430.320312 645.445312 L 446.414062 645.445312 L 446.414062 637.40625 L 486.636719 637.40625 L 486.636719 645.445312 L 478.585938 645.445312 L 478.585938 653.484375 " fill-opacity="1" fill-rule="nonzero"/></g><path fill="#63c442" d="M 478.585938 733.84375 L 478.582031 725.800781 L 494.675781 725.796875 L 494.671875 717.765625 L 502.714844 717.761719 L 502.710938 709.726562 L 518.808594 709.722656 L 518.804688 701.695312 L 542.933594 701.691406 L 542.9375 725.800781 L 518.808594 725.808594 L 518.8125 733.84375 L 478.585938 733.84375 " fill-opacity="1" fill-rule="nonzero"/><path fill="#63c442" d="M 478.585938 733.839844 L 478.585938 725.800781 L 494.675781 725.800781 L 494.675781 717.765625 L 502.714844 717.765625 L 502.714844 709.726562 L 518.808594 709.726562 L 518.808594 701.695312 L 542.933594 701.695312 L 542.933594 725.800781 L 518.808594 725.800781 L 518.808594 733.839844 L 478.585938 733.839844 " fill-opacity="1" fill-rule="nonzero"/><path fill="#63c442" d="M 518.808594 774.023438 L 518.804688 765.980469 L 526.855469 765.972656 L 526.847656 757.949219 L 542.933594 757.941406 L 542.929688 749.90625 L 559.027344 749.898438 L 559.019531 741.871094 L 575.117188 741.867188 L 575.121094 749.90625 L 567.078125 749.910156 L 567.085938 757.949219 L 550.988281 757.953125 L 550.992188 765.980469 L 534.894531 765.984375 L 534.898438 774.023438 L 518.808594 774.023438 " fill-opacity="1" fill-rule="nonzero"/><path fill="#63c442" d="M 575.117188 741.871094 L 575.117188 749.90625 L 567.078125 749.90625 L 567.078125 757.949219 L 550.988281 757.949219 L 550.988281 765.980469 L 534.894531 765.980469 L 534.894531 774.015625 L 518.808594 774.015625 L 518.808594 765.980469 L 526.855469 765.980469 L 526.855469 757.949219 L 542.933594 757.949219 L 542.933594 749.90625 L 559.027344 749.90625 L 559.027344 741.871094 L 575.117188 741.871094 " fill-opacity="1" fill-rule="nonzero"/><path fill="#398b40" d="M 382.066406 790.09375 L 382.058594 782.054688 L 374.011719 782.058594 L 374.007812 774.015625 L 382.066406 774.011719 L 382.058594 765.980469 L 398.144531 765.972656 L 398.152344 774.015625 L 390.105469 774.023438 L 390.109375 782.054688 L 406.195312 782.046875 L 406.191406 774.015625 L 422.28125 774.011719 L 422.277344 765.980469 L 446.414062 765.972656 L 446.417969 774.015625 L 430.320312 774.023438 L 430.328125 782.054688 L 422.28125 782.058594 L 422.289062 790.09375 L 382.066406 790.09375 " fill-opacity="1" fill-rule="nonzero"/><path fill="#398b40" d="M 446.414062 765.980469 L 446.414062 774.015625 L 430.320312 774.015625 L 430.320312 782.054688 L 422.28125 782.054688 L 422.28125 790.085938 L 382.066406 790.085938 L 382.066406 782.054688 L 374.011719 782.054688 L 374.011719 774.015625 L 382.066406 774.015625 L 382.066406 765.980469 L 398.144531 765.980469 L 398.144531 774.015625 L 390.105469 774.015625 L 390.105469 782.054688 L 406.195312 782.054688 L 406.195312 774.015625 L 422.28125 774.015625 L 422.28125 765.980469 L 446.414062 765.980469 " fill-opacity="1" fill-rule="nonzero"/><path fill="#398b40" d="M 365.972656 725.808594 L 365.96875 717.765625 L 382.066406 717.761719 L 382.058594 709.726562 L 406.195312 709.722656 L 406.191406 693.664062 L 414.238281 693.660156 L 414.230469 685.621094 L 422.28125 685.613281 L 422.289062 693.664062 L 438.367188 693.660156 L 438.375 701.695312 L 454.453125 701.691406 L 454.449219 693.664062 L 446.414062 693.671875 L 446.40625 685.621094 L 430.320312 685.628906 L 430.316406 677.589844 L 422.28125 677.59375 L 422.277344 669.546875 L 430.320312 669.539062 L 430.316406 661.511719 L 470.546875 661.507812 L 470.539062 653.484375 L 510.761719 653.476562 L 510.769531 661.511719 L 518.808594 661.507812 L 518.8125 669.546875 L 526.855469 669.539062 L 526.859375 677.589844 L 518.808594 677.59375 L 518.8125 685.621094 L 494.675781 685.628906 L 494.683594 693.664062 L 486.636719 693.671875 L 486.644531 701.695312 L 462.496094 701.703125 L 462.5 709.726562 L 446.414062 709.734375 L 446.417969 717.765625 L 406.195312 717.769531 L 406.203125 725.808594 L 365.972656 725.808594 " fill-opacity="1" fill-rule="nonzero"/><path fill="#398b40" d="M 462.496094 709.726562 L 446.414062 709.726562 L 446.414062 717.765625 L 406.195312 717.765625 L 406.195312 725.800781 L 365.972656 725.800781 L 365.972656 717.765625 L 382.066406 717.765625 L 382.066406 709.726562 L 406.195312 709.726562 L 406.195312 693.664062 L 414.238281 693.664062 L 414.238281 685.621094 L 422.28125 685.621094 L 422.28125 693.664062 L 438.367188 693.664062 L 438.367188 701.695312 L 454.453125 701.695312 L 454.453125 693.664062 L 446.414062 693.664062 L 446.414062 685.621094 L 430.320312 685.621094 L 430.320312 677.589844 L 422.28125 677.589844 L 422.28125 669.546875 L 430.320312 669.546875 L 430.320312 661.511719 L 470.546875 661.511719 L 470.546875 653.484375 L 510.761719 653.484375 L 510.761719 661.511719 L 518.808594 661.511719 L 518.808594 669.546875 L 526.855469 669.546875 L 526.855469 677.589844 L 518.808594 677.589844 L 518.808594 685.621094 L 494.675781 685.621094 L 494.675781 693.664062 L 486.636719 693.664062 L 486.636719 701.695312 L 462.496094 701.695312 L 462.496094 709.726562 " fill-opacity="1" fill-rule="nonzero"/><path fill="#398b40" d="M 462.496094 814.199219 L 462.488281 806.15625 L 470.546875 806.148438 L 470.539062 798.125 L 494.675781 798.117188 L 494.683594 806.15625 L 486.636719 806.160156 L 486.644531 814.199219 L 462.496094 814.199219 " fill-opacity="1" fill-rule="nonzero"/><path fill="#398b40" d="M 494.675781 798.125 L 494.675781 806.15625 L 486.636719 806.15625 L 486.636719 814.191406 L 462.496094 814.191406 L 462.496094 806.15625 L 470.546875 806.15625 L 470.546875 798.125 L 494.675781 798.125 " fill-opacity="1" fill-rule="nonzero"/><path fill="#398b40" d="M 542.933594 725.808594 L 542.929688 709.726562 L 550.988281 709.722656 L 550.992188 725.808594 L 542.933594 725.808594 " fill-opacity="1" fill-rule="nonzero"/><path fill="#398b40" d="M 550.988281 725.800781 L 542.933594 725.800781 L 542.933594 709.726562 L 550.988281 709.726562 L 550.988281 725.800781 " fill-opacity="1" fill-rule="nonzero"/><path fill="#398b40" d="M 502.714844 814.199219 L 502.710938 806.15625 L 526.855469 806.148438 L 526.847656 798.125 L 518.808594 798.128906 L 518.804688 782.054688 L 534.894531 782.046875 L 534.898438 790.085938 L 542.933594 790.082031 L 542.9375 806.15625 L 559.027344 806.148438 L 559.03125 814.199219 L 502.714844 814.199219 " fill-opacity="1" fill-rule="nonzero"/><path fill="#398b40" d="M 534.894531 782.054688 L 534.894531 790.085938 L 542.933594 790.085938 L 542.933594 806.15625 L 559.027344 806.15625 L 559.027344 814.191406 L 502.714844 814.191406 L 502.714844 806.15625 L 526.855469 806.15625 L 526.855469 798.125 L 518.808594 798.125 L 518.808594 782.054688 L 534.894531 782.054688 " fill-opacity="1" fill-rule="nonzero"/><path fill="#398b40" d="M 478.585938 741.878906 L 478.582031 733.839844 L 518.808594 733.835938 L 518.804688 725.800781 L 542.933594 725.796875 L 542.9375 733.839844 L 526.855469 733.84375 L 526.859375 741.878906 L 478.585938 741.878906 " fill-opacity="1" fill-rule="nonzero"/><path fill="#398b40" d="M 542.933594 725.800781 L 542.933594 733.839844 L 526.855469 733.839844 L 526.855469 741.871094 L 478.585938 741.871094 L 478.585938 733.839844 L 518.808594 733.839844 L 518.808594 725.800781 L 542.933594 725.800781 " fill-opacity="1" fill-rule="nonzero"/><path fill="#398b40" d="M 494.675781 798.128906 L 494.671875 790.085938 L 510.761719 790.082031 L 510.769531 798.128906 L 494.675781 798.128906 " fill-opacity="1" fill-rule="nonzero"/><path fill="#398b40" d="M 494.675781 798.125 L 494.675781 790.085938 L 510.761719 790.085938 L 510.761719 798.125 L 494.675781 798.125 " fill-opacity="1" fill-rule="nonzero"/><path fill="#398b40" d="M 559.027344 790.09375 L 559.019531 782.054688 L 534.894531 782.058594 L 534.890625 765.980469 L 550.988281 765.972656 L 550.980469 757.949219 L 567.078125 757.941406 L 567.074219 749.90625 L 583.15625 749.898438 L 583.164062 774.015625 L 591.203125 774.011719 L 591.210938 782.054688 L 575.117188 782.058594 L 575.121094 790.09375 L 559.027344 790.09375 " fill-opacity="1" fill-rule="nonzero"/><path fill="#398b40" d="M 591.203125 774.015625 L 591.203125 782.054688 L 575.117188 782.054688 L 575.117188 790.085938 L 559.027344 790.085938 L 559.027344 782.054688 L 534.894531 782.054688 L 534.894531 765.980469 L 550.988281 765.980469 L 550.988281 757.949219 L 567.078125 757.949219 L 567.078125 749.90625 L 583.15625 749.90625 L 583.15625 774.015625 L 591.203125 774.015625 " fill-opacity="1" fill-rule="nonzero"/><path fill="#1f373a" d="M 494.675781 790.09375 L 494.671875 782.054688 L 518.808594 782.046875 L 518.8125 790.09375 L 494.675781 790.09375 " fill-opacity="1" fill-rule="nonzero"/><path fill="#1f373a" d="M 494.675781 790.085938 L 494.675781 782.054688 L 518.808594 782.054688 L 518.808594 790.085938 L 494.675781 790.085938 " fill-opacity="1" fill-rule="nonzero"/><path fill="#1f373a" d="M 486.636719 822.238281 L 486.632812 806.15625 L 502.714844 806.148438 L 502.722656 814.191406 L 534.894531 814.1875 L 534.898438 822.238281 L 486.636719 822.238281 " fill-opacity="1" fill-rule="nonzero"/><path fill="#1f373a" d="M 534.894531 814.191406 L 534.894531 822.230469 L 486.636719 822.230469 L 486.636719 806.15625 L 502.714844 806.15625 L 502.714844 814.191406 L 534.894531 814.191406 " fill-opacity="1" fill-rule="nonzero"/><path fill="#1f373a" d="M 526.855469 782.058594 L 526.847656 774.015625 L 534.894531 774.011719 L 534.898438 782.058594 L 526.855469 782.058594 " fill-opacity="1" fill-rule="nonzero"/><path fill="#1f373a" d="M 534.894531 774.015625 L 534.894531 782.054688 L 526.855469 782.054688 L 526.855469 774.015625 L 534.894531 774.015625 " fill-opacity="1" fill-rule="nonzero"/><path fill="#1f373a" d="M 502.714844 749.910156 L 502.710938 741.871094 L 526.855469 741.867188 L 526.847656 733.839844 L 542.933594 733.835938 L 542.929688 725.800781 L 550.988281 725.796875 L 550.980469 717.765625 L 559.027344 717.761719 L 559.03125 733.839844 L 550.988281 733.84375 L 550.992188 741.871094 L 534.894531 741.878906 L 534.898438 749.910156 L 502.714844 749.910156 " fill-opacity="1" fill-rule="nonzero"/><path fill="#1f373a" d="M 542.933594 733.839844 L 542.933594 725.800781 L 550.988281 725.800781 L 550.988281 717.765625 L 559.027344 717.765625 L 559.027344 733.839844 L 550.988281 733.839844 L 550.988281 741.871094 L 534.894531 741.871094 L 534.894531 749.90625 L 502.714844 749.90625 L 502.714844 741.871094 L 526.855469 741.871094 L 526.855469 733.839844 L 542.933594 733.839844 " fill-opacity="1" fill-rule="nonzero"/><g clip-path="url(#7ef864cab1)"><path fill="#1f373a" d="M 550.988281 798.128906 L 550.980469 790.085938 L 534.894531 790.09375 L 534.890625 782.054688 L 559.027344 782.046875 L 559.03125 790.085938 L 575.117188 790.082031 L 575.113281 782.054688 L 591.203125 782.046875 L 591.199219 774.015625 L 583.15625 774.023438 L 583.152344 757.949219 L 591.203125 757.941406 L 591.210938 765.980469 L 599.25 765.972656 L 599.253906 774.015625 L 607.296875 774.011719 L 607.300781 782.054688 L 599.25 782.058594 L 599.253906 790.085938 L 583.15625 790.09375 L 583.164062 798.128906 L 550.988281 798.128906 " fill-opacity="1" fill-rule="nonzero"/><path fill="#1f373a" d="M 607.296875 774.015625 L 607.296875 782.054688 L 599.25 782.054688 L 599.25 790.085938 L 583.15625 790.085938 L 583.15625 798.125 L 550.988281 798.125 L 550.988281 790.085938 L 534.894531 790.085938 L 534.894531 782.054688 L 559.027344 782.054688 L 559.027344 790.085938 L 575.117188 790.085938 L 575.117188 782.054688 L 591.203125 782.054688 L 591.203125 774.015625 L 583.15625 774.015625 L 583.15625 757.949219 L 591.203125 757.949219 L 591.203125 765.980469 L 599.25 765.980469 L 599.25 774.015625 L 607.296875 774.015625 " fill-opacity="1" fill-rule="nonzero"/></g><path fill="#1f373a" d="M 438.367188 701.703125 L 438.363281 693.664062 L 422.28125 693.671875 L 422.277344 685.621094 L 414.238281 685.628906 L 414.230469 677.589844 L 430.320312 677.582031 L 430.328125 685.621094 L 446.414062 685.613281 L 446.417969 693.664062 L 454.453125 693.660156 L 454.460938 701.703125 L 438.367188 701.703125 " fill-opacity="1" fill-rule="nonzero"/><path fill="#1f373a" d="M 422.28125 685.621094 L 414.238281 685.621094 L 414.238281 677.589844 L 430.320312 677.589844 L 430.320312 685.621094 L 446.414062 685.621094 L 446.414062 693.664062 L 454.453125 693.664062 L 454.453125 701.695312 L 438.367188 701.695312 L 438.367188 693.664062 L 422.28125 693.664062 L 422.28125 685.621094 " fill-opacity="1" fill-rule="nonzero"/><path fill="#1f373a" d="M 398.144531 741.878906 L 398.140625 733.839844 L 390.105469 733.84375 L 390.097656 725.800781 L 406.195312 725.796875 L 406.191406 717.765625 L 446.414062 717.761719 L 446.40625 709.726562 L 462.496094 709.722656 L 462.488281 701.695312 L 486.636719 701.691406 L 486.632812 693.664062 L 494.675781 693.660156 L 494.671875 685.621094 L 518.808594 685.613281 L 518.804688 677.589844 L 534.894531 677.582031 L 534.898438 685.621094 L 526.855469 685.628906 L 526.859375 693.664062 L 502.714844 693.671875 L 502.722656 701.695312 L 494.675781 701.703125 L 494.683594 709.726562 L 470.546875 709.734375 L 470.550781 717.765625 L 454.453125 717.769531 L 454.460938 725.800781 L 422.28125 725.808594 L 422.289062 733.839844 L 414.238281 733.84375 L 414.242188 741.878906 L 398.144531 741.878906 " fill-opacity="1" fill-rule="nonzero"/><path fill="#1f373a" d="M 470.546875 709.726562 L 470.546875 717.765625 L 454.453125 717.765625 L 454.453125 725.800781 L 422.28125 725.800781 L 422.28125 733.839844 L 414.238281 733.839844 L 414.238281 741.871094 L 398.144531 741.871094 L 398.144531 733.839844 L 390.105469 733.839844 L 390.105469 725.800781 L 406.195312 725.800781 L 406.195312 717.765625 L 446.414062 717.765625 L 446.414062 709.726562 L 462.496094 709.726562 L 462.496094 701.695312 L 486.636719 701.695312 L 486.636719 693.664062 L 494.675781 693.664062 L 494.675781 685.621094 L 518.808594 685.621094 L 518.808594 677.589844 L 534.894531 677.589844 L 534.894531 685.621094 L 526.855469 685.621094 L 526.855469 693.664062 L 502.714844 693.664062 L 502.714844 701.695312 L 494.675781 701.695312 L 494.675781 709.726562 L 470.546875 709.726562 " fill-opacity="1" fill-rule="nonzero"/><path fill="#1f373a" d="M 430.320312 765.984375 L 430.316406 757.949219 L 438.367188 757.941406 L 438.375 765.984375 L 430.320312 765.984375 " fill-opacity="1" fill-rule="nonzero"/><path fill="#1f373a" d="M 438.367188 765.980469 L 430.320312 765.980469 L 430.320312 757.949219 L 438.367188 757.949219 L 438.367188 765.980469 " fill-opacity="1" fill-rule="nonzero"/><path fill="#1f373a" d="M 398.144531 798.128906 L 398.140625 790.085938 L 422.28125 790.082031 L 422.277344 782.054688 L 430.320312 782.046875 L 430.316406 774.015625 L 454.453125 774.011719 L 454.460938 782.054688 L 438.367188 782.058594 L 438.375 790.085938 L 430.320312 790.09375 L 430.328125 798.128906 L 398.144531 798.128906 " fill-opacity="1" fill-rule="nonzero"/><path fill="#1f373a" d="M 454.453125 774.015625 L 454.453125 782.054688 L 438.367188 782.054688 L 438.367188 790.085938 L 430.320312 790.085938 L 430.320312 798.125 L 398.144531 798.125 L 398.144531 790.085938 L 422.28125 790.085938 L 422.28125 782.054688 L 430.320312 782.054688 L 430.320312 774.015625 L 454.453125 774.015625 " fill-opacity="1" fill-rule="nonzero"/><path fill="#1f373a" d="M 478.585938 798.128906 L 478.582031 790.085938 L 494.675781 790.082031 L 494.683594 798.128906 L 478.585938 798.128906 " fill-opacity="1" fill-rule="nonzero"/><path fill="#1f373a" d="M 478.585938 798.125 L 478.585938 790.085938 L 494.675781 790.085938 L 494.675781 798.125 L 478.585938 798.125 " fill-opacity="1" fill-rule="nonzero"/><path fill="#5c4f2f" d="M 454.453125 774.023438 L 454.449219 765.980469 L 462.496094 765.972656 L 462.5 774.023438 L 454.453125 774.023438 " fill-opacity="1" fill-rule="nonzero"/><path fill="#5c4f2f" d="M 462.496094 765.980469 L 462.496094 774.015625 L 454.453125 774.015625 L 454.453125 765.980469 L 462.496094 765.980469 " fill-opacity="1" fill-rule="nonzero"/><path fill="#5c4f2f" d="M 406.195312 757.953125 L 406.191406 749.90625 L 414.238281 749.898438 L 414.242188 757.953125 L 406.195312 757.953125 " fill-opacity="1" fill-rule="nonzero"/><path fill="#5c4f2f" d="M 414.238281 757.949219 L 406.195312 757.949219 L 406.195312 749.90625 L 414.238281 749.90625 L 414.238281 757.949219 " fill-opacity="1" fill-rule="nonzero"/><path fill="#5c4f2f" d="M 414.238281 749.910156 L 414.230469 741.871094 L 422.28125 741.867188 L 422.289062 749.910156 L 414.238281 749.910156 " fill-opacity="1" fill-rule="nonzero"/><path fill="#5c4f2f" d="M 422.28125 749.90625 L 414.238281 749.90625 L 414.238281 741.871094 L 422.28125 741.871094 L 422.28125 749.90625 " fill-opacity="1" fill-rule="nonzero"/><path fill="#5c4f2f" d="M 398.144531 765.984375 L 398.140625 757.949219 L 406.195312 757.941406 L 406.203125 765.984375 L 398.144531 765.984375 " fill-opacity="1" fill-rule="nonzero"/><path fill="#5c4f2f" d="M 406.195312 765.980469 L 398.144531 765.980469 L 398.144531 757.949219 L 406.195312 757.949219 L 406.195312 765.980469 " fill-opacity="1" fill-rule="nonzero"/><path fill="#5c4f2f" d="M 422.28125 733.84375 L 422.277344 725.800781 L 430.320312 725.796875 L 430.328125 733.84375 L 422.28125 733.84375 " fill-opacity="1" fill-rule="nonzero"/><path fill="#5c4f2f" d="M 430.320312 733.839844 L 422.28125 733.839844 L 422.28125 725.800781 L 430.320312 725.800781 L 430.320312 733.839844 " fill-opacity="1" fill-rule="nonzero"/><g clip-path="url(#821c874ca7)"><path fill="#5c4f2f" d="M 430.320312 862.417969 L 430.316406 854.371094 L 414.238281 854.375 L 414.242188 862.414062 L 398.144531 862.417969 L 398.140625 854.371094 L 406.195312 854.363281 L 406.191406 838.304688 L 414.238281 838.300781 L 414.230469 830.261719 L 430.320312 830.257812 L 430.316406 822.230469 L 446.414062 822.226562 L 446.417969 830.261719 L 454.453125 830.257812 L 454.460938 838.304688 L 446.414062 838.3125 L 446.417969 862.417969 L 430.320312 862.417969 " fill-opacity="1" fill-rule="nonzero"/><path fill="#5c4f2f" d="M 446.414062 830.261719 L 454.453125 830.261719 L 454.453125 838.304688 L 446.414062 838.304688 L 446.414062 862.414062 L 430.320312 862.414062 L 430.320312 854.371094 L 414.238281 854.371094 L 414.238281 862.414062 L 398.144531 862.414062 L 398.144531 854.371094 L 406.195312 854.371094 L 406.195312 838.304688 L 414.238281 838.304688 L 414.238281 830.261719 L 430.320312 830.261719 L 430.320312 822.230469 L 446.414062 822.230469 L 446.414062 830.261719 " fill-opacity="1" fill-rule="nonzero"/></g><path fill="#5c4f2f" d="M 462.496094 798.128906 L 462.488281 790.085938 L 454.453125 790.09375 L 454.449219 782.054688 L 462.496094 782.046875 L 462.488281 774.015625 L 470.546875 774.011719 L 470.550781 782.054688 L 478.585938 782.046875 L 478.589844 790.085938 L 470.546875 790.09375 L 470.550781 798.128906 L 462.496094 798.128906 " fill-opacity="1" fill-rule="nonzero"/><path fill="#5c4f2f" d="M 478.585938 782.054688 L 478.585938 790.085938 L 470.546875 790.085938 L 470.546875 798.125 L 462.496094 798.125 L 462.496094 790.085938 L 454.453125 790.085938 L 454.453125 782.054688 L 462.496094 782.054688 L 462.496094 774.015625 L 470.546875 774.015625 L 470.546875 782.054688 L 478.585938 782.054688 " fill-opacity="1" fill-rule="nonzero"/><path fill="#3a301e" d="M 446.414062 774.023438 L 446.40625 765.980469 L 454.453125 765.972656 L 454.460938 774.023438 L 446.414062 774.023438 " fill-opacity="1" fill-rule="nonzero"/><path fill="#3a301e" d="M 454.453125 765.980469 L 454.453125 774.015625 L 446.414062 774.015625 L 446.414062 765.980469 L 454.453125 765.980469 " fill-opacity="1" fill-rule="nonzero"/><path fill="#3a301e" d="M 430.320312 846.34375 L 430.316406 838.304688 L 438.367188 838.300781 L 438.375 846.34375 L 430.320312 846.34375 " fill-opacity="1" fill-rule="nonzero"/><path fill="#3a301e" d="M 430.320312 838.304688 L 438.367188 838.304688 L 438.367188 846.335938 L 430.320312 846.335938 L 430.320312 838.304688 " fill-opacity="1" fill-rule="nonzero"/><path fill="#3a301e" d="M 414.238281 757.953125 L 414.230469 749.90625 L 422.28125 749.898438 L 422.277344 733.839844 L 430.320312 733.835938 L 430.316406 725.800781 L 470.546875 725.796875 L 470.550781 733.839844 L 478.585938 733.835938 L 478.589844 741.871094 L 446.414062 741.878906 L 446.417969 749.90625 L 430.320312 749.910156 L 430.328125 757.953125 L 414.238281 757.953125 " fill-opacity="1" fill-rule="nonzero"/><path fill="#3a301e" d="M 414.238281 757.949219 L 414.238281 749.90625 L 422.28125 749.90625 L 422.28125 733.839844 L 430.320312 733.839844 L 430.320312 725.800781 L 470.546875 725.800781 L 470.546875 733.839844 L 478.585938 733.839844 L 478.585938 741.871094 L 446.414062 741.871094 L 446.414062 749.90625 L 430.320312 749.90625 L 430.320312 757.949219 L 414.238281 757.949219 " fill-opacity="1" fill-rule="nonzero"/><g clip-path="url(#6fbf07e368)"><path fill="#3a301e" d="M 414.238281 862.417969 L 414.230469 854.371094 L 430.320312 854.363281 L 430.328125 862.417969 L 414.238281 862.417969 " fill-opacity="1" fill-rule="nonzero"/><path fill="#3a301e" d="M 430.320312 854.371094 L 430.320312 862.414062 L 414.238281 862.414062 L 414.238281 854.371094 L 430.320312 854.371094 " fill-opacity="1" fill-rule="nonzero"/></g><g clip-path="url(#6c62d8d1bc)"><path fill="#3a301e" d="M 446.414062 862.417969 L 446.40625 838.304688 L 454.453125 838.300781 L 454.449219 830.261719 L 446.414062 830.265625 L 446.40625 814.191406 L 454.453125 814.1875 L 454.449219 798.125 L 446.414062 798.128906 L 446.40625 790.085938 L 438.367188 790.09375 L 438.363281 782.054688 L 454.453125 782.046875 L 454.449219 774.015625 L 462.496094 774.011719 L 462.5 782.054688 L 470.546875 782.046875 L 470.539062 774.015625 L 478.585938 774.011719 L 478.589844 782.054688 L 494.675781 782.046875 L 494.683594 790.085938 L 478.585938 790.09375 L 478.589844 798.125 L 470.546875 798.128906 L 470.550781 806.15625 L 462.496094 806.160156 L 462.5 814.191406 L 486.636719 814.1875 L 486.644531 822.230469 L 470.546875 822.238281 L 470.550781 830.261719 L 478.585938 830.257812 L 478.589844 838.304688 L 486.636719 838.300781 L 486.644531 846.335938 L 494.675781 846.332031 L 494.683594 854.371094 L 502.714844 854.363281 L 502.722656 862.417969 L 446.414062 862.417969 " fill-opacity="1" fill-rule="nonzero"/><path fill="#3a301e" d="M 502.714844 854.371094 L 502.714844 862.414062 L 446.414062 862.414062 L 446.414062 838.304688 L 454.453125 838.304688 L 454.453125 830.261719 L 446.414062 830.261719 L 446.414062 814.191406 L 454.453125 814.191406 L 454.453125 798.125 L 446.414062 798.125 L 446.414062 790.085938 L 438.367188 790.085938 L 438.367188 782.054688 L 454.453125 782.054688 L 454.453125 774.015625 L 462.496094 774.015625 L 462.496094 782.054688 L 470.546875 782.054688 L 470.546875 774.015625 L 478.585938 774.015625 L 478.585938 782.054688 L 494.675781 782.054688 L 494.675781 790.085938 L 478.585938 790.085938 L 478.585938 798.125 L 470.546875 798.125 L 470.546875 806.15625 L 462.496094 806.15625 L 462.496094 814.191406 L 486.636719 814.191406 L 486.636719 822.230469 L 470.546875 822.230469 L 470.546875 830.261719 L 478.585938 830.261719 L 478.585938 838.304688 L 486.636719 838.304688 L 486.636719 846.335938 L 494.675781 846.335938 L 494.675781 854.371094 L 502.714844 854.371094 " fill-opacity="1" fill-rule="nonzero"/></g><g fill="#ffffff" fill-opacity="1"><g transform="translate(663.90725, 786.74996)"><g><path d="M 7.203125 17.984375 L 7.203125 -49.984375 L 12 -49.984375 L 13.6875 -43.1875 L 14.1875 -43.1875 C 14.851562 -44.113281 15.9375 -45.175781 17.4375 -46.375 C 18.9375 -47.570312 20.800781 -48.632812 23.03125 -49.5625 C 25.269531 -50.5 27.65625 -50.96875 30.1875 -50.96875 C 34.382812 -50.96875 38.234375 -49.867188 41.734375 -47.671875 C 45.234375 -45.472656 48.015625 -42.390625 50.078125 -38.421875 C 52.140625 -34.460938 53.171875 -29.984375 53.171875 -24.984375 C 53.171875 -19.984375 52.140625 -15.5 50.078125 -11.53125 C 48.015625 -7.570312 45.234375 -4.492188 41.734375 -2.296875 C 38.234375 -0.0976562 34.382812 1 30.1875 1 C 27.65625 1 25.269531 0.535156 23.03125 -0.390625 C 20.800781 -1.328125 18.921875 -2.394531 17.390625 -3.59375 C 15.859375 -4.789062 14.789062 -5.859375 14.1875 -6.796875 L 13.6875 -6.796875 L 13.6875 17.984375 Z M 30.1875 -5.09375 C 33.1875 -5.09375 35.953125 -5.925781 38.484375 -7.59375 C 41.015625 -9.257812 43.007812 -11.609375 44.46875 -14.640625 C 45.9375 -17.671875 46.671875 -21.117188 46.671875 -24.984375 C 46.671875 -28.847656 45.9375 -32.296875 44.46875 -35.328125 C 43.007812 -38.359375 41.015625 -40.707031 38.484375 -42.375 C 35.953125 -44.039062 33.1875 -44.875 30.1875 -44.875 C 27.1875 -44.875 24.421875 -44.039062 21.890625 -42.375 C 19.359375 -40.707031 17.359375 -38.359375 15.890625 -35.328125 C 14.421875 -32.296875 13.6875 -28.847656 13.6875 -24.984375 C 13.6875 -21.117188 14.421875 -17.671875 15.890625 -14.640625 C 17.359375 -11.609375 19.359375 -9.257812 21.890625 -7.59375 C 24.421875 -5.925781 27.1875 -5.09375 30.1875 -5.09375 Z M 30.1875 -5.09375 "/></g></g></g><g fill="#ffffff" fill-opacity="1"><g transform="translate(720.97829, 786.74996)"><g><path d="M 32.484375 -35.484375 L 55.578125 0 L 47.375 0 L 28.390625 -29.78125 L 9.203125 0 L 1.5 0 L 24.484375 -35.484375 L 2.59375 -69.96875 L 10.59375 -69.96875 L 28.6875 -41.28125 L 46.671875 -69.96875 L 54.46875 -69.96875 Z M 32.484375 -35.484375 "/></g></g></g><g fill="#ffffff" fill-opacity="1"><g transform="translate(775.050532, 786.74996)"><g/></g></g><g fill="#ffffff" fill-opacity="1"><g transform="translate(798.838459, 786.74996)"><g><path d="M 26.890625 1 C 22.691406 1 18.84375 -0.0976562 15.34375 -2.296875 C 11.84375 -4.492188 9.054688 -7.570312 6.984375 -11.53125 C 4.921875 -15.5 3.890625 -19.984375 3.890625 -24.984375 C 3.890625 -29.984375 4.921875 -34.460938 6.984375 -38.421875 C 9.054688 -42.390625 11.84375 -45.472656 15.34375 -47.671875 C 18.84375 -49.867188 22.691406 -50.96875 26.890625 -50.96875 C 29.421875 -50.96875 31.800781 -50.5 34.03125 -49.5625 C 36.257812 -48.632812 38.140625 -47.570312 39.671875 -46.375 C 41.210938 -45.175781 42.28125 -44.113281 42.875 -43.1875 L 43.375 -43.1875 L 43.375 -69.96875 L 49.875 -69.96875 L 49.875 0 L 45.078125 0 L 43.375 -6.796875 L 42.875 -6.796875 C 42.207031 -5.859375 41.125 -4.789062 39.625 -3.59375 C 38.125 -2.394531 36.257812 -1.328125 34.03125 -0.390625 C 31.800781 0.535156 29.421875 1 26.890625 1 Z M 26.890625 -5.09375 C 29.890625 -5.09375 32.65625 -5.925781 35.1875 -7.59375 C 37.71875 -9.257812 39.710938 -11.609375 41.171875 -14.640625 C 42.640625 -17.671875 43.375 -21.117188 43.375 -24.984375 C 43.375 -28.847656 42.640625 -32.296875 41.171875 -35.328125 C 39.710938 -38.359375 37.71875 -40.707031 35.1875 -42.375 C 32.65625 -44.039062 29.890625 -44.875 26.890625 -44.875 C 23.890625 -44.875 21.125 -44.039062 18.59375 -42.375 C 16.0625 -40.707031 14.0625 -38.359375 12.59375 -35.328125 C 11.125 -32.296875 10.390625 -28.847656 10.390625 -24.984375 C 10.390625 -21.117188 11.125 -17.671875 12.59375 -14.640625 C 14.0625 -11.609375 16.0625 -9.257812 18.59375 -7.59375 C 21.125 -5.925781 23.890625 -5.09375 26.890625 -5.09375 Z M 26.890625 -5.09375 "/></g></g></g><g fill="#ffffff" fill-opacity="1"><g transform="translate(856.409263, 786.74996)"><g><path d="M 49.78125 -26.484375 C 49.78125 -24.421875 49.644531 -22.859375 49.375 -21.796875 L 10.59375 -21.796875 C 11.125 -16.660156 12.9375 -12.59375 16.03125 -9.59375 C 19.132812 -6.59375 22.988281 -5.09375 27.59375 -5.09375 C 33.71875 -5.09375 38.347656 -7.726562 41.484375 -13 L 47.984375 -13 C 46.441406 -8.925781 43.804688 -5.570312 40.078125 -2.9375 C 36.347656 -0.3125 32.117188 1 27.390625 1 C 22.992188 1 19.007812 -0.0976562 15.4375 -2.296875 C 11.875 -4.492188 9.054688 -7.554688 6.984375 -11.484375 C 4.921875 -15.421875 3.890625 -19.921875 3.890625 -24.984375 C 3.890625 -29.921875 4.9375 -34.367188 7.03125 -38.328125 C 9.132812 -42.296875 11.984375 -45.394531 15.578125 -47.625 C 19.179688 -49.851562 23.117188 -50.96875 27.390625 -50.96875 C 31.585938 -50.96875 35.398438 -49.882812 38.828125 -47.71875 C 42.265625 -45.5625 44.945312 -42.613281 46.875 -38.875 C 48.8125 -35.144531 49.78125 -31.015625 49.78125 -26.484375 Z M 27.390625 -44.875 C 24.585938 -44.875 21.96875 -44.15625 19.53125 -42.71875 C 17.101562 -41.289062 15.070312 -39.257812 13.4375 -36.625 C 11.8125 -34 10.832031 -31.019531 10.5 -27.6875 L 43.1875 -27.6875 C 42.851562 -32.6875 41.21875 -36.800781 38.28125 -40.03125 C 35.351562 -43.257812 31.722656 -44.875 27.390625 -44.875 Z M 27.390625 -44.875 "/></g></g></g><g fill="#ffffff" fill-opacity="1"><g transform="translate(910.082026, 786.74996)"><g><path d="M 22.296875 1 C 18.890625 1 15.820312 0.285156 13.09375 -1.140625 C 10.363281 -2.578125 8.195312 -4.492188 6.59375 -6.890625 C 5 -9.296875 4.097656 -11.832031 3.890625 -14.5 L 10.390625 -14.5 C 10.722656 -11.695312 11.921875 -9.425781 13.984375 -7.6875 C 16.054688 -5.957031 18.828125 -5.09375 22.296875 -5.09375 C 25.691406 -5.09375 28.304688 -5.859375 30.140625 -7.390625 C 31.972656 -8.929688 32.890625 -10.863281 32.890625 -13.1875 C 32.890625 -14.925781 32.351562 -16.359375 31.28125 -17.484375 C 30.21875 -18.617188 28.921875 -19.535156 27.390625 -20.234375 C 25.859375 -20.941406 23.691406 -21.726562 20.890625 -22.59375 C 17.492188 -23.65625 14.757812 -24.671875 12.6875 -25.640625 C 10.625 -26.609375 8.859375 -28.003906 7.390625 -29.828125 C 5.929688 -31.660156 5.203125 -34.046875 5.203125 -36.984375 C 5.203125 -39.578125 5.882812 -41.941406 7.25 -44.078125 C 8.613281 -46.210938 10.523438 -47.894531 12.984375 -49.125 C 15.453125 -50.351562 18.320312 -50.96875 21.59375 -50.96875 C 24.789062 -50.96875 27.65625 -50.300781 30.1875 -48.96875 C 32.71875 -47.644531 34.710938 -45.832031 36.171875 -43.53125 C 37.640625 -41.226562 38.476562 -38.710938 38.6875 -35.984375 L 32.1875 -35.984375 C 31.851562 -38.785156 30.785156 -40.96875 28.984375 -42.53125 C 27.179688 -44.09375 24.71875 -44.875 21.59375 -44.875 C 18.457031 -44.875 16.019531 -44.15625 14.28125 -42.71875 C 12.550781 -41.289062 11.6875 -39.476562 11.6875 -37.28125 C 11.6875 -34.882812 12.648438 -33.066406 14.578125 -31.828125 C 16.515625 -30.597656 19.484375 -29.351562 23.484375 -28.09375 C 26.890625 -26.957031 29.640625 -25.875 31.734375 -24.84375 C 33.835938 -23.8125 35.632812 -22.359375 37.125 -20.484375 C 38.625 -18.617188 39.375 -16.1875 39.375 -13.1875 C 39.375 -9.125 37.84375 -5.742188 34.78125 -3.046875 C 31.71875 -0.347656 27.554688 1 22.296875 1 Z M 22.296875 1 "/></g></g></g><g fill="#ffffff" fill-opacity="1"><g transform="translate(953.559981, 786.74996)"><g><path d="M 13.6875 0 L 7.203125 0 L 7.203125 -49.984375 L 13.6875 -49.984375 Z M 10.484375 -57.96875 C 9.222656 -57.96875 8.15625 -58.398438 7.28125 -59.265625 C 6.414062 -60.140625 5.984375 -61.207031 5.984375 -62.46875 C 5.984375 -63.800781 6.414062 -64.882812 7.28125 -65.71875 C 8.15625 -66.550781 9.222656 -66.96875 10.484375 -66.96875 C 11.816406 -66.96875 12.898438 -66.550781 13.734375 -65.71875 C 14.566406 -64.882812 14.984375 -63.800781 14.984375 -62.46875 C 14.984375 -61.207031 14.550781 -60.140625 13.6875 -59.265625 C 12.820312 -58.398438 11.753906 -57.96875 10.484375 -57.96875 Z M 10.484375 -57.96875 "/></g></g></g><g fill="#ffffff" fill-opacity="1"><g transform="translate(974.449383, 786.74996)"><g><path d="M 27.28125 18.984375 C 21.882812 18.984375 17.285156 17.617188 13.484375 14.890625 C 9.691406 12.160156 7.226562 8.492188 6.09375 3.890625 L 12.59375 3.890625 C 13.53125 6.691406 15.28125 8.890625 17.84375 10.484375 C 20.40625 12.085938 23.550781 12.890625 27.28125 12.890625 C 31.75 12.890625 35.347656 11.554688 38.078125 8.890625 C 40.816406 6.222656 42.1875 2.691406 42.1875 -1.703125 L 42.1875 -9.59375 L 41.6875 -9.59375 C 41.082031 -8.664062 40.046875 -7.582031 38.578125 -6.34375 C 37.117188 -5.113281 35.320312 -4.03125 33.1875 -3.09375 C 31.050781 -2.164062 28.75 -1.703125 26.28125 -1.703125 C 22.21875 -1.703125 18.46875 -2.765625 15.03125 -4.890625 C 11.601562 -7.023438 8.890625 -9.972656 6.890625 -13.734375 C 4.890625 -17.503906 3.890625 -21.6875 3.890625 -26.28125 C 3.890625 -30.945312 4.890625 -35.160156 6.890625 -38.921875 C 8.890625 -42.691406 11.601562 -45.640625 15.03125 -47.765625 C 18.46875 -49.898438 22.21875 -50.96875 26.28125 -50.96875 C 28.75 -50.96875 31.050781 -50.519531 33.1875 -49.625 C 35.320312 -48.726562 37.117188 -47.660156 38.578125 -46.421875 C 40.046875 -45.191406 41.082031 -44.113281 41.6875 -43.1875 L 42.1875 -43.1875 L 43.875 -49.984375 L 48.671875 -49.984375 L 48.671875 -1.703125 C 48.671875 2.359375 47.769531 5.957031 45.96875 9.09375 C 44.175781 12.226562 41.660156 14.660156 38.421875 16.390625 C 35.191406 18.117188 31.476562 18.984375 27.28125 18.984375 Z M 26.28125 -7.796875 C 29.082031 -7.796875 31.695312 -8.59375 34.125 -10.1875 C 36.5625 -11.789062 38.515625 -14.007812 39.984375 -16.84375 C 41.453125 -19.675781 42.1875 -22.820312 42.1875 -26.28125 C 42.1875 -29.8125 41.453125 -32.992188 39.984375 -35.828125 C 38.515625 -38.660156 36.5625 -40.875 34.125 -42.46875 C 31.695312 -44.070312 29.082031 -44.875 26.28125 -44.875 C 23.414062 -44.875 20.765625 -44.070312 18.328125 -42.46875 C 15.898438 -40.875 13.96875 -38.660156 12.53125 -35.828125 C 11.101562 -32.992188 10.390625 -29.8125 10.390625 -26.28125 C 10.390625 -22.820312 11.101562 -19.675781 12.53125 -16.84375 C 13.96875 -14.007812 15.898438 -11.789062 18.328125 -10.1875 C 20.765625 -8.59375 23.414062 -7.796875 26.28125 -7.796875 Z M 26.28125 -7.796875 "/></g></g></g><g fill="#ffffff" fill-opacity="1"><g transform="translate(1030.321037, 786.74996)"><g><path d="M 7.203125 0 L 7.203125 -49.984375 L 12 -49.984375 L 13.6875 -43.1875 L 14.1875 -43.1875 C 15.519531 -45.25 17.46875 -47.0625 20.03125 -48.625 C 22.601562 -50.1875 25.554688 -50.96875 28.890625 -50.96875 C 32.617188 -50.96875 36 -50.066406 39.03125 -48.265625 C 42.0625 -46.472656 44.441406 -43.910156 46.171875 -40.578125 C 47.910156 -37.242188 48.78125 -33.378906 48.78125 -28.984375 L 48.78125 0 L 42.28125 0 L 42.28125 -28.984375 C 42.28125 -33.921875 40.976562 -37.800781 38.375 -40.625 C 35.78125 -43.457031 32.414062 -44.875 28.28125 -44.875 C 23.882812 -44.875 20.351562 -43.457031 17.6875 -40.625 C 15.019531 -37.800781 13.6875 -33.921875 13.6875 -28.984375 L 13.6875 0 Z M 7.203125 0 "/></g></g></g></svg>