<svg xmlns="http://www.w3.org/2000/svg" xmlns:xlink="http://www.w3.org/1999/xlink" width="2000" zoomAndPan="magnify" viewBox="0 0 1500 1499.999933" height="2000" preserveAspectRatio="xMidYMid meet" version="1.0"><defs><g/><clipPath id="29a1971691"><path d="M 108 0.714844 L 247 0.714844 L 247 78 L 108 78 Z M 108 0.714844 " clip-rule="nonzero"/></clipPath><clipPath id="9931f9635c"><path d="M 338 231 L 477.164062 231 L 477.164062 308.835938 L 338 308.835938 Z M 338 231 " clip-rule="nonzero"/></clipPath><clipPath id="335b86590c"><path d="M 77 354 L 185 354 L 185 430.910156 L 77 430.910156 Z M 77 354 " clip-rule="nonzero"/></clipPath><clipPath id="6867ba786f"><path d="M 108 415 L 139 415 L 139 430.910156 L 108 430.910156 Z M 108 415 " clip-rule="nonzero"/></clipPath><clipPath id="33f46370b6"><path d="M 154 261.761719 L 277.738281 261.761719 L 277.738281 430.910156 L 154 430.910156 Z M 154 261.761719 " clip-rule="nonzero"/></clipPath><clipPath id="295e7cce7f"><rect x="0" width="1393" y="0" height="433"/></clipPath></defs><rect x="-150" width="1800" fill="#ffffff" y="-149.999993" height="1799.99992" fill-opacity="1"/><rect x="-150" width="1800" fill="#091057" y="-149.999993" height="1799.99992" fill-opacity="1"/><g transform="matrix(1, 0, 0, 1, 0, 534)"><g clip-path="url(#295e7cce7f)"><path fill="#63c442" d="M 0.375 154.378906 L 0.363281 139 L 15.757812 138.992188 L 15.746094 123.644531 L 46.523438 123.632812 L 46.511719 108.289062 L 61.894531 108.28125 L 61.882812 92.910156 L 108.035156 92.894531 L 108.042969 108.289062 L 92.660156 108.300781 L 92.671875 139 L 46.523438 139.011719 L 46.535156 154.378906 L 0.375 154.378906 " fill-opacity="1" fill-rule="nonzero"/><path fill="#63c442" d="M 46.523438 139 L 46.523438 154.367188 L 0.375 154.367188 L 0.375 139 L 15.757812 139 L 15.757812 123.644531 L 46.523438 123.644531 L 46.523438 108.289062 L 61.894531 108.289062 L 61.894531 92.910156 L 108.035156 92.910156 L 108.035156 108.289062 L 92.660156 108.289062 L 92.660156 139 L 46.523438 139 " fill-opacity="1" fill-rule="nonzero"/><path fill="#63c442" d="M 261.828125 323.375 L 261.820312 308.007812 L 292.585938 308 L 292.578125 292.644531 L 307.972656 292.632812 L 307.980469 308.007812 L 323.355469 308 L 323.363281 323.375 L 261.828125 323.375 " fill-opacity="1" fill-rule="nonzero"/><path fill="#63c442" d="M 307.972656 308.007812 L 323.355469 308.007812 L 323.355469 323.367188 L 261.828125 323.367188 L 261.828125 308.007812 L 292.585938 308.007812 L 292.585938 292.644531 L 307.972656 292.644531 L 307.972656 308.007812 " fill-opacity="1" fill-rule="nonzero"/><path fill="#63c442" d="M 61.894531 277.296875 L 61.882812 261.917969 L 77.265625 261.910156 L 77.257812 246.550781 L 92.660156 246.542969 L 92.652344 231.195312 L 138.785156 231.183594 L 138.800781 246.550781 L 123.417969 246.5625 L 123.425781 261.917969 L 92.660156 261.929688 L 92.671875 277.296875 L 61.894531 277.296875 " fill-opacity="1" fill-rule="nonzero"/><path fill="#63c442" d="M 138.785156 231.195312 L 138.785156 246.550781 L 123.417969 246.550781 L 123.417969 261.917969 L 92.660156 261.917969 L 92.660156 277.289062 L 61.894531 277.289062 L 61.894531 261.917969 L 77.265625 261.917969 L 77.265625 246.550781 L 92.660156 246.550781 L 92.660156 231.195312 L 138.785156 231.195312 " fill-opacity="1" fill-rule="nonzero"/><g clip-path="url(#29a1971691)"><path fill="#63c442" d="M 108.035156 77.5625 L 108.023438 46.816406 L 123.417969 46.808594 L 123.40625 31.460938 L 138.785156 31.449219 L 138.777344 16.09375 L 169.554688 16.082031 L 169.542969 0.726562 L 246.460938 0.714844 L 246.472656 16.09375 L 231.066406 16.105469 L 231.078125 31.460938 L 215.695312 31.472656 L 215.703125 46.816406 L 138.785156 46.828125 L 138.800781 62.175781 L 123.417969 62.183594 L 123.425781 77.5625 L 108.035156 77.5625 " fill-opacity="1" fill-rule="nonzero"/><path fill="#63c442" d="M 231.066406 31.460938 L 215.695312 31.460938 L 215.695312 46.816406 L 138.785156 46.816406 L 138.785156 62.175781 L 123.417969 62.175781 L 123.417969 77.554688 L 108.035156 77.554688 L 108.035156 46.816406 L 123.417969 46.816406 L 123.417969 31.460938 L 138.785156 31.460938 L 138.785156 16.09375 L 169.554688 16.09375 L 169.554688 0.726562 L 246.460938 0.726562 L 246.460938 16.09375 L 231.066406 16.09375 L 231.066406 31.460938 " fill-opacity="1" fill-rule="nonzero"/></g><path fill="#63c442" d="M 231.066406 185.113281 L 231.054688 169.734375 L 261.828125 169.726562 L 261.820312 154.367188 L 277.203125 154.359375 L 277.191406 139 L 307.972656 138.992188 L 307.960938 123.644531 L 354.097656 123.632812 L 354.105469 169.734375 L 307.972656 169.746094 L 307.980469 185.113281 L 231.066406 185.113281 " fill-opacity="1" fill-rule="nonzero"/><path fill="#63c442" d="M 231.066406 185.105469 L 231.066406 169.734375 L 261.828125 169.734375 L 261.828125 154.367188 L 277.203125 154.367188 L 277.203125 139 L 307.972656 139 L 307.972656 123.644531 L 354.097656 123.644531 L 354.097656 169.734375 L 307.972656 169.734375 L 307.972656 185.105469 L 231.066406 185.105469 " fill-opacity="1" fill-rule="nonzero"/><path fill="#63c442" d="M 307.972656 261.929688 L 307.960938 246.550781 L 323.355469 246.542969 L 323.34375 231.195312 L 354.097656 231.183594 L 354.085938 215.816406 L 384.863281 215.804688 L 384.855469 200.460938 L 415.632812 200.449219 L 415.640625 215.816406 L 400.257812 215.824219 L 400.269531 231.195312 L 369.492188 231.207031 L 369.503906 246.550781 L 338.726562 246.5625 L 338.738281 261.929688 L 307.972656 261.929688 " fill-opacity="1" fill-rule="nonzero"/><path fill="#63c442" d="M 415.632812 200.460938 L 415.632812 215.816406 L 400.257812 215.816406 L 400.257812 231.195312 L 369.492188 231.195312 L 369.492188 246.550781 L 338.726562 246.550781 L 338.726562 261.917969 L 307.972656 261.917969 L 307.972656 246.550781 L 323.355469 246.550781 L 323.355469 231.195312 L 354.097656 231.195312 L 354.097656 215.816406 L 384.863281 215.816406 L 384.863281 200.460938 L 415.632812 200.460938 " fill-opacity="1" fill-rule="nonzero"/><path fill="#398b40" d="M 46.523438 292.65625 L 46.511719 277.289062 L 31.125 277.296875 L 31.117188 261.917969 L 46.523438 261.910156 L 46.511719 246.550781 L 77.265625 246.542969 L 77.277344 261.917969 L 61.894531 261.929688 L 61.902344 277.289062 L 92.660156 277.277344 L 92.652344 261.917969 L 123.417969 261.910156 L 123.40625 246.550781 L 169.554688 246.542969 L 169.5625 261.917969 L 138.785156 261.929688 L 138.800781 277.289062 L 123.417969 277.296875 L 123.425781 292.65625 L 46.523438 292.65625 " fill-opacity="1" fill-rule="nonzero"/><path fill="#398b40" d="M 169.554688 246.550781 L 169.554688 261.917969 L 138.785156 261.917969 L 138.785156 277.289062 L 123.417969 277.289062 L 123.417969 292.644531 L 46.523438 292.644531 L 46.523438 277.289062 L 31.125 277.289062 L 31.125 261.917969 L 46.523438 261.917969 L 46.523438 246.550781 L 77.265625 246.550781 L 77.265625 261.917969 L 61.894531 261.917969 L 61.894531 277.289062 L 92.660156 277.289062 L 92.660156 261.917969 L 123.417969 261.917969 L 123.417969 246.550781 L 169.554688 246.550781 " fill-opacity="1" fill-rule="nonzero"/><path fill="#398b40" d="M 15.757812 169.746094 L 15.746094 154.367188 L 46.523438 154.359375 L 46.511719 139 L 92.660156 138.992188 L 92.652344 108.289062 L 108.035156 108.28125 L 108.023438 92.910156 L 123.417969 92.894531 L 123.425781 108.289062 L 154.167969 108.28125 L 154.183594 123.644531 L 184.925781 123.632812 L 184.917969 108.289062 L 169.554688 108.300781 L 169.542969 92.910156 L 138.785156 92.921875 L 138.777344 77.554688 L 123.417969 77.5625 L 123.40625 62.175781 L 138.785156 62.164062 L 138.777344 46.816406 L 215.695312 46.808594 L 215.683594 31.460938 L 292.585938 31.449219 L 292.597656 46.816406 L 307.972656 46.808594 L 307.980469 62.175781 L 323.355469 62.164062 L 323.363281 77.554688 L 307.972656 77.5625 L 307.980469 92.910156 L 261.828125 92.921875 L 261.84375 108.289062 L 246.460938 108.300781 L 246.472656 123.644531 L 200.300781 123.65625 L 200.308594 139 L 169.554688 139.011719 L 169.5625 154.367188 L 92.660156 154.378906 L 92.671875 169.746094 L 15.757812 169.746094 " fill-opacity="1" fill-rule="nonzero"/><path fill="#398b40" d="M 200.300781 139 L 169.554688 139 L 169.554688 154.367188 L 92.660156 154.367188 L 92.660156 169.734375 L 15.757812 169.734375 L 15.757812 154.367188 L 46.523438 154.367188 L 46.523438 139 L 92.660156 139 L 92.660156 108.289062 L 108.035156 108.289062 L 108.035156 92.910156 L 123.417969 92.910156 L 123.417969 108.289062 L 154.167969 108.289062 L 154.167969 123.644531 L 184.925781 123.644531 L 184.925781 108.289062 L 169.554688 108.289062 L 169.554688 92.910156 L 138.785156 92.910156 L 138.785156 77.554688 L 123.417969 77.554688 L 123.417969 62.175781 L 138.785156 62.175781 L 138.785156 46.816406 L 215.695312 46.816406 L 215.695312 31.460938 L 292.585938 31.460938 L 292.585938 46.816406 L 307.972656 46.816406 L 307.972656 62.175781 L 323.355469 62.175781 L 323.355469 77.554688 L 307.972656 77.554688 L 307.972656 92.910156 L 261.828125 92.910156 L 261.828125 108.289062 L 246.460938 108.289062 L 246.460938 123.644531 L 200.300781 123.644531 L 200.300781 139 " fill-opacity="1" fill-rule="nonzero"/><path fill="#398b40" d="M 200.300781 338.742188 L 200.289062 323.367188 L 215.695312 323.355469 L 215.683594 308.007812 L 261.828125 308 L 261.84375 323.367188 L 246.460938 323.375 L 246.472656 338.742188 L 200.300781 338.742188 " fill-opacity="1" fill-rule="nonzero"/><path fill="#398b40" d="M 261.828125 308.007812 L 261.828125 323.367188 L 246.460938 323.367188 L 246.460938 338.734375 L 200.300781 338.734375 L 200.300781 323.367188 L 215.695312 323.367188 L 215.695312 308.007812 L 261.828125 308.007812 " fill-opacity="1" fill-rule="nonzero"/><path fill="#398b40" d="M 354.097656 169.746094 L 354.085938 139 L 369.492188 138.992188 L 369.503906 169.746094 L 354.097656 169.746094 " fill-opacity="1" fill-rule="nonzero"/><path fill="#398b40" d="M 369.492188 169.734375 L 354.097656 169.734375 L 354.097656 139 L 369.492188 139 L 369.492188 169.734375 " fill-opacity="1" fill-rule="nonzero"/><path fill="#398b40" d="M 277.203125 338.742188 L 277.191406 323.367188 L 323.355469 323.355469 L 323.34375 308.007812 L 307.972656 308.023438 L 307.960938 277.289062 L 338.726562 277.277344 L 338.738281 292.644531 L 354.097656 292.632812 L 354.105469 323.367188 L 384.863281 323.355469 L 384.875 338.742188 L 277.203125 338.742188 " fill-opacity="1" fill-rule="nonzero"/><path fill="#398b40" d="M 338.726562 277.289062 L 338.726562 292.644531 L 354.097656 292.644531 L 354.097656 323.367188 L 384.863281 323.367188 L 384.863281 338.734375 L 277.203125 338.734375 L 277.203125 323.367188 L 323.355469 323.367188 L 323.355469 308.007812 L 307.972656 308.007812 L 307.972656 277.289062 L 338.726562 277.289062 " fill-opacity="1" fill-rule="nonzero"/><path fill="#398b40" d="M 231.066406 200.472656 L 231.054688 185.105469 L 307.972656 185.09375 L 307.960938 169.734375 L 354.097656 169.726562 L 354.105469 185.105469 L 323.355469 185.113281 L 323.363281 200.472656 L 231.066406 200.472656 " fill-opacity="1" fill-rule="nonzero"/><path fill="#398b40" d="M 354.097656 169.734375 L 354.097656 185.105469 L 323.355469 185.105469 L 323.355469 200.460938 L 231.066406 200.460938 L 231.066406 185.105469 L 307.972656 185.105469 L 307.972656 169.734375 L 354.097656 169.734375 " fill-opacity="1" fill-rule="nonzero"/><path fill="#398b40" d="M 261.828125 308.023438 L 261.820312 292.644531 L 292.585938 292.632812 L 292.597656 308.023438 L 261.828125 308.023438 " fill-opacity="1" fill-rule="nonzero"/><path fill="#398b40" d="M 261.828125 308.007812 L 261.828125 292.644531 L 292.585938 292.644531 L 292.585938 308.007812 L 261.828125 308.007812 " fill-opacity="1" fill-rule="nonzero"/><path fill="#398b40" d="M 384.863281 292.65625 L 384.855469 277.289062 L 338.726562 277.296875 L 338.714844 246.550781 L 369.492188 246.542969 L 369.480469 231.195312 L 400.257812 231.183594 L 400.25 215.816406 L 431.003906 215.804688 L 431.015625 261.917969 L 446.390625 261.910156 L 446.398438 277.289062 L 415.632812 277.296875 L 415.640625 292.65625 L 384.863281 292.65625 " fill-opacity="1" fill-rule="nonzero"/><path fill="#398b40" d="M 446.390625 261.917969 L 446.390625 277.289062 L 415.632812 277.289062 L 415.632812 292.644531 L 384.863281 292.644531 L 384.863281 277.289062 L 338.726562 277.289062 L 338.726562 246.550781 L 369.492188 246.550781 L 369.492188 231.195312 L 400.257812 231.195312 L 400.257812 215.816406 L 431.003906 215.816406 L 431.003906 261.917969 L 446.390625 261.917969 " fill-opacity="1" fill-rule="nonzero"/><path fill="#1f373a" d="M 261.828125 292.65625 L 261.820312 277.289062 L 307.972656 277.277344 L 307.980469 292.65625 L 261.828125 292.65625 " fill-opacity="1" fill-rule="nonzero"/><path fill="#1f373a" d="M 261.828125 292.644531 L 261.828125 277.289062 L 307.972656 277.289062 L 307.972656 292.644531 L 261.828125 292.644531 " fill-opacity="1" fill-rule="nonzero"/><path fill="#1f373a" d="M 246.460938 354.113281 L 246.453125 323.367188 L 277.203125 323.355469 L 277.214844 338.734375 L 338.726562 338.726562 L 338.738281 354.113281 L 246.460938 354.113281 " fill-opacity="1" fill-rule="nonzero"/><path fill="#1f373a" d="M 338.726562 338.734375 L 338.726562 354.101562 L 246.460938 354.101562 L 246.460938 323.367188 L 277.203125 323.367188 L 277.203125 338.734375 L 338.726562 338.734375 " fill-opacity="1" fill-rule="nonzero"/><path fill="#1f373a" d="M 323.355469 277.296875 L 323.34375 261.917969 L 338.726562 261.910156 L 338.738281 277.296875 L 323.355469 277.296875 " fill-opacity="1" fill-rule="nonzero"/><path fill="#1f373a" d="M 338.726562 261.917969 L 338.726562 277.289062 L 323.355469 277.289062 L 323.355469 261.917969 L 338.726562 261.917969 " fill-opacity="1" fill-rule="nonzero"/><path fill="#1f373a" d="M 277.203125 215.824219 L 277.191406 200.460938 L 323.355469 200.449219 L 323.34375 185.105469 L 354.097656 185.09375 L 354.085938 169.734375 L 369.492188 169.726562 L 369.480469 154.367188 L 384.863281 154.359375 L 384.875 185.105469 L 369.492188 185.113281 L 369.503906 200.460938 L 338.726562 200.472656 L 338.738281 215.824219 L 277.203125 215.824219 " fill-opacity="1" fill-rule="nonzero"/><path fill="#1f373a" d="M 354.097656 185.105469 L 354.097656 169.734375 L 369.492188 169.734375 L 369.492188 154.367188 L 384.863281 154.367188 L 384.863281 185.105469 L 369.492188 185.105469 L 369.492188 200.460938 L 338.726562 200.460938 L 338.726562 215.816406 L 277.203125 215.816406 L 277.203125 200.460938 L 323.355469 200.460938 L 323.355469 185.105469 L 354.097656 185.105469 " fill-opacity="1" fill-rule="nonzero"/><g clip-path="url(#9931f9635c)"><path fill="#1f373a" d="M 369.492188 308.023438 L 369.480469 292.644531 L 338.726562 292.65625 L 338.714844 277.289062 L 384.863281 277.277344 L 384.875 292.644531 L 415.632812 292.632812 L 415.621094 277.289062 L 446.390625 277.277344 L 446.375 261.917969 L 431.003906 261.929688 L 430.996094 231.195312 L 446.390625 231.183594 L 446.398438 246.550781 L 461.773438 246.542969 L 461.78125 261.917969 L 477.152344 261.910156 L 477.164062 277.289062 L 461.773438 277.296875 L 461.78125 292.644531 L 431.003906 292.65625 L 431.015625 308.023438 L 369.492188 308.023438 " fill-opacity="1" fill-rule="nonzero"/><path fill="#1f373a" d="M 477.152344 261.917969 L 477.152344 277.289062 L 461.773438 277.289062 L 461.773438 292.644531 L 431.003906 292.644531 L 431.003906 308.007812 L 369.492188 308.007812 L 369.492188 292.644531 L 338.726562 292.644531 L 338.726562 277.289062 L 384.863281 277.289062 L 384.863281 292.644531 L 415.632812 292.644531 L 415.632812 277.289062 L 446.390625 277.289062 L 446.390625 261.917969 L 431.003906 261.917969 L 431.003906 231.195312 L 446.390625 231.195312 L 446.390625 246.550781 L 461.773438 246.550781 L 461.773438 261.917969 L 477.152344 261.917969 " fill-opacity="1" fill-rule="nonzero"/></g><path fill="#1f373a" d="M 154.167969 123.65625 L 154.160156 108.289062 L 123.417969 108.300781 L 123.40625 92.910156 L 108.035156 92.921875 L 108.023438 77.554688 L 138.785156 77.542969 L 138.800781 92.910156 L 169.554688 92.894531 L 169.5625 108.289062 L 184.925781 108.28125 L 184.9375 123.65625 L 154.167969 123.65625 " fill-opacity="1" fill-rule="nonzero"/><path fill="#1f373a" d="M 123.417969 92.910156 L 108.035156 92.910156 L 108.035156 77.554688 L 138.785156 77.554688 L 138.785156 92.910156 L 169.554688 92.910156 L 169.554688 108.289062 L 184.925781 108.289062 L 184.925781 123.644531 L 154.167969 123.644531 L 154.167969 108.289062 L 123.417969 108.289062 L 123.417969 92.910156 " fill-opacity="1" fill-rule="nonzero"/><path fill="#1f373a" d="M 77.265625 200.472656 L 77.257812 185.105469 L 61.894531 185.113281 L 61.882812 169.734375 L 92.660156 169.726562 L 92.652344 154.367188 L 169.554688 154.359375 L 169.542969 139 L 200.300781 138.992188 L 200.289062 123.644531 L 246.460938 123.632812 L 246.453125 108.289062 L 261.828125 108.28125 L 261.820312 92.910156 L 307.972656 92.894531 L 307.960938 77.554688 L 338.726562 77.542969 L 338.738281 92.910156 L 323.355469 92.921875 L 323.363281 108.289062 L 277.203125 108.300781 L 277.214844 123.644531 L 261.828125 123.65625 L 261.84375 139 L 215.695312 139.011719 L 215.703125 154.367188 L 184.925781 154.378906 L 184.9375 169.734375 L 123.417969 169.746094 L 123.425781 185.105469 L 108.035156 185.113281 L 108.042969 200.472656 L 77.265625 200.472656 " fill-opacity="1" fill-rule="nonzero"/><path fill="#1f373a" d="M 215.695312 139 L 215.695312 154.367188 L 184.925781 154.367188 L 184.925781 169.734375 L 123.417969 169.734375 L 123.417969 185.105469 L 108.035156 185.105469 L 108.035156 200.460938 L 77.265625 200.460938 L 77.265625 185.105469 L 61.894531 185.105469 L 61.894531 169.734375 L 92.660156 169.734375 L 92.660156 154.367188 L 169.554688 154.367188 L 169.554688 139 L 200.300781 139 L 200.300781 123.644531 L 246.460938 123.644531 L 246.460938 108.289062 L 261.828125 108.289062 L 261.828125 92.910156 L 307.972656 92.910156 L 307.972656 77.554688 L 338.726562 77.554688 L 338.726562 92.910156 L 323.355469 92.910156 L 323.355469 108.289062 L 277.203125 108.289062 L 277.203125 123.644531 L 261.828125 123.644531 L 261.828125 139 L 215.695312 139 " fill-opacity="1" fill-rule="nonzero"/><path fill="#1f373a" d="M 138.785156 246.5625 L 138.777344 231.195312 L 154.167969 231.183594 L 154.183594 246.5625 L 138.785156 246.5625 " fill-opacity="1" fill-rule="nonzero"/><path fill="#1f373a" d="M 154.167969 246.550781 L 138.785156 246.550781 L 138.785156 231.195312 L 154.167969 231.195312 L 154.167969 246.550781 " fill-opacity="1" fill-rule="nonzero"/><path fill="#1f373a" d="M 77.265625 308.023438 L 77.257812 292.644531 L 123.417969 292.632812 L 123.40625 277.289062 L 138.785156 277.277344 L 138.777344 261.917969 L 184.925781 261.910156 L 184.9375 277.289062 L 154.167969 277.296875 L 154.183594 292.644531 L 138.785156 292.65625 L 138.800781 308.023438 L 77.265625 308.023438 " fill-opacity="1" fill-rule="nonzero"/><path fill="#1f373a" d="M 184.925781 261.917969 L 184.925781 277.289062 L 154.167969 277.289062 L 154.167969 292.644531 L 138.785156 292.644531 L 138.785156 308.007812 L 77.265625 308.007812 L 77.265625 292.644531 L 123.417969 292.644531 L 123.417969 277.289062 L 138.785156 277.289062 L 138.785156 261.917969 L 184.925781 261.917969 " fill-opacity="1" fill-rule="nonzero"/><path fill="#1f373a" d="M 231.066406 308.023438 L 231.054688 292.644531 L 261.828125 292.632812 L 261.84375 308.023438 L 231.066406 308.023438 " fill-opacity="1" fill-rule="nonzero"/><path fill="#1f373a" d="M 231.066406 308.007812 L 231.066406 292.644531 L 261.828125 292.644531 L 261.828125 308.007812 L 231.066406 308.007812 " fill-opacity="1" fill-rule="nonzero"/><path fill="#5c4f2f" d="M 184.925781 261.929688 L 184.917969 246.550781 L 200.300781 246.542969 L 200.308594 261.929688 L 184.925781 261.929688 " fill-opacity="1" fill-rule="nonzero"/><path fill="#5c4f2f" d="M 200.300781 246.550781 L 200.300781 261.917969 L 184.925781 261.917969 L 184.925781 246.550781 L 200.300781 246.550781 " fill-opacity="1" fill-rule="nonzero"/><path fill="#5c4f2f" d="M 92.660156 231.207031 L 92.652344 215.816406 L 108.035156 215.804688 L 108.042969 231.207031 L 92.660156 231.207031 " fill-opacity="1" fill-rule="nonzero"/><path fill="#5c4f2f" d="M 108.035156 231.195312 L 92.660156 231.195312 L 92.660156 215.816406 L 108.035156 215.816406 L 108.035156 231.195312 " fill-opacity="1" fill-rule="nonzero"/><path fill="#5c4f2f" d="M 108.035156 215.824219 L 108.023438 200.460938 L 123.417969 200.449219 L 123.425781 215.824219 L 108.035156 215.824219 " fill-opacity="1" fill-rule="nonzero"/><path fill="#5c4f2f" d="M 123.417969 215.816406 L 108.035156 215.816406 L 108.035156 200.460938 L 123.417969 200.460938 L 123.417969 215.816406 " fill-opacity="1" fill-rule="nonzero"/><path fill="#5c4f2f" d="M 77.265625 246.5625 L 77.257812 231.195312 L 92.660156 231.183594 L 92.671875 246.5625 L 77.265625 246.5625 " fill-opacity="1" fill-rule="nonzero"/><path fill="#5c4f2f" d="M 92.660156 246.550781 L 77.265625 246.550781 L 77.265625 231.195312 L 92.660156 231.195312 L 92.660156 246.550781 " fill-opacity="1" fill-rule="nonzero"/><path fill="#5c4f2f" d="M 123.417969 185.113281 L 123.40625 169.734375 L 138.785156 169.726562 L 138.800781 185.113281 L 123.417969 185.113281 " fill-opacity="1" fill-rule="nonzero"/><path fill="#5c4f2f" d="M 138.785156 185.105469 L 123.417969 185.105469 L 123.417969 169.734375 L 138.785156 169.734375 L 138.785156 185.105469 " fill-opacity="1" fill-rule="nonzero"/><g clip-path="url(#335b86590c)"><path fill="#5c4f2f" d="M 138.785156 430.9375 L 138.777344 415.550781 L 108.035156 415.558594 L 108.042969 430.929688 L 77.265625 430.9375 L 77.257812 415.550781 L 92.660156 415.539062 L 92.652344 384.839844 L 108.035156 384.828125 L 108.023438 369.460938 L 138.785156 369.445312 L 138.777344 354.101562 L 169.554688 354.09375 L 169.5625 369.460938 L 184.925781 369.445312 L 184.9375 384.839844 L 169.554688 384.847656 L 169.5625 430.9375 L 138.785156 430.9375 " fill-opacity="1" fill-rule="nonzero"/><path fill="#5c4f2f" d="M 169.554688 369.460938 L 184.925781 369.460938 L 184.925781 384.839844 L 169.554688 384.839844 L 169.554688 430.929688 L 138.785156 430.929688 L 138.785156 415.550781 L 108.035156 415.550781 L 108.035156 430.929688 L 77.265625 430.929688 L 77.265625 415.550781 L 92.660156 415.550781 L 92.660156 384.839844 L 108.035156 384.839844 L 108.035156 369.460938 L 138.785156 369.460938 L 138.785156 354.101562 L 169.554688 354.101562 L 169.554688 369.460938 " fill-opacity="1" fill-rule="nonzero"/></g><path fill="#5c4f2f" d="M 200.300781 308.023438 L 200.289062 292.644531 L 184.925781 292.65625 L 184.917969 277.289062 L 200.300781 277.277344 L 200.289062 261.917969 L 215.695312 261.910156 L 215.703125 277.289062 L 231.066406 277.277344 L 231.078125 292.644531 L 215.695312 292.65625 L 215.703125 308.023438 L 200.300781 308.023438 " fill-opacity="1" fill-rule="nonzero"/><path fill="#5c4f2f" d="M 231.066406 277.289062 L 231.066406 292.644531 L 215.695312 292.644531 L 215.695312 308.007812 L 200.300781 308.007812 L 200.300781 292.644531 L 184.925781 292.644531 L 184.925781 277.289062 L 200.300781 277.289062 L 200.300781 261.917969 L 215.695312 261.917969 L 215.695312 277.289062 L 231.066406 277.289062 " fill-opacity="1" fill-rule="nonzero"/><path fill="#3a301e" d="M 169.554688 261.929688 L 169.542969 246.550781 L 184.925781 246.542969 L 184.9375 261.929688 L 169.554688 261.929688 " fill-opacity="1" fill-rule="nonzero"/><path fill="#3a301e" d="M 184.925781 246.550781 L 184.925781 261.917969 L 169.554688 261.917969 L 169.554688 246.550781 L 184.925781 246.550781 " fill-opacity="1" fill-rule="nonzero"/><path fill="#3a301e" d="M 138.785156 400.207031 L 138.777344 384.839844 L 154.167969 384.828125 L 154.183594 400.207031 L 138.785156 400.207031 " fill-opacity="1" fill-rule="nonzero"/><path fill="#3a301e" d="M 138.785156 384.839844 L 154.167969 384.839844 L 154.167969 400.191406 L 138.785156 400.191406 L 138.785156 384.839844 " fill-opacity="1" fill-rule="nonzero"/><path fill="#3a301e" d="M 108.035156 231.207031 L 108.023438 215.816406 L 123.417969 215.804688 L 123.40625 185.105469 L 138.785156 185.09375 L 138.777344 169.734375 L 215.695312 169.726562 L 215.703125 185.105469 L 231.066406 185.09375 L 231.078125 200.460938 L 169.554688 200.472656 L 169.5625 215.816406 L 138.785156 215.824219 L 138.800781 231.207031 L 108.035156 231.207031 " fill-opacity="1" fill-rule="nonzero"/><path fill="#3a301e" d="M 108.035156 231.195312 L 108.035156 215.816406 L 123.417969 215.816406 L 123.417969 185.105469 L 138.785156 185.105469 L 138.785156 169.734375 L 215.695312 169.734375 L 215.695312 185.105469 L 231.066406 185.105469 L 231.066406 200.460938 L 169.554688 200.460938 L 169.554688 215.816406 L 138.785156 215.816406 L 138.785156 231.195312 L 108.035156 231.195312 " fill-opacity="1" fill-rule="nonzero"/><g clip-path="url(#6867ba786f)"><path fill="#3a301e" d="M 108.035156 430.9375 L 108.023438 415.550781 L 138.785156 415.539062 L 138.800781 430.9375 L 108.035156 430.9375 " fill-opacity="1" fill-rule="nonzero"/><path fill="#3a301e" d="M 138.785156 415.550781 L 138.785156 430.929688 L 108.035156 430.929688 L 108.035156 415.550781 L 138.785156 415.550781 " fill-opacity="1" fill-rule="nonzero"/></g><g clip-path="url(#33f46370b6)"><path fill="#3a301e" d="M 169.554688 430.9375 L 169.542969 384.839844 L 184.925781 384.828125 L 184.917969 369.460938 L 169.554688 369.46875 L 169.542969 338.734375 L 184.925781 338.726562 L 184.917969 308.007812 L 169.554688 308.023438 L 169.542969 292.644531 L 154.167969 292.65625 L 154.160156 277.289062 L 184.925781 277.277344 L 184.917969 261.917969 L 200.300781 261.910156 L 200.308594 277.289062 L 215.695312 277.277344 L 215.683594 261.917969 L 231.066406 261.910156 L 231.078125 277.289062 L 261.828125 277.277344 L 261.84375 292.644531 L 231.066406 292.65625 L 231.078125 308.007812 L 215.695312 308.023438 L 215.703125 323.367188 L 200.300781 323.375 L 200.308594 338.734375 L 246.460938 338.726562 L 246.472656 354.101562 L 215.695312 354.113281 L 215.703125 369.460938 L 231.066406 369.445312 L 231.078125 384.839844 L 246.460938 384.828125 L 246.472656 400.191406 L 261.828125 400.183594 L 261.84375 415.550781 L 277.203125 415.539062 L 277.214844 430.9375 L 169.554688 430.9375 " fill-opacity="1" fill-rule="nonzero"/><path fill="#3a301e" d="M 277.203125 415.550781 L 277.203125 430.929688 L 169.554688 430.929688 L 169.554688 384.839844 L 184.925781 384.839844 L 184.925781 369.460938 L 169.554688 369.460938 L 169.554688 338.734375 L 184.925781 338.734375 L 184.925781 308.007812 L 169.554688 308.007812 L 169.554688 292.644531 L 154.167969 292.644531 L 154.167969 277.289062 L 184.925781 277.289062 L 184.925781 261.917969 L 200.300781 261.917969 L 200.300781 277.289062 L 215.695312 277.289062 L 215.695312 261.917969 L 231.066406 261.917969 L 231.066406 277.289062 L 261.828125 277.289062 L 261.828125 292.644531 L 231.066406 292.644531 L 231.066406 308.007812 L 215.695312 308.007812 L 215.695312 323.367188 L 200.300781 323.367188 L 200.300781 338.734375 L 246.460938 338.734375 L 246.460938 354.101562 L 215.695312 354.101562 L 215.695312 369.460938 L 231.066406 369.460938 L 231.066406 384.839844 L 246.460938 384.839844 L 246.460938 400.191406 L 261.828125 400.191406 L 261.828125 415.550781 L 277.203125 415.550781 " fill-opacity="1" fill-rule="nonzero"/></g><g fill="#ffffff" fill-opacity="1"><g transform="translate(585.393848, 286.264568)"><g><path d="M 13.765625 34.40625 L 13.765625 -95.5625 L 22.9375 -95.5625 L 26.1875 -82.5625 L 27.140625 -82.5625 C 28.410156 -84.34375 30.476562 -86.378906 33.34375 -88.671875 C 36.21875 -90.972656 39.785156 -93.015625 44.046875 -94.796875 C 48.316406 -96.578125 52.875 -97.46875 57.71875 -97.46875 C 65.75 -97.46875 73.109375 -95.363281 79.796875 -91.15625 C 86.484375 -86.957031 91.800781 -81.066406 95.75 -73.484375 C 99.695312 -65.898438 101.671875 -57.332031 101.671875 -47.78125 C 101.671875 -38.226562 99.695312 -29.660156 95.75 -22.078125 C 91.800781 -14.492188 86.484375 -8.597656 79.796875 -4.390625 C 73.109375 -0.191406 65.75 1.90625 57.71875 1.90625 C 52.875 1.90625 48.316406 1.015625 44.046875 -0.765625 C 39.785156 -2.546875 36.1875 -4.582031 33.25 -6.875 C 30.320312 -9.175781 28.285156 -11.21875 27.140625 -13 L 26.1875 -13 L 26.1875 34.40625 Z M 57.71875 -9.75 C 63.457031 -9.75 68.742188 -11.335938 73.578125 -14.515625 C 78.421875 -17.703125 82.242188 -22.195312 85.046875 -28 C 87.847656 -33.800781 89.25 -40.394531 89.25 -47.78125 C 89.25 -55.164062 87.847656 -61.757812 85.046875 -67.5625 C 82.242188 -73.363281 78.421875 -77.851562 73.578125 -81.03125 C 68.742188 -84.21875 63.457031 -85.8125 57.71875 -85.8125 C 51.988281 -85.8125 46.703125 -84.21875 41.859375 -81.03125 C 37.015625 -77.851562 33.191406 -73.363281 30.390625 -67.5625 C 27.585938 -61.757812 26.1875 -55.164062 26.1875 -47.78125 C 26.1875 -40.394531 27.585938 -33.800781 30.390625 -28 C 33.191406 -22.195312 37.015625 -17.703125 41.859375 -14.515625 C 46.703125 -11.335938 51.988281 -9.75 57.71875 -9.75 Z M 57.71875 -9.75 "/></g></g></g><g fill="#ffffff" fill-opacity="1"><g transform="translate(694.511552, 286.264568)"><g><path d="M 62.109375 -67.84375 L 106.265625 0 L 90.59375 0 L 54.28125 -56.953125 L 17.578125 0 L 2.859375 0 L 46.828125 -67.84375 L 4.96875 -133.78125 L 20.265625 -133.78125 L 54.859375 -78.9375 L 89.25 -133.78125 L 104.15625 -133.78125 Z M 62.109375 -67.84375 "/></g></g></g><g fill="#ffffff" fill-opacity="1"><g transform="translate(797.895665, 286.264568)"><g/></g></g><g fill="#ffffff" fill-opacity="1"><g transform="translate(843.377295, 286.264568)"><g><path d="M 51.40625 1.90625 C 43.382812 1.90625 36.023438 -0.191406 29.328125 -4.390625 C 22.640625 -8.597656 17.320312 -14.492188 13.375 -22.078125 C 9.425781 -29.660156 7.453125 -38.226562 7.453125 -47.78125 C 7.453125 -57.332031 9.425781 -65.898438 13.375 -73.484375 C 17.320312 -81.066406 22.640625 -86.957031 29.328125 -91.15625 C 36.023438 -95.363281 43.382812 -97.46875 51.40625 -97.46875 C 56.25 -97.46875 60.804688 -96.578125 65.078125 -94.796875 C 69.347656 -93.015625 72.945312 -90.972656 75.875 -88.671875 C 78.800781 -86.378906 80.84375 -84.34375 82 -82.5625 L 82.953125 -82.5625 L 82.953125 -133.78125 L 95.375 -133.78125 L 95.375 0 L 86.203125 0 L 82.953125 -13 L 82 -13 C 80.71875 -11.21875 78.644531 -9.175781 75.78125 -6.875 C 72.914062 -4.582031 69.347656 -2.546875 65.078125 -0.765625 C 60.804688 1.015625 56.25 1.90625 51.40625 1.90625 Z M 51.40625 -9.75 C 57.144531 -9.75 62.429688 -11.335938 67.265625 -14.515625 C 72.109375 -17.703125 75.929688 -22.195312 78.734375 -28 C 81.546875 -33.800781 82.953125 -40.394531 82.953125 -47.78125 C 82.953125 -55.164062 81.546875 -61.757812 78.734375 -67.5625 C 75.929688 -73.363281 72.109375 -77.851562 67.265625 -81.03125 C 62.429688 -84.21875 57.144531 -85.8125 51.40625 -85.8125 C 45.675781 -85.8125 40.390625 -84.21875 35.546875 -81.03125 C 30.703125 -77.851562 26.878906 -73.363281 24.078125 -67.5625 C 21.273438 -61.757812 19.875 -55.164062 19.875 -47.78125 C 19.875 -40.394531 21.273438 -33.800781 24.078125 -28 C 26.878906 -22.195312 30.703125 -17.703125 35.546875 -14.515625 C 40.390625 -11.335938 45.675781 -9.75 51.40625 -9.75 Z M 51.40625 -9.75 "/></g></g></g><g fill="#ffffff" fill-opacity="1"><g transform="translate(953.450527, 286.264568)"><g><path d="M 95.1875 -50.640625 C 95.1875 -46.691406 94.929688 -43.703125 94.421875 -41.671875 L 20.265625 -41.671875 C 21.273438 -31.859375 24.742188 -24.082031 30.671875 -18.34375 C 36.597656 -12.613281 43.957031 -9.75 52.75 -9.75 C 64.46875 -9.75 73.320312 -14.78125 79.3125 -24.84375 L 91.734375 -24.84375 C 88.804688 -17.070312 83.773438 -10.671875 76.640625 -5.640625 C 69.503906 -0.609375 61.414062 1.90625 52.375 1.90625 C 43.957031 1.90625 36.335938 -0.191406 29.515625 -4.390625 C 22.703125 -8.597656 17.320312 -14.457031 13.375 -21.96875 C 9.425781 -29.488281 7.453125 -38.09375 7.453125 -47.78125 C 7.453125 -57.207031 9.457031 -65.710938 13.46875 -73.296875 C 17.488281 -80.878906 22.9375 -86.800781 29.8125 -91.0625 C 36.695312 -95.332031 44.21875 -97.46875 52.375 -97.46875 C 60.394531 -97.46875 67.6875 -95.394531 74.25 -91.25 C 80.8125 -87.113281 85.941406 -81.476562 89.640625 -74.34375 C 93.335938 -67.207031 95.1875 -59.304688 95.1875 -50.640625 Z M 52.375 -85.8125 C 47.019531 -85.8125 42.015625 -84.441406 37.359375 -81.703125 C 32.710938 -78.960938 28.828125 -75.078125 25.703125 -70.046875 C 22.585938 -65.015625 20.707031 -59.3125 20.0625 -52.9375 L 82.5625 -52.9375 C 81.925781 -62.5 78.804688 -70.367188 73.203125 -76.546875 C 67.597656 -82.722656 60.65625 -85.8125 52.375 -85.8125 Z M 52.375 -85.8125 "/></g></g></g><g fill="#ffffff" fill-opacity="1"><g transform="translate(1056.070851, 286.264568)"><g><path d="M 42.625 1.90625 C 36.125 1.90625 30.257812 0.535156 25.03125 -2.203125 C 19.8125 -4.941406 15.671875 -8.601562 12.609375 -13.1875 C 9.554688 -17.769531 7.835938 -22.613281 7.453125 -27.71875 L 19.875 -27.71875 C 20.507812 -22.363281 22.800781 -18.03125 26.75 -14.71875 C 30.707031 -11.40625 36 -9.75 42.625 -9.75 C 49.125 -9.75 54.125 -11.210938 57.625 -14.140625 C 61.125 -17.078125 62.875 -20.773438 62.875 -25.234375 C 62.875 -28.546875 61.851562 -31.285156 59.8125 -33.453125 C 57.78125 -35.617188 55.296875 -37.367188 52.359375 -38.703125 C 49.429688 -40.035156 45.289062 -41.53125 39.9375 -43.1875 C 33.445312 -45.226562 28.222656 -47.171875 24.265625 -49.015625 C 20.316406 -50.867188 16.941406 -53.546875 14.140625 -57.046875 C 11.335938 -60.554688 9.9375 -65.113281 9.9375 -70.71875 C 9.9375 -75.6875 11.242188 -80.207031 13.859375 -84.28125 C 16.472656 -88.363281 20.132812 -91.582031 24.84375 -93.9375 C 29.5625 -96.289062 35.039062 -97.46875 41.28125 -97.46875 C 47.394531 -97.46875 52.875 -96.191406 57.71875 -93.640625 C 62.5625 -91.097656 66.382812 -87.628906 69.1875 -83.234375 C 71.988281 -78.835938 73.582031 -74.03125 73.96875 -68.8125 L 61.546875 -68.8125 C 60.910156 -74.15625 58.867188 -78.320312 55.421875 -81.3125 C 51.984375 -84.3125 47.269531 -85.8125 41.28125 -85.8125 C 35.289062 -85.8125 30.640625 -84.441406 27.328125 -81.703125 C 24.015625 -78.960938 22.359375 -75.492188 22.359375 -71.296875 C 22.359375 -66.703125 24.207031 -63.226562 27.90625 -60.875 C 31.601562 -58.519531 37.273438 -56.128906 44.921875 -53.703125 C 51.410156 -51.535156 56.660156 -49.460938 60.671875 -47.484375 C 64.691406 -45.515625 68.132812 -42.742188 71 -39.171875 C 73.863281 -35.609375 75.296875 -30.960938 75.296875 -25.234375 C 75.296875 -17.453125 72.363281 -10.984375 66.5 -5.828125 C 60.644531 -0.671875 52.6875 1.90625 42.625 1.90625 Z M 42.625 1.90625 "/></g></g></g><g fill="#ffffff" fill-opacity="1"><g transform="translate(1139.199082, 286.264568)"><g><path d="M 26.1875 0 L 13.765625 0 L 13.765625 -95.5625 L 26.1875 -95.5625 Z M 20.078125 -110.859375 C 17.648438 -110.859375 15.609375 -111.6875 13.953125 -113.34375 C 12.296875 -115 11.46875 -117.035156 11.46875 -119.453125 C 11.46875 -122.003906 12.296875 -124.070312 13.953125 -125.65625 C 15.609375 -127.25 17.648438 -128.046875 20.078125 -128.046875 C 22.617188 -128.046875 24.6875 -127.25 26.28125 -125.65625 C 27.875 -124.070312 28.671875 -122.003906 28.671875 -119.453125 C 28.671875 -117.035156 27.84375 -115 26.1875 -113.34375 C 24.53125 -111.6875 22.492188 -110.859375 20.078125 -110.859375 Z M 20.078125 -110.859375 "/></g></g></g><g fill="#ffffff" fill-opacity="1"><g transform="translate(1179.138841, 286.264568)"><g><path d="M 52.171875 36.3125 C 41.859375 36.3125 33.066406 33.695312 25.796875 28.46875 C 18.535156 23.25 13.820312 16.242188 11.65625 7.453125 L 24.078125 7.453125 C 25.859375 12.804688 29.203125 17.007812 34.109375 20.0625 C 39.015625 23.125 45.035156 24.65625 52.171875 24.65625 C 60.710938 24.65625 67.59375 22.101562 72.8125 17 C 78.039062 11.90625 80.65625 5.15625 80.65625 -3.25 L 80.65625 -18.34375 L 79.703125 -18.34375 C 78.554688 -16.5625 76.578125 -14.488281 73.765625 -12.125 C 70.960938 -9.769531 67.523438 -7.703125 63.453125 -5.921875 C 59.378906 -4.140625 54.984375 -3.25 50.265625 -3.25 C 42.492188 -3.25 35.328125 -5.285156 28.765625 -9.359375 C 22.203125 -13.441406 17.007812 -19.082031 13.1875 -26.28125 C 9.363281 -33.476562 7.453125 -41.472656 7.453125 -50.265625 C 7.453125 -59.179688 9.363281 -67.238281 13.1875 -74.4375 C 17.007812 -81.632812 22.203125 -87.269531 28.765625 -91.34375 C 35.328125 -95.425781 42.492188 -97.46875 50.265625 -97.46875 C 54.984375 -97.46875 59.378906 -96.609375 63.453125 -94.890625 C 67.523438 -93.171875 70.960938 -91.128906 73.765625 -88.765625 C 76.578125 -86.410156 78.554688 -84.34375 79.703125 -82.5625 L 80.65625 -82.5625 L 83.90625 -95.5625 L 93.078125 -95.5625 L 93.078125 -3.25 C 93.078125 4.519531 91.351562 11.398438 87.90625 17.390625 C 84.46875 23.378906 79.660156 28.03125 73.484375 31.34375 C 67.304688 34.65625 60.203125 36.3125 52.171875 36.3125 Z M 50.265625 -14.90625 C 55.617188 -14.90625 60.617188 -16.429688 65.265625 -19.484375 C 69.921875 -22.546875 73.648438 -26.785156 76.453125 -32.203125 C 79.253906 -37.617188 80.65625 -43.640625 80.65625 -50.265625 C 80.65625 -57.015625 79.253906 -63.097656 76.453125 -68.515625 C 73.648438 -73.929688 69.921875 -78.164062 65.265625 -81.21875 C 60.617188 -84.28125 55.617188 -85.8125 50.265625 -85.8125 C 44.785156 -85.8125 39.71875 -84.28125 35.0625 -81.21875 C 30.414062 -78.164062 26.722656 -73.929688 23.984375 -68.515625 C 21.242188 -63.097656 19.875 -57.015625 19.875 -50.265625 C 19.875 -43.640625 21.242188 -37.617188 23.984375 -32.203125 C 26.722656 -26.785156 30.414062 -22.546875 35.0625 -19.484375 C 39.71875 -16.429688 44.785156 -14.90625 50.265625 -14.90625 Z M 50.265625 -14.90625 "/></g></g></g><g fill="#ffffff" fill-opacity="1"><g transform="translate(1285.963361, 286.264568)"><g><path d="M 13.765625 0 L 13.765625 -95.5625 L 22.9375 -95.5625 L 26.1875 -82.5625 L 27.140625 -82.5625 C 29.691406 -86.507812 33.414062 -89.976562 38.3125 -92.96875 C 43.21875 -95.96875 48.859375 -97.46875 55.234375 -97.46875 C 62.367188 -97.46875 68.832031 -95.75 74.625 -92.3125 C 80.425781 -88.875 84.984375 -83.96875 88.296875 -77.59375 C 91.609375 -71.226562 93.265625 -63.835938 93.265625 -55.421875 L 93.265625 0 L 80.84375 0 L 80.84375 -55.421875 C 80.84375 -64.847656 78.359375 -72.269531 73.390625 -77.6875 C 68.421875 -83.101562 61.988281 -85.8125 54.09375 -85.8125 C 45.675781 -85.8125 38.921875 -83.101562 33.828125 -77.6875 C 28.734375 -72.269531 26.1875 -64.847656 26.1875 -55.421875 L 26.1875 0 Z M 13.765625 0 "/></g></g></g></g></g></svg>