<svg xmlns="http://www.w3.org/2000/svg" xmlns:xlink="http://www.w3.org/1999/xlink" width="1920" zoomAndPan="magnify" viewBox="0 0 1440 809.999993" height="1080" preserveAspectRatio="xMidYMid meet" version="1.0"><defs><g/><clipPath id="201e9b05ca"><path d="M 0.578125 0.578125 L 779.421875 0.578125 L 779.421875 779.421875 L 0.578125 779.421875 Z M 0.578125 0.578125 " clip-rule="nonzero"/></clipPath><clipPath id="56f8cb3176"><path d="M 0.480469 278 L 724 278 L 724 505 L 0.480469 505 Z M 0.480469 278 " clip-rule="nonzero"/></clipPath><clipPath id="0eb4de9410"><path d="M 0.578125 48 L 57 48 L 57 81 L 0.578125 81 Z M 0.578125 48 " clip-rule="nonzero"/></clipPath><clipPath id="36a1521f4e"><path d="M 0.578125 48 L 57 48 L 57 80 L 0.578125 80 Z M 0.578125 48 " clip-rule="nonzero"/></clipPath><clipPath id="dc549a71e3"><path d="M 56 0.21875 L 129 0.21875 L 129 41 L 56 41 Z M 56 0.21875 " clip-rule="nonzero"/></clipPath><clipPath id="070a86cb76"><path d="M 175.402344 119.652344 L 247.589844 119.652344 L 247.589844 160 L 175.402344 160 Z M 175.402344 119.652344 " clip-rule="nonzero"/></clipPath><clipPath id="5898cf652b"><path d="M 40.125 183.535156 L 96.675781 183.535156 L 96.675781 223.585938 L 40.125 223.585938 Z M 40.125 183.535156 " clip-rule="nonzero"/></clipPath><clipPath id="051d72c992"><path d="M 56.203125 215.199219 L 72.835938 215.199219 L 72.835938 223.585938 L 56.203125 223.585938 Z M 56.203125 215.199219 " clip-rule="nonzero"/></clipPath><clipPath id="eb6c966b69"><path d="M 80.042969 135.761719 L 144.355469 135.761719 L 144.355469 223.585938 L 80.042969 223.585938 Z M 80.042969 135.761719 " clip-rule="nonzero"/></clipPath><clipPath id="180f36bcda"><path d="M 304 50 L 723.601562 50 L 723.601562 174 L 304 174 Z M 304 50 " clip-rule="nonzero"/></clipPath><clipPath id="3241924a2a"><rect x="0" width="420" y="0" height="124"/></clipPath><clipPath id="5df4f2b32c"><rect x="0" width="724" y="0" height="227"/></clipPath><clipPath id="45b3d472a9"><rect x="0" width="780" y="0" height="780"/></clipPath></defs><rect x="-144" width="1728" fill="#ffffff" y="-80.999999" height="971.999992" fill-opacity="1"/><g transform="matrix(1, 0, 0, 1, 330, 15)"><g clip-path="url(#45b3d472a9)"><g clip-path="url(#201e9b05ca)"><path fill="#091057" d="M 0.578125 0.578125 L 779.421875 0.578125 L 779.421875 779.421875 L 0.578125 779.421875 Z M 0.578125 0.578125 " fill-opacity="1" fill-rule="nonzero"/></g><g clip-path="url(#56f8cb3176)"><g transform="matrix(1, 0, 0, 1, 0, 278)"><g clip-path="url(#5df4f2b32c)"><g clip-path="url(#0eb4de9410)"><path fill="#63c442" d="M 0.769531 80.003906 L 0.765625 72.019531 L 8.734375 72.015625 L 8.726562 64.046875 L 24.660156 64.039062 L 24.65625 56.074219 L 32.617188 56.066406 L 32.613281 48.085938 L 56.503906 48.082031 L 56.507812 56.074219 L 48.542969 56.078125 L 48.550781 72.019531 L 24.660156 72.027344 L 24.667969 80.003906 L 0.769531 80.003906 " fill-opacity="1" fill-rule="nonzero"/></g><g clip-path="url(#36a1521f4e)"><path fill="#63c442" d="M 24.660156 72.019531 L 24.660156 80 L 0.769531 80 L 0.769531 72.019531 L 8.734375 72.019531 L 8.734375 64.046875 L 24.660156 64.046875 L 24.660156 56.074219 L 32.617188 56.074219 L 32.617188 48.085938 L 56.503906 48.085938 L 56.503906 56.074219 L 48.542969 56.074219 L 48.542969 72.019531 L 24.660156 72.019531 " fill-opacity="1" fill-rule="nonzero"/></g><path fill="#63c442" d="M 136.117188 167.753906 L 136.113281 159.773438 L 152.039062 159.769531 L 152.035156 151.796875 L 160.003906 151.792969 L 160.011719 159.773438 L 167.96875 159.769531 L 167.972656 167.753906 L 136.117188 167.753906 " fill-opacity="1" fill-rule="nonzero"/><path fill="#63c442" d="M 160.003906 159.773438 L 167.96875 159.773438 L 167.96875 167.75 L 136.117188 167.75 L 136.117188 159.773438 L 152.039062 159.773438 L 152.039062 151.796875 L 160.003906 151.796875 L 160.003906 159.773438 " fill-opacity="1" fill-rule="nonzero"/><path fill="#63c442" d="M 32.617188 143.828125 L 32.613281 135.84375 L 40.574219 135.835938 L 40.570312 127.863281 L 48.542969 127.859375 L 48.539062 119.890625 L 72.421875 119.882812 L 72.429688 127.863281 L 64.464844 127.871094 L 64.472656 135.84375 L 48.542969 135.847656 L 48.550781 143.828125 L 32.617188 143.828125 " fill-opacity="1" fill-rule="nonzero"/><path fill="#63c442" d="M 72.421875 119.890625 L 72.421875 127.863281 L 64.464844 127.863281 L 64.464844 135.84375 L 48.542969 135.84375 L 48.542969 143.824219 L 32.617188 143.824219 L 32.617188 135.84375 L 40.574219 135.84375 L 40.574219 127.863281 L 48.542969 127.863281 L 48.542969 119.890625 L 72.421875 119.890625 " fill-opacity="1" fill-rule="nonzero"/><g clip-path="url(#dc549a71e3)"><path fill="#63c442" d="M 56.503906 40.121094 L 56.496094 24.15625 L 64.464844 24.152344 L 64.460938 16.183594 L 72.421875 16.175781 L 72.417969 8.203125 L 88.351562 8.195312 L 88.34375 0.222656 L 128.160156 0.21875 L 128.167969 8.203125 L 120.191406 8.207031 L 120.199219 16.183594 L 112.234375 16.1875 L 112.242188 24.15625 L 72.421875 24.160156 L 72.429688 32.128906 L 64.464844 32.132812 L 64.472656 40.121094 L 56.503906 40.121094 " fill-opacity="1" fill-rule="nonzero"/><path fill="#63c442" d="M 120.191406 16.183594 L 112.234375 16.183594 L 112.234375 24.15625 L 72.421875 24.15625 L 72.421875 32.128906 L 64.464844 32.128906 L 64.464844 40.113281 L 56.503906 40.113281 L 56.503906 24.15625 L 64.464844 24.15625 L 64.464844 16.183594 L 72.421875 16.183594 L 72.421875 8.203125 L 88.351562 8.203125 L 88.351562 0.222656 L 128.160156 0.222656 L 128.160156 8.203125 L 120.191406 8.203125 L 120.191406 16.183594 " fill-opacity="1" fill-rule="nonzero"/></g><path fill="#63c442" d="M 120.191406 95.960938 L 120.1875 87.976562 L 136.117188 87.972656 L 136.113281 80 L 144.078125 79.996094 L 144.070312 72.019531 L 160.003906 72.015625 L 160 64.046875 L 183.882812 64.039062 L 183.886719 87.976562 L 160.003906 87.984375 L 160.011719 95.960938 L 120.191406 95.960938 " fill-opacity="1" fill-rule="nonzero"/><path fill="#63c442" d="M 120.191406 95.957031 L 120.191406 87.976562 L 136.117188 87.976562 L 136.117188 80 L 144.078125 80 L 144.078125 72.019531 L 160.003906 72.019531 L 160.003906 64.046875 L 183.882812 64.046875 L 183.882812 87.976562 L 160.003906 87.976562 L 160.003906 95.957031 L 120.191406 95.957031 " fill-opacity="1" fill-rule="nonzero"/><path fill="#63c442" d="M 160.003906 135.847656 L 160 127.863281 L 167.96875 127.859375 L 167.960938 119.890625 L 183.882812 119.882812 L 183.878906 111.90625 L 199.808594 111.898438 L 199.804688 103.929688 L 215.738281 103.925781 L 215.742188 111.90625 L 207.78125 111.910156 L 207.785156 119.890625 L 191.851562 119.894531 L 191.859375 127.863281 L 175.925781 127.871094 L 175.933594 135.847656 L 160.003906 135.847656 " fill-opacity="1" fill-rule="nonzero"/><path fill="#63c442" d="M 215.738281 103.929688 L 215.738281 111.90625 L 207.78125 111.90625 L 207.78125 119.890625 L 191.851562 119.890625 L 191.851562 127.863281 L 175.925781 127.863281 L 175.925781 135.84375 L 160.003906 135.84375 L 160.003906 127.863281 L 167.96875 127.863281 L 167.96875 119.890625 L 183.882812 119.890625 L 183.882812 111.90625 L 199.808594 111.90625 L 199.808594 103.929688 L 215.738281 103.929688 " fill-opacity="1" fill-rule="nonzero"/><path fill="#398b40" d="M 24.660156 151.800781 L 24.65625 143.824219 L 16.691406 143.828125 L 16.6875 135.84375 L 24.660156 135.835938 L 24.65625 127.863281 L 40.574219 127.859375 L 40.582031 135.84375 L 32.617188 135.847656 L 32.621094 143.824219 L 48.542969 143.816406 L 48.539062 135.84375 L 64.464844 135.835938 L 64.460938 127.863281 L 88.351562 127.859375 L 88.355469 135.84375 L 72.421875 135.847656 L 72.429688 143.824219 L 64.464844 143.828125 L 64.472656 151.800781 L 24.660156 151.800781 " fill-opacity="1" fill-rule="nonzero"/><path fill="#398b40" d="M 88.351562 127.863281 L 88.351562 135.84375 L 72.421875 135.84375 L 72.421875 143.824219 L 64.464844 143.824219 L 64.464844 151.796875 L 24.660156 151.796875 L 24.660156 143.824219 L 16.691406 143.824219 L 16.691406 135.84375 L 24.660156 135.84375 L 24.660156 127.863281 L 40.574219 127.863281 L 40.574219 135.84375 L 32.617188 135.84375 L 32.617188 143.824219 L 48.542969 143.824219 L 48.542969 135.84375 L 64.464844 135.84375 L 64.464844 127.863281 L 88.351562 127.863281 " fill-opacity="1" fill-rule="nonzero"/><path fill="#398b40" d="M 8.734375 87.984375 L 8.726562 80 L 24.660156 79.996094 L 24.65625 72.019531 L 48.542969 72.015625 L 48.539062 56.074219 L 56.503906 56.066406 L 56.496094 48.085938 L 64.464844 48.082031 L 64.472656 56.074219 L 80.386719 56.066406 L 80.390625 64.046875 L 96.308594 64.039062 L 96.304688 56.074219 L 88.351562 56.078125 L 88.34375 48.085938 L 72.421875 48.09375 L 72.417969 40.113281 L 64.464844 40.121094 L 64.460938 32.128906 L 72.421875 32.121094 L 72.417969 24.15625 L 112.234375 24.152344 L 112.230469 16.183594 L 152.039062 16.175781 L 152.046875 24.15625 L 160.003906 24.152344 L 160.011719 32.128906 L 167.96875 32.121094 L 167.972656 40.113281 L 160.003906 40.121094 L 160.011719 48.085938 L 136.117188 48.09375 L 136.125 56.074219 L 128.160156 56.078125 L 128.167969 64.046875 L 104.265625 64.050781 L 104.269531 72.019531 L 88.351562 72.027344 L 88.355469 80 L 48.542969 80.003906 L 48.550781 87.984375 L 8.734375 87.984375 " fill-opacity="1" fill-rule="nonzero"/><path fill="#398b40" d="M 104.265625 72.019531 L 88.351562 72.019531 L 88.351562 80 L 48.542969 80 L 48.542969 87.976562 L 8.734375 87.976562 L 8.734375 80 L 24.660156 80 L 24.660156 72.019531 L 48.542969 72.019531 L 48.542969 56.074219 L 56.503906 56.074219 L 56.503906 48.085938 L 64.464844 48.085938 L 64.464844 56.074219 L 80.386719 56.074219 L 80.386719 64.046875 L 96.308594 64.046875 L 96.308594 56.074219 L 88.351562 56.074219 L 88.351562 48.085938 L 72.421875 48.085938 L 72.421875 40.113281 L 64.464844 40.113281 L 64.464844 32.128906 L 72.421875 32.128906 L 72.421875 24.15625 L 112.234375 24.15625 L 112.234375 16.183594 L 152.039062 16.183594 L 152.039062 24.15625 L 160.003906 24.15625 L 160.003906 32.128906 L 167.96875 32.128906 L 167.96875 40.113281 L 160.003906 40.113281 L 160.003906 48.085938 L 136.117188 48.085938 L 136.117188 56.074219 L 128.160156 56.074219 L 128.160156 64.046875 L 104.265625 64.046875 L 104.265625 72.019531 " fill-opacity="1" fill-rule="nonzero"/><path fill="#398b40" d="M 104.265625 175.730469 L 104.261719 167.75 L 112.234375 167.742188 L 112.230469 159.773438 L 136.117188 159.769531 L 136.125 167.75 L 128.160156 167.753906 L 128.167969 175.730469 L 104.265625 175.730469 " fill-opacity="1" fill-rule="nonzero"/><path fill="#398b40" d="M 136.117188 159.773438 L 136.117188 167.75 L 128.160156 167.75 L 128.160156 175.726562 L 104.265625 175.726562 L 104.265625 167.75 L 112.234375 167.75 L 112.234375 159.773438 L 136.117188 159.773438 " fill-opacity="1" fill-rule="nonzero"/><path fill="#398b40" d="M 183.882812 87.984375 L 183.878906 72.019531 L 191.851562 72.015625 L 191.859375 87.984375 L 183.882812 87.984375 " fill-opacity="1" fill-rule="nonzero"/><path fill="#398b40" d="M 191.851562 87.976562 L 183.882812 87.976562 L 183.882812 72.019531 L 191.851562 72.019531 L 191.851562 87.976562 " fill-opacity="1" fill-rule="nonzero"/><path fill="#398b40" d="M 144.078125 175.730469 L 144.070312 167.75 L 167.96875 167.742188 L 167.960938 159.773438 L 160.003906 159.78125 L 160 143.824219 L 175.925781 143.816406 L 175.933594 151.796875 L 183.882812 151.792969 L 183.886719 167.75 L 199.808594 167.742188 L 199.816406 175.730469 L 144.078125 175.730469 " fill-opacity="1" fill-rule="nonzero"/><path fill="#398b40" d="M 175.925781 143.824219 L 175.925781 151.796875 L 183.882812 151.796875 L 183.882812 167.75 L 199.808594 167.75 L 199.808594 175.726562 L 144.078125 175.726562 L 144.078125 167.75 L 167.96875 167.75 L 167.96875 159.773438 L 160.003906 159.773438 L 160.003906 143.824219 L 175.925781 143.824219 " fill-opacity="1" fill-rule="nonzero"/><path fill="#398b40" d="M 120.191406 103.9375 L 120.1875 95.957031 L 160.003906 95.953125 L 160 87.976562 L 183.882812 87.972656 L 183.886719 95.957031 L 167.96875 95.960938 L 167.972656 103.9375 L 120.191406 103.9375 " fill-opacity="1" fill-rule="nonzero"/><path fill="#398b40" d="M 183.882812 87.976562 L 183.882812 95.957031 L 167.96875 95.957031 L 167.96875 103.929688 L 120.191406 103.929688 L 120.191406 95.957031 L 160.003906 95.957031 L 160.003906 87.976562 L 183.882812 87.976562 " fill-opacity="1" fill-rule="nonzero"/><path fill="#398b40" d="M 136.117188 159.78125 L 136.113281 151.796875 L 152.039062 151.792969 L 152.046875 159.78125 L 136.117188 159.78125 " fill-opacity="1" fill-rule="nonzero"/><path fill="#398b40" d="M 136.117188 159.773438 L 136.117188 151.796875 L 152.039062 151.796875 L 152.039062 159.773438 L 136.117188 159.773438 " fill-opacity="1" fill-rule="nonzero"/><path fill="#398b40" d="M 199.808594 151.800781 L 199.804688 143.824219 L 175.925781 143.828125 L 175.921875 127.863281 L 191.851562 127.859375 L 191.847656 119.890625 L 207.78125 119.882812 L 207.773438 111.90625 L 223.695312 111.898438 L 223.703125 135.84375 L 231.660156 135.835938 L 231.664062 143.824219 L 215.738281 143.828125 L 215.742188 151.800781 L 199.808594 151.800781 " fill-opacity="1" fill-rule="nonzero"/><path fill="#398b40" d="M 231.660156 135.84375 L 231.660156 143.824219 L 215.738281 143.824219 L 215.738281 151.796875 L 199.808594 151.796875 L 199.808594 143.824219 L 175.925781 143.824219 L 175.925781 127.863281 L 191.851562 127.863281 L 191.851562 119.890625 L 207.78125 119.890625 L 207.78125 111.90625 L 223.695312 111.90625 L 223.695312 135.84375 L 231.660156 135.84375 " fill-opacity="1" fill-rule="nonzero"/><path fill="#1f373a" d="M 136.117188 151.800781 L 136.113281 143.824219 L 160.003906 143.816406 L 160.011719 151.800781 L 136.117188 151.800781 " fill-opacity="1" fill-rule="nonzero"/><path fill="#1f373a" d="M 136.117188 151.796875 L 136.117188 143.824219 L 160.003906 143.824219 L 160.003906 151.796875 L 136.117188 151.796875 " fill-opacity="1" fill-rule="nonzero"/><path fill="#1f373a" d="M 128.160156 183.714844 L 128.15625 167.75 L 144.078125 167.742188 L 144.082031 175.726562 L 175.925781 175.722656 L 175.933594 183.714844 L 128.160156 183.714844 " fill-opacity="1" fill-rule="nonzero"/><path fill="#1f373a" d="M 175.925781 175.726562 L 175.925781 183.707031 L 128.160156 183.707031 L 128.160156 167.75 L 144.078125 167.75 L 144.078125 175.726562 L 175.925781 175.726562 " fill-opacity="1" fill-rule="nonzero"/><path fill="#1f373a" d="M 167.96875 143.828125 L 167.960938 135.84375 L 175.925781 135.835938 L 175.933594 143.828125 L 167.96875 143.828125 " fill-opacity="1" fill-rule="nonzero"/><path fill="#1f373a" d="M 175.925781 135.84375 L 175.925781 143.824219 L 167.96875 143.824219 L 167.96875 135.84375 L 175.925781 135.84375 " fill-opacity="1" fill-rule="nonzero"/><path fill="#1f373a" d="M 144.078125 111.910156 L 144.070312 103.929688 L 167.96875 103.925781 L 167.960938 95.957031 L 183.882812 95.953125 L 183.878906 87.976562 L 191.851562 87.972656 L 191.847656 80 L 199.808594 79.996094 L 199.816406 95.957031 L 191.851562 95.960938 L 191.859375 103.929688 L 175.925781 103.9375 L 175.933594 111.910156 L 144.078125 111.910156 " fill-opacity="1" fill-rule="nonzero"/><path fill="#1f373a" d="M 183.882812 95.957031 L 183.882812 87.976562 L 191.851562 87.976562 L 191.851562 80 L 199.808594 80 L 199.808594 95.957031 L 191.851562 95.957031 L 191.851562 103.929688 L 175.925781 103.929688 L 175.925781 111.90625 L 144.078125 111.90625 L 144.078125 103.929688 L 167.96875 103.929688 L 167.96875 95.957031 L 183.882812 95.957031 " fill-opacity="1" fill-rule="nonzero"/><g clip-path="url(#070a86cb76)"><path fill="#1f373a" d="M 191.851562 159.78125 L 191.847656 151.796875 L 175.925781 151.800781 L 175.921875 143.824219 L 199.808594 143.816406 L 199.816406 151.796875 L 215.738281 151.792969 L 215.730469 143.824219 L 231.660156 143.816406 L 231.652344 135.84375 L 223.695312 135.847656 L 223.691406 119.890625 L 231.660156 119.882812 L 231.664062 127.863281 L 239.621094 127.859375 L 239.628906 135.84375 L 247.585938 135.835938 L 247.589844 143.824219 L 239.621094 143.828125 L 239.628906 151.796875 L 223.695312 151.800781 L 223.703125 159.78125 L 191.851562 159.78125 " fill-opacity="1" fill-rule="nonzero"/><path fill="#1f373a" d="M 247.585938 135.84375 L 247.585938 143.824219 L 239.621094 143.824219 L 239.621094 151.796875 L 223.695312 151.796875 L 223.695312 159.773438 L 191.851562 159.773438 L 191.851562 151.796875 L 175.925781 151.796875 L 175.925781 143.824219 L 199.808594 143.824219 L 199.808594 151.796875 L 215.738281 151.796875 L 215.738281 143.824219 L 231.660156 143.824219 L 231.660156 135.84375 L 223.695312 135.84375 L 223.695312 119.890625 L 231.660156 119.890625 L 231.660156 127.863281 L 239.621094 127.863281 L 239.621094 135.84375 L 247.585938 135.84375 " fill-opacity="1" fill-rule="nonzero"/></g><path fill="#1f373a" d="M 80.386719 64.050781 L 80.382812 56.074219 L 64.464844 56.078125 L 64.460938 48.085938 L 56.503906 48.09375 L 56.496094 40.113281 L 72.421875 40.109375 L 72.429688 48.085938 L 88.351562 48.082031 L 88.355469 56.074219 L 96.308594 56.066406 L 96.3125 64.050781 L 80.386719 64.050781 " fill-opacity="1" fill-rule="nonzero"/><path fill="#1f373a" d="M 64.464844 48.085938 L 56.503906 48.085938 L 56.503906 40.113281 L 72.421875 40.113281 L 72.421875 48.085938 L 88.351562 48.085938 L 88.351562 56.074219 L 96.308594 56.074219 L 96.308594 64.046875 L 80.386719 64.046875 L 80.386719 56.074219 L 64.464844 56.074219 L 64.464844 48.085938 " fill-opacity="1" fill-rule="nonzero"/><path fill="#1f373a" d="M 40.574219 103.9375 L 40.570312 95.957031 L 32.617188 95.960938 L 32.613281 87.976562 L 48.542969 87.972656 L 48.539062 80 L 88.351562 79.996094 L 88.34375 72.019531 L 104.265625 72.015625 L 104.261719 64.046875 L 128.160156 64.039062 L 128.15625 56.074219 L 136.117188 56.066406 L 136.113281 48.085938 L 160.003906 48.082031 L 160 40.113281 L 175.925781 40.109375 L 175.933594 48.085938 L 167.96875 48.09375 L 167.972656 56.074219 L 144.078125 56.078125 L 144.082031 64.046875 L 136.117188 64.050781 L 136.125 72.019531 L 112.234375 72.027344 L 112.242188 80 L 96.308594 80.003906 L 96.3125 87.976562 L 64.464844 87.984375 L 64.472656 95.957031 L 56.503906 95.960938 L 56.507812 103.9375 L 40.574219 103.9375 " fill-opacity="1" fill-rule="nonzero"/><path fill="#1f373a" d="M 112.234375 72.019531 L 112.234375 80 L 96.308594 80 L 96.308594 87.976562 L 64.464844 87.976562 L 64.464844 95.957031 L 56.503906 95.957031 L 56.503906 103.929688 L 40.574219 103.929688 L 40.574219 95.957031 L 32.617188 95.957031 L 32.617188 87.976562 L 48.542969 87.976562 L 48.542969 80 L 88.351562 80 L 88.351562 72.019531 L 104.265625 72.019531 L 104.265625 64.046875 L 128.160156 64.046875 L 128.160156 56.074219 L 136.117188 56.074219 L 136.117188 48.085938 L 160.003906 48.085938 L 160.003906 40.113281 L 175.925781 40.113281 L 175.925781 48.085938 L 167.96875 48.085938 L 167.96875 56.074219 L 144.078125 56.074219 L 144.078125 64.046875 L 136.117188 64.046875 L 136.117188 72.019531 L 112.234375 72.019531 " fill-opacity="1" fill-rule="nonzero"/><path fill="#1f373a" d="M 72.421875 127.871094 L 72.417969 119.890625 L 80.386719 119.882812 L 80.390625 127.871094 L 72.421875 127.871094 " fill-opacity="1" fill-rule="nonzero"/><path fill="#1f373a" d="M 80.386719 127.863281 L 72.421875 127.863281 L 72.421875 119.890625 L 80.386719 119.890625 L 80.386719 127.863281 " fill-opacity="1" fill-rule="nonzero"/><path fill="#1f373a" d="M 40.574219 159.78125 L 40.570312 151.796875 L 64.464844 151.792969 L 64.460938 143.824219 L 72.421875 143.816406 L 72.417969 135.84375 L 96.308594 135.835938 L 96.3125 143.824219 L 80.386719 143.828125 L 80.390625 151.796875 L 72.421875 151.800781 L 72.429688 159.78125 L 40.574219 159.78125 " fill-opacity="1" fill-rule="nonzero"/><path fill="#1f373a" d="M 96.308594 135.84375 L 96.308594 143.824219 L 80.386719 143.824219 L 80.386719 151.796875 L 72.421875 151.796875 L 72.421875 159.773438 L 40.574219 159.773438 L 40.574219 151.796875 L 64.464844 151.796875 L 64.464844 143.824219 L 72.421875 143.824219 L 72.421875 135.84375 L 96.308594 135.84375 " fill-opacity="1" fill-rule="nonzero"/><path fill="#1f373a" d="M 120.191406 159.78125 L 120.1875 151.796875 L 136.117188 151.792969 L 136.125 159.78125 L 120.191406 159.78125 " fill-opacity="1" fill-rule="nonzero"/><path fill="#1f373a" d="M 120.191406 159.773438 L 120.191406 151.796875 L 136.117188 151.796875 L 136.117188 159.773438 L 120.191406 159.773438 " fill-opacity="1" fill-rule="nonzero"/><path fill="#5c4f2f" d="M 96.308594 135.847656 L 96.304688 127.863281 L 104.265625 127.859375 L 104.269531 135.847656 L 96.308594 135.847656 " fill-opacity="1" fill-rule="nonzero"/><path fill="#5c4f2f" d="M 104.265625 127.863281 L 104.265625 135.84375 L 96.308594 135.84375 L 96.308594 127.863281 L 104.265625 127.863281 " fill-opacity="1" fill-rule="nonzero"/><path fill="#5c4f2f" d="M 48.542969 119.894531 L 48.539062 111.90625 L 56.503906 111.898438 L 56.507812 119.894531 L 48.542969 119.894531 " fill-opacity="1" fill-rule="nonzero"/><path fill="#5c4f2f" d="M 56.503906 119.890625 L 48.542969 119.890625 L 48.542969 111.90625 L 56.503906 111.90625 L 56.503906 119.890625 " fill-opacity="1" fill-rule="nonzero"/><path fill="#5c4f2f" d="M 56.503906 111.910156 L 56.496094 103.929688 L 64.464844 103.925781 L 64.472656 111.910156 L 56.503906 111.910156 " fill-opacity="1" fill-rule="nonzero"/><path fill="#5c4f2f" d="M 64.464844 111.90625 L 56.503906 111.90625 L 56.503906 103.929688 L 64.464844 103.929688 L 64.464844 111.90625 " fill-opacity="1" fill-rule="nonzero"/><path fill="#5c4f2f" d="M 40.574219 127.871094 L 40.570312 119.890625 L 48.542969 119.882812 L 48.550781 127.871094 L 40.574219 127.871094 " fill-opacity="1" fill-rule="nonzero"/><path fill="#5c4f2f" d="M 48.542969 127.863281 L 40.574219 127.863281 L 40.574219 119.890625 L 48.542969 119.890625 L 48.542969 127.863281 " fill-opacity="1" fill-rule="nonzero"/><path fill="#5c4f2f" d="M 64.464844 95.960938 L 64.460938 87.976562 L 72.421875 87.972656 L 72.429688 95.960938 L 64.464844 95.960938 " fill-opacity="1" fill-rule="nonzero"/><path fill="#5c4f2f" d="M 72.421875 95.957031 L 64.464844 95.957031 L 64.464844 87.976562 L 72.421875 87.976562 L 72.421875 95.957031 " fill-opacity="1" fill-rule="nonzero"/><g clip-path="url(#5898cf652b)"><path fill="#5c4f2f" d="M 72.421875 223.601562 L 72.417969 215.613281 L 56.503906 215.617188 L 56.507812 223.597656 L 40.574219 223.601562 L 40.570312 215.613281 L 48.542969 215.605469 L 48.539062 199.667969 L 56.503906 199.660156 L 56.496094 191.679688 L 72.421875 191.675781 L 72.417969 183.707031 L 88.351562 183.703125 L 88.355469 191.679688 L 96.308594 191.675781 L 96.3125 199.667969 L 88.351562 199.671875 L 88.355469 223.601562 L 72.421875 223.601562 " fill-opacity="1" fill-rule="nonzero"/><path fill="#5c4f2f" d="M 88.351562 191.679688 L 96.308594 191.679688 L 96.308594 199.667969 L 88.351562 199.667969 L 88.351562 223.597656 L 72.421875 223.597656 L 72.421875 215.613281 L 56.503906 215.613281 L 56.503906 223.597656 L 40.574219 223.597656 L 40.574219 215.613281 L 48.542969 215.613281 L 48.542969 199.667969 L 56.503906 199.667969 L 56.503906 191.679688 L 72.421875 191.679688 L 72.421875 183.707031 L 88.351562 183.707031 L 88.351562 191.679688 " fill-opacity="1" fill-rule="nonzero"/></g><path fill="#5c4f2f" d="M 104.265625 159.78125 L 104.261719 151.796875 L 96.308594 151.800781 L 96.304688 143.824219 L 104.265625 143.816406 L 104.261719 135.84375 L 112.234375 135.835938 L 112.242188 143.824219 L 120.191406 143.816406 L 120.199219 151.796875 L 112.234375 151.800781 L 112.242188 159.78125 L 104.265625 159.78125 " fill-opacity="1" fill-rule="nonzero"/><path fill="#5c4f2f" d="M 120.191406 143.824219 L 120.191406 151.796875 L 112.234375 151.796875 L 112.234375 159.773438 L 104.265625 159.773438 L 104.265625 151.796875 L 96.308594 151.796875 L 96.308594 143.824219 L 104.265625 143.824219 L 104.265625 135.84375 L 112.234375 135.84375 L 112.234375 143.824219 L 120.191406 143.824219 " fill-opacity="1" fill-rule="nonzero"/><path fill="#3a301e" d="M 88.351562 135.847656 L 88.34375 127.863281 L 96.308594 127.859375 L 96.3125 135.847656 L 88.351562 135.847656 " fill-opacity="1" fill-rule="nonzero"/><path fill="#3a301e" d="M 96.308594 127.863281 L 96.308594 135.84375 L 88.351562 135.84375 L 88.351562 127.863281 L 96.308594 127.863281 " fill-opacity="1" fill-rule="nonzero"/><path fill="#3a301e" d="M 72.421875 207.644531 L 72.417969 199.667969 L 80.386719 199.660156 L 80.390625 207.644531 L 72.421875 207.644531 " fill-opacity="1" fill-rule="nonzero"/><path fill="#3a301e" d="M 72.421875 199.667969 L 80.386719 199.667969 L 80.386719 207.640625 L 72.421875 207.640625 L 72.421875 199.667969 " fill-opacity="1" fill-rule="nonzero"/><path fill="#3a301e" d="M 56.503906 119.894531 L 56.496094 111.90625 L 64.464844 111.898438 L 64.460938 95.957031 L 72.421875 95.953125 L 72.417969 87.976562 L 112.234375 87.972656 L 112.242188 95.957031 L 120.191406 95.953125 L 120.199219 103.929688 L 88.351562 103.9375 L 88.355469 111.90625 L 72.421875 111.910156 L 72.429688 119.894531 L 56.503906 119.894531 " fill-opacity="1" fill-rule="nonzero"/><path fill="#3a301e" d="M 56.503906 119.890625 L 56.503906 111.90625 L 64.464844 111.90625 L 64.464844 95.957031 L 72.421875 95.957031 L 72.421875 87.976562 L 112.234375 87.976562 L 112.234375 95.957031 L 120.191406 95.957031 L 120.191406 103.929688 L 88.351562 103.929688 L 88.351562 111.90625 L 72.421875 111.90625 L 72.421875 119.890625 L 56.503906 119.890625 " fill-opacity="1" fill-rule="nonzero"/><g clip-path="url(#051d72c992)"><path fill="#3a301e" d="M 56.503906 223.601562 L 56.496094 215.613281 L 72.421875 215.605469 L 72.429688 223.601562 L 56.503906 223.601562 " fill-opacity="1" fill-rule="nonzero"/><path fill="#3a301e" d="M 72.421875 215.613281 L 72.421875 223.597656 L 56.503906 223.597656 L 56.503906 215.613281 L 72.421875 215.613281 " fill-opacity="1" fill-rule="nonzero"/></g><g clip-path="url(#eb6c966b69)"><path fill="#3a301e" d="M 88.351562 223.601562 L 88.34375 199.667969 L 96.308594 199.660156 L 96.304688 191.679688 L 88.351562 191.683594 L 88.34375 175.726562 L 96.308594 175.722656 L 96.304688 159.773438 L 88.351562 159.78125 L 88.34375 151.796875 L 80.386719 151.800781 L 80.382812 143.824219 L 96.308594 143.816406 L 96.304688 135.84375 L 104.265625 135.835938 L 104.269531 143.824219 L 112.234375 143.816406 L 112.230469 135.84375 L 120.191406 135.835938 L 120.199219 143.824219 L 136.117188 143.816406 L 136.125 151.796875 L 120.191406 151.800781 L 120.199219 159.773438 L 112.234375 159.78125 L 112.242188 167.75 L 104.265625 167.753906 L 104.269531 175.726562 L 128.160156 175.722656 L 128.167969 183.707031 L 112.234375 183.714844 L 112.242188 191.679688 L 120.191406 191.675781 L 120.199219 199.667969 L 128.160156 199.660156 L 128.167969 207.640625 L 136.117188 207.632812 L 136.125 215.613281 L 144.078125 215.605469 L 144.082031 223.601562 L 88.351562 223.601562 " fill-opacity="1" fill-rule="nonzero"/><path fill="#3a301e" d="M 144.078125 215.613281 L 144.078125 223.597656 L 88.351562 223.597656 L 88.351562 199.667969 L 96.308594 199.667969 L 96.308594 191.679688 L 88.351562 191.679688 L 88.351562 175.726562 L 96.308594 175.726562 L 96.308594 159.773438 L 88.351562 159.773438 L 88.351562 151.796875 L 80.386719 151.796875 L 80.386719 143.824219 L 96.308594 143.824219 L 96.308594 135.84375 L 104.265625 135.84375 L 104.265625 143.824219 L 112.234375 143.824219 L 112.234375 135.84375 L 120.191406 135.84375 L 120.191406 143.824219 L 136.117188 143.824219 L 136.117188 151.796875 L 120.191406 151.796875 L 120.191406 159.773438 L 112.234375 159.773438 L 112.234375 167.75 L 104.265625 167.75 L 104.265625 175.726562 L 128.160156 175.726562 L 128.160156 183.707031 L 112.234375 183.707031 L 112.234375 191.679688 L 120.191406 191.679688 L 120.191406 199.667969 L 128.160156 199.667969 L 128.160156 207.640625 L 136.117188 207.640625 L 136.117188 215.613281 L 144.078125 215.613281 " fill-opacity="1" fill-rule="nonzero"/></g><g clip-path="url(#180f36bcda)"><g transform="matrix(1, 0, 0, 1, 304, 50)"><g clip-path="url(#3241924a2a)"><g fill="#ffffff" fill-opacity="1"><g transform="translate(0.531367, 98.483609)"><g><path d="M 7.140625 17.859375 L 7.140625 -49.609375 L 11.90625 -49.609375 L 13.59375 -42.875 L 14.09375 -42.875 C 14.75 -43.800781 15.820312 -44.859375 17.3125 -46.046875 C 18.800781 -47.234375 20.65625 -48.289062 22.875 -49.21875 C 25.09375 -50.144531 27.457031 -50.609375 29.96875 -50.609375 C 34.132812 -50.609375 37.953125 -49.515625 41.421875 -47.328125 C 44.898438 -45.148438 47.664062 -42.09375 49.71875 -38.15625 C 51.769531 -34.21875 52.796875 -29.769531 52.796875 -24.8125 C 52.796875 -19.84375 51.769531 -15.390625 49.71875 -11.453125 C 47.664062 -7.523438 44.898438 -4.46875 41.421875 -2.28125 C 37.953125 -0.09375 34.132812 1 29.96875 1 C 27.457031 1 25.09375 0.535156 22.875 -0.390625 C 20.65625 -1.316406 18.785156 -2.375 17.265625 -3.5625 C 15.742188 -4.757812 14.6875 -5.820312 14.09375 -6.75 L 13.59375 -6.75 L 13.59375 17.859375 Z M 29.96875 -5.0625 C 32.945312 -5.0625 35.691406 -5.882812 38.203125 -7.53125 C 40.710938 -9.1875 42.695312 -11.519531 44.15625 -14.53125 C 45.613281 -17.539062 46.34375 -20.96875 46.34375 -24.8125 C 46.34375 -28.644531 45.613281 -32.066406 44.15625 -35.078125 C 42.695312 -38.085938 40.710938 -40.421875 38.203125 -42.078125 C 35.691406 -43.734375 32.945312 -44.5625 29.96875 -44.5625 C 26.988281 -44.5625 24.242188 -43.734375 21.734375 -42.078125 C 19.222656 -40.421875 17.238281 -38.085938 15.78125 -35.078125 C 14.320312 -32.066406 13.59375 -28.644531 13.59375 -24.8125 C 13.59375 -20.96875 14.320312 -17.539062 15.78125 -14.53125 C 17.238281 -11.519531 19.222656 -9.1875 21.734375 -7.53125 C 24.242188 -5.882812 26.988281 -5.0625 29.96875 -5.0625 Z M 29.96875 -5.0625 "/></g></g></g><g fill="#ffffff" fill-opacity="1"><g transform="translate(57.188636, 98.483609)"><g><path d="M 32.25 -35.234375 L 55.171875 0 L 47.03125 0 L 28.1875 -29.578125 L 9.125 0 L 1.484375 0 L 24.3125 -35.234375 L 2.578125 -69.46875 L 10.515625 -69.46875 L 28.484375 -40.984375 L 46.34375 -69.46875 L 54.078125 -69.46875 Z M 32.25 -35.234375 "/></g></g></g><g fill="#ffffff" fill-opacity="1"><g transform="translate(110.868848, 98.483609)"><g/></g></g><g fill="#ffffff" fill-opacity="1"><g transform="translate(134.48431, 98.483609)"><g><path d="M 26.6875 1 C 22.519531 1 18.695312 -0.09375 15.21875 -2.28125 C 11.75 -4.46875 8.988281 -7.523438 6.9375 -11.453125 C 4.894531 -15.390625 3.875 -19.84375 3.875 -24.8125 C 3.875 -29.769531 4.894531 -34.21875 6.9375 -38.15625 C 8.988281 -42.09375 11.75 -45.148438 15.21875 -47.328125 C 18.695312 -49.515625 22.519531 -50.609375 26.6875 -50.609375 C 29.207031 -50.609375 31.570312 -50.144531 33.78125 -49.21875 C 36 -48.289062 37.867188 -47.234375 39.390625 -46.046875 C 40.910156 -44.859375 41.972656 -43.800781 42.578125 -42.875 L 43.0625 -42.875 L 43.0625 -69.46875 L 49.515625 -69.46875 L 49.515625 0 L 44.75 0 L 43.0625 -6.75 L 42.578125 -6.75 C 41.910156 -5.820312 40.832031 -4.757812 39.34375 -3.5625 C 37.851562 -2.375 36 -1.316406 33.78125 -0.390625 C 31.570312 0.535156 29.207031 1 26.6875 1 Z M 26.6875 -5.0625 C 29.664062 -5.0625 32.410156 -5.882812 34.921875 -7.53125 C 37.441406 -9.1875 39.425781 -11.519531 40.875 -14.53125 C 42.332031 -17.539062 43.0625 -20.96875 43.0625 -24.8125 C 43.0625 -28.644531 42.332031 -32.066406 40.875 -35.078125 C 39.425781 -38.085938 37.441406 -40.421875 34.921875 -42.078125 C 32.410156 -43.734375 29.664062 -44.5625 26.6875 -44.5625 C 23.71875 -44.5625 20.972656 -43.734375 18.453125 -42.078125 C 15.941406 -40.421875 13.957031 -38.085938 12.5 -35.078125 C 11.050781 -32.066406 10.328125 -28.644531 10.328125 -24.8125 C 10.328125 -20.96875 11.050781 -17.539062 12.5 -14.53125 C 13.957031 -11.519531 15.941406 -9.1875 18.453125 -7.53125 C 20.972656 -5.882812 23.71875 -5.0625 26.6875 -5.0625 Z M 26.6875 -5.0625 "/></g></g></g><g fill="#ffffff" fill-opacity="1"><g transform="translate(191.637719, 98.483609)"><g><path d="M 49.421875 -26.296875 C 49.421875 -24.242188 49.285156 -22.691406 49.015625 -21.640625 L 10.515625 -21.640625 C 11.046875 -16.535156 12.847656 -12.492188 15.921875 -9.515625 C 19.003906 -6.546875 22.828125 -5.0625 27.390625 -5.0625 C 33.472656 -5.0625 38.070312 -7.675781 41.1875 -12.90625 L 47.625 -12.90625 C 46.101562 -8.863281 43.488281 -5.535156 39.78125 -2.921875 C 36.082031 -0.304688 31.882812 1 27.1875 1 C 22.820312 1 18.867188 -0.09375 15.328125 -2.28125 C 11.785156 -4.46875 8.988281 -7.507812 6.9375 -11.40625 C 4.894531 -15.3125 3.875 -19.78125 3.875 -24.8125 C 3.875 -29.707031 4.914062 -34.117188 7 -38.046875 C 9.082031 -41.984375 11.910156 -45.0625 15.484375 -47.28125 C 19.054688 -49.5 22.957031 -50.609375 27.1875 -50.609375 C 31.351562 -50.609375 35.140625 -49.53125 38.546875 -47.375 C 41.953125 -45.226562 44.613281 -42.300781 46.53125 -38.59375 C 48.457031 -34.894531 49.421875 -30.796875 49.421875 -26.296875 Z M 27.1875 -44.5625 C 24.40625 -44.5625 21.804688 -43.847656 19.390625 -42.421875 C 16.984375 -41.003906 14.96875 -38.988281 13.34375 -36.375 C 11.726562 -33.757812 10.753906 -30.796875 10.421875 -27.484375 L 42.875 -27.484375 C 42.539062 -32.453125 40.914062 -36.539062 38 -39.75 C 35.09375 -42.957031 31.488281 -44.5625 27.1875 -44.5625 Z M 27.1875 -44.5625 "/></g></g></g><g fill="#ffffff" fill-opacity="1"><g transform="translate(244.921349, 98.483609)"><g><path d="M 22.125 1 C 18.75 1 15.707031 0.285156 13 -1.140625 C 10.289062 -2.566406 8.140625 -4.46875 6.546875 -6.84375 C 4.960938 -9.226562 4.070312 -11.742188 3.875 -14.390625 L 10.328125 -14.390625 C 10.648438 -11.609375 11.835938 -9.359375 13.890625 -7.640625 C 15.941406 -5.921875 18.6875 -5.0625 22.125 -5.0625 C 25.5 -5.0625 28.09375 -5.820312 29.90625 -7.34375 C 31.726562 -8.863281 32.640625 -10.78125 32.640625 -13.09375 C 32.640625 -14.8125 32.109375 -16.234375 31.046875 -17.359375 C 29.992188 -18.484375 28.707031 -19.394531 27.1875 -20.09375 C 25.664062 -20.789062 23.515625 -21.566406 20.734375 -22.421875 C 17.359375 -23.484375 14.644531 -24.492188 12.59375 -25.453125 C 10.550781 -26.410156 8.800781 -27.796875 7.34375 -29.609375 C 5.882812 -31.429688 5.15625 -33.800781 5.15625 -36.71875 C 5.15625 -39.300781 5.832031 -41.648438 7.1875 -43.765625 C 8.550781 -45.878906 10.457031 -47.546875 12.90625 -48.765625 C 15.351562 -49.992188 18.195312 -50.609375 21.4375 -50.609375 C 24.613281 -50.609375 27.457031 -49.945312 29.96875 -48.625 C 32.476562 -47.300781 34.460938 -45.5 35.921875 -43.21875 C 37.378906 -40.9375 38.207031 -38.4375 38.40625 -35.71875 L 31.953125 -35.71875 C 31.617188 -38.5 30.554688 -40.664062 28.765625 -42.21875 C 26.984375 -43.78125 24.539062 -44.5625 21.4375 -44.5625 C 18.320312 -44.5625 15.90625 -43.847656 14.1875 -42.421875 C 12.46875 -41.003906 11.609375 -39.203125 11.609375 -37.015625 C 11.609375 -34.628906 12.566406 -32.820312 14.484375 -31.59375 C 16.398438 -30.375 19.34375 -29.140625 23.3125 -27.890625 C 26.6875 -26.765625 29.414062 -25.6875 31.5 -24.65625 C 33.582031 -23.632812 35.367188 -22.195312 36.859375 -20.34375 C 38.347656 -18.488281 39.09375 -16.070312 39.09375 -13.09375 C 39.09375 -9.0625 37.570312 -5.703125 34.53125 -3.015625 C 31.488281 -0.335938 27.351562 1 22.125 1 Z M 22.125 1 "/></g></g></g><g fill="#ffffff" fill-opacity="1"><g transform="translate(288.084084, 98.483609)"><g><path d="M 13.59375 0 L 7.140625 0 L 7.140625 -49.609375 L 13.59375 -49.609375 Z M 10.421875 -57.5625 C 9.160156 -57.5625 8.097656 -57.988281 7.234375 -58.84375 C 6.378906 -59.707031 5.953125 -60.765625 5.953125 -62.015625 C 5.953125 -63.335938 6.378906 -64.410156 7.234375 -65.234375 C 8.097656 -66.066406 9.160156 -66.484375 10.421875 -66.484375 C 11.742188 -66.484375 12.816406 -66.066406 13.640625 -65.234375 C 14.460938 -64.410156 14.875 -63.335938 14.875 -62.015625 C 14.875 -60.765625 14.441406 -59.707031 13.578125 -58.84375 C 12.722656 -57.988281 11.671875 -57.5625 10.421875 -57.5625 Z M 10.421875 -57.5625 "/></g></g></g><g fill="#ffffff" fill-opacity="1"><g transform="translate(308.822036, 98.483609)"><g><path d="M 27.09375 18.859375 C 21.726562 18.859375 17.160156 17.5 13.390625 14.78125 C 9.617188 12.070312 7.171875 8.4375 6.046875 3.875 L 12.5 3.875 C 13.425781 6.644531 15.160156 8.820312 17.703125 10.40625 C 20.253906 12 23.382812 12.796875 27.09375 12.796875 C 31.519531 12.796875 35.085938 11.472656 37.796875 8.828125 C 40.515625 6.179688 41.875 2.675781 41.875 -1.6875 L 41.875 -9.53125 L 41.375 -9.53125 C 40.78125 -8.601562 39.753906 -7.523438 38.296875 -6.296875 C 36.847656 -5.078125 35.0625 -4.003906 32.9375 -3.078125 C 30.820312 -2.148438 28.539062 -1.6875 26.09375 -1.6875 C 22.0625 -1.6875 18.34375 -2.742188 14.9375 -4.859375 C 11.53125 -6.972656 8.832031 -9.898438 6.84375 -13.640625 C 4.863281 -17.378906 3.875 -21.53125 3.875 -26.09375 C 3.875 -30.726562 4.863281 -34.914062 6.84375 -38.65625 C 8.832031 -42.394531 11.53125 -45.320312 14.9375 -47.4375 C 18.34375 -49.550781 22.0625 -50.609375 26.09375 -50.609375 C 28.539062 -50.609375 30.820312 -50.160156 32.9375 -49.265625 C 35.0625 -48.378906 36.847656 -47.320312 38.296875 -46.09375 C 39.753906 -44.875 40.78125 -43.800781 41.375 -42.875 L 41.875 -42.875 L 43.5625 -49.609375 L 48.328125 -49.609375 L 48.328125 -1.6875 C 48.328125 2.34375 47.429688 5.910156 45.640625 9.015625 C 43.859375 12.128906 41.363281 14.546875 38.15625 16.265625 C 34.945312 17.992188 31.257812 18.859375 27.09375 18.859375 Z M 26.09375 -7.734375 C 28.875 -7.734375 31.472656 -8.523438 33.890625 -10.109375 C 36.304688 -11.703125 38.238281 -13.90625 39.6875 -16.71875 C 41.144531 -19.53125 41.875 -22.65625 41.875 -26.09375 C 41.875 -29.601562 41.144531 -32.765625 39.6875 -35.578125 C 38.238281 -38.390625 36.304688 -40.585938 33.890625 -42.171875 C 31.472656 -43.765625 28.875 -44.5625 26.09375 -44.5625 C 23.25 -44.5625 20.617188 -43.765625 18.203125 -42.171875 C 15.796875 -40.585938 13.878906 -38.390625 12.453125 -35.578125 C 11.035156 -32.765625 10.328125 -29.601562 10.328125 -26.09375 C 10.328125 -22.65625 11.035156 -19.53125 12.453125 -16.71875 C 13.878906 -13.90625 15.796875 -11.703125 18.203125 -10.109375 C 20.617188 -8.523438 23.25 -7.734375 26.09375 -7.734375 Z M 26.09375 -7.734375 "/></g></g></g><g fill="#ffffff" fill-opacity="1"><g transform="translate(364.288614, 98.483609)"><g><path d="M 7.140625 0 L 7.140625 -49.609375 L 11.90625 -49.609375 L 13.59375 -42.875 L 14.09375 -42.875 C 15.414062 -44.925781 17.347656 -46.726562 19.890625 -48.28125 C 22.441406 -49.832031 25.367188 -50.609375 28.671875 -50.609375 C 32.378906 -50.609375 35.738281 -49.710938 38.75 -47.921875 C 41.757812 -46.140625 44.125 -43.59375 45.84375 -40.28125 C 47.5625 -36.976562 48.421875 -33.144531 48.421875 -28.78125 L 48.421875 0 L 41.96875 0 L 41.96875 -28.78125 C 41.96875 -33.675781 40.675781 -37.53125 38.09375 -40.34375 C 35.519531 -43.15625 32.179688 -44.5625 28.078125 -44.5625 C 23.710938 -44.5625 20.207031 -43.15625 17.5625 -40.34375 C 14.914062 -37.53125 13.59375 -33.675781 13.59375 -28.78125 L 13.59375 0 Z M 7.140625 0 "/></g></g></g></g></g></g></g></g></g></g></g></svg>