<svg xmlns="http://www.w3.org/2000/svg" xmlns:xlink="http://www.w3.org/1999/xlink" width="5000" zoomAndPan="magnify" viewBox="0 0 3750 3749.999967" height="5000" preserveAspectRatio="xMidYMid meet" version="1.0"><defs><g/><clipPath id="1da46f2c72"><path d="M 270 0.792969 L 617 0.792969 L 617 193 L 270 193 Z M 270 0.792969 " clip-rule="nonzero"/></clipPath><clipPath id="17c2effaff"><path d="M 846 576 L 1192.90625 576 L 1192.90625 770 L 846 770 Z M 846 576 " clip-rule="nonzero"/></clipPath><clipPath id="e7cf079df1"><path d="M 193 884 L 463 884 L 463 1076.269531 L 193 1076.269531 Z M 193 884 " clip-rule="nonzero"/></clipPath><clipPath id="117895e1ef"><path d="M 270 1037 L 347 1037 L 347 1076.269531 L 270 1076.269531 Z M 270 1037 " clip-rule="nonzero"/></clipPath><clipPath id="52c1f4d0e1"><path d="M 385 653.40625 L 694 653.40625 L 694 1076.269531 L 385 1076.269531 Z M 385 653.40625 " clip-rule="nonzero"/></clipPath><clipPath id="28885c675d"><rect x="0" width="3481" y="0" height="1081"/></clipPath></defs><rect x="-375" width="4500" fill="#ffffff" y="-374.999997" height="4499.99996" fill-opacity="1"/><rect x="-375" width="4500" fill="#091057" y="-374.999997" height="4499.99996" fill-opacity="1"/><g transform="matrix(1, 0, 0, 1, 0, 1336)"><g clip-path="url(#28885c675d)"><path fill="#63c442" d="M 0.9375 384.949219 L 0.90625 346.5 L 39.390625 346.480469 L 39.359375 308.117188 L 116.304688 308.085938 L 116.28125 269.71875 L 154.738281 269.699219 L 154.707031 231.273438 L 270.085938 231.242188 L 270.105469 269.71875 L 231.652344 269.75 L 231.683594 346.5 L 116.304688 346.53125 L 116.335938 384.949219 L 0.9375 384.949219 " fill-opacity="1" fill-rule="nonzero"/><path fill="#63c442" d="M 116.304688 346.5 L 116.304688 384.917969 L 0.9375 384.917969 L 0.9375 346.5 L 39.390625 346.5 L 39.390625 308.117188 L 116.304688 308.117188 L 116.304688 269.71875 L 154.738281 269.71875 L 154.738281 231.273438 L 270.085938 231.273438 L 270.085938 269.71875 L 231.652344 269.71875 L 231.652344 346.5 L 116.304688 346.5 " fill-opacity="1" fill-rule="nonzero"/><path fill="#63c442" d="M 654.574219 807.441406 L 654.554688 769.023438 L 731.464844 769.003906 L 731.445312 730.605469 L 769.929688 730.585938 L 769.953125 769.023438 L 808.386719 769.003906 L 808.410156 807.441406 L 654.574219 807.441406 " fill-opacity="1" fill-rule="nonzero"/><path fill="#63c442" d="M 769.929688 769.023438 L 808.386719 769.023438 L 808.386719 807.421875 L 654.574219 807.421875 L 654.574219 769.023438 L 731.464844 769.023438 L 731.464844 730.605469 L 769.929688 730.605469 L 769.929688 769.023438 " fill-opacity="1" fill-rule="nonzero"/><path fill="#63c442" d="M 154.738281 692.242188 L 154.707031 653.792969 L 193.164062 653.773438 L 193.144531 615.378906 L 231.652344 615.355469 L 231.628906 576.992188 L 346.96875 576.960938 L 347 615.378906 L 308.542969 615.410156 L 308.5625 653.792969 L 231.652344 653.824219 L 231.683594 692.242188 L 154.738281 692.242188 " fill-opacity="1" fill-rule="nonzero"/><path fill="#63c442" d="M 346.96875 576.992188 L 346.96875 615.378906 L 308.542969 615.378906 L 308.542969 653.792969 L 231.652344 653.792969 L 231.652344 692.222656 L 154.738281 692.222656 L 154.738281 653.792969 L 193.164062 653.792969 L 193.164062 615.378906 L 231.652344 615.378906 L 231.652344 576.992188 L 346.96875 576.992188 " fill-opacity="1" fill-rule="nonzero"/><g clip-path="url(#1da46f2c72)"><path fill="#63c442" d="M 270.085938 192.90625 L 270.054688 116.042969 L 308.542969 116.023438 L 308.511719 77.65625 L 346.96875 77.625 L 346.945312 39.230469 L 423.890625 39.207031 L 423.859375 0.8125 L 616.148438 0.792969 L 616.179688 39.230469 L 577.660156 39.261719 L 577.691406 77.65625 L 539.238281 77.679688 L 539.257812 116.042969 L 346.96875 116.074219 L 347 154.4375 L 308.542969 154.460938 L 308.5625 192.90625 L 270.085938 192.90625 " fill-opacity="1" fill-rule="nonzero"/><path fill="#63c442" d="M 577.660156 77.65625 L 539.238281 77.65625 L 539.238281 116.042969 L 346.96875 116.042969 L 346.96875 154.4375 L 308.542969 154.4375 L 308.542969 192.886719 L 270.085938 192.886719 L 270.085938 116.042969 L 308.542969 116.042969 L 308.542969 77.65625 L 346.96875 77.65625 L 346.96875 39.230469 L 423.890625 39.230469 L 423.890625 0.8125 L 616.148438 0.8125 L 616.148438 39.230469 L 577.660156 39.230469 L 577.660156 77.65625 " fill-opacity="1" fill-rule="nonzero"/></g><path fill="#63c442" d="M 577.660156 461.785156 L 577.640625 423.335938 L 654.574219 423.3125 L 654.554688 384.917969 L 693.007812 384.898438 L 692.976562 346.5 L 769.929688 346.480469 L 769.898438 308.117188 L 885.246094 308.085938 L 885.269531 423.335938 L 769.929688 423.367188 L 769.953125 461.785156 L 577.660156 461.785156 " fill-opacity="1" fill-rule="nonzero"/><path fill="#63c442" d="M 577.660156 461.761719 L 577.660156 423.335938 L 654.574219 423.335938 L 654.574219 384.917969 L 693.007812 384.917969 L 693.007812 346.5 L 769.929688 346.5 L 769.929688 308.117188 L 885.246094 308.117188 L 885.246094 423.335938 L 769.929688 423.335938 L 769.929688 461.761719 L 577.660156 461.761719 " fill-opacity="1" fill-rule="nonzero"/><path fill="#63c442" d="M 769.929688 653.824219 L 769.898438 615.378906 L 808.386719 615.355469 L 808.355469 576.992188 L 885.246094 576.960938 L 885.214844 538.542969 L 962.160156 538.511719 L 962.136719 500.148438 L 1039.082031 500.128906 L 1039.101562 538.542969 L 1000.648438 538.566406 L 1000.679688 576.992188 L 923.734375 577.011719 L 923.753906 615.378906 L 846.8125 615.410156 L 846.84375 653.824219 L 769.929688 653.824219 " fill-opacity="1" fill-rule="nonzero"/><path fill="#63c442" d="M 1039.082031 500.148438 L 1039.082031 538.542969 L 1000.648438 538.542969 L 1000.648438 576.992188 L 923.734375 576.992188 L 923.734375 615.378906 L 846.8125 615.378906 L 846.8125 653.792969 L 769.929688 653.792969 L 769.929688 615.378906 L 808.386719 615.378906 L 808.386719 576.992188 L 885.246094 576.992188 L 885.246094 538.542969 L 962.160156 538.542969 L 962.160156 500.148438 L 1039.082031 500.148438 " fill-opacity="1" fill-rule="nonzero"/><path fill="#398b40" d="M 116.304688 730.636719 L 116.28125 692.222656 L 77.816406 692.242188 L 77.796875 653.792969 L 116.304688 653.773438 L 116.28125 615.378906 L 193.164062 615.355469 L 193.195312 653.792969 L 154.738281 653.824219 L 154.761719 692.222656 L 231.652344 692.191406 L 231.628906 653.792969 L 308.542969 653.773438 L 308.511719 615.378906 L 423.890625 615.355469 L 423.910156 653.792969 L 346.96875 653.824219 L 347 692.222656 L 308.542969 692.242188 L 308.5625 730.636719 L 116.304688 730.636719 " fill-opacity="1" fill-rule="nonzero"/><path fill="#398b40" d="M 423.890625 615.378906 L 423.890625 653.792969 L 346.96875 653.792969 L 346.96875 692.222656 L 308.542969 692.222656 L 308.542969 730.605469 L 116.304688 730.605469 L 116.304688 692.222656 L 77.816406 692.222656 L 77.816406 653.792969 L 116.304688 653.792969 L 116.304688 615.378906 L 193.164062 615.378906 L 193.164062 653.792969 L 154.738281 653.792969 L 154.738281 692.222656 L 231.652344 692.222656 L 231.652344 653.792969 L 308.542969 653.792969 L 308.542969 615.378906 L 423.890625 615.378906 " fill-opacity="1" fill-rule="nonzero"/><path fill="#398b40" d="M 39.390625 423.367188 L 39.359375 384.917969 L 116.304688 384.898438 L 116.28125 346.5 L 231.652344 346.480469 L 231.628906 269.71875 L 270.085938 269.699219 L 270.054688 231.273438 L 308.542969 231.242188 L 308.5625 269.71875 L 385.421875 269.699219 L 385.453125 308.117188 L 462.316406 308.085938 L 462.292969 269.71875 L 423.890625 269.75 L 423.859375 231.273438 L 346.96875 231.304688 L 346.945312 192.886719 L 308.542969 192.90625 L 308.511719 154.4375 L 346.96875 154.40625 L 346.945312 116.042969 L 539.238281 116.023438 L 539.207031 77.65625 L 731.464844 77.625 L 731.496094 116.042969 L 769.929688 116.023438 L 769.953125 154.4375 L 808.386719 154.40625 L 808.410156 192.886719 L 769.929688 192.90625 L 769.953125 231.273438 L 654.574219 231.304688 L 654.605469 269.71875 L 616.148438 269.75 L 616.179688 308.117188 L 500.75 308.136719 L 500.769531 346.5 L 423.890625 346.53125 L 423.910156 384.917969 L 231.652344 384.949219 L 231.683594 423.367188 L 39.390625 423.367188 " fill-opacity="1" fill-rule="nonzero"/><path fill="#398b40" d="M 500.75 346.5 L 423.890625 346.5 L 423.890625 384.917969 L 231.652344 384.917969 L 231.652344 423.335938 L 39.390625 423.335938 L 39.390625 384.917969 L 116.304688 384.917969 L 116.304688 346.5 L 231.652344 346.5 L 231.652344 269.71875 L 270.085938 269.71875 L 270.085938 231.273438 L 308.542969 231.273438 L 308.542969 269.71875 L 385.421875 269.71875 L 385.421875 308.117188 L 462.316406 308.117188 L 462.316406 269.71875 L 423.890625 269.71875 L 423.890625 231.273438 L 346.96875 231.273438 L 346.96875 192.886719 L 308.542969 192.886719 L 308.542969 154.4375 L 346.96875 154.4375 L 346.96875 116.042969 L 539.238281 116.042969 L 539.238281 77.65625 L 731.464844 77.65625 L 731.464844 116.042969 L 769.929688 116.042969 L 769.929688 154.4375 L 808.386719 154.4375 L 808.386719 192.886719 L 769.929688 192.886719 L 769.929688 231.273438 L 654.574219 231.273438 L 654.574219 269.71875 L 616.148438 269.71875 L 616.148438 308.117188 L 500.75 308.117188 L 500.75 346.5 " fill-opacity="1" fill-rule="nonzero"/><path fill="#398b40" d="M 500.75 845.859375 L 500.71875 807.421875 L 539.238281 807.386719 L 539.207031 769.023438 L 654.574219 769.003906 L 654.605469 807.421875 L 616.148438 807.441406 L 616.179688 845.859375 L 500.75 845.859375 " fill-opacity="1" fill-rule="nonzero"/><path fill="#398b40" d="M 654.574219 769.023438 L 654.574219 807.421875 L 616.148438 807.421875 L 616.148438 845.835938 L 500.75 845.835938 L 500.75 807.421875 L 539.238281 807.421875 L 539.238281 769.023438 L 654.574219 769.023438 " fill-opacity="1" fill-rule="nonzero"/><path fill="#398b40" d="M 885.246094 423.367188 L 885.214844 346.5 L 923.734375 346.480469 L 923.753906 423.367188 L 885.246094 423.367188 " fill-opacity="1" fill-rule="nonzero"/><path fill="#398b40" d="M 923.734375 423.335938 L 885.246094 423.335938 L 885.246094 346.5 L 923.734375 346.5 L 923.734375 423.335938 " fill-opacity="1" fill-rule="nonzero"/><path fill="#398b40" d="M 693.007812 845.859375 L 692.976562 807.421875 L 808.386719 807.386719 L 808.355469 769.023438 L 769.929688 769.054688 L 769.898438 692.222656 L 846.8125 692.191406 L 846.84375 730.605469 L 885.246094 730.585938 L 885.269531 807.421875 L 962.160156 807.386719 L 962.191406 845.859375 L 693.007812 845.859375 " fill-opacity="1" fill-rule="nonzero"/><path fill="#398b40" d="M 846.8125 692.222656 L 846.8125 730.605469 L 885.246094 730.605469 L 885.246094 807.421875 L 962.160156 807.421875 L 962.160156 845.835938 L 693.007812 845.835938 L 693.007812 807.421875 L 808.386719 807.421875 L 808.386719 769.023438 L 769.929688 769.023438 L 769.929688 692.222656 L 846.8125 692.222656 " fill-opacity="1" fill-rule="nonzero"/><path fill="#398b40" d="M 577.660156 500.179688 L 577.640625 461.761719 L 769.929688 461.730469 L 769.898438 423.335938 L 885.246094 423.3125 L 885.269531 461.761719 L 808.386719 461.785156 L 808.410156 500.179688 L 577.660156 500.179688 " fill-opacity="1" fill-rule="nonzero"/><path fill="#398b40" d="M 885.246094 423.335938 L 885.246094 461.761719 L 808.386719 461.761719 L 808.386719 500.148438 L 577.660156 500.148438 L 577.660156 461.761719 L 769.929688 461.761719 L 769.929688 423.335938 L 885.246094 423.335938 " fill-opacity="1" fill-rule="nonzero"/><path fill="#398b40" d="M 654.574219 769.054688 L 654.554688 730.605469 L 731.464844 730.585938 L 731.496094 769.054688 L 654.574219 769.054688 " fill-opacity="1" fill-rule="nonzero"/><path fill="#398b40" d="M 654.574219 769.023438 L 654.574219 730.605469 L 731.464844 730.605469 L 731.464844 769.023438 L 654.574219 769.023438 " fill-opacity="1" fill-rule="nonzero"/><path fill="#398b40" d="M 962.160156 730.636719 L 962.136719 692.222656 L 846.8125 692.242188 L 846.792969 615.378906 L 923.734375 615.355469 L 923.703125 576.992188 L 1000.648438 576.960938 L 1000.625 538.542969 L 1077.507812 538.511719 L 1077.539062 653.792969 L 1115.972656 653.773438 L 1115.996094 692.222656 L 1039.082031 692.242188 L 1039.101562 730.636719 L 962.160156 730.636719 " fill-opacity="1" fill-rule="nonzero"/><path fill="#398b40" d="M 1115.972656 653.792969 L 1115.972656 692.222656 L 1039.082031 692.222656 L 1039.082031 730.605469 L 962.160156 730.605469 L 962.160156 692.222656 L 846.8125 692.222656 L 846.8125 615.378906 L 923.734375 615.378906 L 923.734375 576.992188 L 1000.648438 576.992188 L 1000.648438 538.542969 L 1077.507812 538.542969 L 1077.507812 653.792969 L 1115.972656 653.792969 " fill-opacity="1" fill-rule="nonzero"/><path fill="#1f373a" d="M 654.574219 730.636719 L 654.554688 692.222656 L 769.929688 692.191406 L 769.953125 730.636719 L 654.574219 730.636719 " fill-opacity="1" fill-rule="nonzero"/><path fill="#1f373a" d="M 654.574219 730.605469 L 654.574219 692.222656 L 769.929688 692.222656 L 769.929688 730.605469 L 654.574219 730.605469 " fill-opacity="1" fill-rule="nonzero"/><path fill="#1f373a" d="M 616.148438 884.285156 L 616.128906 807.421875 L 693.007812 807.386719 L 693.039062 845.835938 L 846.8125 845.816406 L 846.84375 884.285156 L 616.148438 884.285156 " fill-opacity="1" fill-rule="nonzero"/><path fill="#1f373a" d="M 846.8125 845.835938 L 846.8125 884.253906 L 616.148438 884.253906 L 616.148438 807.421875 L 693.007812 807.421875 L 693.007812 845.835938 L 846.8125 845.835938 " fill-opacity="1" fill-rule="nonzero"/><path fill="#1f373a" d="M 808.386719 692.242188 L 808.355469 653.792969 L 846.8125 653.773438 L 846.84375 692.242188 L 808.386719 692.242188 " fill-opacity="1" fill-rule="nonzero"/><path fill="#1f373a" d="M 846.8125 653.792969 L 846.8125 692.222656 L 808.386719 692.222656 L 808.386719 653.792969 L 846.8125 653.792969 " fill-opacity="1" fill-rule="nonzero"/><path fill="#1f373a" d="M 693.007812 538.566406 L 692.976562 500.148438 L 808.386719 500.128906 L 808.355469 461.761719 L 885.246094 461.730469 L 885.214844 423.335938 L 923.734375 423.3125 L 923.703125 384.917969 L 962.160156 384.898438 L 962.191406 461.761719 L 923.734375 461.785156 L 923.753906 500.148438 L 846.8125 500.179688 L 846.84375 538.566406 L 693.007812 538.566406 " fill-opacity="1" fill-rule="nonzero"/><path fill="#1f373a" d="M 885.246094 461.761719 L 885.246094 423.335938 L 923.734375 423.335938 L 923.734375 384.917969 L 962.160156 384.917969 L 962.160156 461.761719 L 923.734375 461.761719 L 923.734375 500.148438 L 846.8125 500.148438 L 846.8125 538.542969 L 693.007812 538.542969 L 693.007812 500.148438 L 808.386719 500.148438 L 808.386719 461.761719 L 885.246094 461.761719 " fill-opacity="1" fill-rule="nonzero"/><g clip-path="url(#17c2effaff)"><path fill="#1f373a" d="M 923.734375 769.054688 L 923.703125 730.605469 L 846.8125 730.636719 L 846.792969 692.222656 L 962.160156 692.191406 L 962.191406 730.605469 L 1039.082031 730.585938 L 1039.050781 692.222656 L 1115.972656 692.191406 L 1115.941406 653.792969 L 1077.507812 653.824219 L 1077.484375 576.992188 L 1115.972656 576.960938 L 1115.996094 615.378906 L 1154.429688 615.355469 L 1154.449219 653.792969 L 1192.886719 653.773438 L 1192.90625 692.222656 L 1154.429688 692.242188 L 1154.449219 730.605469 L 1077.507812 730.636719 L 1077.539062 769.054688 L 923.734375 769.054688 " fill-opacity="1" fill-rule="nonzero"/><path fill="#1f373a" d="M 1192.886719 653.792969 L 1192.886719 692.222656 L 1154.429688 692.222656 L 1154.429688 730.605469 L 1077.507812 730.605469 L 1077.507812 769.023438 L 923.734375 769.023438 L 923.734375 730.605469 L 846.8125 730.605469 L 846.8125 692.222656 L 962.160156 692.222656 L 962.160156 730.605469 L 1039.082031 730.605469 L 1039.082031 692.222656 L 1115.972656 692.222656 L 1115.972656 653.792969 L 1077.507812 653.792969 L 1077.507812 576.992188 L 1115.972656 576.992188 L 1115.972656 615.378906 L 1154.429688 615.378906 L 1154.429688 653.792969 L 1192.886719 653.792969 " fill-opacity="1" fill-rule="nonzero"/></g><path fill="#1f373a" d="M 385.421875 308.136719 L 385.402344 269.71875 L 308.542969 269.75 L 308.511719 231.273438 L 270.085938 231.304688 L 270.054688 192.886719 L 346.96875 192.855469 L 347 231.273438 L 423.890625 231.242188 L 423.910156 269.71875 L 462.316406 269.699219 L 462.347656 308.136719 L 385.421875 308.136719 " fill-opacity="1" fill-rule="nonzero"/><path fill="#1f373a" d="M 308.542969 231.273438 L 270.085938 231.273438 L 270.085938 192.886719 L 346.96875 192.886719 L 346.96875 231.273438 L 423.890625 231.273438 L 423.890625 269.71875 L 462.316406 269.71875 L 462.316406 308.117188 L 385.421875 308.117188 L 385.421875 269.71875 L 308.542969 269.71875 L 308.542969 231.273438 " fill-opacity="1" fill-rule="nonzero"/><path fill="#1f373a" d="M 193.164062 500.179688 L 193.144531 461.761719 L 154.738281 461.785156 L 154.707031 423.335938 L 231.652344 423.3125 L 231.628906 384.917969 L 423.890625 384.898438 L 423.859375 346.5 L 500.75 346.480469 L 500.71875 308.117188 L 616.148438 308.085938 L 616.128906 269.71875 L 654.574219 269.699219 L 654.554688 231.273438 L 769.929688 231.242188 L 769.898438 192.886719 L 846.8125 192.855469 L 846.84375 231.273438 L 808.386719 231.304688 L 808.410156 269.71875 L 693.007812 269.75 L 693.039062 308.117188 L 654.574219 308.136719 L 654.605469 346.5 L 539.238281 346.53125 L 539.257812 384.917969 L 462.316406 384.949219 L 462.347656 423.335938 L 308.542969 423.367188 L 308.5625 461.761719 L 270.085938 461.785156 L 270.105469 500.179688 L 193.164062 500.179688 " fill-opacity="1" fill-rule="nonzero"/><path fill="#1f373a" d="M 539.238281 346.5 L 539.238281 384.917969 L 462.316406 384.917969 L 462.316406 423.335938 L 308.542969 423.335938 L 308.542969 461.761719 L 270.085938 461.761719 L 270.085938 500.148438 L 193.164062 500.148438 L 193.164062 461.761719 L 154.738281 461.761719 L 154.738281 423.335938 L 231.652344 423.335938 L 231.652344 384.917969 L 423.890625 384.917969 L 423.890625 346.5 L 500.75 346.5 L 500.75 308.117188 L 616.148438 308.117188 L 616.148438 269.71875 L 654.574219 269.71875 L 654.574219 231.273438 L 769.929688 231.273438 L 769.929688 192.886719 L 846.8125 192.886719 L 846.8125 231.273438 L 808.386719 231.273438 L 808.386719 269.71875 L 693.007812 269.71875 L 693.007812 308.117188 L 654.574219 308.117188 L 654.574219 346.5 L 539.238281 346.5 " fill-opacity="1" fill-rule="nonzero"/><path fill="#1f373a" d="M 346.96875 615.410156 L 346.945312 576.992188 L 385.421875 576.960938 L 385.453125 615.410156 L 346.96875 615.410156 " fill-opacity="1" fill-rule="nonzero"/><path fill="#1f373a" d="M 385.421875 615.378906 L 346.96875 615.378906 L 346.96875 576.992188 L 385.421875 576.992188 L 385.421875 615.378906 " fill-opacity="1" fill-rule="nonzero"/><path fill="#1f373a" d="M 193.164062 769.054688 L 193.144531 730.605469 L 308.542969 730.585938 L 308.511719 692.222656 L 346.96875 692.191406 L 346.945312 653.792969 L 462.316406 653.773438 L 462.347656 692.222656 L 385.421875 692.242188 L 385.453125 730.605469 L 346.96875 730.636719 L 347 769.054688 L 193.164062 769.054688 " fill-opacity="1" fill-rule="nonzero"/><path fill="#1f373a" d="M 462.316406 653.792969 L 462.316406 692.222656 L 385.421875 692.222656 L 385.421875 730.605469 L 346.96875 730.605469 L 346.96875 769.023438 L 193.164062 769.023438 L 193.164062 730.605469 L 308.542969 730.605469 L 308.542969 692.222656 L 346.96875 692.222656 L 346.96875 653.792969 L 462.316406 653.792969 " fill-opacity="1" fill-rule="nonzero"/><path fill="#1f373a" d="M 577.660156 769.054688 L 577.640625 730.605469 L 654.574219 730.585938 L 654.605469 769.054688 L 577.660156 769.054688 " fill-opacity="1" fill-rule="nonzero"/><path fill="#1f373a" d="M 577.660156 769.023438 L 577.660156 730.605469 L 654.574219 730.605469 L 654.574219 769.023438 L 577.660156 769.023438 " fill-opacity="1" fill-rule="nonzero"/><path fill="#5c4f2f" d="M 462.316406 653.824219 L 462.292969 615.378906 L 500.75 615.355469 L 500.769531 653.824219 L 462.316406 653.824219 " fill-opacity="1" fill-rule="nonzero"/><path fill="#5c4f2f" d="M 500.75 615.378906 L 500.75 653.792969 L 462.316406 653.792969 L 462.316406 615.378906 L 500.75 615.378906 " fill-opacity="1" fill-rule="nonzero"/><path fill="#5c4f2f" d="M 231.652344 577.011719 L 231.628906 538.542969 L 270.085938 538.511719 L 270.105469 577.011719 L 231.652344 577.011719 " fill-opacity="1" fill-rule="nonzero"/><path fill="#5c4f2f" d="M 270.085938 576.992188 L 231.652344 576.992188 L 231.652344 538.542969 L 270.085938 538.542969 L 270.085938 576.992188 " fill-opacity="1" fill-rule="nonzero"/><path fill="#5c4f2f" d="M 270.085938 538.566406 L 270.054688 500.148438 L 308.542969 500.128906 L 308.5625 538.566406 L 270.085938 538.566406 " fill-opacity="1" fill-rule="nonzero"/><path fill="#5c4f2f" d="M 308.542969 538.542969 L 270.085938 538.542969 L 270.085938 500.148438 L 308.542969 500.148438 L 308.542969 538.542969 " fill-opacity="1" fill-rule="nonzero"/><path fill="#5c4f2f" d="M 193.164062 615.410156 L 193.144531 576.992188 L 231.652344 576.960938 L 231.683594 615.410156 L 193.164062 615.410156 " fill-opacity="1" fill-rule="nonzero"/><path fill="#5c4f2f" d="M 231.652344 615.378906 L 193.164062 615.378906 L 193.164062 576.992188 L 231.652344 576.992188 L 231.652344 615.378906 " fill-opacity="1" fill-rule="nonzero"/><path fill="#5c4f2f" d="M 308.542969 461.785156 L 308.511719 423.335938 L 346.96875 423.3125 L 347 461.785156 L 308.542969 461.785156 " fill-opacity="1" fill-rule="nonzero"/><path fill="#5c4f2f" d="M 346.96875 461.761719 L 308.542969 461.761719 L 308.542969 423.335938 L 346.96875 423.335938 L 346.96875 461.761719 " fill-opacity="1" fill-rule="nonzero"/><g clip-path="url(#e7cf079df1)"><path fill="#5c4f2f" d="M 346.96875 1076.347656 L 346.945312 1037.878906 L 270.085938 1037.898438 L 270.105469 1076.328125 L 193.164062 1076.347656 L 193.144531 1037.878906 L 231.652344 1037.847656 L 231.628906 961.097656 L 270.085938 961.066406 L 270.054688 922.648438 L 346.96875 922.617188 L 346.945312 884.253906 L 423.890625 884.234375 L 423.910156 922.648438 L 462.316406 922.617188 L 462.347656 961.097656 L 423.890625 961.117188 L 423.910156 1076.347656 L 346.96875 1076.347656 " fill-opacity="1" fill-rule="nonzero"/><path fill="#5c4f2f" d="M 423.890625 922.648438 L 462.316406 922.648438 L 462.316406 961.097656 L 423.890625 961.097656 L 423.890625 1076.328125 L 346.96875 1076.328125 L 346.96875 1037.878906 L 270.085938 1037.878906 L 270.085938 1076.328125 L 193.164062 1076.328125 L 193.164062 1037.878906 L 231.652344 1037.878906 L 231.652344 961.097656 L 270.085938 961.097656 L 270.085938 922.648438 L 346.96875 922.648438 L 346.96875 884.253906 L 423.890625 884.253906 L 423.890625 922.648438 " fill-opacity="1" fill-rule="nonzero"/></g><path fill="#5c4f2f" d="M 500.75 769.054688 L 500.71875 730.605469 L 462.316406 730.636719 L 462.292969 692.222656 L 500.75 692.191406 L 500.71875 653.792969 L 539.238281 653.773438 L 539.257812 692.222656 L 577.660156 692.191406 L 577.691406 730.605469 L 539.238281 730.636719 L 539.257812 769.054688 L 500.75 769.054688 " fill-opacity="1" fill-rule="nonzero"/><path fill="#5c4f2f" d="M 577.660156 692.222656 L 577.660156 730.605469 L 539.238281 730.605469 L 539.238281 769.023438 L 500.75 769.023438 L 500.75 730.605469 L 462.316406 730.605469 L 462.316406 692.222656 L 500.75 692.222656 L 500.75 653.792969 L 539.238281 653.792969 L 539.238281 692.222656 L 577.660156 692.222656 " fill-opacity="1" fill-rule="nonzero"/><path fill="#3a301e" d="M 423.890625 653.824219 L 423.859375 615.378906 L 462.316406 615.355469 L 462.347656 653.824219 L 423.890625 653.824219 " fill-opacity="1" fill-rule="nonzero"/><path fill="#3a301e" d="M 462.316406 615.378906 L 462.316406 653.792969 L 423.890625 653.792969 L 423.890625 615.378906 L 462.316406 615.378906 " fill-opacity="1" fill-rule="nonzero"/><path fill="#3a301e" d="M 346.96875 999.515625 L 346.945312 961.097656 L 385.421875 961.066406 L 385.453125 999.515625 L 346.96875 999.515625 " fill-opacity="1" fill-rule="nonzero"/><path fill="#3a301e" d="M 346.96875 961.097656 L 385.421875 961.097656 L 385.421875 999.484375 L 346.96875 999.484375 L 346.96875 961.097656 " fill-opacity="1" fill-rule="nonzero"/><path fill="#3a301e" d="M 270.085938 577.011719 L 270.054688 538.542969 L 308.542969 538.511719 L 308.511719 461.761719 L 346.96875 461.730469 L 346.945312 423.335938 L 539.238281 423.3125 L 539.257812 461.761719 L 577.660156 461.730469 L 577.691406 500.148438 L 423.890625 500.179688 L 423.910156 538.542969 L 346.96875 538.566406 L 347 577.011719 L 270.085938 577.011719 " fill-opacity="1" fill-rule="nonzero"/><path fill="#3a301e" d="M 270.085938 576.992188 L 270.085938 538.542969 L 308.542969 538.542969 L 308.542969 461.761719 L 346.96875 461.761719 L 346.96875 423.335938 L 539.238281 423.335938 L 539.238281 461.761719 L 577.660156 461.761719 L 577.660156 500.148438 L 423.890625 500.148438 L 423.890625 538.542969 L 346.96875 538.542969 L 346.96875 576.992188 L 270.085938 576.992188 " fill-opacity="1" fill-rule="nonzero"/><g clip-path="url(#117895e1ef)"><path fill="#3a301e" d="M 270.085938 1076.347656 L 270.054688 1037.878906 L 346.96875 1037.847656 L 347 1076.347656 L 270.085938 1076.347656 " fill-opacity="1" fill-rule="nonzero"/><path fill="#3a301e" d="M 346.96875 1037.878906 L 346.96875 1076.328125 L 270.085938 1076.328125 L 270.085938 1037.878906 L 346.96875 1037.878906 " fill-opacity="1" fill-rule="nonzero"/></g><g clip-path="url(#52c1f4d0e1)"><path fill="#3a301e" d="M 423.890625 1076.347656 L 423.859375 961.097656 L 462.316406 961.066406 L 462.292969 922.648438 L 423.890625 922.671875 L 423.859375 845.835938 L 462.316406 845.816406 L 462.292969 769.023438 L 423.890625 769.054688 L 423.859375 730.605469 L 385.421875 730.636719 L 385.402344 692.222656 L 462.316406 692.191406 L 462.292969 653.792969 L 500.75 653.773438 L 500.769531 692.222656 L 539.238281 692.191406 L 539.207031 653.792969 L 577.660156 653.773438 L 577.691406 692.222656 L 654.574219 692.191406 L 654.605469 730.605469 L 577.660156 730.636719 L 577.691406 769.023438 L 539.238281 769.054688 L 539.257812 807.421875 L 500.75 807.441406 L 500.769531 845.835938 L 616.148438 845.816406 L 616.179688 884.253906 L 539.238281 884.285156 L 539.257812 922.648438 L 577.660156 922.617188 L 577.691406 961.097656 L 616.148438 961.066406 L 616.179688 999.484375 L 654.574219 999.460938 L 654.605469 1037.878906 L 693.007812 1037.847656 L 693.039062 1076.347656 L 423.890625 1076.347656 " fill-opacity="1" fill-rule="nonzero"/><path fill="#3a301e" d="M 693.007812 1037.878906 L 693.007812 1076.328125 L 423.890625 1076.328125 L 423.890625 961.097656 L 462.316406 961.097656 L 462.316406 922.648438 L 423.890625 922.648438 L 423.890625 845.835938 L 462.316406 845.835938 L 462.316406 769.023438 L 423.890625 769.023438 L 423.890625 730.605469 L 385.421875 730.605469 L 385.421875 692.222656 L 462.316406 692.222656 L 462.316406 653.792969 L 500.75 653.792969 L 500.75 692.222656 L 539.238281 692.222656 L 539.238281 653.792969 L 577.660156 653.792969 L 577.660156 692.222656 L 654.574219 692.222656 L 654.574219 730.605469 L 577.660156 730.605469 L 577.660156 769.023438 L 539.238281 769.023438 L 539.238281 807.421875 L 500.75 807.421875 L 500.75 845.835938 L 616.148438 845.835938 L 616.148438 884.253906 L 539.238281 884.253906 L 539.238281 922.648438 L 577.660156 922.648438 L 577.660156 961.097656 L 616.148438 961.097656 L 616.148438 999.484375 L 654.574219 999.484375 L 654.574219 1037.878906 L 693.007812 1037.878906 " fill-opacity="1" fill-rule="nonzero"/></g><g fill="#ffffff" fill-opacity="1"><g transform="translate(1463.484448, 714.661498)"><g><path d="M 34.40625 86 L 34.40625 -238.890625 L 57.328125 -238.890625 L 65.453125 -206.40625 L 67.84375 -206.40625 C 71.03125 -210.863281 76.207031 -215.957031 83.375 -221.6875 C 90.539062 -227.425781 99.457031 -232.523438 110.125 -236.984375 C 120.800781 -241.441406 132.191406 -243.671875 144.296875 -243.671875 C 164.359375 -243.671875 182.75 -238.414062 199.46875 -227.90625 C 216.195312 -217.394531 229.5 -202.660156 239.375 -183.703125 C 249.25 -164.753906 254.1875 -143.335938 254.1875 -119.453125 C 254.1875 -95.554688 249.25 -74.128906 239.375 -55.171875 C 229.5 -36.222656 216.195312 -21.492188 199.46875 -10.984375 C 182.75 -0.472656 164.359375 4.78125 144.296875 4.78125 C 132.191406 4.78125 120.800781 2.550781 110.125 -1.90625 C 99.457031 -6.363281 90.457031 -11.457031 83.125 -17.1875 C 75.800781 -22.925781 70.707031 -28.023438 67.84375 -32.484375 L 65.453125 -32.484375 L 65.453125 86 Z M 144.296875 -24.375 C 158.628906 -24.375 171.847656 -28.351562 183.953125 -36.3125 C 196.054688 -44.269531 205.609375 -55.492188 212.609375 -69.984375 C 219.617188 -84.484375 223.125 -100.972656 223.125 -119.453125 C 223.125 -137.921875 219.617188 -154.398438 212.609375 -168.890625 C 205.609375 -183.390625 196.054688 -194.617188 183.953125 -202.578125 C 171.847656 -210.546875 158.628906 -214.53125 144.296875 -214.53125 C 129.960938 -214.53125 116.742188 -210.546875 104.640625 -202.578125 C 92.535156 -194.617188 82.976562 -183.390625 75.96875 -168.890625 C 68.957031 -154.398438 65.453125 -137.921875 65.453125 -119.453125 C 65.453125 -100.972656 68.957031 -84.484375 75.96875 -69.984375 C 82.976562 -55.492188 92.535156 -44.269531 104.640625 -36.3125 C 116.742188 -28.351562 129.960938 -24.375 144.296875 -24.375 Z M 144.296875 -24.375 "/></g></g></g><g fill="#ffffff" fill-opacity="1"><g transform="translate(1736.278701, 714.661498)"><g><path d="M 155.28125 -169.625 L 265.65625 0 L 226.46875 0 L 135.6875 -142.390625 L 43.953125 0 L 7.171875 0 L 117.0625 -169.625 L 12.421875 -334.453125 L 50.640625 -334.453125 L 137.125 -197.328125 L 223.125 -334.453125 L 260.40625 -334.453125 Z M 155.28125 -169.625 "/></g></g></g><g fill="#ffffff" fill-opacity="1"><g transform="translate(1994.738979, 714.661498)"><g/></g></g><g fill="#ffffff" fill-opacity="1"><g transform="translate(2108.443053, 714.661498)"><g><path d="M 128.53125 4.78125 C 108.457031 4.78125 90.054688 -0.472656 73.328125 -10.984375 C 56.609375 -21.492188 43.3125 -36.222656 33.4375 -55.171875 C 23.570312 -74.128906 18.640625 -95.554688 18.640625 -119.453125 C 18.640625 -143.335938 23.570312 -164.753906 33.4375 -183.703125 C 43.3125 -202.660156 56.609375 -217.394531 73.328125 -227.90625 C 90.054688 -238.414062 108.457031 -243.671875 128.53125 -243.671875 C 140.632812 -243.671875 152.019531 -241.441406 162.6875 -236.984375 C 173.363281 -232.523438 182.363281 -227.425781 189.6875 -221.6875 C 197.007812 -215.957031 202.101562 -210.863281 204.96875 -206.40625 L 207.359375 -206.40625 L 207.359375 -334.453125 L 238.421875 -334.453125 L 238.421875 0 L 215.484375 0 L 207.359375 -32.484375 L 204.96875 -32.484375 C 201.789062 -28.023438 196.617188 -22.925781 189.453125 -17.1875 C 182.285156 -11.457031 173.363281 -6.363281 162.6875 -1.90625 C 152.019531 2.550781 140.632812 4.78125 128.53125 4.78125 Z M 128.53125 -24.375 C 142.863281 -24.375 156.082031 -28.351562 168.1875 -36.3125 C 180.289062 -44.269531 189.84375 -55.492188 196.84375 -69.984375 C 203.851562 -84.484375 207.359375 -100.972656 207.359375 -119.453125 C 207.359375 -137.921875 203.851562 -154.398438 196.84375 -168.890625 C 189.84375 -183.390625 180.289062 -194.617188 168.1875 -202.578125 C 156.082031 -210.546875 142.863281 -214.53125 128.53125 -214.53125 C 114.195312 -214.53125 100.976562 -210.546875 88.875 -202.578125 C 76.769531 -194.617188 67.210938 -183.390625 60.203125 -168.890625 C 53.191406 -154.398438 49.6875 -137.921875 49.6875 -119.453125 C 49.6875 -100.972656 53.191406 -84.484375 60.203125 -69.984375 C 67.210938 -55.492188 76.769531 -44.269531 88.875 -36.3125 C 100.976562 -28.351562 114.195312 -24.375 128.53125 -24.375 Z M 128.53125 -24.375 "/></g></g></g><g fill="#ffffff" fill-opacity="1"><g transform="translate(2383.626128, 714.661498)"><g><path d="M 237.9375 -126.609375 C 237.9375 -116.734375 237.300781 -109.25 236.03125 -104.15625 L 50.640625 -104.15625 C 53.191406 -79.632812 61.875 -60.207031 76.6875 -45.875 C 91.5 -31.539062 109.894531 -24.375 131.875 -24.375 C 161.175781 -24.375 183.3125 -36.953125 198.28125 -62.109375 L 229.34375 -62.109375 C 222.019531 -42.679688 209.4375 -26.675781 191.59375 -14.09375 C 173.757812 -1.507812 153.535156 4.78125 130.921875 4.78125 C 109.890625 4.78125 90.851562 -0.472656 73.8125 -10.984375 C 56.769531 -21.492188 43.3125 -36.144531 33.4375 -54.9375 C 23.570312 -73.738281 18.640625 -95.242188 18.640625 -119.453125 C 18.640625 -143.023438 23.65625 -164.285156 33.6875 -183.234375 C 43.71875 -202.179688 57.332031 -216.988281 74.53125 -227.65625 C 91.738281 -238.332031 110.535156 -243.671875 130.921875 -243.671875 C 150.984375 -243.671875 169.21875 -238.492188 185.625 -228.140625 C 202.03125 -217.796875 214.847656 -203.703125 224.078125 -185.859375 C 233.316406 -168.023438 237.9375 -148.273438 237.9375 -126.609375 Z M 130.921875 -214.53125 C 117.535156 -214.53125 105.03125 -211.101562 93.40625 -204.25 C 81.78125 -197.40625 72.066406 -187.691406 64.265625 -175.109375 C 56.460938 -162.523438 51.765625 -148.269531 50.171875 -132.34375 L 206.40625 -132.34375 C 204.8125 -156.238281 197.003906 -175.910156 182.984375 -191.359375 C 168.972656 -206.804688 151.617188 -214.53125 130.921875 -214.53125 Z M 130.921875 -214.53125 "/></g></g></g><g fill="#ffffff" fill-opacity="1"><g transform="translate(2640.176932, 714.661498)"><g><path d="M 106.546875 4.78125 C 90.304688 4.78125 75.65625 1.359375 62.59375 -5.484375 C 49.53125 -12.335938 39.175781 -21.5 31.53125 -32.96875 C 23.882812 -44.4375 19.585938 -56.539062 18.640625 -69.28125 L 49.6875 -69.28125 C 51.28125 -55.90625 57.015625 -45.078125 66.890625 -36.796875 C 76.765625 -28.515625 89.984375 -24.375 106.546875 -24.375 C 122.796875 -24.375 135.296875 -28.035156 144.046875 -35.359375 C 152.804688 -42.679688 157.1875 -51.914062 157.1875 -63.0625 C 157.1875 -71.34375 154.640625 -78.191406 149.546875 -83.609375 C 144.453125 -89.023438 138.238281 -93.40625 130.90625 -96.75 C 123.582031 -100.09375 113.234375 -103.835938 99.859375 -107.984375 C 83.609375 -113.078125 70.546875 -117.929688 60.671875 -122.546875 C 50.804688 -127.171875 42.367188 -133.863281 35.359375 -142.625 C 28.347656 -151.382812 24.84375 -162.769531 24.84375 -176.78125 C 24.84375 -189.207031 28.109375 -200.515625 34.640625 -210.703125 C 41.171875 -220.898438 50.328125 -228.941406 62.109375 -234.828125 C 73.898438 -240.722656 87.597656 -243.671875 103.203125 -243.671875 C 118.492188 -243.671875 132.191406 -240.484375 144.296875 -234.109375 C 156.398438 -227.742188 165.953125 -219.066406 172.953125 -208.078125 C 179.960938 -197.085938 183.945312 -185.0625 184.90625 -172 L 153.84375 -172 C 152.257812 -185.382812 147.164062 -195.816406 138.5625 -203.296875 C 129.957031 -210.785156 118.171875 -214.53125 103.203125 -214.53125 C 88.234375 -214.53125 76.609375 -211.101562 68.328125 -204.25 C 60.046875 -197.40625 55.90625 -188.726562 55.90625 -178.21875 C 55.90625 -166.75 60.519531 -158.066406 69.75 -152.171875 C 78.988281 -146.285156 93.164062 -140.316406 112.28125 -134.265625 C 128.53125 -128.847656 141.671875 -123.671875 151.703125 -118.734375 C 161.734375 -113.796875 170.332031 -106.863281 177.5 -97.9375 C 184.664062 -89.019531 188.25 -77.394531 188.25 -63.0625 C 188.25 -43.632812 180.921875 -27.46875 166.265625 -14.5625 C 151.617188 -1.664062 131.710938 4.78125 106.546875 4.78125 Z M 106.546875 4.78125 "/></g></g></g><g fill="#ffffff" fill-opacity="1"><g transform="translate(2847.997506, 714.661498)"><g><path d="M 65.453125 0 L 34.40625 0 L 34.40625 -238.890625 L 65.453125 -238.890625 Z M 50.171875 -277.125 C 44.117188 -277.125 39.019531 -279.191406 34.875 -283.328125 C 30.738281 -287.472656 28.671875 -292.570312 28.671875 -298.625 C 28.671875 -304.988281 30.738281 -310.160156 34.875 -314.140625 C 39.019531 -318.128906 44.117188 -320.125 50.171875 -320.125 C 56.535156 -320.125 61.707031 -318.128906 65.6875 -314.140625 C 69.675781 -310.160156 71.671875 -304.988281 71.671875 -298.625 C 71.671875 -292.570312 69.597656 -287.472656 65.453125 -283.328125 C 61.316406 -279.191406 56.222656 -277.125 50.171875 -277.125 Z M 50.171875 -277.125 "/></g></g></g><g fill="#ffffff" fill-opacity="1"><g transform="translate(2947.846903, 714.661498)"><g><path d="M 130.4375 90.78125 C 104.632812 90.78125 82.65625 84.25 64.5 71.1875 C 46.34375 58.132812 34.554688 40.617188 29.140625 18.640625 L 60.203125 18.640625 C 64.660156 32.015625 73.019531 42.523438 85.28125 50.171875 C 97.550781 57.816406 112.601562 61.640625 130.4375 61.640625 C 151.78125 61.640625 168.976562 55.265625 182.03125 42.515625 C 195.09375 29.773438 201.625 12.894531 201.625 -8.125 L 201.625 -45.875 L 199.234375 -45.875 C 196.367188 -41.40625 191.429688 -36.222656 184.421875 -30.328125 C 177.421875 -24.441406 168.820312 -19.269531 158.625 -14.8125 C 148.4375 -10.351562 137.445312 -8.125 125.65625 -8.125 C 106.226562 -8.125 88.3125 -13.21875 71.90625 -23.40625 C 55.5 -33.601562 42.519531 -47.695312 32.96875 -65.6875 C 23.414062 -83.6875 18.640625 -103.675781 18.640625 -125.65625 C 18.640625 -147.957031 23.414062 -168.101562 32.96875 -186.09375 C 42.519531 -204.09375 55.5 -218.1875 71.90625 -228.375 C 88.3125 -238.570312 106.226562 -243.671875 125.65625 -243.671875 C 137.445312 -243.671875 148.4375 -241.519531 158.625 -237.21875 C 168.820312 -232.925781 177.421875 -227.832031 184.421875 -221.9375 C 191.429688 -216.039062 196.367188 -210.863281 199.234375 -206.40625 L 201.625 -206.40625 L 209.75 -238.890625 L 232.6875 -238.890625 L 232.6875 -8.125 C 232.6875 11.300781 228.382812 28.5 219.78125 43.46875 C 211.1875 58.445312 199.164062 70.078125 183.71875 78.359375 C 168.269531 86.640625 150.507812 90.78125 130.4375 90.78125 Z M 125.65625 -37.265625 C 139.039062 -37.265625 151.546875 -41.085938 163.171875 -48.734375 C 174.796875 -56.378906 184.109375 -66.96875 191.109375 -80.5 C 198.117188 -94.039062 201.625 -109.09375 201.625 -125.65625 C 201.625 -142.539062 198.117188 -157.75 191.109375 -171.28125 C 184.109375 -184.820312 174.796875 -195.414062 163.171875 -203.0625 C 151.546875 -210.707031 139.039062 -214.53125 125.65625 -214.53125 C 111.957031 -214.53125 99.296875 -210.707031 87.671875 -203.0625 C 76.046875 -195.414062 66.804688 -184.820312 59.953125 -171.28125 C 53.109375 -157.75 49.6875 -142.539062 49.6875 -125.65625 C 49.6875 -109.09375 53.109375 -94.039062 59.953125 -80.5 C 66.804688 -66.96875 76.046875 -56.378906 87.671875 -48.734375 C 99.296875 -41.085938 111.957031 -37.265625 125.65625 -37.265625 Z M 125.65625 -37.265625 "/></g></g></g><g fill="#ffffff" fill-opacity="1"><g transform="translate(3214.908197, 714.661498)"><g><path d="M 34.40625 0 L 34.40625 -238.890625 L 57.328125 -238.890625 L 65.453125 -206.40625 L 67.84375 -206.40625 C 74.21875 -216.28125 83.535156 -224.957031 95.796875 -232.4375 C 108.054688 -239.925781 122.148438 -243.671875 138.078125 -243.671875 C 155.921875 -243.671875 172.085938 -239.367188 186.578125 -230.765625 C 201.066406 -222.171875 212.453125 -209.910156 220.734375 -193.984375 C 229.023438 -178.054688 233.171875 -159.582031 233.171875 -138.5625 L 233.171875 0 L 202.109375 0 L 202.109375 -138.5625 C 202.109375 -162.132812 195.894531 -180.6875 183.46875 -194.21875 C 171.050781 -207.757812 154.96875 -214.53125 135.21875 -214.53125 C 114.195312 -214.53125 97.3125 -207.757812 84.5625 -194.21875 C 71.820312 -180.6875 65.453125 -162.132812 65.453125 -138.5625 L 65.453125 0 Z M 34.40625 0 "/></g></g></g></g></g></svg>