<svg xmlns="http://www.w3.org/2000/svg" xmlns:xlink="http://www.w3.org/1999/xlink" width="2000" zoomAndPan="magnify" viewBox="0 0 1500 430.499987" height="574" preserveAspectRatio="xMidYMid meet" version="1.0"><defs><g/><clipPath id="3731c56158"><path d="M 0.871094 0 L 1499.128906 0 L 1499.128906 430 L 0.871094 430 Z M 0.871094 0 " clip-rule="nonzero"/></clipPath><clipPath id="6d40133f12"><path d="M 104 0.261719 L 238 0.261719 L 238 75 L 104 75 Z M 104 0.261719 " clip-rule="nonzero"/></clipPath><clipPath id="d32cd83010"><path d="M 326 221.152344 L 459.09375 221.152344 L 459.09375 296 L 326 296 Z M 326 221.152344 " clip-rule="nonzero"/></clipPath><clipPath id="569d25391d"><path d="M 75 339.304688 L 179 339.304688 L 179 413.378906 L 75 413.378906 Z M 75 339.304688 " clip-rule="nonzero"/></clipPath><clipPath id="fa30462c39"><path d="M 104.0625 398 L 134.914062 398 L 134.914062 413.378906 L 104.0625 413.378906 Z M 104.0625 398 " clip-rule="nonzero"/></clipPath><clipPath id="f35e6766ec"><path d="M 148.285156 251 L 267.585938 251 L 267.585938 413.378906 L 148.285156 413.378906 Z M 148.285156 251 " clip-rule="nonzero"/></clipPath><clipPath id="ad7205fd45"><rect x="0" width="1431" y="0" height="415"/></clipPath></defs><g clip-path="url(#3731c56158)"><path fill="#ffffff" d="M 0.871094 0 L 1499.128906 0 L 1499.128906 430 L 0.871094 430 Z M 0.871094 0 " fill-opacity="1" fill-rule="nonzero"/><path fill="#024caa" d="M 0.871094 0 L 1499.128906 0 L 1499.128906 430 L 0.871094 430 Z M 0.871094 0 " fill-opacity="1" fill-rule="nonzero"/></g><g transform="matrix(1, 0, 0, 1, 43, 8)"><g clip-path="url(#ad7205fd45)"><path fill="#63c442" d="M 1.230469 147.824219 L 1.21875 133.058594 L 16 133.050781 L 15.988281 118.3125 L 45.546875 118.300781 L 45.535156 103.5625 L 60.308594 103.554688 L 60.296875 88.796875 L 104.617188 88.78125 L 104.625 103.5625 L 89.851562 103.574219 L 89.863281 133.058594 L 45.546875 133.070312 L 45.558594 147.824219 L 1.230469 147.824219 " fill-opacity="1" fill-rule="nonzero"/><path fill="#63c442" d="M 45.546875 133.058594 L 45.546875 147.8125 L 1.230469 147.8125 L 1.230469 133.058594 L 16 133.058594 L 16 118.3125 L 45.546875 118.3125 L 45.546875 103.5625 L 60.308594 103.5625 L 60.308594 88.796875 L 104.617188 88.796875 L 104.617188 103.5625 L 89.851562 103.5625 L 89.851562 133.058594 L 45.546875 133.058594 " fill-opacity="1" fill-rule="nonzero"/><path fill="#63c442" d="M 252.304688 310.113281 L 252.296875 295.359375 L 281.84375 295.347656 L 281.835938 280.601562 L 296.617188 280.59375 L 296.625 295.359375 L 311.390625 295.347656 L 311.398438 310.113281 L 252.304688 310.113281 " fill-opacity="1" fill-rule="nonzero"/><path fill="#63c442" d="M 296.617188 295.359375 L 311.390625 295.359375 L 311.390625 310.105469 L 252.304688 310.105469 L 252.304688 295.359375 L 281.84375 295.359375 L 281.84375 280.601562 L 296.617188 280.601562 L 296.617188 295.359375 " fill-opacity="1" fill-rule="nonzero"/><path fill="#63c442" d="M 60.308594 265.863281 L 60.296875 251.09375 L 75.070312 251.085938 L 75.0625 236.339844 L 89.851562 236.332031 L 89.84375 221.59375 L 134.148438 221.582031 L 134.160156 236.339844 L 119.386719 236.351562 L 119.394531 251.09375 L 89.851562 251.105469 L 89.863281 265.863281 L 60.308594 265.863281 " fill-opacity="1" fill-rule="nonzero"/><path fill="#63c442" d="M 134.148438 221.59375 L 134.148438 236.339844 L 119.386719 236.339844 L 119.386719 251.09375 L 89.851562 251.09375 L 89.851562 265.855469 L 60.308594 265.855469 L 60.308594 251.09375 L 75.070312 251.09375 L 75.070312 236.339844 L 89.851562 236.339844 L 89.851562 221.59375 L 134.148438 221.59375 " fill-opacity="1" fill-rule="nonzero"/><g clip-path="url(#6d40133f12)"><path fill="#63c442" d="M 104.617188 74.058594 L 104.605469 44.53125 L 119.386719 44.523438 L 119.375 29.789062 L 134.148438 29.777344 L 134.140625 15.027344 L 163.695312 15.019531 L 163.683594 0.269531 L 237.546875 0.261719 L 237.558594 15.027344 L 222.761719 15.039062 L 222.773438 29.789062 L 208.003906 29.796875 L 208.011719 44.53125 L 134.148438 44.542969 L 134.160156 59.28125 L 119.386719 59.289062 L 119.394531 74.058594 L 104.617188 74.058594 " fill-opacity="1" fill-rule="nonzero"/><path fill="#63c442" d="M 222.761719 29.789062 L 208.003906 29.789062 L 208.003906 44.53125 L 134.148438 44.53125 L 134.148438 59.28125 L 119.386719 59.28125 L 119.386719 74.050781 L 104.617188 74.050781 L 104.617188 44.53125 L 119.386719 44.53125 L 119.386719 29.789062 L 134.148438 29.789062 L 134.148438 15.027344 L 163.695312 15.027344 L 163.695312 0.269531 L 237.546875 0.269531 L 237.546875 15.027344 L 222.761719 15.027344 L 222.761719 29.789062 " fill-opacity="1" fill-rule="nonzero"/></g><path fill="#63c442" d="M 222.761719 177.339844 L 222.753906 162.570312 L 252.304688 162.5625 L 252.296875 147.8125 L 267.070312 147.804688 L 267.058594 133.058594 L 296.617188 133.050781 L 296.605469 118.3125 L 340.914062 118.300781 L 340.921875 162.570312 L 296.617188 162.582031 L 296.625 177.339844 L 222.761719 177.339844 " fill-opacity="1" fill-rule="nonzero"/><path fill="#63c442" d="M 222.761719 177.332031 L 222.761719 162.570312 L 252.304688 162.570312 L 252.304688 147.8125 L 267.070312 147.8125 L 267.070312 133.058594 L 296.617188 133.058594 L 296.617188 118.3125 L 340.914062 118.3125 L 340.914062 162.570312 L 296.617188 162.570312 L 296.617188 177.332031 L 222.761719 177.332031 " fill-opacity="1" fill-rule="nonzero"/><path fill="#63c442" d="M 296.617188 251.105469 L 296.605469 236.339844 L 311.390625 236.332031 L 311.378906 221.59375 L 340.914062 221.582031 L 340.902344 206.824219 L 370.457031 206.8125 L 370.449219 192.078125 L 400.003906 192.066406 L 400.011719 206.824219 L 385.242188 206.832031 L 385.253906 221.59375 L 355.699219 221.601562 L 355.707031 236.339844 L 326.148438 236.351562 L 326.160156 251.105469 L 296.617188 251.105469 " fill-opacity="1" fill-rule="nonzero"/><path fill="#63c442" d="M 400.003906 192.078125 L 400.003906 206.824219 L 385.242188 206.824219 L 385.242188 221.59375 L 355.699219 221.59375 L 355.699219 236.339844 L 326.148438 236.339844 L 326.148438 251.09375 L 296.617188 251.09375 L 296.617188 236.339844 L 311.390625 236.339844 L 311.390625 221.59375 L 340.914062 221.59375 L 340.914062 206.824219 L 370.457031 206.824219 L 370.457031 192.078125 L 400.003906 192.078125 " fill-opacity="1" fill-rule="nonzero"/><path fill="#398b40" d="M 45.546875 280.613281 L 45.535156 265.855469 L 30.761719 265.863281 L 30.753906 251.09375 L 45.546875 251.085938 L 45.535156 236.339844 L 75.070312 236.332031 L 75.082031 251.09375 L 60.308594 251.105469 L 60.316406 265.855469 L 89.851562 265.84375 L 89.84375 251.09375 L 119.386719 251.085938 L 119.375 236.339844 L 163.695312 236.332031 L 163.703125 251.09375 L 134.148438 251.105469 L 134.160156 265.855469 L 119.386719 265.863281 L 119.394531 280.613281 L 45.546875 280.613281 " fill-opacity="1" fill-rule="nonzero"/><path fill="#398b40" d="M 163.695312 236.339844 L 163.695312 251.09375 L 134.148438 251.09375 L 134.148438 265.855469 L 119.386719 265.855469 L 119.386719 280.601562 L 45.546875 280.601562 L 45.546875 265.855469 L 30.761719 265.855469 L 30.761719 251.09375 L 45.546875 251.09375 L 45.546875 236.339844 L 75.070312 236.339844 L 75.070312 251.09375 L 60.308594 251.09375 L 60.308594 265.855469 L 89.851562 265.855469 L 89.851562 251.09375 L 119.386719 251.09375 L 119.386719 236.339844 L 163.695312 236.339844 " fill-opacity="1" fill-rule="nonzero"/><path fill="#398b40" d="M 16 162.582031 L 15.988281 147.8125 L 45.546875 147.804688 L 45.535156 133.058594 L 89.851562 133.050781 L 89.84375 103.5625 L 104.617188 103.554688 L 104.605469 88.796875 L 119.386719 88.78125 L 119.394531 103.5625 L 148.917969 103.554688 L 148.933594 118.3125 L 178.457031 118.300781 L 178.449219 103.5625 L 163.695312 103.574219 L 163.683594 88.796875 L 134.148438 88.808594 L 134.140625 74.050781 L 119.386719 74.058594 L 119.375 59.28125 L 134.148438 59.269531 L 134.140625 44.53125 L 208.003906 44.523438 L 207.992188 29.789062 L 281.84375 29.777344 L 281.855469 44.53125 L 296.617188 44.523438 L 296.625 59.28125 L 311.390625 59.269531 L 311.398438 74.050781 L 296.617188 74.058594 L 296.625 88.796875 L 252.304688 88.808594 L 252.320312 103.5625 L 237.546875 103.574219 L 237.558594 118.3125 L 193.21875 118.320312 L 193.226562 133.058594 L 163.695312 133.070312 L 163.703125 147.8125 L 89.851562 147.824219 L 89.863281 162.582031 L 16 162.582031 " fill-opacity="1" fill-rule="nonzero"/><path fill="#398b40" d="M 193.21875 133.058594 L 163.695312 133.058594 L 163.695312 147.8125 L 89.851562 147.8125 L 89.851562 162.570312 L 16 162.570312 L 16 147.8125 L 45.546875 147.8125 L 45.546875 133.058594 L 89.851562 133.058594 L 89.851562 103.5625 L 104.617188 103.5625 L 104.617188 88.796875 L 119.386719 88.796875 L 119.386719 103.5625 L 148.917969 103.5625 L 148.917969 118.3125 L 178.457031 118.3125 L 178.457031 103.5625 L 163.695312 103.5625 L 163.695312 88.796875 L 134.148438 88.796875 L 134.148438 74.050781 L 119.386719 74.050781 L 119.386719 59.28125 L 134.148438 59.28125 L 134.148438 44.53125 L 208.003906 44.53125 L 208.003906 29.789062 L 281.84375 29.789062 L 281.84375 44.53125 L 296.617188 44.53125 L 296.617188 59.28125 L 311.390625 59.28125 L 311.390625 74.050781 L 296.617188 74.050781 L 296.617188 88.796875 L 252.304688 88.796875 L 252.304688 103.5625 L 237.546875 103.5625 L 237.546875 118.3125 L 193.21875 118.3125 L 193.21875 133.058594 " fill-opacity="1" fill-rule="nonzero"/><path fill="#398b40" d="M 193.21875 324.871094 L 193.207031 310.105469 L 208.003906 310.09375 L 207.992188 295.359375 L 252.304688 295.347656 L 252.320312 310.105469 L 237.546875 310.113281 L 237.558594 324.871094 L 193.21875 324.871094 " fill-opacity="1" fill-rule="nonzero"/><path fill="#398b40" d="M 252.304688 295.359375 L 252.304688 310.105469 L 237.546875 310.105469 L 237.546875 324.863281 L 193.21875 324.863281 L 193.21875 310.105469 L 208.003906 310.105469 L 208.003906 295.359375 L 252.304688 295.359375 " fill-opacity="1" fill-rule="nonzero"/><path fill="#398b40" d="M 340.914062 162.582031 L 340.902344 133.058594 L 355.699219 133.050781 L 355.707031 162.582031 L 340.914062 162.582031 " fill-opacity="1" fill-rule="nonzero"/><path fill="#398b40" d="M 355.699219 162.570312 L 340.914062 162.570312 L 340.914062 133.058594 L 355.699219 133.058594 L 355.699219 162.570312 " fill-opacity="1" fill-rule="nonzero"/><path fill="#398b40" d="M 267.070312 324.871094 L 267.058594 310.105469 L 311.390625 310.09375 L 311.378906 295.359375 L 296.617188 295.371094 L 296.605469 265.855469 L 326.148438 265.84375 L 326.160156 280.601562 L 340.914062 280.59375 L 340.921875 310.105469 L 370.457031 310.09375 L 370.46875 324.871094 L 267.070312 324.871094 " fill-opacity="1" fill-rule="nonzero"/><path fill="#398b40" d="M 326.148438 265.855469 L 326.148438 280.601562 L 340.914062 280.601562 L 340.914062 310.105469 L 370.457031 310.105469 L 370.457031 324.863281 L 267.070312 324.863281 L 267.070312 310.105469 L 311.390625 310.105469 L 311.390625 295.359375 L 296.617188 295.359375 L 296.617188 265.855469 L 326.148438 265.855469 " fill-opacity="1" fill-rule="nonzero"/><path fill="#398b40" d="M 222.761719 192.089844 L 222.753906 177.332031 L 296.617188 177.320312 L 296.605469 162.570312 L 340.914062 162.5625 L 340.921875 177.332031 L 311.390625 177.339844 L 311.398438 192.089844 L 222.761719 192.089844 " fill-opacity="1" fill-rule="nonzero"/><path fill="#398b40" d="M 340.914062 162.570312 L 340.914062 177.332031 L 311.390625 177.332031 L 311.390625 192.078125 L 222.761719 192.078125 L 222.761719 177.332031 L 296.617188 177.332031 L 296.617188 162.570312 L 340.914062 162.570312 " fill-opacity="1" fill-rule="nonzero"/><path fill="#398b40" d="M 252.304688 295.371094 L 252.296875 280.601562 L 281.84375 280.59375 L 281.855469 295.371094 L 252.304688 295.371094 " fill-opacity="1" fill-rule="nonzero"/><path fill="#398b40" d="M 252.304688 295.359375 L 252.304688 280.601562 L 281.84375 280.601562 L 281.84375 295.359375 L 252.304688 295.359375 " fill-opacity="1" fill-rule="nonzero"/><path fill="#398b40" d="M 370.457031 280.613281 L 370.449219 265.855469 L 326.148438 265.863281 L 326.140625 236.339844 L 355.699219 236.332031 L 355.683594 221.59375 L 385.242188 221.582031 L 385.234375 206.824219 L 414.765625 206.8125 L 414.777344 251.09375 L 429.539062 251.085938 L 429.546875 265.855469 L 400.003906 265.863281 L 400.011719 280.613281 L 370.457031 280.613281 " fill-opacity="1" fill-rule="nonzero"/><path fill="#398b40" d="M 429.539062 251.09375 L 429.539062 265.855469 L 400.003906 265.855469 L 400.003906 280.601562 L 370.457031 280.601562 L 370.457031 265.855469 L 326.148438 265.855469 L 326.148438 236.339844 L 355.699219 236.339844 L 355.699219 221.59375 L 385.242188 221.59375 L 385.242188 206.824219 L 414.765625 206.824219 L 414.765625 251.09375 L 429.539062 251.09375 " fill-opacity="1" fill-rule="nonzero"/><path fill="#1f373a" d="M 252.304688 280.613281 L 252.296875 265.855469 L 296.617188 265.84375 L 296.625 280.613281 L 252.304688 280.613281 " fill-opacity="1" fill-rule="nonzero"/><path fill="#1f373a" d="M 252.304688 280.601562 L 252.304688 265.855469 L 296.617188 265.855469 L 296.617188 280.601562 L 252.304688 280.601562 " fill-opacity="1" fill-rule="nonzero"/><path fill="#1f373a" d="M 237.546875 339.632812 L 237.539062 310.105469 L 267.070312 310.09375 L 267.082031 324.863281 L 326.148438 324.855469 L 326.160156 339.632812 L 237.546875 339.632812 " fill-opacity="1" fill-rule="nonzero"/><path fill="#1f373a" d="M 326.148438 324.863281 L 326.148438 339.621094 L 237.546875 339.621094 L 237.546875 310.105469 L 267.070312 310.105469 L 267.070312 324.863281 L 326.148438 324.863281 " fill-opacity="1" fill-rule="nonzero"/><path fill="#1f373a" d="M 311.390625 265.863281 L 311.378906 251.09375 L 326.148438 251.085938 L 326.160156 265.863281 L 311.390625 265.863281 " fill-opacity="1" fill-rule="nonzero"/><path fill="#1f373a" d="M 326.148438 251.09375 L 326.148438 265.855469 L 311.390625 265.855469 L 311.390625 251.09375 L 326.148438 251.09375 " fill-opacity="1" fill-rule="nonzero"/><path fill="#1f373a" d="M 267.070312 206.832031 L 267.058594 192.078125 L 311.390625 192.066406 L 311.378906 177.332031 L 340.914062 177.320312 L 340.902344 162.570312 L 355.699219 162.5625 L 355.683594 147.8125 L 370.457031 147.804688 L 370.46875 177.332031 L 355.699219 177.339844 L 355.707031 192.078125 L 326.148438 192.089844 L 326.160156 206.832031 L 267.070312 206.832031 " fill-opacity="1" fill-rule="nonzero"/><path fill="#1f373a" d="M 340.914062 177.332031 L 340.914062 162.570312 L 355.699219 162.570312 L 355.699219 147.8125 L 370.457031 147.8125 L 370.457031 177.332031 L 355.699219 177.332031 L 355.699219 192.078125 L 326.148438 192.078125 L 326.148438 206.824219 L 267.070312 206.824219 L 267.070312 192.078125 L 311.390625 192.078125 L 311.390625 177.332031 L 340.914062 177.332031 " fill-opacity="1" fill-rule="nonzero"/><g clip-path="url(#d32cd83010)"><path fill="#1f373a" d="M 355.699219 295.371094 L 355.683594 280.601562 L 326.148438 280.613281 L 326.140625 265.855469 L 370.457031 265.84375 L 370.46875 280.601562 L 400.003906 280.59375 L 399.992188 265.855469 L 429.539062 265.84375 L 429.527344 251.09375 L 414.765625 251.105469 L 414.757812 221.59375 L 429.539062 221.582031 L 429.546875 236.339844 L 444.3125 236.332031 L 444.320312 251.09375 L 459.085938 251.085938 L 459.09375 265.855469 L 444.3125 265.863281 L 444.320312 280.601562 L 414.765625 280.613281 L 414.777344 295.371094 L 355.699219 295.371094 " fill-opacity="1" fill-rule="nonzero"/><path fill="#1f373a" d="M 459.085938 251.09375 L 459.085938 265.855469 L 444.3125 265.855469 L 444.3125 280.601562 L 414.765625 280.601562 L 414.765625 295.359375 L 355.699219 295.359375 L 355.699219 280.601562 L 326.148438 280.601562 L 326.148438 265.855469 L 370.457031 265.855469 L 370.457031 280.601562 L 400.003906 280.601562 L 400.003906 265.855469 L 429.539062 265.855469 L 429.539062 251.09375 L 414.765625 251.09375 L 414.765625 221.59375 L 429.539062 221.59375 L 429.539062 236.339844 L 444.3125 236.339844 L 444.3125 251.09375 L 459.085938 251.09375 " fill-opacity="1" fill-rule="nonzero"/></g><path fill="#1f373a" d="M 148.917969 118.320312 L 148.910156 103.5625 L 119.386719 103.574219 L 119.375 88.796875 L 104.617188 88.808594 L 104.605469 74.050781 L 134.148438 74.039062 L 134.160156 88.796875 L 163.695312 88.78125 L 163.703125 103.5625 L 178.457031 103.554688 L 178.46875 118.320312 L 148.917969 118.320312 " fill-opacity="1" fill-rule="nonzero"/><path fill="#1f373a" d="M 119.386719 88.796875 L 104.617188 88.796875 L 104.617188 74.050781 L 134.148438 74.050781 L 134.148438 88.796875 L 163.695312 88.796875 L 163.695312 103.5625 L 178.457031 103.5625 L 178.457031 118.3125 L 148.917969 118.3125 L 148.917969 103.5625 L 119.386719 103.5625 L 119.386719 88.796875 " fill-opacity="1" fill-rule="nonzero"/><path fill="#1f373a" d="M 75.070312 192.089844 L 75.0625 177.332031 L 60.308594 177.339844 L 60.296875 162.570312 L 89.851562 162.5625 L 89.84375 147.8125 L 163.695312 147.804688 L 163.683594 133.058594 L 193.21875 133.050781 L 193.207031 118.3125 L 237.546875 118.300781 L 237.539062 103.5625 L 252.304688 103.554688 L 252.296875 88.796875 L 296.617188 88.78125 L 296.605469 74.050781 L 326.148438 74.039062 L 326.160156 88.796875 L 311.390625 88.808594 L 311.398438 103.5625 L 267.070312 103.574219 L 267.082031 118.3125 L 252.304688 118.320312 L 252.320312 133.058594 L 208.003906 133.070312 L 208.011719 147.8125 L 178.457031 147.824219 L 178.46875 162.570312 L 119.386719 162.582031 L 119.394531 177.332031 L 104.617188 177.339844 L 104.625 192.089844 L 75.070312 192.089844 " fill-opacity="1" fill-rule="nonzero"/><path fill="#1f373a" d="M 208.003906 133.058594 L 208.003906 147.8125 L 178.457031 147.8125 L 178.457031 162.570312 L 119.386719 162.570312 L 119.386719 177.332031 L 104.617188 177.332031 L 104.617188 192.078125 L 75.070312 192.078125 L 75.070312 177.332031 L 60.308594 177.332031 L 60.308594 162.570312 L 89.851562 162.570312 L 89.851562 147.8125 L 163.695312 147.8125 L 163.695312 133.058594 L 193.21875 133.058594 L 193.21875 118.3125 L 237.546875 118.3125 L 237.546875 103.5625 L 252.304688 103.5625 L 252.304688 88.796875 L 296.617188 88.796875 L 296.617188 74.050781 L 326.148438 74.050781 L 326.148438 88.796875 L 311.390625 88.796875 L 311.390625 103.5625 L 267.070312 103.5625 L 267.070312 118.3125 L 252.304688 118.3125 L 252.304688 133.058594 L 208.003906 133.058594 " fill-opacity="1" fill-rule="nonzero"/><path fill="#1f373a" d="M 134.148438 236.351562 L 134.140625 221.59375 L 148.917969 221.582031 L 148.933594 236.351562 L 134.148438 236.351562 " fill-opacity="1" fill-rule="nonzero"/><path fill="#1f373a" d="M 148.917969 236.339844 L 134.148438 236.339844 L 134.148438 221.59375 L 148.917969 221.59375 L 148.917969 236.339844 " fill-opacity="1" fill-rule="nonzero"/><path fill="#1f373a" d="M 75.070312 295.371094 L 75.0625 280.601562 L 119.386719 280.59375 L 119.375 265.855469 L 134.148438 265.84375 L 134.140625 251.09375 L 178.457031 251.085938 L 178.46875 265.855469 L 148.917969 265.863281 L 148.933594 280.601562 L 134.148438 280.613281 L 134.160156 295.371094 L 75.070312 295.371094 " fill-opacity="1" fill-rule="nonzero"/><path fill="#1f373a" d="M 178.457031 251.09375 L 178.457031 265.855469 L 148.917969 265.855469 L 148.917969 280.601562 L 134.148438 280.601562 L 134.148438 295.359375 L 75.070312 295.359375 L 75.070312 280.601562 L 119.386719 280.601562 L 119.386719 265.855469 L 134.148438 265.855469 L 134.148438 251.09375 L 178.457031 251.09375 " fill-opacity="1" fill-rule="nonzero"/><path fill="#1f373a" d="M 222.761719 295.371094 L 222.753906 280.601562 L 252.304688 280.59375 L 252.320312 295.371094 L 222.761719 295.371094 " fill-opacity="1" fill-rule="nonzero"/><path fill="#1f373a" d="M 222.761719 295.359375 L 222.761719 280.601562 L 252.304688 280.601562 L 252.304688 295.359375 L 222.761719 295.359375 " fill-opacity="1" fill-rule="nonzero"/><path fill="#5c4f2f" d="M 178.457031 251.105469 L 178.449219 236.339844 L 193.21875 236.332031 L 193.226562 251.105469 L 178.457031 251.105469 " fill-opacity="1" fill-rule="nonzero"/><path fill="#5c4f2f" d="M 193.21875 236.339844 L 193.21875 251.09375 L 178.457031 251.09375 L 178.457031 236.339844 L 193.21875 236.339844 " fill-opacity="1" fill-rule="nonzero"/><path fill="#5c4f2f" d="M 89.851562 221.601562 L 89.84375 206.824219 L 104.617188 206.8125 L 104.625 221.601562 L 89.851562 221.601562 " fill-opacity="1" fill-rule="nonzero"/><path fill="#5c4f2f" d="M 104.617188 221.59375 L 89.851562 221.59375 L 89.851562 206.824219 L 104.617188 206.824219 L 104.617188 221.59375 " fill-opacity="1" fill-rule="nonzero"/><path fill="#5c4f2f" d="M 104.617188 206.832031 L 104.605469 192.078125 L 119.386719 192.066406 L 119.394531 206.832031 L 104.617188 206.832031 " fill-opacity="1" fill-rule="nonzero"/><path fill="#5c4f2f" d="M 119.386719 206.824219 L 104.617188 206.824219 L 104.617188 192.078125 L 119.386719 192.078125 L 119.386719 206.824219 " fill-opacity="1" fill-rule="nonzero"/><path fill="#5c4f2f" d="M 75.070312 236.351562 L 75.0625 221.59375 L 89.851562 221.582031 L 89.863281 236.351562 L 75.070312 236.351562 " fill-opacity="1" fill-rule="nonzero"/><path fill="#5c4f2f" d="M 89.851562 236.339844 L 75.070312 236.339844 L 75.070312 221.59375 L 89.851562 221.59375 L 89.851562 236.339844 " fill-opacity="1" fill-rule="nonzero"/><path fill="#5c4f2f" d="M 119.386719 177.339844 L 119.375 162.570312 L 134.148438 162.5625 L 134.160156 177.339844 L 119.386719 177.339844 " fill-opacity="1" fill-rule="nonzero"/><path fill="#5c4f2f" d="M 134.148438 177.332031 L 119.386719 177.332031 L 119.386719 162.570312 L 134.148438 162.570312 L 134.148438 177.332031 " fill-opacity="1" fill-rule="nonzero"/><g clip-path="url(#569d25391d)"><path fill="#5c4f2f" d="M 134.148438 413.40625 L 134.140625 398.628906 L 104.617188 398.640625 L 104.625 413.398438 L 75.070312 413.40625 L 75.0625 398.628906 L 89.851562 398.617188 L 89.84375 369.136719 L 104.617188 369.125 L 104.605469 354.367188 L 134.148438 354.355469 L 134.140625 339.621094 L 163.695312 339.613281 L 163.703125 354.367188 L 178.457031 354.355469 L 178.46875 369.136719 L 163.695312 369.144531 L 163.703125 413.40625 L 134.148438 413.40625 " fill-opacity="1" fill-rule="nonzero"/><path fill="#5c4f2f" d="M 163.695312 354.367188 L 178.457031 354.367188 L 178.457031 369.136719 L 163.695312 369.136719 L 163.695312 413.398438 L 134.148438 413.398438 L 134.148438 398.628906 L 104.617188 398.628906 L 104.617188 413.398438 L 75.070312 413.398438 L 75.070312 398.628906 L 89.851562 398.628906 L 89.851562 369.136719 L 104.617188 369.136719 L 104.617188 354.367188 L 134.148438 354.367188 L 134.148438 339.621094 L 163.695312 339.621094 L 163.695312 354.367188 " fill-opacity="1" fill-rule="nonzero"/></g><path fill="#5c4f2f" d="M 193.21875 295.371094 L 193.207031 280.601562 L 178.457031 280.613281 L 178.449219 265.855469 L 193.21875 265.84375 L 193.207031 251.09375 L 208.003906 251.085938 L 208.011719 265.855469 L 222.761719 265.84375 L 222.773438 280.601562 L 208.003906 280.613281 L 208.011719 295.371094 L 193.21875 295.371094 " fill-opacity="1" fill-rule="nonzero"/><path fill="#5c4f2f" d="M 222.761719 265.855469 L 222.761719 280.601562 L 208.003906 280.601562 L 208.003906 295.359375 L 193.21875 295.359375 L 193.21875 280.601562 L 178.457031 280.601562 L 178.457031 265.855469 L 193.21875 265.855469 L 193.21875 251.09375 L 208.003906 251.09375 L 208.003906 265.855469 L 222.761719 265.855469 " fill-opacity="1" fill-rule="nonzero"/><path fill="#3a301e" d="M 163.695312 251.105469 L 163.683594 236.339844 L 178.457031 236.332031 L 178.46875 251.105469 L 163.695312 251.105469 " fill-opacity="1" fill-rule="nonzero"/><path fill="#3a301e" d="M 178.457031 236.339844 L 178.457031 251.09375 L 163.695312 251.09375 L 163.695312 236.339844 L 178.457031 236.339844 " fill-opacity="1" fill-rule="nonzero"/><path fill="#3a301e" d="M 134.148438 383.894531 L 134.140625 369.136719 L 148.917969 369.125 L 148.933594 383.894531 L 134.148438 383.894531 " fill-opacity="1" fill-rule="nonzero"/><path fill="#3a301e" d="M 134.148438 369.136719 L 148.917969 369.136719 L 148.917969 383.882812 L 134.148438 383.882812 L 134.148438 369.136719 " fill-opacity="1" fill-rule="nonzero"/><path fill="#3a301e" d="M 104.617188 221.601562 L 104.605469 206.824219 L 119.386719 206.8125 L 119.375 177.332031 L 134.148438 177.320312 L 134.140625 162.570312 L 208.003906 162.5625 L 208.011719 177.332031 L 222.761719 177.320312 L 222.773438 192.078125 L 163.695312 192.089844 L 163.703125 206.824219 L 134.148438 206.832031 L 134.160156 221.601562 L 104.617188 221.601562 " fill-opacity="1" fill-rule="nonzero"/><path fill="#3a301e" d="M 104.617188 221.59375 L 104.617188 206.824219 L 119.386719 206.824219 L 119.386719 177.332031 L 134.148438 177.332031 L 134.148438 162.570312 L 208.003906 162.570312 L 208.003906 177.332031 L 222.761719 177.332031 L 222.761719 192.078125 L 163.695312 192.078125 L 163.695312 206.824219 L 134.148438 206.824219 L 134.148438 221.59375 L 104.617188 221.59375 " fill-opacity="1" fill-rule="nonzero"/><g clip-path="url(#fa30462c39)"><path fill="#3a301e" d="M 104.617188 413.40625 L 104.605469 398.628906 L 134.148438 398.617188 L 134.160156 413.40625 L 104.617188 413.40625 " fill-opacity="1" fill-rule="nonzero"/><path fill="#3a301e" d="M 134.148438 398.628906 L 134.148438 413.398438 L 104.617188 413.398438 L 104.617188 398.628906 L 134.148438 398.628906 " fill-opacity="1" fill-rule="nonzero"/></g><g clip-path="url(#f35e6766ec)"><path fill="#3a301e" d="M 163.695312 413.40625 L 163.683594 369.136719 L 178.457031 369.125 L 178.449219 354.367188 L 163.695312 354.375 L 163.683594 324.863281 L 178.457031 324.855469 L 178.449219 295.359375 L 163.695312 295.371094 L 163.683594 280.601562 L 148.917969 280.613281 L 148.910156 265.855469 L 178.457031 265.84375 L 178.449219 251.09375 L 193.21875 251.085938 L 193.226562 265.855469 L 208.003906 265.84375 L 207.992188 251.09375 L 222.761719 251.085938 L 222.773438 265.855469 L 252.304688 265.84375 L 252.320312 280.601562 L 222.761719 280.613281 L 222.773438 295.359375 L 208.003906 295.371094 L 208.011719 310.105469 L 193.21875 310.113281 L 193.226562 324.863281 L 237.546875 324.855469 L 237.558594 339.621094 L 208.003906 339.632812 L 208.011719 354.367188 L 222.761719 354.355469 L 222.773438 369.136719 L 237.546875 369.125 L 237.558594 383.882812 L 252.304688 383.875 L 252.320312 398.628906 L 267.070312 398.617188 L 267.082031 413.40625 L 163.695312 413.40625 " fill-opacity="1" fill-rule="nonzero"/><path fill="#3a301e" d="M 267.070312 398.628906 L 267.070312 413.398438 L 163.695312 413.398438 L 163.695312 369.136719 L 178.457031 369.136719 L 178.457031 354.367188 L 163.695312 354.367188 L 163.695312 324.863281 L 178.457031 324.863281 L 178.457031 295.359375 L 163.695312 295.359375 L 163.695312 280.601562 L 148.917969 280.601562 L 148.917969 265.855469 L 178.457031 265.855469 L 178.457031 251.09375 L 193.21875 251.09375 L 193.21875 265.855469 L 208.003906 265.855469 L 208.003906 251.09375 L 222.761719 251.09375 L 222.761719 265.855469 L 252.304688 265.855469 L 252.304688 280.601562 L 222.761719 280.601562 L 222.761719 295.359375 L 208.003906 295.359375 L 208.003906 310.105469 L 193.21875 310.105469 L 193.21875 324.863281 L 237.546875 324.863281 L 237.546875 339.621094 L 208.003906 339.621094 L 208.003906 354.367188 L 222.761719 354.367188 L 222.761719 369.136719 L 237.546875 369.136719 L 237.546875 383.882812 L 252.304688 383.882812 L 252.304688 398.628906 L 267.070312 398.628906 " fill-opacity="1" fill-rule="nonzero"/></g><g fill="#ffffff" fill-opacity="1"><g transform="translate(655.418832, 274.475771)"><g><path d="M 13.21875 33.03125 L 13.21875 -91.765625 L 22.03125 -91.765625 L 25.140625 -79.28125 L 26.0625 -79.28125 C 27.28125 -81 29.265625 -82.957031 32.015625 -85.15625 C 34.773438 -87.363281 38.203125 -89.320312 42.296875 -91.03125 C 46.398438 -92.738281 50.773438 -93.59375 55.421875 -93.59375 C 63.128906 -93.59375 70.195312 -91.570312 76.625 -87.53125 C 83.050781 -83.5 88.160156 -77.84375 91.953125 -70.5625 C 95.742188 -63.28125 97.640625 -55.054688 97.640625 -45.890625 C 97.640625 -36.710938 95.742188 -28.484375 91.953125 -21.203125 C 88.160156 -13.921875 83.050781 -8.257812 76.625 -4.21875 C 70.195312 -0.1875 63.128906 1.828125 55.421875 1.828125 C 50.773438 1.828125 46.398438 0.972656 42.296875 -0.734375 C 38.203125 -2.441406 34.75 -4.394531 31.9375 -6.59375 C 29.125 -8.800781 27.164062 -10.765625 26.0625 -12.484375 L 25.140625 -12.484375 L 25.140625 33.03125 Z M 55.421875 -9.359375 C 60.929688 -9.359375 66.007812 -10.882812 70.65625 -13.9375 C 75.3125 -17 78.984375 -21.3125 81.671875 -26.875 C 84.359375 -32.445312 85.703125 -38.785156 85.703125 -45.890625 C 85.703125 -52.984375 84.359375 -59.3125 81.671875 -64.875 C 78.984375 -70.445312 75.3125 -74.757812 70.65625 -77.8125 C 66.007812 -80.875 60.929688 -82.40625 55.421875 -82.40625 C 49.921875 -82.40625 44.84375 -80.875 40.1875 -77.8125 C 35.539062 -74.757812 31.867188 -70.445312 29.171875 -64.875 C 26.484375 -59.3125 25.140625 -52.984375 25.140625 -45.890625 C 25.140625 -38.785156 26.484375 -32.445312 29.171875 -26.875 C 31.867188 -21.3125 35.539062 -17 40.1875 -13.9375 C 44.84375 -10.882812 49.921875 -9.359375 55.421875 -9.359375 Z M 55.421875 -9.359375 "/></g></g></g><g fill="#ffffff" fill-opacity="1"><g transform="translate(760.205174, 274.475771)"><g><path d="M 59.640625 -65.15625 L 102.046875 0 L 87 0 L 52.125 -54.6875 L 16.890625 0 L 2.75 0 L 44.96875 -65.15625 L 4.765625 -128.46875 L 19.453125 -128.46875 L 52.671875 -75.796875 L 85.703125 -128.46875 L 100.03125 -128.46875 Z M 59.640625 -65.15625 "/></g></g></g><g fill="#ffffff" fill-opacity="1"><g transform="translate(859.485516, 274.475771)"><g/></g></g><g fill="#ffffff" fill-opacity="1"><g transform="translate(903.161781, 274.475771)"><g><path d="M 49.375 1.828125 C 41.664062 1.828125 34.597656 -0.1875 28.171875 -4.21875 C 21.742188 -8.257812 16.632812 -13.921875 12.84375 -21.203125 C 9.050781 -28.484375 7.15625 -36.710938 7.15625 -45.890625 C 7.15625 -55.054688 9.050781 -63.28125 12.84375 -70.5625 C 16.632812 -77.84375 21.742188 -83.5 28.171875 -87.53125 C 34.597656 -91.570312 41.664062 -93.59375 49.375 -93.59375 C 54.019531 -93.59375 58.390625 -92.738281 62.484375 -91.03125 C 66.585938 -89.320312 70.046875 -87.363281 72.859375 -85.15625 C 75.671875 -82.957031 77.628906 -81 78.734375 -79.28125 L 79.65625 -79.28125 L 79.65625 -128.46875 L 91.578125 -128.46875 L 91.578125 0 L 82.765625 0 L 79.65625 -12.484375 L 78.734375 -12.484375 C 77.515625 -10.765625 75.523438 -8.800781 72.765625 -6.59375 C 70.015625 -4.394531 66.585938 -2.441406 62.484375 -0.734375 C 58.390625 0.972656 54.019531 1.828125 49.375 1.828125 Z M 49.375 -9.359375 C 54.875 -9.359375 59.945312 -10.882812 64.59375 -13.9375 C 69.25 -17 72.921875 -21.3125 75.609375 -26.875 C 78.304688 -32.445312 79.65625 -38.785156 79.65625 -45.890625 C 79.65625 -52.984375 78.304688 -59.3125 75.609375 -64.875 C 72.921875 -70.445312 69.25 -74.757812 64.59375 -77.8125 C 59.945312 -80.875 54.875 -82.40625 49.375 -82.40625 C 43.863281 -82.40625 38.78125 -80.875 34.125 -77.8125 C 29.476562 -74.757812 25.8125 -70.445312 23.125 -64.875 C 20.4375 -59.3125 19.09375 -52.984375 19.09375 -45.890625 C 19.09375 -38.785156 20.4375 -32.445312 23.125 -26.875 C 25.8125 -21.3125 29.476562 -17 34.125 -13.9375 C 38.78125 -10.882812 43.863281 -9.359375 49.375 -9.359375 Z M 49.375 -9.359375 "/></g></g></g><g fill="#ffffff" fill-opacity="1"><g transform="translate(1008.865721, 274.475771)"><g><path d="M 91.40625 -48.640625 C 91.40625 -44.847656 91.160156 -41.972656 90.671875 -40.015625 L 19.453125 -40.015625 C 20.429688 -30.585938 23.765625 -23.117188 29.453125 -17.609375 C 35.140625 -12.109375 42.207031 -9.359375 50.65625 -9.359375 C 61.914062 -9.359375 70.421875 -14.191406 76.171875 -23.859375 L 88.09375 -23.859375 C 85.28125 -16.390625 80.445312 -10.238281 73.59375 -5.40625 C 66.738281 -0.582031 58.96875 1.828125 50.28125 1.828125 C 42.207031 1.828125 34.894531 -0.1875 28.34375 -4.21875 C 21.800781 -8.257812 16.632812 -13.890625 12.84375 -21.109375 C 9.050781 -28.328125 7.15625 -36.585938 7.15625 -45.890625 C 7.15625 -54.941406 9.082031 -63.101562 12.9375 -70.375 C 16.789062 -77.65625 22.019531 -83.34375 28.625 -87.4375 C 35.238281 -91.539062 42.457031 -93.59375 50.28125 -93.59375 C 57.988281 -93.59375 64.992188 -91.601562 71.296875 -87.625 C 77.597656 -83.65625 82.523438 -78.242188 86.078125 -71.390625 C 89.628906 -64.535156 91.40625 -56.953125 91.40625 -48.640625 Z M 50.28125 -82.40625 C 45.144531 -82.40625 40.34375 -81.085938 35.875 -78.453125 C 31.414062 -75.828125 27.6875 -72.097656 24.6875 -67.265625 C 21.6875 -62.429688 19.878906 -56.957031 19.265625 -50.84375 L 79.28125 -50.84375 C 78.675781 -60.019531 75.679688 -67.570312 70.296875 -73.5 C 64.910156 -79.4375 58.238281 -82.40625 50.28125 -82.40625 Z M 50.28125 -82.40625 "/></g></g></g><g fill="#ffffff" fill-opacity="1"><g transform="translate(1107.412592, 274.475771)"><g><path d="M 40.921875 1.828125 C 34.679688 1.828125 29.050781 0.515625 24.03125 -2.109375 C 19.019531 -4.742188 15.046875 -8.257812 12.109375 -12.65625 C 9.171875 -17.0625 7.519531 -21.710938 7.15625 -26.609375 L 19.09375 -26.609375 C 19.695312 -21.472656 21.894531 -17.3125 25.6875 -14.125 C 29.488281 -10.945312 34.566406 -9.359375 40.921875 -9.359375 C 47.160156 -9.359375 51.960938 -10.765625 55.328125 -13.578125 C 58.691406 -16.390625 60.375 -19.9375 60.375 -24.21875 C 60.375 -27.40625 59.394531 -30.035156 57.4375 -32.109375 C 55.488281 -34.191406 53.101562 -35.875 50.28125 -37.15625 C 47.46875 -38.445312 43.492188 -39.890625 38.359375 -41.484375 C 32.117188 -43.441406 27.101562 -45.304688 23.3125 -47.078125 C 19.519531 -48.847656 16.273438 -51.414062 13.578125 -54.78125 C 10.890625 -58.144531 9.546875 -62.519531 9.546875 -67.90625 C 9.546875 -72.675781 10.796875 -77.019531 13.296875 -80.9375 C 15.804688 -84.851562 19.328125 -87.941406 23.859375 -90.203125 C 28.390625 -92.460938 33.648438 -93.59375 39.640625 -93.59375 C 45.515625 -93.59375 50.773438 -92.367188 55.421875 -89.921875 C 60.078125 -87.484375 63.75 -84.148438 66.4375 -79.921875 C 69.125 -75.703125 70.65625 -71.085938 71.03125 -66.078125 L 59.09375 -66.078125 C 58.476562 -71.210938 56.519531 -75.21875 53.21875 -78.09375 C 49.914062 -80.96875 45.390625 -82.40625 39.640625 -82.40625 C 33.890625 -82.40625 29.421875 -81.085938 26.234375 -78.453125 C 23.054688 -75.828125 21.46875 -72.492188 21.46875 -68.453125 C 21.46875 -64.046875 23.242188 -60.710938 26.796875 -58.453125 C 30.347656 -56.191406 35.789062 -53.898438 43.125 -51.578125 C 49.363281 -49.492188 54.410156 -47.503906 58.265625 -45.609375 C 62.117188 -43.710938 65.421875 -41.050781 68.171875 -37.625 C 70.929688 -34.195312 72.3125 -29.726562 72.3125 -24.21875 C 72.3125 -16.757812 69.492188 -10.550781 63.859375 -5.59375 C 58.234375 -0.644531 50.585938 1.828125 40.921875 1.828125 Z M 40.921875 1.828125 "/></g></g></g><g fill="#ffffff" fill-opacity="1"><g transform="translate(1187.241098, 274.475771)"><g><path d="M 25.140625 0 L 13.21875 0 L 13.21875 -91.765625 L 25.140625 -91.765625 Z M 19.265625 -106.453125 C 16.941406 -106.453125 14.984375 -107.242188 13.390625 -108.828125 C 11.796875 -110.421875 11 -112.378906 11 -114.703125 C 11 -117.148438 11.796875 -119.140625 13.390625 -120.671875 C 14.984375 -122.203125 16.941406 -122.96875 19.265625 -122.96875 C 21.710938 -122.96875 23.703125 -122.203125 25.234375 -120.671875 C 26.765625 -119.140625 27.53125 -117.148438 27.53125 -114.703125 C 27.53125 -112.378906 26.734375 -110.421875 25.140625 -108.828125 C 23.546875 -107.242188 21.585938 -106.453125 19.265625 -106.453125 Z M 19.265625 -106.453125 "/></g></g></g><g fill="#ffffff" fill-opacity="1"><g transform="translate(1225.595473, 274.475771)"><g><path d="M 50.109375 34.875 C 40.191406 34.875 31.742188 32.363281 24.765625 27.34375 C 17.796875 22.332031 13.273438 15.601562 11.203125 7.15625 L 23.125 7.15625 C 24.832031 12.289062 28.039062 16.328125 32.75 19.265625 C 37.46875 22.203125 43.253906 23.671875 50.109375 23.671875 C 58.304688 23.671875 64.910156 21.222656 69.921875 16.328125 C 74.941406 11.441406 77.453125 4.957031 77.453125 -3.125 L 77.453125 -17.625 L 76.53125 -17.625 C 75.425781 -15.90625 73.53125 -13.914062 70.84375 -11.65625 C 68.15625 -9.394531 64.851562 -7.40625 60.9375 -5.6875 C 57.019531 -3.976562 52.796875 -3.125 48.265625 -3.125 C 40.804688 -3.125 33.925781 -5.078125 27.625 -8.984375 C 21.320312 -12.898438 16.332031 -18.316406 12.65625 -25.234375 C 8.988281 -32.148438 7.15625 -39.828125 7.15625 -48.265625 C 7.15625 -56.828125 8.988281 -64.566406 12.65625 -71.484375 C 16.332031 -78.398438 21.320312 -83.8125 27.625 -87.71875 C 33.925781 -91.632812 40.804688 -93.59375 48.265625 -93.59375 C 52.796875 -93.59375 57.019531 -92.765625 60.9375 -91.109375 C 64.851562 -89.460938 68.15625 -87.507812 70.84375 -85.25 C 73.53125 -82.988281 75.425781 -81 76.53125 -79.28125 L 77.453125 -79.28125 L 80.5625 -91.765625 L 89.375 -91.765625 L 89.375 -3.125 C 89.375 4.34375 87.722656 10.953125 84.421875 16.703125 C 81.117188 22.453125 76.5 26.914062 70.5625 30.09375 C 64.632812 33.28125 57.816406 34.875 50.109375 34.875 Z M 48.265625 -14.3125 C 53.410156 -14.3125 58.210938 -15.78125 62.671875 -18.71875 C 67.140625 -21.65625 70.71875 -25.722656 73.40625 -30.921875 C 76.101562 -36.117188 77.453125 -41.898438 77.453125 -48.265625 C 77.453125 -54.753906 76.101562 -60.597656 73.40625 -65.796875 C 70.71875 -70.992188 67.140625 -75.0625 62.671875 -78 C 58.210938 -80.9375 53.410156 -82.40625 48.265625 -82.40625 C 43.003906 -82.40625 38.140625 -80.9375 33.671875 -78 C 29.210938 -75.0625 25.664062 -70.992188 23.03125 -65.796875 C 20.40625 -60.597656 19.09375 -54.753906 19.09375 -48.265625 C 19.09375 -41.898438 20.40625 -36.117188 23.03125 -30.921875 C 25.664062 -25.722656 29.210938 -21.65625 33.671875 -18.71875 C 38.140625 -15.78125 43.003906 -14.3125 48.265625 -14.3125 Z M 48.265625 -14.3125 "/></g></g></g><g fill="#ffffff" fill-opacity="1"><g transform="translate(1328.179657, 274.475771)"><g><path d="M 13.21875 0 L 13.21875 -91.765625 L 22.03125 -91.765625 L 25.140625 -79.28125 L 26.0625 -79.28125 C 28.507812 -83.070312 32.085938 -86.40625 36.796875 -89.28125 C 41.503906 -92.15625 46.921875 -93.59375 53.046875 -93.59375 C 59.890625 -93.59375 66.09375 -91.941406 71.65625 -88.640625 C 77.226562 -85.335938 81.601562 -80.628906 84.78125 -74.515625 C 87.96875 -68.398438 89.5625 -61.300781 89.5625 -53.21875 L 89.5625 0 L 77.640625 0 L 77.640625 -53.21875 C 77.640625 -62.28125 75.25 -69.410156 70.46875 -74.609375 C 65.695312 -79.804688 59.519531 -82.40625 51.9375 -82.40625 C 43.863281 -82.40625 37.378906 -79.804688 32.484375 -74.609375 C 27.585938 -69.410156 25.140625 -62.28125 25.140625 -53.21875 L 25.140625 0 Z M 13.21875 0 "/></g></g></g></g></g></svg>