<svg xmlns="http://www.w3.org/2000/svg" xmlns:xlink="http://www.w3.org/1999/xlink" width="2000" zoomAndPan="magnify" viewBox="0 0 1500 430.499987" height="574" preserveAspectRatio="xMidYMid meet" version="1.0"><defs><g/><clipPath id="1e24b7c585"><path d="M 0.871094 0 L 1499.128906 0 L 1499.128906 430 L 0.871094 430 Z M 0.871094 0 " clip-rule="nonzero"/></clipPath><clipPath id="70b3e6d38c"><path d="M 0.871094 0 L 1390 0 L 1390 430 L 0.871094 430 Z M 0.871094 0 " clip-rule="nonzero"/></clipPath><clipPath id="b50f8f6cad"><path d="M 338 229.316406 L 476.574219 229.316406 L 476.574219 307 L 338 307 Z M 338 229.316406 " clip-rule="nonzero"/></clipPath><clipPath id="155afbdadf"><path d="M 77.035156 352 L 185.941406 352 L 185.941406 428.878906 L 77.035156 428.878906 Z M 77.035156 352 " clip-rule="nonzero"/></clipPath><clipPath id="51b75313ae"><path d="M 108 413 L 140 413 L 140 428.878906 L 108 428.878906 Z M 108 413 " clip-rule="nonzero"/></clipPath><clipPath id="5b91cf282f"><path d="M 154 260.25 L 277.761719 260.25 L 277.761719 428.878906 L 154 428.878906 Z M 154 260.25 " clip-rule="nonzero"/></clipPath><clipPath id="3bdf223a98"><rect x="0" width="1390" y="0" height="430"/></clipPath></defs><g clip-path="url(#1e24b7c585)"><path fill="#ffffff" d="M 0.871094 0 L 1499.128906 0 L 1499.128906 430 L 0.871094 430 Z M 0.871094 0 " fill-opacity="1" fill-rule="nonzero"/><path fill="#024caa" d="M 0.871094 0 L 1499.128906 0 L 1499.128906 430 L 0.871094 430 Z M 0.871094 0 " fill-opacity="1" fill-rule="nonzero"/></g><g clip-path="url(#70b3e6d38c)"><g transform="matrix(1, 0, 0, 1, 0.000000000000000222, 0)"><g clip-path="url(#3bdf223a98)"><path fill="#63c442" d="M 1.242188 153.195312 L 1.230469 137.863281 L 16.578125 137.851562 L 16.566406 122.554688 L 47.25 122.542969 L 47.242188 107.242188 L 62.578125 107.234375 L 62.5625 91.910156 L 108.574219 91.898438 L 108.582031 107.242188 L 93.246094 107.253906 L 93.261719 137.863281 L 47.25 137.875 L 47.261719 153.195312 L 1.242188 153.195312 " fill-opacity="1" fill-rule="nonzero"/><path fill="#63c442" d="M 47.25 137.863281 L 47.25 153.179688 L 1.242188 153.179688 L 1.242188 137.863281 L 16.578125 137.863281 L 16.578125 122.554688 L 47.25 122.554688 L 47.25 107.242188 L 62.578125 107.242188 L 62.578125 91.910156 L 108.574219 91.910156 L 108.574219 107.242188 L 93.246094 107.242188 L 93.246094 137.863281 L 47.25 137.863281 " fill-opacity="1" fill-rule="nonzero"/><path fill="#63c442" d="M 261.898438 321.675781 L 261.890625 306.355469 L 292.5625 306.347656 L 292.554688 291.035156 L 307.902344 291.027344 L 307.910156 306.355469 L 323.238281 306.347656 L 323.246094 321.675781 L 261.898438 321.675781 " fill-opacity="1" fill-rule="nonzero"/><path fill="#63c442" d="M 307.902344 306.355469 L 323.238281 306.355469 L 323.238281 321.664062 L 261.898438 321.664062 L 261.898438 306.355469 L 292.5625 306.355469 L 292.5625 291.035156 L 307.902344 291.035156 L 307.902344 306.355469 " fill-opacity="1" fill-rule="nonzero"/><path fill="#63c442" d="M 62.578125 275.734375 L 62.5625 260.402344 L 77.898438 260.394531 L 77.890625 245.082031 L 93.246094 245.074219 L 93.238281 229.777344 L 139.234375 229.761719 L 139.246094 245.082031 L 123.910156 245.097656 L 123.917969 260.402344 L 93.246094 260.414062 L 93.261719 275.734375 L 62.578125 275.734375 " fill-opacity="1" fill-rule="nonzero"/><path fill="#63c442" d="M 139.234375 229.777344 L 139.234375 245.082031 L 123.910156 245.082031 L 123.910156 260.402344 L 93.246094 260.402344 L 93.246094 275.726562 L 62.578125 275.726562 L 62.578125 260.402344 L 77.898438 260.402344 L 77.898438 245.082031 L 93.246094 245.082031 L 93.246094 229.777344 L 139.234375 229.777344 " fill-opacity="1" fill-rule="nonzero"/><path fill="#63c442" d="M 108.574219 76.613281 L 108.5625 45.960938 L 123.910156 45.949219 L 123.898438 30.652344 L 139.234375 30.640625 L 139.226562 15.328125 L 169.90625 15.320312 L 169.894531 0.0078125 L 246.578125 0 L 246.589844 15.328125 L 231.230469 15.339844 L 231.242188 30.652344 L 215.90625 30.660156 L 215.914062 45.960938 L 139.234375 45.972656 L 139.246094 61.269531 L 123.910156 61.277344 L 123.917969 76.613281 L 108.574219 76.613281 " fill-opacity="1" fill-rule="nonzero"/><path fill="#63c442" d="M 231.230469 30.652344 L 215.90625 30.652344 L 215.90625 45.960938 L 139.234375 45.960938 L 139.234375 61.269531 L 123.910156 61.269531 L 123.910156 76.601562 L 108.574219 76.601562 L 108.574219 45.960938 L 123.910156 45.960938 L 123.910156 30.652344 L 139.234375 30.652344 L 139.234375 15.328125 L 169.90625 15.328125 L 169.90625 0.0078125 L 246.578125 0.0078125 L 246.578125 15.328125 L 231.230469 15.328125 L 231.230469 30.652344 " fill-opacity="1" fill-rule="nonzero"/><path fill="#63c442" d="M 231.230469 183.832031 L 231.222656 168.5 L 261.898438 168.492188 L 261.890625 153.179688 L 277.226562 153.171875 L 277.214844 137.863281 L 307.902344 137.851562 L 307.890625 122.554688 L 353.886719 122.542969 L 353.894531 168.5 L 307.902344 168.511719 L 307.910156 183.832031 L 231.230469 183.832031 " fill-opacity="1" fill-rule="nonzero"/><path fill="#63c442" d="M 231.230469 183.824219 L 231.230469 168.5 L 261.898438 168.5 L 261.898438 153.179688 L 277.226562 153.179688 L 277.226562 137.863281 L 307.902344 137.863281 L 307.902344 122.554688 L 353.886719 122.554688 L 353.886719 168.5 L 307.902344 168.5 L 307.902344 183.824219 L 231.230469 183.824219 " fill-opacity="1" fill-rule="nonzero"/><path fill="#63c442" d="M 307.902344 260.414062 L 307.890625 245.082031 L 323.238281 245.074219 L 323.226562 229.777344 L 353.886719 229.761719 L 353.875 214.445312 L 384.558594 214.429688 L 384.550781 199.132812 L 415.234375 199.125 L 415.242188 214.445312 L 399.90625 214.453125 L 399.917969 229.777344 L 369.234375 229.785156 L 369.242188 245.082031 L 338.558594 245.097656 L 338.574219 260.414062 L 307.902344 260.414062 " fill-opacity="1" fill-rule="nonzero"/><path fill="#63c442" d="M 415.234375 199.132812 L 415.234375 214.445312 L 399.90625 214.445312 L 399.90625 229.777344 L 369.234375 229.777344 L 369.234375 245.082031 L 338.558594 245.082031 L 338.558594 260.402344 L 307.902344 260.402344 L 307.902344 245.082031 L 323.238281 245.082031 L 323.238281 229.777344 L 353.886719 229.777344 L 353.886719 214.445312 L 384.558594 214.445312 L 384.558594 199.132812 L 415.234375 199.132812 " fill-opacity="1" fill-rule="nonzero"/><path fill="#398b40" d="M 47.25 291.046875 L 47.242188 275.726562 L 31.902344 275.734375 L 31.894531 260.402344 L 47.25 260.394531 L 47.242188 245.082031 L 77.898438 245.074219 L 77.914062 260.402344 L 62.578125 260.414062 L 62.585938 275.726562 L 93.246094 275.714844 L 93.238281 260.402344 L 123.910156 260.394531 L 123.898438 245.082031 L 169.90625 245.074219 L 169.917969 260.402344 L 139.234375 260.414062 L 139.246094 275.726562 L 123.910156 275.734375 L 123.917969 291.046875 L 47.25 291.046875 " fill-opacity="1" fill-rule="nonzero"/><path fill="#398b40" d="M 169.90625 245.082031 L 169.90625 260.402344 L 139.234375 260.402344 L 139.234375 275.726562 L 123.910156 275.726562 L 123.910156 291.035156 L 47.25 291.035156 L 47.25 275.726562 L 31.902344 275.726562 L 31.902344 260.402344 L 47.25 260.402344 L 47.25 245.082031 L 77.898438 245.082031 L 77.898438 260.402344 L 62.578125 260.402344 L 62.578125 275.726562 L 93.246094 275.726562 L 93.246094 260.402344 L 123.910156 260.402344 L 123.910156 245.082031 L 169.90625 245.082031 " fill-opacity="1" fill-rule="nonzero"/><path fill="#398b40" d="M 16.578125 168.511719 L 16.566406 153.179688 L 47.25 153.171875 L 47.242188 137.863281 L 93.246094 137.851562 L 93.238281 107.242188 L 108.574219 107.234375 L 108.5625 91.910156 L 123.910156 91.898438 L 123.917969 107.242188 L 154.570312 107.234375 L 154.582031 122.554688 L 185.230469 122.542969 L 185.222656 107.242188 L 169.90625 107.253906 L 169.894531 91.910156 L 139.234375 91.921875 L 139.226562 76.601562 L 123.910156 76.613281 L 123.898438 61.269531 L 139.234375 61.257812 L 139.226562 45.960938 L 215.90625 45.949219 L 215.894531 30.652344 L 292.5625 30.640625 L 292.574219 45.960938 L 307.902344 45.949219 L 307.910156 61.269531 L 323.238281 61.257812 L 323.246094 76.601562 L 307.902344 76.613281 L 307.910156 91.910156 L 261.898438 91.921875 L 261.914062 107.242188 L 246.578125 107.253906 L 246.589844 122.554688 L 200.558594 122.5625 L 200.566406 137.863281 L 169.90625 137.875 L 169.917969 153.179688 L 93.246094 153.195312 L 93.261719 168.511719 L 16.578125 168.511719 " fill-opacity="1" fill-rule="nonzero"/><path fill="#398b40" d="M 200.558594 137.863281 L 169.90625 137.863281 L 169.90625 153.179688 L 93.246094 153.179688 L 93.246094 168.5 L 16.578125 168.5 L 16.578125 153.179688 L 47.25 153.179688 L 47.25 137.863281 L 93.246094 137.863281 L 93.246094 107.242188 L 108.574219 107.242188 L 108.574219 91.910156 L 123.910156 91.910156 L 123.910156 107.242188 L 154.570312 107.242188 L 154.570312 122.554688 L 185.230469 122.554688 L 185.230469 107.242188 L 169.90625 107.242188 L 169.90625 91.910156 L 139.234375 91.910156 L 139.234375 76.601562 L 123.910156 76.601562 L 123.910156 61.269531 L 139.234375 61.269531 L 139.234375 45.960938 L 215.90625 45.960938 L 215.90625 30.652344 L 292.5625 30.652344 L 292.5625 45.960938 L 307.902344 45.960938 L 307.902344 61.269531 L 323.238281 61.269531 L 323.238281 76.601562 L 307.902344 76.601562 L 307.902344 91.910156 L 261.898438 91.910156 L 261.898438 107.242188 L 246.578125 107.242188 L 246.578125 122.554688 L 200.558594 122.554688 L 200.558594 137.863281 " fill-opacity="1" fill-rule="nonzero"/><path fill="#398b40" d="M 200.558594 336.992188 L 200.546875 321.664062 L 215.90625 321.652344 L 215.894531 306.355469 L 261.898438 306.347656 L 261.914062 321.664062 L 246.578125 321.675781 L 246.589844 336.992188 L 200.558594 336.992188 " fill-opacity="1" fill-rule="nonzero"/><path fill="#398b40" d="M 261.898438 306.355469 L 261.898438 321.664062 L 246.578125 321.664062 L 246.578125 336.984375 L 200.558594 336.984375 L 200.558594 321.664062 L 215.90625 321.664062 L 215.90625 306.355469 L 261.898438 306.355469 " fill-opacity="1" fill-rule="nonzero"/><path fill="#398b40" d="M 353.886719 168.511719 L 353.875 137.863281 L 369.234375 137.851562 L 369.242188 168.511719 L 353.886719 168.511719 " fill-opacity="1" fill-rule="nonzero"/><path fill="#398b40" d="M 369.234375 168.5 L 353.886719 168.5 L 353.886719 137.863281 L 369.234375 137.863281 L 369.234375 168.5 " fill-opacity="1" fill-rule="nonzero"/><path fill="#398b40" d="M 277.226562 336.992188 L 277.214844 321.664062 L 323.238281 321.652344 L 323.226562 306.355469 L 307.902344 306.367188 L 307.890625 275.726562 L 338.558594 275.714844 L 338.574219 291.035156 L 353.886719 291.027344 L 353.894531 321.664062 L 384.558594 321.652344 L 384.570312 336.992188 L 277.226562 336.992188 " fill-opacity="1" fill-rule="nonzero"/><path fill="#398b40" d="M 338.558594 275.726562 L 338.558594 291.035156 L 353.886719 291.035156 L 353.886719 321.664062 L 384.558594 321.664062 L 384.558594 336.984375 L 277.226562 336.984375 L 277.226562 321.664062 L 323.238281 321.664062 L 323.238281 306.355469 L 307.902344 306.355469 L 307.902344 275.726562 L 338.558594 275.726562 " fill-opacity="1" fill-rule="nonzero"/><path fill="#398b40" d="M 231.230469 199.144531 L 231.222656 183.824219 L 307.902344 183.8125 L 307.890625 168.5 L 353.886719 168.492188 L 353.894531 183.824219 L 323.238281 183.832031 L 323.246094 199.144531 L 231.230469 199.144531 " fill-opacity="1" fill-rule="nonzero"/><path fill="#398b40" d="M 353.886719 168.5 L 353.886719 183.824219 L 323.238281 183.824219 L 323.238281 199.132812 L 231.230469 199.132812 L 231.230469 183.824219 L 307.902344 183.824219 L 307.902344 168.5 L 353.886719 168.5 " fill-opacity="1" fill-rule="nonzero"/><path fill="#398b40" d="M 261.898438 306.367188 L 261.890625 291.035156 L 292.5625 291.027344 L 292.574219 306.367188 L 261.898438 306.367188 " fill-opacity="1" fill-rule="nonzero"/><path fill="#398b40" d="M 261.898438 306.355469 L 261.898438 291.035156 L 292.5625 291.035156 L 292.5625 306.355469 L 261.898438 306.355469 " fill-opacity="1" fill-rule="nonzero"/><path fill="#398b40" d="M 384.558594 291.046875 L 384.550781 275.726562 L 338.558594 275.734375 L 338.550781 245.082031 L 369.234375 245.074219 L 369.222656 229.777344 L 399.90625 229.761719 L 399.898438 214.445312 L 430.554688 214.429688 L 430.570312 260.402344 L 445.894531 260.394531 L 445.90625 275.726562 L 415.234375 275.734375 L 415.242188 291.046875 L 384.558594 291.046875 " fill-opacity="1" fill-rule="nonzero"/><path fill="#398b40" d="M 445.894531 260.402344 L 445.894531 275.726562 L 415.234375 275.726562 L 415.234375 291.035156 L 384.558594 291.035156 L 384.558594 275.726562 L 338.558594 275.726562 L 338.558594 245.082031 L 369.234375 245.082031 L 369.234375 229.777344 L 399.90625 229.777344 L 399.90625 214.445312 L 430.554688 214.445312 L 430.554688 260.402344 L 445.894531 260.402344 " fill-opacity="1" fill-rule="nonzero"/><path fill="#1f373a" d="M 261.898438 291.046875 L 261.890625 275.726562 L 307.902344 275.714844 L 307.910156 291.046875 L 261.898438 291.046875 " fill-opacity="1" fill-rule="nonzero"/><path fill="#1f373a" d="M 261.898438 291.035156 L 261.898438 275.726562 L 307.902344 275.726562 L 307.902344 291.035156 L 261.898438 291.035156 " fill-opacity="1" fill-rule="nonzero"/><path fill="#1f373a" d="M 246.578125 352.316406 L 246.570312 321.664062 L 277.226562 321.652344 L 277.238281 336.984375 L 338.558594 336.976562 L 338.574219 352.316406 L 246.578125 352.316406 " fill-opacity="1" fill-rule="nonzero"/><path fill="#1f373a" d="M 338.558594 336.984375 L 338.558594 352.304688 L 246.578125 352.304688 L 246.578125 321.664062 L 277.226562 321.664062 L 277.226562 336.984375 L 338.558594 336.984375 " fill-opacity="1" fill-rule="nonzero"/><path fill="#1f373a" d="M 323.238281 275.734375 L 323.226562 260.402344 L 338.558594 260.394531 L 338.574219 275.734375 L 323.238281 275.734375 " fill-opacity="1" fill-rule="nonzero"/><path fill="#1f373a" d="M 338.558594 260.402344 L 338.558594 275.726562 L 323.238281 275.726562 L 323.238281 260.402344 L 338.558594 260.402344 " fill-opacity="1" fill-rule="nonzero"/><path fill="#1f373a" d="M 277.226562 214.453125 L 277.214844 199.132812 L 323.238281 199.125 L 323.226562 183.824219 L 353.886719 183.8125 L 353.875 168.5 L 369.234375 168.492188 L 369.222656 153.179688 L 384.558594 153.171875 L 384.570312 183.824219 L 369.234375 183.832031 L 369.242188 199.132812 L 338.558594 199.144531 L 338.574219 214.453125 L 277.226562 214.453125 " fill-opacity="1" fill-rule="nonzero"/><path fill="#1f373a" d="M 353.886719 183.824219 L 353.886719 168.5 L 369.234375 168.5 L 369.234375 153.179688 L 384.558594 153.179688 L 384.558594 183.824219 L 369.234375 183.824219 L 369.234375 199.132812 L 338.558594 199.132812 L 338.558594 214.445312 L 277.226562 214.445312 L 277.226562 199.132812 L 323.238281 199.132812 L 323.238281 183.824219 L 353.886719 183.824219 " fill-opacity="1" fill-rule="nonzero"/><g clip-path="url(#b50f8f6cad)"><path fill="#1f373a" d="M 369.234375 306.367188 L 369.222656 291.035156 L 338.558594 291.046875 L 338.550781 275.726562 L 384.558594 275.714844 L 384.570312 291.035156 L 415.234375 291.027344 L 415.222656 275.726562 L 445.894531 275.714844 L 445.882812 260.402344 L 430.554688 260.414062 L 430.546875 229.777344 L 445.894531 229.761719 L 445.90625 245.082031 L 461.230469 245.074219 L 461.238281 260.402344 L 476.566406 260.394531 L 476.574219 275.726562 L 461.230469 275.734375 L 461.238281 291.035156 L 430.554688 291.046875 L 430.570312 306.367188 L 369.234375 306.367188 " fill-opacity="1" fill-rule="nonzero"/><path fill="#1f373a" d="M 476.566406 260.402344 L 476.566406 275.726562 L 461.230469 275.726562 L 461.230469 291.035156 L 430.554688 291.035156 L 430.554688 306.355469 L 369.234375 306.355469 L 369.234375 291.035156 L 338.558594 291.035156 L 338.558594 275.726562 L 384.558594 275.726562 L 384.558594 291.035156 L 415.234375 291.035156 L 415.234375 275.726562 L 445.894531 275.726562 L 445.894531 260.402344 L 430.554688 260.402344 L 430.554688 229.777344 L 445.894531 229.777344 L 445.894531 245.082031 L 461.230469 245.082031 L 461.230469 260.402344 L 476.566406 260.402344 " fill-opacity="1" fill-rule="nonzero"/></g><path fill="#1f373a" d="M 154.570312 122.5625 L 154.558594 107.242188 L 123.910156 107.253906 L 123.898438 91.910156 L 108.574219 91.921875 L 108.5625 76.601562 L 139.234375 76.589844 L 139.246094 91.910156 L 169.90625 91.898438 L 169.917969 107.242188 L 185.230469 107.234375 L 185.242188 122.5625 L 154.570312 122.5625 " fill-opacity="1" fill-rule="nonzero"/><path fill="#1f373a" d="M 123.910156 91.910156 L 108.574219 91.910156 L 108.574219 76.601562 L 139.234375 76.601562 L 139.234375 91.910156 L 169.90625 91.910156 L 169.90625 107.242188 L 185.230469 107.242188 L 185.230469 122.554688 L 154.570312 122.554688 L 154.570312 107.242188 L 123.910156 107.242188 L 123.910156 91.910156 " fill-opacity="1" fill-rule="nonzero"/><path fill="#1f373a" d="M 77.898438 199.144531 L 77.890625 183.824219 L 62.578125 183.832031 L 62.5625 168.5 L 93.246094 168.492188 L 93.238281 153.179688 L 169.90625 153.171875 L 169.894531 137.863281 L 200.558594 137.851562 L 200.546875 122.554688 L 246.578125 122.542969 L 246.570312 107.242188 L 261.898438 107.234375 L 261.890625 91.910156 L 307.902344 91.898438 L 307.890625 76.601562 L 338.558594 76.589844 L 338.574219 91.910156 L 323.238281 91.921875 L 323.246094 107.242188 L 277.226562 107.253906 L 277.238281 122.554688 L 261.898438 122.5625 L 261.914062 137.863281 L 215.90625 137.875 L 215.914062 153.179688 L 185.230469 153.195312 L 185.242188 168.5 L 123.910156 168.511719 L 123.917969 183.824219 L 108.574219 183.832031 L 108.582031 199.144531 L 77.898438 199.144531 " fill-opacity="1" fill-rule="nonzero"/><path fill="#1f373a" d="M 215.90625 137.863281 L 215.90625 153.179688 L 185.230469 153.179688 L 185.230469 168.5 L 123.910156 168.5 L 123.910156 183.824219 L 108.574219 183.824219 L 108.574219 199.132812 L 77.898438 199.132812 L 77.898438 183.824219 L 62.578125 183.824219 L 62.578125 168.5 L 93.246094 168.5 L 93.246094 153.179688 L 169.90625 153.179688 L 169.90625 137.863281 L 200.558594 137.863281 L 200.558594 122.554688 L 246.578125 122.554688 L 246.578125 107.242188 L 261.898438 107.242188 L 261.898438 91.910156 L 307.902344 91.910156 L 307.902344 76.601562 L 338.558594 76.601562 L 338.558594 91.910156 L 323.238281 91.910156 L 323.238281 107.242188 L 277.226562 107.242188 L 277.226562 122.554688 L 261.898438 122.554688 L 261.898438 137.863281 L 215.90625 137.863281 " fill-opacity="1" fill-rule="nonzero"/><path fill="#1f373a" d="M 139.234375 245.097656 L 139.226562 229.777344 L 154.570312 229.761719 L 154.582031 245.097656 L 139.234375 245.097656 " fill-opacity="1" fill-rule="nonzero"/><path fill="#1f373a" d="M 154.570312 245.082031 L 139.234375 245.082031 L 139.234375 229.777344 L 154.570312 229.777344 L 154.570312 245.082031 " fill-opacity="1" fill-rule="nonzero"/><path fill="#1f373a" d="M 77.898438 306.367188 L 77.890625 291.035156 L 123.910156 291.027344 L 123.898438 275.726562 L 139.234375 275.714844 L 139.226562 260.402344 L 185.230469 260.394531 L 185.242188 275.726562 L 154.570312 275.734375 L 154.582031 291.035156 L 139.234375 291.046875 L 139.246094 306.367188 L 77.898438 306.367188 " fill-opacity="1" fill-rule="nonzero"/><path fill="#1f373a" d="M 185.230469 260.402344 L 185.230469 275.726562 L 154.570312 275.726562 L 154.570312 291.035156 L 139.234375 291.035156 L 139.234375 306.355469 L 77.898438 306.355469 L 77.898438 291.035156 L 123.910156 291.035156 L 123.910156 275.726562 L 139.234375 275.726562 L 139.234375 260.402344 L 185.230469 260.402344 " fill-opacity="1" fill-rule="nonzero"/><path fill="#1f373a" d="M 231.230469 306.367188 L 231.222656 291.035156 L 261.898438 291.027344 L 261.914062 306.367188 L 231.230469 306.367188 " fill-opacity="1" fill-rule="nonzero"/><path fill="#1f373a" d="M 231.230469 306.355469 L 231.230469 291.035156 L 261.898438 291.035156 L 261.898438 306.355469 L 231.230469 306.355469 " fill-opacity="1" fill-rule="nonzero"/><path fill="#5c4f2f" d="M 185.230469 260.414062 L 185.222656 245.082031 L 200.558594 245.074219 L 200.566406 260.414062 L 185.230469 260.414062 " fill-opacity="1" fill-rule="nonzero"/><path fill="#5c4f2f" d="M 200.558594 245.082031 L 200.558594 260.402344 L 185.230469 260.402344 L 185.230469 245.082031 L 200.558594 245.082031 " fill-opacity="1" fill-rule="nonzero"/><path fill="#5c4f2f" d="M 93.246094 229.785156 L 93.238281 214.445312 L 108.574219 214.429688 L 108.582031 229.785156 L 93.246094 229.785156 " fill-opacity="1" fill-rule="nonzero"/><path fill="#5c4f2f" d="M 108.574219 229.777344 L 93.246094 229.777344 L 93.246094 214.445312 L 108.574219 214.445312 L 108.574219 229.777344 " fill-opacity="1" fill-rule="nonzero"/><path fill="#5c4f2f" d="M 108.574219 214.453125 L 108.5625 199.132812 L 123.910156 199.125 L 123.917969 214.453125 L 108.574219 214.453125 " fill-opacity="1" fill-rule="nonzero"/><path fill="#5c4f2f" d="M 123.910156 214.445312 L 108.574219 214.445312 L 108.574219 199.132812 L 123.910156 199.132812 L 123.910156 214.445312 " fill-opacity="1" fill-rule="nonzero"/><path fill="#5c4f2f" d="M 77.898438 245.097656 L 77.890625 229.777344 L 93.246094 229.761719 L 93.261719 245.097656 L 77.898438 245.097656 " fill-opacity="1" fill-rule="nonzero"/><path fill="#5c4f2f" d="M 93.246094 245.082031 L 77.898438 245.082031 L 77.898438 229.777344 L 93.246094 229.777344 L 93.246094 245.082031 " fill-opacity="1" fill-rule="nonzero"/><path fill="#5c4f2f" d="M 123.910156 183.832031 L 123.898438 168.5 L 139.234375 168.492188 L 139.246094 183.832031 L 123.910156 183.832031 " fill-opacity="1" fill-rule="nonzero"/><path fill="#5c4f2f" d="M 139.234375 183.824219 L 123.910156 183.824219 L 123.910156 168.5 L 139.234375 168.5 L 139.234375 183.824219 " fill-opacity="1" fill-rule="nonzero"/><g clip-path="url(#155afbdadf)"><path fill="#5c4f2f" d="M 139.234375 428.910156 L 139.226562 413.566406 L 108.574219 413.578125 L 108.582031 428.898438 L 77.898438 428.910156 L 77.890625 413.566406 L 93.246094 413.554688 L 93.238281 382.949219 L 108.574219 382.9375 L 108.5625 367.617188 L 139.234375 367.605469 L 139.226562 352.304688 L 169.90625 352.296875 L 169.917969 367.617188 L 185.230469 367.605469 L 185.242188 382.949219 L 169.90625 382.957031 L 169.917969 428.910156 L 139.234375 428.910156 " fill-opacity="1" fill-rule="nonzero"/><path fill="#5c4f2f" d="M 169.90625 367.617188 L 185.230469 367.617188 L 185.230469 382.949219 L 169.90625 382.949219 L 169.90625 428.898438 L 139.234375 428.898438 L 139.234375 413.566406 L 108.574219 413.566406 L 108.574219 428.898438 L 77.898438 428.898438 L 77.898438 413.566406 L 93.246094 413.566406 L 93.246094 382.949219 L 108.574219 382.949219 L 108.574219 367.617188 L 139.234375 367.617188 L 139.234375 352.304688 L 169.90625 352.304688 L 169.90625 367.617188 " fill-opacity="1" fill-rule="nonzero"/></g><path fill="#5c4f2f" d="M 200.558594 306.367188 L 200.546875 291.035156 L 185.230469 291.046875 L 185.222656 275.726562 L 200.558594 275.714844 L 200.546875 260.402344 L 215.90625 260.394531 L 215.914062 275.726562 L 231.230469 275.714844 L 231.242188 291.035156 L 215.90625 291.046875 L 215.914062 306.367188 L 200.558594 306.367188 " fill-opacity="1" fill-rule="nonzero"/><path fill="#5c4f2f" d="M 231.230469 275.726562 L 231.230469 291.035156 L 215.90625 291.035156 L 215.90625 306.355469 L 200.558594 306.355469 L 200.558594 291.035156 L 185.230469 291.035156 L 185.230469 275.726562 L 200.558594 275.726562 L 200.558594 260.402344 L 215.90625 260.402344 L 215.90625 275.726562 L 231.230469 275.726562 " fill-opacity="1" fill-rule="nonzero"/><path fill="#3a301e" d="M 169.90625 260.414062 L 169.894531 245.082031 L 185.230469 245.074219 L 185.242188 260.414062 L 169.90625 260.414062 " fill-opacity="1" fill-rule="nonzero"/><path fill="#3a301e" d="M 185.230469 245.082031 L 185.230469 260.402344 L 169.90625 260.402344 L 169.90625 245.082031 L 185.230469 245.082031 " fill-opacity="1" fill-rule="nonzero"/><path fill="#3a301e" d="M 139.234375 398.269531 L 139.226562 382.949219 L 154.570312 382.9375 L 154.582031 398.269531 L 139.234375 398.269531 " fill-opacity="1" fill-rule="nonzero"/><path fill="#3a301e" d="M 139.234375 382.949219 L 154.570312 382.949219 L 154.570312 398.257812 L 139.234375 398.257812 L 139.234375 382.949219 " fill-opacity="1" fill-rule="nonzero"/><path fill="#3a301e" d="M 108.574219 229.785156 L 108.5625 214.445312 L 123.910156 214.429688 L 123.898438 183.824219 L 139.234375 183.8125 L 139.226562 168.5 L 215.90625 168.492188 L 215.914062 183.824219 L 231.230469 183.8125 L 231.242188 199.132812 L 169.90625 199.144531 L 169.917969 214.445312 L 139.234375 214.453125 L 139.246094 229.785156 L 108.574219 229.785156 " fill-opacity="1" fill-rule="nonzero"/><path fill="#3a301e" d="M 108.574219 229.777344 L 108.574219 214.445312 L 123.910156 214.445312 L 123.910156 183.824219 L 139.234375 183.824219 L 139.234375 168.5 L 215.90625 168.5 L 215.90625 183.824219 L 231.230469 183.824219 L 231.230469 199.132812 L 169.90625 199.132812 L 169.90625 214.445312 L 139.234375 214.445312 L 139.234375 229.777344 L 108.574219 229.777344 " fill-opacity="1" fill-rule="nonzero"/><g clip-path="url(#51b75313ae)"><path fill="#3a301e" d="M 108.574219 428.910156 L 108.5625 413.566406 L 139.234375 413.554688 L 139.246094 428.910156 L 108.574219 428.910156 " fill-opacity="1" fill-rule="nonzero"/><path fill="#3a301e" d="M 139.234375 413.566406 L 139.234375 428.898438 L 108.574219 428.898438 L 108.574219 413.566406 L 139.234375 413.566406 " fill-opacity="1" fill-rule="nonzero"/></g><g clip-path="url(#5b91cf282f)"><path fill="#3a301e" d="M 169.90625 428.910156 L 169.894531 382.949219 L 185.230469 382.9375 L 185.222656 367.617188 L 169.90625 367.625 L 169.894531 336.984375 L 185.230469 336.976562 L 185.222656 306.355469 L 169.90625 306.367188 L 169.894531 291.035156 L 154.570312 291.046875 L 154.558594 275.726562 L 185.230469 275.714844 L 185.222656 260.402344 L 200.558594 260.394531 L 200.566406 275.726562 L 215.90625 275.714844 L 215.894531 260.402344 L 231.230469 260.394531 L 231.242188 275.726562 L 261.898438 275.714844 L 261.914062 291.035156 L 231.230469 291.046875 L 231.242188 306.355469 L 215.90625 306.367188 L 215.914062 321.664062 L 200.558594 321.675781 L 200.566406 336.984375 L 246.578125 336.976562 L 246.589844 352.304688 L 215.90625 352.316406 L 215.914062 367.617188 L 231.230469 367.605469 L 231.242188 382.949219 L 246.578125 382.9375 L 246.589844 398.257812 L 261.898438 398.25 L 261.914062 413.566406 L 277.226562 413.554688 L 277.238281 428.910156 L 169.90625 428.910156 " fill-opacity="1" fill-rule="nonzero"/><path fill="#3a301e" d="M 277.226562 413.566406 L 277.226562 428.898438 L 169.90625 428.898438 L 169.90625 382.949219 L 185.230469 382.949219 L 185.230469 367.617188 L 169.90625 367.617188 L 169.90625 336.984375 L 185.230469 336.984375 L 185.230469 306.355469 L 169.90625 306.355469 L 169.90625 291.035156 L 154.570312 291.035156 L 154.570312 275.726562 L 185.230469 275.726562 L 185.230469 260.402344 L 200.558594 260.402344 L 200.558594 275.726562 L 215.90625 275.726562 L 215.90625 260.402344 L 231.230469 260.402344 L 231.230469 275.726562 L 261.898438 275.726562 L 261.898438 291.035156 L 231.230469 291.035156 L 231.230469 306.355469 L 215.90625 306.355469 L 215.90625 321.664062 L 200.558594 321.664062 L 200.558594 336.984375 L 246.578125 336.984375 L 246.578125 352.304688 L 215.90625 352.304688 L 215.90625 367.617188 L 231.230469 367.617188 L 231.230469 382.949219 L 246.578125 382.949219 L 246.578125 398.257812 L 261.898438 398.257812 L 261.898438 413.566406 L 277.226562 413.566406 " fill-opacity="1" fill-rule="nonzero"/></g><g fill="#ffffff" fill-opacity="1"><g transform="translate(584.475984, 284.675718)"><g><path d="M 13.71875 34.296875 L 13.71875 -95.265625 L 22.859375 -95.265625 L 26.109375 -82.3125 L 27.0625 -82.3125 C 28.320312 -84.09375 30.378906 -86.125 33.234375 -88.40625 C 36.097656 -90.695312 39.65625 -92.726562 43.90625 -94.5 C 48.164062 -96.28125 52.710938 -97.171875 57.546875 -97.171875 C 65.546875 -97.171875 72.878906 -95.070312 79.546875 -90.875 C 86.210938 -86.6875 91.515625 -80.8125 95.453125 -73.25 C 99.390625 -65.695312 101.359375 -57.160156 101.359375 -47.640625 C 101.359375 -38.109375 99.390625 -29.5625 95.453125 -22 C 91.515625 -14.445312 86.210938 -8.570312 79.546875 -4.375 C 72.878906 -0.1875 65.546875 1.90625 57.546875 1.90625 C 52.710938 1.90625 48.164062 1.019531 43.90625 -0.75 C 39.65625 -2.53125 36.066406 -4.5625 33.140625 -6.84375 C 30.222656 -9.132812 28.195312 -11.171875 27.0625 -12.953125 L 26.109375 -12.953125 L 26.109375 34.296875 Z M 57.546875 -9.71875 C 63.253906 -9.71875 68.519531 -11.304688 73.34375 -14.484375 C 78.175781 -17.660156 81.988281 -22.132812 84.78125 -27.90625 C 87.582031 -33.6875 88.984375 -40.265625 88.984375 -47.640625 C 88.984375 -55.003906 87.582031 -61.570312 84.78125 -67.34375 C 81.988281 -73.125 78.175781 -77.601562 73.34375 -80.78125 C 68.519531 -83.957031 63.253906 -85.546875 57.546875 -85.546875 C 51.828125 -85.546875 46.550781 -83.957031 41.71875 -80.78125 C 36.894531 -77.601562 33.085938 -73.125 30.296875 -67.34375 C 27.503906 -61.570312 26.109375 -55.003906 26.109375 -47.640625 C 26.109375 -40.265625 27.503906 -33.6875 30.296875 -27.90625 C 33.085938 -22.132812 36.894531 -17.660156 41.71875 -14.484375 C 46.550781 -11.304688 51.828125 -9.71875 57.546875 -9.71875 Z M 57.546875 -9.71875 "/></g></g></g><g fill="#ffffff" fill-opacity="1"><g transform="translate(693.260422, 284.675718)"><g><path d="M 61.921875 -67.640625 L 105.9375 0 L 90.3125 0 L 54.109375 -56.78125 L 17.53125 0 L 2.859375 0 L 46.6875 -67.640625 L 4.953125 -133.375 L 20.203125 -133.375 L 54.6875 -78.6875 L 88.984375 -133.375 L 103.84375 -133.375 Z M 61.921875 -67.640625 "/></g></g></g><g fill="#ffffff" fill-opacity="1"><g transform="translate(796.328781, 284.675718)"><g/></g></g><g fill="#ffffff" fill-opacity="1"><g transform="translate(841.671502, 284.675718)"><g><path d="M 51.25 1.90625 C 43.25 1.90625 35.914062 -0.1875 29.25 -4.375 C 22.582031 -8.570312 17.28125 -14.445312 13.34375 -22 C 9.40625 -29.5625 7.4375 -38.109375 7.4375 -47.640625 C 7.4375 -57.160156 9.40625 -65.695312 13.34375 -73.25 C 17.28125 -80.8125 22.582031 -86.6875 29.25 -90.875 C 35.914062 -95.070312 43.25 -97.171875 51.25 -97.171875 C 56.082031 -97.171875 60.625 -96.28125 64.875 -94.5 C 69.132812 -92.726562 72.722656 -90.695312 75.640625 -88.40625 C 78.554688 -86.125 80.585938 -84.09375 81.734375 -82.3125 L 82.6875 -82.3125 L 82.6875 -133.375 L 95.078125 -133.375 L 95.078125 0 L 85.921875 0 L 82.6875 -12.953125 L 81.734375 -12.953125 C 80.460938 -11.171875 78.398438 -9.132812 75.546875 -6.84375 C 72.691406 -4.5625 69.132812 -2.53125 64.875 -0.75 C 60.625 1.019531 56.082031 1.90625 51.25 1.90625 Z M 51.25 -9.71875 C 56.96875 -9.71875 62.238281 -11.304688 67.0625 -14.484375 C 71.894531 -17.660156 75.707031 -22.132812 78.5 -27.90625 C 81.289062 -33.6875 82.6875 -40.265625 82.6875 -47.640625 C 82.6875 -55.003906 81.289062 -61.570312 78.5 -67.34375 C 75.707031 -73.125 71.894531 -77.601562 67.0625 -80.78125 C 62.238281 -83.957031 56.96875 -85.546875 51.25 -85.546875 C 45.53125 -85.546875 40.257812 -83.957031 35.4375 -80.78125 C 30.613281 -77.601562 26.800781 -73.125 24 -67.34375 C 21.207031 -61.570312 19.8125 -55.003906 19.8125 -47.640625 C 19.8125 -40.265625 21.207031 -33.6875 24 -27.90625 C 26.800781 -22.132812 30.613281 -17.660156 35.4375 -14.484375 C 40.257812 -11.304688 45.53125 -9.71875 51.25 -9.71875 Z M 51.25 -9.71875 "/></g></g></g><g fill="#ffffff" fill-opacity="1"><g transform="translate(951.40855, 284.675718)"><g><path d="M 94.890625 -50.484375 C 94.890625 -46.546875 94.632812 -43.5625 94.125 -41.53125 L 20.203125 -41.53125 C 21.210938 -31.75 24.671875 -24 30.578125 -18.28125 C 36.484375 -12.570312 43.820312 -9.71875 52.59375 -9.71875 C 64.269531 -9.71875 73.097656 -14.734375 79.078125 -24.765625 L 91.453125 -24.765625 C 88.535156 -17.015625 83.519531 -10.628906 76.40625 -5.609375 C 69.289062 -0.597656 61.222656 1.90625 52.203125 1.90625 C 43.816406 1.90625 36.226562 -0.1875 29.4375 -4.375 C 22.644531 -8.570312 17.28125 -14.414062 13.34375 -21.90625 C 9.40625 -29.40625 7.4375 -37.984375 7.4375 -47.640625 C 7.4375 -57.035156 9.4375 -65.507812 13.4375 -73.0625 C 17.4375 -80.625 22.863281 -86.53125 29.71875 -90.78125 C 36.582031 -95.039062 44.078125 -97.171875 52.203125 -97.171875 C 60.203125 -97.171875 67.472656 -95.101562 74.015625 -90.96875 C 80.554688 -86.84375 85.671875 -81.222656 89.359375 -74.109375 C 93.046875 -67.003906 94.890625 -59.128906 94.890625 -50.484375 Z M 52.203125 -85.546875 C 46.867188 -85.546875 41.882812 -84.179688 37.25 -81.453125 C 32.613281 -78.722656 28.738281 -74.847656 25.625 -69.828125 C 22.507812 -64.804688 20.632812 -59.125 20 -52.78125 L 82.3125 -52.78125 C 81.675781 -62.300781 78.5625 -70.140625 72.96875 -76.296875 C 67.382812 -82.460938 60.460938 -85.546875 52.203125 -85.546875 Z M 52.203125 -85.546875 "/></g></g></g><g fill="#ffffff" fill-opacity="1"><g transform="translate(1053.715452, 284.675718)"><g><path d="M 42.484375 1.90625 C 36.003906 1.90625 30.160156 0.539062 24.953125 -2.1875 C 19.742188 -4.914062 15.613281 -8.566406 12.5625 -13.140625 C 9.519531 -17.710938 7.8125 -22.539062 7.4375 -27.625 L 19.8125 -27.625 C 20.445312 -22.289062 22.734375 -17.972656 26.671875 -14.671875 C 30.609375 -11.367188 35.878906 -9.71875 42.484375 -9.71875 C 48.960938 -9.71875 53.945312 -11.175781 57.4375 -14.09375 C 60.9375 -17.019531 62.6875 -20.707031 62.6875 -25.15625 C 62.6875 -28.457031 61.671875 -31.1875 59.640625 -33.34375 C 57.609375 -35.5 55.128906 -37.242188 52.203125 -38.578125 C 49.285156 -39.910156 45.160156 -41.40625 39.828125 -43.0625 C 33.347656 -45.09375 28.140625 -47.03125 24.203125 -48.875 C 20.265625 -50.71875 16.894531 -53.382812 14.09375 -56.875 C 11.300781 -60.363281 9.90625 -64.90625 9.90625 -70.5 C 9.90625 -75.445312 11.207031 -79.953125 13.8125 -84.015625 C 16.414062 -88.085938 20.066406 -91.296875 24.765625 -93.640625 C 29.460938 -95.992188 34.925781 -97.171875 41.15625 -97.171875 C 47.25 -97.171875 52.707031 -95.898438 57.53125 -93.359375 C 62.363281 -90.816406 66.175781 -87.351562 68.96875 -82.96875 C 71.757812 -78.59375 73.347656 -73.800781 73.734375 -68.59375 L 61.34375 -68.59375 C 60.707031 -73.925781 58.675781 -78.082031 55.25 -81.0625 C 51.820312 -84.050781 47.125 -85.546875 41.15625 -85.546875 C 35.1875 -85.546875 30.550781 -84.179688 27.25 -81.453125 C 23.945312 -78.722656 22.296875 -75.257812 22.296875 -71.0625 C 22.296875 -66.488281 24.132812 -63.023438 27.8125 -60.671875 C 31.5 -58.328125 37.15625 -55.953125 44.78125 -53.546875 C 51.25 -51.378906 56.484375 -49.3125 60.484375 -47.34375 C 64.492188 -45.375 67.925781 -42.609375 70.78125 -39.046875 C 73.632812 -35.492188 75.0625 -30.863281 75.0625 -25.15625 C 75.0625 -17.40625 72.140625 -10.957031 66.296875 -5.8125 C 60.460938 -0.664062 52.523438 1.90625 42.484375 1.90625 Z M 42.484375 1.90625 "/></g></g></g><g fill="#ffffff" fill-opacity="1"><g transform="translate(1136.589794, 284.675718)"><g><path d="M 26.109375 0 L 13.71875 0 L 13.71875 -95.265625 L 26.109375 -95.265625 Z M 20 -110.515625 C 17.59375 -110.515625 15.5625 -111.335938 13.90625 -112.984375 C 12.257812 -114.640625 11.4375 -116.671875 11.4375 -119.078125 C 11.4375 -121.617188 12.257812 -123.679688 13.90625 -125.265625 C 15.5625 -126.859375 17.59375 -127.65625 20 -127.65625 C 22.539062 -127.65625 24.601562 -126.859375 26.1875 -125.265625 C 27.78125 -123.679688 28.578125 -121.617188 28.578125 -119.078125 C 28.578125 -116.671875 27.75 -114.640625 26.09375 -112.984375 C 24.445312 -111.335938 22.414062 -110.515625 20 -110.515625 Z M 20 -110.515625 "/></g></g></g><g fill="#ffffff" fill-opacity="1"><g transform="translate(1176.407571, 284.675718)"><g><path d="M 52.015625 36.203125 C 41.722656 36.203125 32.957031 33.597656 25.71875 28.390625 C 18.476562 23.179688 13.78125 16.195312 11.625 7.4375 L 24 7.4375 C 25.78125 12.769531 29.113281 16.957031 34 20 C 38.894531 23.050781 44.898438 24.578125 52.015625 24.578125 C 60.523438 24.578125 67.382812 22.035156 72.59375 16.953125 C 77.800781 11.878906 80.40625 5.148438 80.40625 -3.234375 L 80.40625 -18.296875 L 79.453125 -18.296875 C 78.304688 -16.515625 76.335938 -14.445312 73.546875 -12.09375 C 70.753906 -9.75 67.320312 -7.6875 63.25 -5.90625 C 59.1875 -4.125 54.804688 -3.234375 50.109375 -3.234375 C 42.359375 -3.234375 35.210938 -5.265625 28.671875 -9.328125 C 22.128906 -13.398438 16.953125 -19.023438 13.140625 -26.203125 C 9.335938 -33.378906 7.4375 -41.347656 7.4375 -50.109375 C 7.4375 -59.003906 9.335938 -67.039062 13.140625 -74.21875 C 16.953125 -81.394531 22.128906 -87.015625 28.671875 -91.078125 C 35.210938 -95.140625 42.359375 -97.171875 50.109375 -97.171875 C 54.804688 -97.171875 59.1875 -96.3125 63.25 -94.59375 C 67.320312 -92.882812 70.753906 -90.851562 73.546875 -88.5 C 76.335938 -86.15625 78.304688 -84.09375 79.453125 -82.3125 L 80.40625 -82.3125 L 83.640625 -95.265625 L 92.78125 -95.265625 L 92.78125 -3.234375 C 92.78125 4.515625 91.066406 11.375 87.640625 17.34375 C 84.210938 23.3125 79.414062 27.945312 73.25 31.25 C 67.09375 34.550781 60.015625 36.203125 52.015625 36.203125 Z M 50.109375 -14.859375 C 55.441406 -14.859375 60.425781 -16.378906 65.0625 -19.421875 C 69.695312 -22.472656 73.410156 -26.695312 76.203125 -32.09375 C 79.003906 -37.5 80.40625 -43.503906 80.40625 -50.109375 C 80.40625 -56.835938 79.003906 -62.898438 76.203125 -68.296875 C 73.410156 -73.703125 69.695312 -77.925781 65.0625 -80.96875 C 60.425781 -84.019531 55.441406 -85.546875 50.109375 -85.546875 C 44.648438 -85.546875 39.601562 -84.019531 34.96875 -80.96875 C 30.332031 -77.925781 26.644531 -73.703125 23.90625 -68.296875 C 21.175781 -62.898438 19.8125 -56.835938 19.8125 -50.109375 C 19.8125 -43.503906 21.175781 -37.5 23.90625 -32.09375 C 26.644531 -26.695312 30.332031 -22.472656 34.96875 -19.421875 C 39.601562 -16.378906 44.648438 -14.859375 50.109375 -14.859375 Z M 50.109375 -14.859375 "/></g></g></g><g fill="#ffffff" fill-opacity="1"><g transform="translate(1282.905829, 284.675718)"><g><path d="M 13.71875 0 L 13.71875 -95.265625 L 22.859375 -95.265625 L 26.109375 -82.3125 L 27.0625 -82.3125 C 29.59375 -86.25 33.300781 -89.707031 38.1875 -92.6875 C 43.082031 -95.675781 48.707031 -97.171875 55.0625 -97.171875 C 62.175781 -97.171875 68.625 -95.453125 74.40625 -92.015625 C 80.1875 -88.585938 84.726562 -83.695312 88.03125 -77.34375 C 91.332031 -71 92.984375 -63.632812 92.984375 -55.25 L 92.984375 0 L 80.59375 0 L 80.59375 -55.25 C 80.59375 -64.65625 78.113281 -72.054688 73.15625 -77.453125 C 68.207031 -82.847656 61.796875 -85.546875 53.921875 -85.546875 C 45.535156 -85.546875 38.800781 -82.847656 33.71875 -77.453125 C 28.644531 -72.054688 26.109375 -64.65625 26.109375 -55.25 L 26.109375 0 Z M 13.71875 0 "/></g></g></g></g></g></g></svg>