<svg xmlns="http://www.w3.org/2000/svg" xmlns:xlink="http://www.w3.org/1999/xlink" width="2000" zoomAndPan="magnify" viewBox="0 0 1500 1499.999933" height="2000" preserveAspectRatio="xMidYMid meet" version="1.0"><defs><clipPath id="9020d70bcb"><path d="M 0 125.921875 L 1500 125.921875 L 1500 1373.921875 L 0 1373.921875 Z M 0 125.921875 " clip-rule="nonzero"/></clipPath></defs><g clip-path="url(#9020d70bcb)"><path fill="#ffffff" d="M 70.082031 497.742188 L 70.082031 577.082031 C 70.082031 625.703125 102.125 668.660156 147.707031 683.171875 C 147.523438 693.527344 147.289062 704.550781 147.027344 716.828125 C 146.140625 758.03125 144.933594 814.460938 144.164062 915.894531 C 143.390625 1017.296875 143.203125 1098.636719 143.605469 1157.648438 C 143.824219 1189.355469 144.140625 1199.183594 144.621094 1207.011719 L 135.121094 1207.011719 C 60.617188 1207.011719 0.00390625 1267.621094 0.00390625 1342.125 C 0.00390625 1359.757812 14.347656 1374.097656 31.980469 1374.097656 L 1467.984375 1374.097656 C 1485.617188 1374.097656 1499.957031 1359.757812 1499.957031 1342.125 C 1499.957031 1267.621094 1439.347656 1207.011719 1364.84375 1207.011719 L 1333.351562 1207.011719 L 1333.351562 692.953125 C 1379.933594 679.003906 1412.6875 635.820312 1412.6875 586.339844 L 1412.6875 507.003906 C 1412.6875 503.371094 1412.074219 499.808594 1410.898438 496.453125 L 1413.925781 493.320312 L 1150.878906 239.914062 L 1150.878906 186.371094 C 1150.878906 153.046875 1123.769531 125.933594 1090.445312 125.933594 L 369.851562 125.933594 C 336.527344 125.933594 309.417969 153.046875 309.417969 186.371094 L 309.417969 250.136719 L 68.832031 482.792969 L 72.195312 486.269531 C 70.808594 489.878906 70.082031 493.753906 70.082031 497.742188 Z M 1364.839844 1270.964844 C 1391.9375 1270.964844 1416.464844 1286.703125 1428.382812 1310.148438 L 71.574219 1310.148438 C 83.492188 1286.707031 108.019531 1270.964844 135.117188 1270.964844 Z M 708.746094 533.6875 L 708.746094 581.046875 C 708.746094 607.160156 687.5 628.40625 661.386719 628.40625 C 635.273438 628.40625 614.027344 607.160156 614.027344 581.046875 L 614.027344 533.6875 Z M 626.414062 469.734375 L 684.433594 295.675781 L 708.746094 295.675781 L 708.746094 469.734375 Z M 559.445312 468.410156 L 475.152344 468.410156 L 574.136719 295.671875 L 617.023438 295.671875 Z M 548.75 532.363281 L 548.75 579.722656 C 548.75 605.835938 527.503906 627.082031 501.390625 627.082031 C 475.277344 627.082031 454.03125 605.839844 454.03125 579.722656 L 454.03125 532.363281 Z M 402.199219 467.085938 L 328.476562 467.085938 L 465.222656 295.671875 L 500.429688 295.671875 Z M 388.753906 531.039062 L 388.753906 578.402344 C 388.753906 604.515625 367.507812 625.761719 341.394531 625.761719 C 315.28125 625.761719 294.03125 604.515625 294.03125 578.402344 L 294.03125 531.039062 Z M 341.394531 689.714844 C 371.339844 689.714844 399.949219 677.484375 420.742188 656.351562 C 441.617188 678.316406 470.707031 691.035156 501.390625 691.035156 C 531.339844 691.035156 559.945312 678.804688 580.738281 657.675781 C 601.613281 679.636719 630.707031 692.355469 661.386719 692.355469 C 691.332031 692.355469 719.9375 680.128906 740.734375 658.996094 C 761.613281 680.957031 790.703125 693.675781 821.386719 693.675781 C 851.335938 693.675781 879.941406 681.445312 900.734375 660.316406 C 921.609375 682.28125 950.699219 694.996094 981.382812 694.996094 C 1011.332031 694.996094 1039.9375 682.769531 1060.730469 661.636719 C 1081.605469 683.597656 1110.699219 696.316406 1141.378906 696.316406 C 1171.320312 696.316406 1199.917969 684.089844 1220.710938 662.972656 C 1234.066406 677.082031 1250.765625 687.378906 1269.398438 692.941406 L 1269.398438 1207 L 677.496094 1207 L 677.496094 765.414062 C 677.496094 747.78125 663.152344 733.433594 645.519531 733.433594 L 288.503906 733.433594 C 270.871094 733.433594 256.523438 747.78125 256.523438 765.414062 L 256.523438 1207.011719 L 208.824219 1207.011719 C 205.347656 1119.882812 208.636719 890.628906 211.664062 684.1875 C 230.355469 678.933594 247.195312 668.921875 260.765625 655.054688 C 281.640625 677.003906 310.722656 689.714844 341.394531 689.714844 Z M 932.695312 472.375 L 932.695312 471.050781 L 922.882812 471.050781 L 864.417969 295.671875 L 907.304688 295.671875 L 1008.558594 472.375 Z M 1028.738281 536.328125 L 1028.738281 583.6875 C 1028.738281 609.800781 1007.492188 631.046875 981.378906 631.046875 C 955.265625 631.046875 934.019531 609.804688 934.019531 583.6875 L 934.019531 536.328125 Z M 868.742188 535.007812 L 868.742188 582.371094 C 868.742188 608.484375 847.492188 629.730469 821.378906 629.730469 C 795.265625 629.730469 774.019531 608.484375 774.019531 582.371094 L 774.019531 535.007812 Z M 772.703125 471.054688 L 772.703125 295.675781 L 797.015625 295.675781 L 855.476562 471.054688 Z M 1094.015625 585.011719 L 1094.015625 537.652344 L 1188.734375 537.652344 L 1188.734375 585.011719 C 1188.734375 611.125 1167.488281 632.371094 1141.375 632.371094 C 1115.261719 632.371094 1094.015625 611.125 1094.015625 585.011719 Z M 613.542969 797.386719 L 613.542969 1207.011719 L 320.476562 1207.011719 L 320.476562 797.386719 Z M 1348.734375 586.332031 C 1348.734375 612.445312 1327.488281 633.695312 1301.371094 633.695312 C 1275.253906 633.695312 1254.011719 612.453125 1254.011719 586.332031 L 1254.011719 538.972656 L 1348.734375 538.972656 Z M 1116.578125 295.671875 L 1302.746094 475.019531 L 1252.6875 475.019531 L 1252.6875 473.695312 L 1240.058594 473.695312 L 1098.039062 295.671875 Z M 1158.25 473.695312 L 1092.691406 473.695312 L 1092.691406 472.375 L 1082.273438 472.375 L 981.015625 295.671875 L 1016.226562 295.671875 Z M 373.371094 189.890625 L 1086.917969 189.890625 L 1086.917969 231.71875 L 373.371094 231.71875 Z M 354.324219 295.671875 L 383.402344 295.671875 L 247.714844 465.765625 L 178.433594 465.765625 Z M 134.035156 529.71875 L 228.757812 529.71875 L 228.757812 577.078125 C 228.757812 603.191406 207.507812 624.4375 181.394531 624.4375 C 155.28125 624.4375 134.035156 603.195312 134.035156 577.078125 Z M 134.035156 529.71875 " fill-opacity="1" fill-rule="nonzero"/></g><path fill="#ffffff" d="M 805.128906 1150.027344 L 1146.8125 1150.027344 C 1162.691406 1150.027344 1175.609375 1137.109375 1175.609375 1121.230469 L 1175.609375 794.878906 C 1175.609375 779 1162.691406 766.082031 1146.8125 766.082031 L 805.128906 766.082031 C 789.25 766.082031 776.332031 779 776.332031 794.878906 L 776.332031 1121.230469 C 776.332031 1137.109375 789.25 1150.027344 805.128906 1150.027344 Z M 833.925781 823.675781 L 1118.015625 823.675781 L 1118.015625 842.710938 L 954.871094 1018.40625 C 949.632812 1024.042969 946.910156 1031.382812 947.195312 1039.066406 C 947.480469 1046.753906 950.738281 1053.871094 956.378906 1059.105469 C 961.722656 1064.066406 968.679688 1066.796875 975.96875 1066.796875 C 983.953125 1066.796875 991.644531 1063.441406 997.074219 1057.59375 L 1118.015625 927.347656 L 1118.015625 1092.429688 L 847.796875 1092.429688 L 996.585938 939.828125 C 1001.953125 934.316406 1004.859375 927.046875 1004.761719 919.359375 C 1004.664062 911.667969 1001.574219 904.472656 996.070312 899.105469 C 990.660156 893.832031 983.519531 890.925781 975.96875 890.925781 C 968.132812 890.925781 960.8125 894.015625 955.351562 899.621094 L 833.921875 1024.164062 L 833.921875 823.675781 Z M 833.925781 823.675781 " fill-opacity="1" fill-rule="nonzero"/><path fill="#ffffff" d="M 583.113281 978.253906 C 583.113281 979.464844 583.050781 980.675781 582.933594 981.882812 C 582.816406 983.089844 582.636719 984.289062 582.398438 985.476562 C 582.164062 986.664062 581.871094 987.839844 581.515625 989 C 581.164062 990.160156 580.757812 991.300781 580.292969 992.421875 C 579.828125 993.542969 579.3125 994.636719 578.738281 995.707031 C 578.167969 996.777344 577.546875 997.816406 576.871094 998.824219 C 576.199219 999.832031 575.476562 1000.804688 574.707031 1001.742188 C 573.9375 1002.679688 573.125 1003.574219 572.269531 1004.433594 C 571.410156 1005.289062 570.511719 1006.105469 569.574219 1006.875 C 568.636719 1007.644531 567.664062 1008.363281 566.65625 1009.039062 C 565.648438 1009.710938 564.609375 1010.335938 563.539062 1010.90625 C 562.472656 1011.476562 561.375 1011.996094 560.257812 1012.460938 C 559.136719 1012.921875 557.996094 1013.332031 556.835938 1013.683594 C 555.675781 1014.035156 554.5 1014.328125 553.3125 1014.566406 C 552.121094 1014.804688 550.921875 1014.980469 549.71875 1015.097656 C 548.511719 1015.21875 547.300781 1015.277344 546.085938 1015.277344 C 544.875 1015.277344 543.664062 1015.21875 542.457031 1015.097656 C 541.253906 1014.980469 540.054688 1014.804688 538.863281 1014.566406 C 537.675781 1014.328125 536.5 1014.035156 535.339844 1013.683594 C 534.179688 1013.332031 533.039062 1012.921875 531.917969 1012.460938 C 530.800781 1011.996094 529.703125 1011.476562 528.636719 1010.90625 C 527.566406 1010.335938 526.527344 1009.710938 525.519531 1009.039062 C 524.511719 1008.363281 523.539062 1007.644531 522.601562 1006.875 C 521.664062 1006.105469 520.765625 1005.289062 519.90625 1004.433594 C 519.050781 1003.574219 518.238281 1002.679688 517.46875 1001.742188 C 516.699219 1000.804688 515.976562 999.832031 515.304688 998.824219 C 514.628906 997.816406 514.007812 996.777344 513.4375 995.707031 C 512.863281 994.636719 512.347656 993.542969 511.882812 992.421875 C 511.417969 991.300781 511.011719 990.160156 510.660156 989 C 510.304688 987.839844 510.011719 986.664062 509.773438 985.476562 C 509.539062 984.289062 509.359375 983.089844 509.242188 981.882812 C 509.125 980.675781 509.0625 979.464844 509.0625 978.253906 C 509.0625 977.042969 509.125 975.832031 509.242188 974.625 C 509.359375 973.417969 509.539062 972.21875 509.773438 971.03125 C 510.011719 969.839844 510.304688 968.667969 510.660156 967.507812 C 511.011719 966.347656 511.417969 965.207031 511.882812 964.085938 C 512.347656 962.964844 512.863281 961.871094 513.4375 960.800781 C 514.007812 959.730469 514.628906 958.691406 515.304688 957.683594 C 515.976562 956.675781 516.699219 955.703125 517.46875 954.765625 C 518.238281 953.828125 519.050781 952.929688 519.90625 952.074219 C 520.765625 951.214844 521.664062 950.402344 522.601562 949.632812 C 523.539062 948.863281 524.511719 948.144531 525.519531 947.46875 C 526.527344 946.796875 527.566406 946.171875 528.636719 945.601562 C 529.703125 945.03125 530.800781 944.511719 531.917969 944.046875 C 533.039062 943.582031 534.179688 943.175781 535.339844 942.824219 C 536.5 942.472656 537.675781 942.179688 538.863281 941.941406 C 540.054688 941.703125 541.253906 941.527344 542.457031 941.40625 C 543.664062 941.289062 544.875 941.230469 546.085938 941.230469 C 547.300781 941.230469 548.511719 941.289062 549.71875 941.40625 C 550.921875 941.527344 552.121094 941.703125 553.3125 941.941406 C 554.5 942.179688 555.675781 942.472656 556.835938 942.824219 C 557.996094 943.175781 559.136719 943.582031 560.257812 944.046875 C 561.375 944.511719 562.472656 945.03125 563.539062 945.601562 C 564.609375 946.171875 565.648438 946.796875 566.65625 947.46875 C 567.664062 948.144531 568.636719 948.863281 569.574219 949.632812 C 570.511719 950.402344 571.410156 951.214844 572.269531 952.074219 C 573.125 952.929688 573.9375 953.828125 574.707031 954.765625 C 575.476562 955.703125 576.199219 956.675781 576.871094 957.683594 C 577.546875 958.691406 578.167969 959.730469 578.738281 960.800781 C 579.3125 961.871094 579.828125 962.964844 580.292969 964.085938 C 580.757812 965.207031 581.164062 966.347656 581.515625 967.507812 C 581.871094 968.667969 582.164062 969.839844 582.398438 971.03125 C 582.636719 972.21875 582.816406 973.417969 582.933594 974.625 C 583.050781 975.832031 583.113281 977.042969 583.113281 978.253906 Z M 583.113281 978.253906 " fill-opacity="1" fill-rule="nonzero"/></svg>