<svg xmlns="http://www.w3.org/2000/svg" xmlns:xlink="http://www.w3.org/1999/xlink" width="2000" zoomAndPan="magnify" viewBox="0 0 1500 430.499987" height="574" preserveAspectRatio="xMidYMid meet" version="1.0"><defs><g/><clipPath id="4366394eba"><path d="M 104 0.972656 L 238 0.972656 L 238 75 L 104 75 Z M 104 0.972656 " clip-rule="nonzero"/></clipPath><clipPath id="c9a8451ae0"><path d="M 325 222 L 458.894531 222 L 458.894531 296.859375 L 325 296.859375 Z M 325 222 " clip-rule="nonzero"/></clipPath><clipPath id="a39ed3aa6f"><path d="M 74.039062 340.011719 L 178.941406 340.011719 L 178.941406 414.085938 L 74.039062 414.085938 Z M 74.039062 340.011719 " clip-rule="nonzero"/></clipPath><clipPath id="4163e880a8"><path d="M 104 399 L 134 399 L 134 414.085938 L 104 414.085938 Z M 104 399 " clip-rule="nonzero"/></clipPath><clipPath id="08c2adc211"><path d="M 148.085938 251.65625 L 267 251.65625 L 267 414.085938 L 148.085938 414.085938 Z M 148.085938 251.65625 " clip-rule="nonzero"/></clipPath><clipPath id="aad094e714"><rect x="0" width="1338" y="0" height="416"/></clipPath></defs><g transform="matrix(1, 0, 0, 1, 15, 8)"><g clip-path="url(#aad094e714)"><path fill="#63c442" d="M 1.03125 148.535156 L 1.019531 133.765625 L 15.804688 133.757812 L 15.789062 119.023438 L 45.347656 119.007812 L 45.339844 104.273438 L 60.109375 104.265625 L 60.097656 89.503906 L 104.417969 89.492188 L 104.425781 104.273438 L 89.652344 104.285156 L 89.664062 133.765625 L 45.347656 133.777344 L 45.359375 148.535156 L 1.03125 148.535156 " fill-opacity="1" fill-rule="nonzero"/><path fill="#63c442" d="M 45.347656 133.765625 L 45.347656 148.523438 L 1.03125 148.523438 L 1.03125 133.765625 L 15.804688 133.765625 L 15.804688 119.023438 L 45.347656 119.023438 L 45.347656 104.273438 L 60.109375 104.273438 L 60.109375 89.503906 L 104.417969 89.503906 L 104.417969 104.273438 L 89.652344 104.273438 L 89.652344 133.765625 L 45.347656 133.765625 " fill-opacity="1" fill-rule="nonzero"/><path fill="#63c442" d="M 252.109375 310.824219 L 252.101562 296.066406 L 281.644531 296.058594 L 281.636719 281.308594 L 296.417969 281.300781 L 296.425781 296.066406 L 311.191406 296.058594 L 311.199219 310.824219 L 252.109375 310.824219 " fill-opacity="1" fill-rule="nonzero"/><path fill="#63c442" d="M 296.417969 296.066406 L 311.191406 296.066406 L 311.191406 310.816406 L 252.109375 310.816406 L 252.109375 296.066406 L 281.644531 296.066406 L 281.644531 281.308594 L 296.417969 281.308594 L 296.417969 296.066406 " fill-opacity="1" fill-rule="nonzero"/><path fill="#63c442" d="M 60.109375 266.574219 L 60.097656 251.804688 L 74.871094 251.796875 L 74.863281 237.046875 L 89.652344 237.039062 L 89.644531 222.304688 L 133.949219 222.289062 L 133.960938 237.046875 L 119.191406 237.058594 L 119.199219 251.804688 L 89.652344 251.816406 L 89.664062 266.574219 L 60.109375 266.574219 " fill-opacity="1" fill-rule="nonzero"/><path fill="#63c442" d="M 133.949219 222.304688 L 133.949219 237.046875 L 119.191406 237.046875 L 119.191406 251.804688 L 89.652344 251.804688 L 89.652344 266.566406 L 60.109375 266.566406 L 60.109375 251.804688 L 74.871094 251.804688 L 74.871094 237.046875 L 89.652344 237.046875 L 89.652344 222.304688 L 133.949219 222.304688 " fill-opacity="1" fill-rule="nonzero"/><g clip-path="url(#4366394eba)"><path fill="#63c442" d="M 104.417969 74.765625 L 104.40625 45.242188 L 119.191406 45.234375 L 119.175781 30.496094 L 133.949219 30.484375 L 133.941406 15.738281 L 163.496094 15.726562 L 163.484375 0.980469 L 237.347656 0.972656 L 237.359375 15.738281 L 222.5625 15.75 L 222.578125 30.496094 L 207.804688 30.503906 L 207.8125 45.242188 L 133.949219 45.253906 L 133.960938 59.992188 L 119.191406 60 L 119.199219 74.765625 L 104.417969 74.765625 " fill-opacity="1" fill-rule="nonzero"/><path fill="#63c442" d="M 222.5625 30.496094 L 207.804688 30.496094 L 207.804688 45.242188 L 133.949219 45.242188 L 133.949219 59.992188 L 119.191406 59.992188 L 119.191406 74.757812 L 104.417969 74.757812 L 104.417969 45.242188 L 119.191406 45.242188 L 119.191406 30.496094 L 133.949219 30.496094 L 133.949219 15.738281 L 163.496094 15.738281 L 163.496094 0.980469 L 237.347656 0.980469 L 237.347656 15.738281 L 222.5625 15.738281 L 222.5625 30.496094 " fill-opacity="1" fill-rule="nonzero"/></g><path fill="#63c442" d="M 222.5625 178.046875 L 222.554688 163.28125 L 252.109375 163.273438 L 252.101562 148.523438 L 266.871094 148.515625 L 266.859375 133.765625 L 296.417969 133.757812 L 296.40625 119.023438 L 340.714844 119.007812 L 340.722656 163.28125 L 296.417969 163.292969 L 296.425781 178.046875 L 222.5625 178.046875 " fill-opacity="1" fill-rule="nonzero"/><path fill="#63c442" d="M 222.5625 178.039062 L 222.5625 163.28125 L 252.109375 163.28125 L 252.109375 148.523438 L 266.871094 148.523438 L 266.871094 133.765625 L 296.417969 133.765625 L 296.417969 119.023438 L 340.714844 119.023438 L 340.714844 163.28125 L 296.417969 163.28125 L 296.417969 178.039062 L 222.5625 178.039062 " fill-opacity="1" fill-rule="nonzero"/><path fill="#63c442" d="M 296.417969 251.816406 L 296.40625 237.046875 L 311.191406 237.039062 L 311.179688 222.304688 L 340.714844 222.289062 L 340.703125 207.535156 L 370.257812 207.523438 L 370.25 192.785156 L 399.804688 192.777344 L 399.8125 207.535156 L 385.042969 207.542969 L 385.054688 222.304688 L 355.5 222.3125 L 355.507812 237.046875 L 325.949219 237.058594 L 325.964844 251.816406 L 296.417969 251.816406 " fill-opacity="1" fill-rule="nonzero"/><path fill="#63c442" d="M 399.804688 192.785156 L 399.804688 207.535156 L 385.042969 207.535156 L 385.042969 222.304688 L 355.5 222.304688 L 355.5 237.046875 L 325.949219 237.046875 L 325.949219 251.804688 L 296.417969 251.804688 L 296.417969 237.046875 L 311.191406 237.046875 L 311.191406 222.304688 L 340.714844 222.304688 L 340.714844 207.535156 L 370.257812 207.535156 L 370.257812 192.785156 L 399.804688 192.785156 " fill-opacity="1" fill-rule="nonzero"/><path fill="#398b40" d="M 45.347656 281.320312 L 45.339844 266.566406 L 30.5625 266.574219 L 30.554688 251.804688 L 45.347656 251.796875 L 45.339844 237.046875 L 74.871094 237.039062 L 74.882812 251.804688 L 60.109375 251.816406 L 60.117188 266.566406 L 89.652344 266.554688 L 89.644531 251.804688 L 119.191406 251.796875 L 119.175781 237.046875 L 163.496094 237.039062 L 163.503906 251.804688 L 133.949219 251.816406 L 133.960938 266.566406 L 119.191406 266.574219 L 119.199219 281.320312 L 45.347656 281.320312 " fill-opacity="1" fill-rule="nonzero"/><path fill="#398b40" d="M 163.496094 237.046875 L 163.496094 251.804688 L 133.949219 251.804688 L 133.949219 266.566406 L 119.191406 266.566406 L 119.191406 281.308594 L 45.347656 281.308594 L 45.347656 266.566406 L 30.5625 266.566406 L 30.5625 251.804688 L 45.347656 251.804688 L 45.347656 237.046875 L 74.871094 237.046875 L 74.871094 251.804688 L 60.109375 251.804688 L 60.109375 266.566406 L 89.652344 266.566406 L 89.652344 251.804688 L 119.191406 251.804688 L 119.191406 237.046875 L 163.496094 237.046875 " fill-opacity="1" fill-rule="nonzero"/><path fill="#398b40" d="M 15.804688 163.292969 L 15.789062 148.523438 L 45.347656 148.515625 L 45.339844 133.765625 L 89.652344 133.757812 L 89.644531 104.273438 L 104.417969 104.265625 L 104.40625 89.503906 L 119.191406 89.492188 L 119.199219 104.273438 L 148.722656 104.265625 L 148.734375 119.023438 L 178.257812 119.007812 L 178.25 104.273438 L 163.496094 104.285156 L 163.484375 89.503906 L 133.949219 89.515625 L 133.941406 74.757812 L 119.191406 74.765625 L 119.175781 59.992188 L 133.949219 59.980469 L 133.941406 45.242188 L 207.804688 45.234375 L 207.792969 30.496094 L 281.644531 30.484375 L 281.65625 45.242188 L 296.417969 45.234375 L 296.425781 59.992188 L 311.191406 59.980469 L 311.199219 74.757812 L 296.417969 74.765625 L 296.425781 89.503906 L 252.109375 89.515625 L 252.121094 104.273438 L 237.347656 104.285156 L 237.359375 119.023438 L 193.019531 119.03125 L 193.027344 133.765625 L 163.496094 133.777344 L 163.503906 148.523438 L 89.652344 148.535156 L 89.664062 163.292969 L 15.804688 163.292969 " fill-opacity="1" fill-rule="nonzero"/><path fill="#398b40" d="M 193.019531 133.765625 L 163.496094 133.765625 L 163.496094 148.523438 L 89.652344 148.523438 L 89.652344 163.28125 L 15.804688 163.28125 L 15.804688 148.523438 L 45.347656 148.523438 L 45.347656 133.765625 L 89.652344 133.765625 L 89.652344 104.273438 L 104.417969 104.273438 L 104.417969 89.503906 L 119.191406 89.503906 L 119.191406 104.273438 L 148.722656 104.273438 L 148.722656 119.023438 L 178.257812 119.023438 L 178.257812 104.273438 L 163.496094 104.273438 L 163.496094 89.503906 L 133.949219 89.503906 L 133.949219 74.757812 L 119.191406 74.757812 L 119.191406 59.992188 L 133.949219 59.992188 L 133.949219 45.242188 L 207.804688 45.242188 L 207.804688 30.496094 L 281.644531 30.496094 L 281.644531 45.242188 L 296.417969 45.242188 L 296.417969 59.992188 L 311.191406 59.992188 L 311.191406 74.757812 L 296.417969 74.757812 L 296.417969 89.503906 L 252.109375 89.503906 L 252.109375 104.273438 L 237.347656 104.273438 L 237.347656 119.023438 L 193.019531 119.023438 L 193.019531 133.765625 " fill-opacity="1" fill-rule="nonzero"/><path fill="#398b40" d="M 193.019531 325.582031 L 193.007812 310.816406 L 207.804688 310.804688 L 207.792969 296.066406 L 252.109375 296.058594 L 252.121094 310.816406 L 237.347656 310.824219 L 237.359375 325.582031 L 193.019531 325.582031 " fill-opacity="1" fill-rule="nonzero"/><path fill="#398b40" d="M 252.109375 296.066406 L 252.109375 310.816406 L 237.347656 310.816406 L 237.347656 325.570312 L 193.019531 325.570312 L 193.019531 310.816406 L 207.804688 310.816406 L 207.804688 296.066406 L 252.109375 296.066406 " fill-opacity="1" fill-rule="nonzero"/><path fill="#398b40" d="M 340.714844 163.292969 L 340.703125 133.765625 L 355.5 133.757812 L 355.507812 163.292969 L 340.714844 163.292969 " fill-opacity="1" fill-rule="nonzero"/><path fill="#398b40" d="M 355.5 163.28125 L 340.714844 163.28125 L 340.714844 133.765625 L 355.5 133.765625 L 355.5 163.28125 " fill-opacity="1" fill-rule="nonzero"/><path fill="#398b40" d="M 266.871094 325.582031 L 266.859375 310.816406 L 311.191406 310.804688 L 311.179688 296.066406 L 296.417969 296.078125 L 296.40625 266.566406 L 325.949219 266.554688 L 325.964844 281.308594 L 340.714844 281.300781 L 340.722656 310.816406 L 370.257812 310.804688 L 370.269531 325.582031 L 266.871094 325.582031 " fill-opacity="1" fill-rule="nonzero"/><path fill="#398b40" d="M 325.949219 266.566406 L 325.949219 281.308594 L 340.714844 281.308594 L 340.714844 310.816406 L 370.257812 310.816406 L 370.257812 325.570312 L 266.871094 325.570312 L 266.871094 310.816406 L 311.191406 310.816406 L 311.191406 296.066406 L 296.417969 296.066406 L 296.417969 266.566406 L 325.949219 266.566406 " fill-opacity="1" fill-rule="nonzero"/><path fill="#398b40" d="M 222.5625 192.796875 L 222.554688 178.039062 L 296.417969 178.027344 L 296.40625 163.28125 L 340.714844 163.273438 L 340.722656 178.039062 L 311.191406 178.046875 L 311.199219 192.796875 L 222.5625 192.796875 " fill-opacity="1" fill-rule="nonzero"/><path fill="#398b40" d="M 340.714844 163.28125 L 340.714844 178.039062 L 311.191406 178.039062 L 311.191406 192.785156 L 222.5625 192.785156 L 222.5625 178.039062 L 296.417969 178.039062 L 296.417969 163.28125 L 340.714844 163.28125 " fill-opacity="1" fill-rule="nonzero"/><path fill="#398b40" d="M 252.109375 296.078125 L 252.101562 281.308594 L 281.644531 281.300781 L 281.65625 296.078125 L 252.109375 296.078125 " fill-opacity="1" fill-rule="nonzero"/><path fill="#398b40" d="M 252.109375 296.066406 L 252.109375 281.308594 L 281.644531 281.308594 L 281.644531 296.066406 L 252.109375 296.066406 " fill-opacity="1" fill-rule="nonzero"/><path fill="#398b40" d="M 370.257812 281.320312 L 370.25 266.566406 L 325.949219 266.574219 L 325.941406 237.046875 L 355.5 237.039062 L 355.488281 222.304688 L 385.042969 222.289062 L 385.035156 207.535156 L 414.566406 207.523438 L 414.578125 251.804688 L 429.339844 251.796875 L 429.351562 266.566406 L 399.804688 266.574219 L 399.8125 281.320312 L 370.257812 281.320312 " fill-opacity="1" fill-rule="nonzero"/><path fill="#398b40" d="M 429.339844 251.804688 L 429.339844 266.566406 L 399.804688 266.566406 L 399.804688 281.308594 L 370.257812 281.308594 L 370.257812 266.566406 L 325.949219 266.566406 L 325.949219 237.046875 L 355.5 237.046875 L 355.5 222.304688 L 385.042969 222.304688 L 385.042969 207.535156 L 414.566406 207.535156 L 414.566406 251.804688 L 429.339844 251.804688 " fill-opacity="1" fill-rule="nonzero"/><path fill="#1f373a" d="M 252.109375 281.320312 L 252.101562 266.566406 L 296.417969 266.554688 L 296.425781 281.320312 L 252.109375 281.320312 " fill-opacity="1" fill-rule="nonzero"/><path fill="#1f373a" d="M 252.109375 281.308594 L 252.109375 266.566406 L 296.417969 266.566406 L 296.417969 281.308594 L 252.109375 281.308594 " fill-opacity="1" fill-rule="nonzero"/><path fill="#1f373a" d="M 237.347656 340.339844 L 237.339844 310.816406 L 266.871094 310.804688 L 266.882812 325.570312 L 325.949219 325.5625 L 325.964844 340.339844 L 237.347656 340.339844 " fill-opacity="1" fill-rule="nonzero"/><path fill="#1f373a" d="M 325.949219 325.570312 L 325.949219 340.328125 L 237.347656 340.328125 L 237.347656 310.816406 L 266.871094 310.816406 L 266.871094 325.570312 L 325.949219 325.570312 " fill-opacity="1" fill-rule="nonzero"/><path fill="#1f373a" d="M 311.191406 266.574219 L 311.179688 251.804688 L 325.949219 251.796875 L 325.964844 266.574219 L 311.191406 266.574219 " fill-opacity="1" fill-rule="nonzero"/><path fill="#1f373a" d="M 325.949219 251.804688 L 325.949219 266.566406 L 311.191406 266.566406 L 311.191406 251.804688 L 325.949219 251.804688 " fill-opacity="1" fill-rule="nonzero"/><path fill="#1f373a" d="M 266.871094 207.542969 L 266.859375 192.785156 L 311.191406 192.777344 L 311.179688 178.039062 L 340.714844 178.027344 L 340.703125 163.28125 L 355.5 163.273438 L 355.488281 148.523438 L 370.257812 148.515625 L 370.269531 178.039062 L 355.5 178.046875 L 355.507812 192.785156 L 325.949219 192.796875 L 325.964844 207.542969 L 266.871094 207.542969 " fill-opacity="1" fill-rule="nonzero"/><path fill="#1f373a" d="M 340.714844 178.039062 L 340.714844 163.28125 L 355.5 163.28125 L 355.5 148.523438 L 370.257812 148.523438 L 370.257812 178.039062 L 355.5 178.039062 L 355.5 192.785156 L 325.949219 192.785156 L 325.949219 207.535156 L 266.871094 207.535156 L 266.871094 192.785156 L 311.191406 192.785156 L 311.191406 178.039062 L 340.714844 178.039062 " fill-opacity="1" fill-rule="nonzero"/><g clip-path="url(#c9a8451ae0)"><path fill="#1f373a" d="M 355.5 296.078125 L 355.488281 281.308594 L 325.949219 281.320312 L 325.941406 266.566406 L 370.257812 266.554688 L 370.269531 281.308594 L 399.804688 281.300781 L 399.792969 266.566406 L 429.339844 266.554688 L 429.328125 251.804688 L 414.566406 251.816406 L 414.558594 222.304688 L 429.339844 222.289062 L 429.351562 237.046875 L 444.113281 237.039062 L 444.121094 251.804688 L 458.886719 251.796875 L 458.894531 266.566406 L 444.113281 266.574219 L 444.121094 281.308594 L 414.566406 281.320312 L 414.578125 296.078125 L 355.5 296.078125 " fill-opacity="1" fill-rule="nonzero"/><path fill="#1f373a" d="M 458.886719 251.804688 L 458.886719 266.566406 L 444.113281 266.566406 L 444.113281 281.308594 L 414.566406 281.308594 L 414.566406 296.066406 L 355.5 296.066406 L 355.5 281.308594 L 325.949219 281.308594 L 325.949219 266.566406 L 370.257812 266.566406 L 370.257812 281.308594 L 399.804688 281.308594 L 399.804688 266.566406 L 429.339844 266.566406 L 429.339844 251.804688 L 414.566406 251.804688 L 414.566406 222.304688 L 429.339844 222.304688 L 429.339844 237.046875 L 444.113281 237.046875 L 444.113281 251.804688 L 458.886719 251.804688 " fill-opacity="1" fill-rule="nonzero"/></g><path fill="#1f373a" d="M 148.722656 119.03125 L 148.714844 104.273438 L 119.191406 104.285156 L 119.175781 89.503906 L 104.417969 89.515625 L 104.40625 74.757812 L 133.949219 74.746094 L 133.960938 89.503906 L 163.496094 89.492188 L 163.503906 104.273438 L 178.257812 104.265625 L 178.269531 119.03125 L 148.722656 119.03125 " fill-opacity="1" fill-rule="nonzero"/><path fill="#1f373a" d="M 119.191406 89.503906 L 104.417969 89.503906 L 104.417969 74.757812 L 133.949219 74.757812 L 133.949219 89.503906 L 163.496094 89.503906 L 163.496094 104.273438 L 178.257812 104.273438 L 178.257812 119.023438 L 148.722656 119.023438 L 148.722656 104.273438 L 119.191406 104.273438 L 119.191406 89.503906 " fill-opacity="1" fill-rule="nonzero"/><path fill="#1f373a" d="M 74.871094 192.796875 L 74.863281 178.039062 L 60.109375 178.046875 L 60.097656 163.28125 L 89.652344 163.273438 L 89.644531 148.523438 L 163.496094 148.515625 L 163.484375 133.765625 L 193.019531 133.757812 L 193.007812 119.023438 L 237.347656 119.007812 L 237.339844 104.273438 L 252.109375 104.265625 L 252.101562 89.503906 L 296.417969 89.492188 L 296.40625 74.757812 L 325.949219 74.746094 L 325.964844 89.503906 L 311.191406 89.515625 L 311.199219 104.273438 L 266.871094 104.285156 L 266.882812 119.023438 L 252.109375 119.03125 L 252.121094 133.765625 L 207.804688 133.777344 L 207.8125 148.523438 L 178.257812 148.535156 L 178.269531 163.28125 L 119.191406 163.292969 L 119.199219 178.039062 L 104.417969 178.046875 L 104.425781 192.796875 L 74.871094 192.796875 " fill-opacity="1" fill-rule="nonzero"/><path fill="#1f373a" d="M 207.804688 133.765625 L 207.804688 148.523438 L 178.257812 148.523438 L 178.257812 163.28125 L 119.191406 163.28125 L 119.191406 178.039062 L 104.417969 178.039062 L 104.417969 192.785156 L 74.871094 192.785156 L 74.871094 178.039062 L 60.109375 178.039062 L 60.109375 163.28125 L 89.652344 163.28125 L 89.652344 148.523438 L 163.496094 148.523438 L 163.496094 133.765625 L 193.019531 133.765625 L 193.019531 119.023438 L 237.347656 119.023438 L 237.347656 104.273438 L 252.109375 104.273438 L 252.109375 89.503906 L 296.417969 89.503906 L 296.417969 74.757812 L 325.949219 74.757812 L 325.949219 89.503906 L 311.191406 89.503906 L 311.191406 104.273438 L 266.871094 104.273438 L 266.871094 119.023438 L 252.109375 119.023438 L 252.109375 133.765625 L 207.804688 133.765625 " fill-opacity="1" fill-rule="nonzero"/><path fill="#1f373a" d="M 133.949219 237.058594 L 133.941406 222.304688 L 148.722656 222.289062 L 148.734375 237.058594 L 133.949219 237.058594 " fill-opacity="1" fill-rule="nonzero"/><path fill="#1f373a" d="M 148.722656 237.046875 L 133.949219 237.046875 L 133.949219 222.304688 L 148.722656 222.304688 L 148.722656 237.046875 " fill-opacity="1" fill-rule="nonzero"/><path fill="#1f373a" d="M 74.871094 296.078125 L 74.863281 281.308594 L 119.191406 281.300781 L 119.175781 266.566406 L 133.949219 266.554688 L 133.941406 251.804688 L 178.257812 251.796875 L 178.269531 266.566406 L 148.722656 266.574219 L 148.734375 281.308594 L 133.949219 281.320312 L 133.960938 296.078125 L 74.871094 296.078125 " fill-opacity="1" fill-rule="nonzero"/><path fill="#1f373a" d="M 178.257812 251.804688 L 178.257812 266.566406 L 148.722656 266.566406 L 148.722656 281.308594 L 133.949219 281.308594 L 133.949219 296.066406 L 74.871094 296.066406 L 74.871094 281.308594 L 119.191406 281.308594 L 119.191406 266.566406 L 133.949219 266.566406 L 133.949219 251.804688 L 178.257812 251.804688 " fill-opacity="1" fill-rule="nonzero"/><path fill="#1f373a" d="M 222.5625 296.078125 L 222.554688 281.308594 L 252.109375 281.300781 L 252.121094 296.078125 L 222.5625 296.078125 " fill-opacity="1" fill-rule="nonzero"/><path fill="#1f373a" d="M 222.5625 296.066406 L 222.5625 281.308594 L 252.109375 281.308594 L 252.109375 296.066406 L 222.5625 296.066406 " fill-opacity="1" fill-rule="nonzero"/><path fill="#5c4f2f" d="M 178.257812 251.816406 L 178.25 237.046875 L 193.019531 237.039062 L 193.027344 251.816406 L 178.257812 251.816406 " fill-opacity="1" fill-rule="nonzero"/><path fill="#5c4f2f" d="M 193.019531 237.046875 L 193.019531 251.804688 L 178.257812 251.804688 L 178.257812 237.046875 L 193.019531 237.046875 " fill-opacity="1" fill-rule="nonzero"/><path fill="#5c4f2f" d="M 89.652344 222.3125 L 89.644531 207.535156 L 104.417969 207.523438 L 104.425781 222.3125 L 89.652344 222.3125 " fill-opacity="1" fill-rule="nonzero"/><path fill="#5c4f2f" d="M 104.417969 222.304688 L 89.652344 222.304688 L 89.652344 207.535156 L 104.417969 207.535156 L 104.417969 222.304688 " fill-opacity="1" fill-rule="nonzero"/><path fill="#5c4f2f" d="M 104.417969 207.542969 L 104.40625 192.785156 L 119.191406 192.777344 L 119.199219 207.542969 L 104.417969 207.542969 " fill-opacity="1" fill-rule="nonzero"/><path fill="#5c4f2f" d="M 119.191406 207.535156 L 104.417969 207.535156 L 104.417969 192.785156 L 119.191406 192.785156 L 119.191406 207.535156 " fill-opacity="1" fill-rule="nonzero"/><path fill="#5c4f2f" d="M 74.871094 237.058594 L 74.863281 222.304688 L 89.652344 222.289062 L 89.664062 237.058594 L 74.871094 237.058594 " fill-opacity="1" fill-rule="nonzero"/><path fill="#5c4f2f" d="M 89.652344 237.046875 L 74.871094 237.046875 L 74.871094 222.304688 L 89.652344 222.304688 L 89.652344 237.046875 " fill-opacity="1" fill-rule="nonzero"/><path fill="#5c4f2f" d="M 119.191406 178.046875 L 119.175781 163.28125 L 133.949219 163.273438 L 133.960938 178.046875 L 119.191406 178.046875 " fill-opacity="1" fill-rule="nonzero"/><path fill="#5c4f2f" d="M 133.949219 178.039062 L 119.191406 178.039062 L 119.191406 163.28125 L 133.949219 163.28125 L 133.949219 178.039062 " fill-opacity="1" fill-rule="nonzero"/><g clip-path="url(#a39ed3aa6f)"><path fill="#5c4f2f" d="M 133.949219 414.117188 L 133.941406 399.339844 L 104.417969 399.347656 L 104.425781 414.109375 L 74.871094 414.117188 L 74.863281 399.339844 L 89.652344 399.328125 L 89.644531 369.847656 L 104.417969 369.835938 L 104.40625 355.078125 L 133.949219 355.066406 L 133.941406 340.328125 L 163.496094 340.320312 L 163.503906 355.078125 L 178.257812 355.066406 L 178.269531 369.847656 L 163.496094 369.855469 L 163.503906 414.117188 L 133.949219 414.117188 " fill-opacity="1" fill-rule="nonzero"/><path fill="#5c4f2f" d="M 163.496094 355.078125 L 178.257812 355.078125 L 178.257812 369.847656 L 163.496094 369.847656 L 163.496094 414.109375 L 133.949219 414.109375 L 133.949219 399.339844 L 104.417969 399.339844 L 104.417969 414.109375 L 74.871094 414.109375 L 74.871094 399.339844 L 89.652344 399.339844 L 89.652344 369.847656 L 104.417969 369.847656 L 104.417969 355.078125 L 133.949219 355.078125 L 133.949219 340.328125 L 163.496094 340.328125 L 163.496094 355.078125 " fill-opacity="1" fill-rule="nonzero"/></g><path fill="#5c4f2f" d="M 193.019531 296.078125 L 193.007812 281.308594 L 178.257812 281.320312 L 178.25 266.566406 L 193.019531 266.554688 L 193.007812 251.804688 L 207.804688 251.796875 L 207.8125 266.566406 L 222.5625 266.554688 L 222.578125 281.308594 L 207.804688 281.320312 L 207.8125 296.078125 L 193.019531 296.078125 " fill-opacity="1" fill-rule="nonzero"/><path fill="#5c4f2f" d="M 222.5625 266.566406 L 222.5625 281.308594 L 207.804688 281.308594 L 207.804688 296.066406 L 193.019531 296.066406 L 193.019531 281.308594 L 178.257812 281.308594 L 178.257812 266.566406 L 193.019531 266.566406 L 193.019531 251.804688 L 207.804688 251.804688 L 207.804688 266.566406 L 222.5625 266.566406 " fill-opacity="1" fill-rule="nonzero"/><path fill="#3a301e" d="M 163.496094 251.816406 L 163.484375 237.046875 L 178.257812 237.039062 L 178.269531 251.816406 L 163.496094 251.816406 " fill-opacity="1" fill-rule="nonzero"/><path fill="#3a301e" d="M 178.257812 237.046875 L 178.257812 251.804688 L 163.496094 251.804688 L 163.496094 237.046875 L 178.257812 237.046875 " fill-opacity="1" fill-rule="nonzero"/><path fill="#3a301e" d="M 133.949219 384.601562 L 133.941406 369.847656 L 148.722656 369.835938 L 148.734375 384.601562 L 133.949219 384.601562 " fill-opacity="1" fill-rule="nonzero"/><path fill="#3a301e" d="M 133.949219 369.847656 L 148.722656 369.847656 L 148.722656 384.589844 L 133.949219 384.589844 L 133.949219 369.847656 " fill-opacity="1" fill-rule="nonzero"/><path fill="#3a301e" d="M 104.417969 222.3125 L 104.40625 207.535156 L 119.191406 207.523438 L 119.175781 178.039062 L 133.949219 178.027344 L 133.941406 163.28125 L 207.804688 163.273438 L 207.8125 178.039062 L 222.5625 178.027344 L 222.578125 192.785156 L 163.496094 192.796875 L 163.503906 207.535156 L 133.949219 207.542969 L 133.960938 222.3125 L 104.417969 222.3125 " fill-opacity="1" fill-rule="nonzero"/><path fill="#3a301e" d="M 104.417969 222.304688 L 104.417969 207.535156 L 119.191406 207.535156 L 119.191406 178.039062 L 133.949219 178.039062 L 133.949219 163.28125 L 207.804688 163.28125 L 207.804688 178.039062 L 222.5625 178.039062 L 222.5625 192.785156 L 163.496094 192.785156 L 163.496094 207.535156 L 133.949219 207.535156 L 133.949219 222.304688 L 104.417969 222.304688 " fill-opacity="1" fill-rule="nonzero"/><g clip-path="url(#4163e880a8)"><path fill="#3a301e" d="M 104.417969 414.117188 L 104.40625 399.339844 L 133.949219 399.328125 L 133.960938 414.117188 L 104.417969 414.117188 " fill-opacity="1" fill-rule="nonzero"/><path fill="#3a301e" d="M 133.949219 399.339844 L 133.949219 414.109375 L 104.417969 414.109375 L 104.417969 399.339844 L 133.949219 399.339844 " fill-opacity="1" fill-rule="nonzero"/></g><g clip-path="url(#08c2adc211)"><path fill="#3a301e" d="M 163.496094 414.117188 L 163.484375 369.847656 L 178.257812 369.835938 L 178.25 355.078125 L 163.496094 355.085938 L 163.484375 325.570312 L 178.257812 325.5625 L 178.25 296.066406 L 163.496094 296.078125 L 163.484375 281.308594 L 148.722656 281.320312 L 148.714844 266.566406 L 178.257812 266.554688 L 178.25 251.804688 L 193.019531 251.796875 L 193.027344 266.566406 L 207.804688 266.554688 L 207.792969 251.804688 L 222.5625 251.796875 L 222.578125 266.566406 L 252.109375 266.554688 L 252.121094 281.308594 L 222.5625 281.320312 L 222.578125 296.066406 L 207.804688 296.078125 L 207.8125 310.816406 L 193.019531 310.824219 L 193.027344 325.570312 L 237.347656 325.5625 L 237.359375 340.328125 L 207.804688 340.339844 L 207.8125 355.078125 L 222.5625 355.066406 L 222.578125 369.847656 L 237.347656 369.835938 L 237.359375 384.589844 L 252.109375 384.582031 L 252.121094 399.339844 L 266.871094 399.328125 L 266.882812 414.117188 L 163.496094 414.117188 " fill-opacity="1" fill-rule="nonzero"/><path fill="#3a301e" d="M 266.871094 399.339844 L 266.871094 414.109375 L 163.496094 414.109375 L 163.496094 369.847656 L 178.257812 369.847656 L 178.257812 355.078125 L 163.496094 355.078125 L 163.496094 325.570312 L 178.257812 325.570312 L 178.257812 296.066406 L 163.496094 296.066406 L 163.496094 281.308594 L 148.722656 281.308594 L 148.722656 266.566406 L 178.257812 266.566406 L 178.257812 251.804688 L 193.019531 251.804688 L 193.019531 266.566406 L 207.804688 266.566406 L 207.804688 251.804688 L 222.5625 251.804688 L 222.5625 266.566406 L 252.109375 266.566406 L 252.109375 281.308594 L 222.5625 281.308594 L 222.5625 296.066406 L 207.804688 296.066406 L 207.804688 310.816406 L 193.019531 310.816406 L 193.019531 325.570312 L 237.347656 325.570312 L 237.347656 340.328125 L 207.804688 340.328125 L 207.804688 355.078125 L 222.5625 355.078125 L 222.5625 369.847656 L 237.347656 369.847656 L 237.347656 384.589844 L 252.109375 384.589844 L 252.109375 399.339844 L 266.871094 399.339844 " fill-opacity="1" fill-rule="nonzero"/></g><g fill="#ffffff" fill-opacity="1"><g transform="translate(562.828411, 275.184817)"><g><path d="M 13.21875 33.03125 L 13.21875 -91.765625 L 22.03125 -91.765625 L 25.140625 -79.28125 L 26.0625 -79.28125 C 27.28125 -81 29.265625 -82.957031 32.015625 -85.15625 C 34.773438 -87.363281 38.203125 -89.320312 42.296875 -91.03125 C 46.398438 -92.738281 50.773438 -93.59375 55.421875 -93.59375 C 63.128906 -93.59375 70.195312 -91.570312 76.625 -87.53125 C 83.050781 -83.5 88.160156 -77.84375 91.953125 -70.5625 C 95.742188 -63.28125 97.640625 -55.054688 97.640625 -45.890625 C 97.640625 -36.710938 95.742188 -28.484375 91.953125 -21.203125 C 88.160156 -13.921875 83.050781 -8.257812 76.625 -4.21875 C 70.195312 -0.1875 63.128906 1.828125 55.421875 1.828125 C 50.773438 1.828125 46.398438 0.972656 42.296875 -0.734375 C 38.203125 -2.441406 34.75 -4.394531 31.9375 -6.59375 C 29.125 -8.800781 27.164062 -10.765625 26.0625 -12.484375 L 25.140625 -12.484375 L 25.140625 33.03125 Z M 55.421875 -9.359375 C 60.929688 -9.359375 66.007812 -10.882812 70.65625 -13.9375 C 75.3125 -17 78.984375 -21.3125 81.671875 -26.875 C 84.359375 -32.445312 85.703125 -38.785156 85.703125 -45.890625 C 85.703125 -52.984375 84.359375 -59.3125 81.671875 -64.875 C 78.984375 -70.445312 75.3125 -74.757812 70.65625 -77.8125 C 66.007812 -80.875 60.929688 -82.40625 55.421875 -82.40625 C 49.921875 -82.40625 44.84375 -80.875 40.1875 -77.8125 C 35.539062 -74.757812 31.867188 -70.445312 29.171875 -64.875 C 26.484375 -59.3125 25.140625 -52.984375 25.140625 -45.890625 C 25.140625 -38.785156 26.484375 -32.445312 29.171875 -26.875 C 31.867188 -21.3125 35.539062 -17 40.1875 -13.9375 C 44.84375 -10.882812 49.921875 -9.359375 55.421875 -9.359375 Z M 55.421875 -9.359375 "/></g></g></g><g fill="#ffffff" fill-opacity="1"><g transform="translate(667.614753, 275.184817)"><g><path d="M 59.640625 -65.15625 L 102.046875 0 L 87 0 L 52.125 -54.6875 L 16.890625 0 L 2.75 0 L 44.96875 -65.15625 L 4.765625 -128.46875 L 19.453125 -128.46875 L 52.671875 -75.796875 L 85.703125 -128.46875 L 100.03125 -128.46875 Z M 59.640625 -65.15625 "/></g></g></g><g fill="#ffffff" fill-opacity="1"><g transform="translate(766.895095, 275.184817)"><g/></g></g><g fill="#ffffff" fill-opacity="1"><g transform="translate(810.57136, 275.184817)"><g><path d="M 49.375 1.828125 C 41.664062 1.828125 34.597656 -0.1875 28.171875 -4.21875 C 21.742188 -8.257812 16.632812 -13.921875 12.84375 -21.203125 C 9.050781 -28.484375 7.15625 -36.710938 7.15625 -45.890625 C 7.15625 -55.054688 9.050781 -63.28125 12.84375 -70.5625 C 16.632812 -77.84375 21.742188 -83.5 28.171875 -87.53125 C 34.597656 -91.570312 41.664062 -93.59375 49.375 -93.59375 C 54.019531 -93.59375 58.390625 -92.738281 62.484375 -91.03125 C 66.585938 -89.320312 70.046875 -87.363281 72.859375 -85.15625 C 75.671875 -82.957031 77.628906 -81 78.734375 -79.28125 L 79.65625 -79.28125 L 79.65625 -128.46875 L 91.578125 -128.46875 L 91.578125 0 L 82.765625 0 L 79.65625 -12.484375 L 78.734375 -12.484375 C 77.515625 -10.765625 75.523438 -8.800781 72.765625 -6.59375 C 70.015625 -4.394531 66.585938 -2.441406 62.484375 -0.734375 C 58.390625 0.972656 54.019531 1.828125 49.375 1.828125 Z M 49.375 -9.359375 C 54.875 -9.359375 59.945312 -10.882812 64.59375 -13.9375 C 69.25 -17 72.921875 -21.3125 75.609375 -26.875 C 78.304688 -32.445312 79.65625 -38.785156 79.65625 -45.890625 C 79.65625 -52.984375 78.304688 -59.3125 75.609375 -64.875 C 72.921875 -70.445312 69.25 -74.757812 64.59375 -77.8125 C 59.945312 -80.875 54.875 -82.40625 49.375 -82.40625 C 43.863281 -82.40625 38.78125 -80.875 34.125 -77.8125 C 29.476562 -74.757812 25.8125 -70.445312 23.125 -64.875 C 20.4375 -59.3125 19.09375 -52.984375 19.09375 -45.890625 C 19.09375 -38.785156 20.4375 -32.445312 23.125 -26.875 C 25.8125 -21.3125 29.476562 -17 34.125 -13.9375 C 38.78125 -10.882812 43.863281 -9.359375 49.375 -9.359375 Z M 49.375 -9.359375 "/></g></g></g><g fill="#ffffff" fill-opacity="1"><g transform="translate(916.275301, 275.184817)"><g><path d="M 91.40625 -48.640625 C 91.40625 -44.847656 91.160156 -41.972656 90.671875 -40.015625 L 19.453125 -40.015625 C 20.429688 -30.585938 23.765625 -23.117188 29.453125 -17.609375 C 35.140625 -12.109375 42.207031 -9.359375 50.65625 -9.359375 C 61.914062 -9.359375 70.421875 -14.191406 76.171875 -23.859375 L 88.09375 -23.859375 C 85.28125 -16.390625 80.445312 -10.238281 73.59375 -5.40625 C 66.738281 -0.582031 58.96875 1.828125 50.28125 1.828125 C 42.207031 1.828125 34.894531 -0.1875 28.34375 -4.21875 C 21.800781 -8.257812 16.632812 -13.890625 12.84375 -21.109375 C 9.050781 -28.328125 7.15625 -36.585938 7.15625 -45.890625 C 7.15625 -54.941406 9.082031 -63.101562 12.9375 -70.375 C 16.789062 -77.65625 22.019531 -83.34375 28.625 -87.4375 C 35.238281 -91.539062 42.457031 -93.59375 50.28125 -93.59375 C 57.988281 -93.59375 64.992188 -91.601562 71.296875 -87.625 C 77.597656 -83.65625 82.523438 -78.242188 86.078125 -71.390625 C 89.628906 -64.535156 91.40625 -56.953125 91.40625 -48.640625 Z M 50.28125 -82.40625 C 45.144531 -82.40625 40.34375 -81.085938 35.875 -78.453125 C 31.414062 -75.828125 27.6875 -72.097656 24.6875 -67.265625 C 21.6875 -62.429688 19.878906 -56.957031 19.265625 -50.84375 L 79.28125 -50.84375 C 78.675781 -60.019531 75.679688 -67.570312 70.296875 -73.5 C 64.910156 -79.4375 58.238281 -82.40625 50.28125 -82.40625 Z M 50.28125 -82.40625 "/></g></g></g><g fill="#ffffff" fill-opacity="1"><g transform="translate(1014.822172, 275.184817)"><g><path d="M 40.921875 1.828125 C 34.679688 1.828125 29.050781 0.515625 24.03125 -2.109375 C 19.019531 -4.742188 15.046875 -8.257812 12.109375 -12.65625 C 9.171875 -17.0625 7.519531 -21.710938 7.15625 -26.609375 L 19.09375 -26.609375 C 19.695312 -21.472656 21.894531 -17.3125 25.6875 -14.125 C 29.488281 -10.945312 34.566406 -9.359375 40.921875 -9.359375 C 47.160156 -9.359375 51.960938 -10.765625 55.328125 -13.578125 C 58.691406 -16.390625 60.375 -19.9375 60.375 -24.21875 C 60.375 -27.40625 59.394531 -30.035156 57.4375 -32.109375 C 55.488281 -34.191406 53.101562 -35.875 50.28125 -37.15625 C 47.46875 -38.445312 43.492188 -39.890625 38.359375 -41.484375 C 32.117188 -43.441406 27.101562 -45.304688 23.3125 -47.078125 C 19.519531 -48.847656 16.273438 -51.414062 13.578125 -54.78125 C 10.890625 -58.144531 9.546875 -62.519531 9.546875 -67.90625 C 9.546875 -72.675781 10.796875 -77.019531 13.296875 -80.9375 C 15.804688 -84.851562 19.328125 -87.941406 23.859375 -90.203125 C 28.390625 -92.460938 33.648438 -93.59375 39.640625 -93.59375 C 45.515625 -93.59375 50.773438 -92.367188 55.421875 -89.921875 C 60.078125 -87.484375 63.75 -84.148438 66.4375 -79.921875 C 69.125 -75.703125 70.65625 -71.085938 71.03125 -66.078125 L 59.09375 -66.078125 C 58.476562 -71.210938 56.519531 -75.21875 53.21875 -78.09375 C 49.914062 -80.96875 45.390625 -82.40625 39.640625 -82.40625 C 33.890625 -82.40625 29.421875 -81.085938 26.234375 -78.453125 C 23.054688 -75.828125 21.46875 -72.492188 21.46875 -68.453125 C 21.46875 -64.046875 23.242188 -60.710938 26.796875 -58.453125 C 30.347656 -56.191406 35.789062 -53.898438 43.125 -51.578125 C 49.363281 -49.492188 54.410156 -47.503906 58.265625 -45.609375 C 62.117188 -43.710938 65.421875 -41.050781 68.171875 -37.625 C 70.929688 -34.195312 72.3125 -29.726562 72.3125 -24.21875 C 72.3125 -16.757812 69.492188 -10.550781 63.859375 -5.59375 C 58.234375 -0.644531 50.585938 1.828125 40.921875 1.828125 Z M 40.921875 1.828125 "/></g></g></g><g fill="#ffffff" fill-opacity="1"><g transform="translate(1094.650677, 275.184817)"><g><path d="M 25.140625 0 L 13.21875 0 L 13.21875 -91.765625 L 25.140625 -91.765625 Z M 19.265625 -106.453125 C 16.941406 -106.453125 14.984375 -107.242188 13.390625 -108.828125 C 11.796875 -110.421875 11 -112.378906 11 -114.703125 C 11 -117.148438 11.796875 -119.140625 13.390625 -120.671875 C 14.984375 -122.203125 16.941406 -122.96875 19.265625 -122.96875 C 21.710938 -122.96875 23.703125 -122.203125 25.234375 -120.671875 C 26.765625 -119.140625 27.53125 -117.148438 27.53125 -114.703125 C 27.53125 -112.378906 26.734375 -110.421875 25.140625 -108.828125 C 23.546875 -107.242188 21.585938 -106.453125 19.265625 -106.453125 Z M 19.265625 -106.453125 "/></g></g></g><g fill="#ffffff" fill-opacity="1"><g transform="translate(1133.005052, 275.184817)"><g><path d="M 50.109375 34.875 C 40.191406 34.875 31.742188 32.363281 24.765625 27.34375 C 17.796875 22.332031 13.273438 15.601562 11.203125 7.15625 L 23.125 7.15625 C 24.832031 12.289062 28.039062 16.328125 32.75 19.265625 C 37.46875 22.203125 43.253906 23.671875 50.109375 23.671875 C 58.304688 23.671875 64.910156 21.222656 69.921875 16.328125 C 74.941406 11.441406 77.453125 4.957031 77.453125 -3.125 L 77.453125 -17.625 L 76.53125 -17.625 C 75.425781 -15.90625 73.53125 -13.914062 70.84375 -11.65625 C 68.15625 -9.394531 64.851562 -7.40625 60.9375 -5.6875 C 57.019531 -3.976562 52.796875 -3.125 48.265625 -3.125 C 40.804688 -3.125 33.925781 -5.078125 27.625 -8.984375 C 21.320312 -12.898438 16.332031 -18.316406 12.65625 -25.234375 C 8.988281 -32.148438 7.15625 -39.828125 7.15625 -48.265625 C 7.15625 -56.828125 8.988281 -64.566406 12.65625 -71.484375 C 16.332031 -78.398438 21.320312 -83.8125 27.625 -87.71875 C 33.925781 -91.632812 40.804688 -93.59375 48.265625 -93.59375 C 52.796875 -93.59375 57.019531 -92.765625 60.9375 -91.109375 C 64.851562 -89.460938 68.15625 -87.507812 70.84375 -85.25 C 73.53125 -82.988281 75.425781 -81 76.53125 -79.28125 L 77.453125 -79.28125 L 80.5625 -91.765625 L 89.375 -91.765625 L 89.375 -3.125 C 89.375 4.34375 87.722656 10.953125 84.421875 16.703125 C 81.117188 22.453125 76.5 26.914062 70.5625 30.09375 C 64.632812 33.28125 57.816406 34.875 50.109375 34.875 Z M 48.265625 -14.3125 C 53.410156 -14.3125 58.210938 -15.78125 62.671875 -18.71875 C 67.140625 -21.65625 70.71875 -25.722656 73.40625 -30.921875 C 76.101562 -36.117188 77.453125 -41.898438 77.453125 -48.265625 C 77.453125 -54.753906 76.101562 -60.597656 73.40625 -65.796875 C 70.71875 -70.992188 67.140625 -75.0625 62.671875 -78 C 58.210938 -80.9375 53.410156 -82.40625 48.265625 -82.40625 C 43.003906 -82.40625 38.140625 -80.9375 33.671875 -78 C 29.210938 -75.0625 25.664062 -70.992188 23.03125 -65.796875 C 20.40625 -60.597656 19.09375 -54.753906 19.09375 -48.265625 C 19.09375 -41.898438 20.40625 -36.117188 23.03125 -30.921875 C 25.664062 -25.722656 29.210938 -21.65625 33.671875 -18.71875 C 38.140625 -15.78125 43.003906 -14.3125 48.265625 -14.3125 Z M 48.265625 -14.3125 "/></g></g></g><g fill="#ffffff" fill-opacity="1"><g transform="translate(1235.589236, 275.184817)"><g><path d="M 13.21875 0 L 13.21875 -91.765625 L 22.03125 -91.765625 L 25.140625 -79.28125 L 26.0625 -79.28125 C 28.507812 -83.070312 32.085938 -86.40625 36.796875 -89.28125 C 41.503906 -92.15625 46.921875 -93.59375 53.046875 -93.59375 C 59.890625 -93.59375 66.09375 -91.941406 71.65625 -88.640625 C 77.226562 -85.335938 81.601562 -80.628906 84.78125 -74.515625 C 87.96875 -68.398438 89.5625 -61.300781 89.5625 -53.21875 L 89.5625 0 L 77.640625 0 L 77.640625 -53.21875 C 77.640625 -62.28125 75.25 -69.410156 70.46875 -74.609375 C 65.695312 -79.804688 59.519531 -82.40625 51.9375 -82.40625 C 43.863281 -82.40625 37.378906 -79.804688 32.484375 -74.609375 C 27.585938 -69.410156 25.140625 -62.28125 25.140625 -53.21875 L 25.140625 0 Z M 13.21875 0 "/></g></g></g></g></g></svg>