<svg xmlns="http://www.w3.org/2000/svg" xmlns:xlink="http://www.w3.org/1999/xlink" width="2000" zoomAndPan="magnify" viewBox="0 0 1500 1499.999933" height="2000" preserveAspectRatio="xMidYMid meet" version="1.0"><defs><clipPath id="58522d8f2a"><path d="M 0 25.910156 L 1500 25.910156 L 1500 1474.160156 L 0 1474.160156 Z M 0 25.910156 " clip-rule="nonzero"/></clipPath></defs><g clip-path="url(#58522d8f2a)"><path fill="#ffffff" d="M 1499.730469 368.816406 C 1499.730469 358.320312 1492.832031 348.683594 1482.261719 345.648438 L 869.738281 171.363281 C 869.777344 170.878906 869.8125 170.390625 869.8125 169.863281 L 869.8125 50.015625 C 869.8125 36.707031 859.015625 25.910156 845.707031 25.910156 L 664.902344 25.910156 C 651.59375 25.910156 640.796875 36.707031 640.796875 50.015625 L 640.832031 166.867188 C 640.832031 167.351562 640.910156 167.839844 640.945312 168.328125 L 18.9375 345.3125 C 8.253906 347.746094 0.230469 357.34375 0.230469 368.816406 L 0.269531 469.472656 C 0.269531 471.648438 0.566406 473.859375 1.207031 476.070312 C 4.839844 488.855469 18.148438 496.277344 30.933594 492.640625 L 42.667969 489.304688 L 42.667969 581.9375 C 42.667969 593.296875 50.503906 602.78125 61.074219 605.332031 L 61.074219 695.492188 C 61.074219 708.800781 71.871094 719.597656 85.179688 719.597656 L 87.390625 719.597656 L 87.390625 1198.699219 L 85.179688 1198.699219 C 71.871094 1198.699219 61.074219 1209.496094 61.074219 1222.804688 L 61.074219 1312.964844 C 50.503906 1315.511719 42.667969 1325.035156 42.667969 1336.355469 L 42.667969 1449.910156 C 42.667969 1463.21875 53.464844 1474.015625 66.773438 1474.015625 L 1433.226562 1474.015625 C 1446.535156 1474.015625 1457.332031 1463.21875 1457.332031 1449.910156 L 1457.332031 1336.355469 C 1457.332031 1324.996094 1449.496094 1315.511719 1438.925781 1312.964844 L 1438.925781 1222.804688 C 1438.925781 1209.496094 1428.128906 1198.699219 1414.820312 1198.699219 L 1412.609375 1198.699219 L 1412.609375 719.597656 L 1414.820312 719.597656 C 1428.128906 719.597656 1438.925781 708.800781 1438.925781 695.492188 L 1438.925781 605.332031 C 1449.496094 602.78125 1457.332031 593.257812 1457.332031 581.9375 L 1457.332031 489.304688 L 1467.828125 492.304688 C 1470.265625 493.128906 1472.925781 493.617188 1475.664062 493.617188 C 1488.972656 493.617188 1499.769531 482.820312 1499.769531 469.511719 Z M 689.007812 74.121094 L 821.640625 74.121094 L 821.640625 138 L 756.597656 119.519531 C 752.136719 118.242188 747.601562 118.316406 743.402344 119.519531 L 689.007812 135 Z M 48.441406 386.996094 L 750 187.335938 L 1451.558594 386.996094 L 1451.558594 437.609375 L 756.597656 239.816406 C 752.136719 238.542969 747.601562 238.617188 743.402344 239.816406 L 48.441406 437.570312 Z M 962.859375 348.574219 L 537.140625 348.574219 L 750 287.992188 Z M 1390.714844 671.386719 L 1291.222656 671.386719 L 1291.222656 606.042969 L 1390.753906 606.042969 L 1390.753906 671.386719 Z M 1409.121094 557.832031 L 90.878906 557.832031 L 90.878906 492.492188 L 1409.160156 492.492188 L 1409.160156 557.832031 Z M 995.699219 1312.25 L 995.699219 1246.910156 L 1095.230469 1246.910156 L 1095.230469 1312.25 Z M 971.59375 1198.699219 C 958.285156 1198.699219 947.488281 1209.496094 947.488281 1222.804688 L 947.488281 1312.25 L 847.957031 1312.25 L 847.957031 1222.804688 C 847.957031 1209.496094 837.160156 1198.699219 823.851562 1198.699219 L 821.640625 1198.699219 L 821.640625 719.597656 L 823.851562 719.597656 C 837.160156 719.597656 847.957031 708.800781 847.957031 695.492188 L 847.957031 606.042969 L 947.488281 606.042969 L 947.488281 695.492188 C 947.488281 708.800781 958.285156 719.597656 971.59375 719.597656 L 973.804688 719.597656 L 973.804688 1198.699219 Z M 700.214844 1312.25 L 700.214844 1246.910156 L 799.710938 1246.910156 L 799.710938 1312.25 Z M 552.472656 1312.25 L 552.472656 1222.804688 C 552.472656 1209.496094 541.675781 1198.699219 528.367188 1198.699219 L 526.117188 1198.699219 L 526.117188 719.597656 L 528.367188 719.597656 C 541.675781 719.597656 552.472656 708.800781 552.472656 695.492188 L 552.472656 606.042969 L 652.003906 606.042969 L 652.003906 695.492188 C 652.003906 708.800781 662.800781 719.597656 676.109375 719.597656 L 678.320312 719.597656 L 678.320312 1198.699219 L 676.109375 1198.699219 C 662.800781 1198.699219 652.003906 1209.496094 652.003906 1222.804688 L 652.003906 1312.25 Z M 404.730469 1312.25 L 404.730469 1246.910156 L 504.261719 1246.910156 L 504.261719 1312.25 Z M 504.300781 606.042969 L 504.300781 671.386719 L 404.769531 671.386719 L 404.769531 606.042969 Z M 431.085938 719.59375 L 477.945312 719.59375 L 477.945312 1198.699219 L 431.085938 1198.699219 Z M 726.570312 1198.699219 L 726.570312 719.59375 L 773.429688 719.59375 L 773.429688 1198.699219 Z M 799.746094 671.386719 L 700.253906 671.386719 L 700.253906 606.042969 L 799.785156 606.042969 L 799.785156 671.386719 Z M 1022.015625 1198.699219 L 1022.015625 719.59375 L 1068.875 719.59375 L 1068.875 1198.699219 Z M 1095.230469 671.386719 L 995.738281 671.386719 L 995.738281 606.042969 L 1095.269531 606.042969 L 1095.269531 671.386719 Z M 208.816406 671.386719 L 109.285156 671.386719 L 109.285156 606.042969 L 208.816406 606.042969 Z M 182.460938 719.59375 L 182.460938 1198.699219 L 135.601562 1198.699219 L 135.601562 719.59375 Z M 230.671875 719.59375 L 232.882812 719.59375 C 246.191406 719.59375 256.988281 708.800781 256.988281 695.492188 L 256.988281 606.042969 L 356.519531 606.042969 L 356.519531 695.492188 C 356.519531 708.800781 367.316406 719.59375 380.625 719.59375 L 382.835938 719.59375 L 382.835938 1198.699219 L 380.625 1198.699219 C 367.316406 1198.699219 356.519531 1209.496094 356.519531 1222.804688 L 356.519531 1312.25 L 257.027344 1312.25 L 257.027344 1222.804688 C 257.027344 1209.496094 246.230469 1198.699219 232.921875 1198.699219 L 230.710938 1198.699219 L 230.710938 719.59375 Z M 109.285156 1312.25 L 109.285156 1246.910156 L 208.777344 1246.910156 L 208.777344 1312.25 Z M 90.878906 1425.804688 L 90.878906 1360.460938 L 1409.007812 1360.460938 L 1409.007812 1425.804688 Z M 1291.183594 1246.910156 L 1390.679688 1246.910156 L 1390.679688 1312.25 L 1291.144531 1312.25 L 1291.144531 1246.910156 Z M 1267.078125 1198.699219 C 1253.769531 1198.699219 1242.972656 1209.496094 1242.972656 1222.804688 L 1242.972656 1312.25 L 1143.441406 1312.25 L 1143.441406 1222.804688 C 1143.441406 1209.496094 1132.644531 1198.699219 1119.335938 1198.699219 L 1117.085938 1198.699219 L 1117.085938 719.597656 L 1119.335938 719.597656 C 1132.644531 719.597656 1143.441406 708.800781 1143.441406 695.492188 L 1143.441406 606.042969 L 1242.972656 606.042969 L 1242.972656 695.492188 C 1242.972656 708.800781 1253.769531 719.597656 1267.078125 719.597656 L 1269.289062 719.597656 L 1269.289062 1198.699219 Z M 1364.398438 1198.699219 L 1317.539062 1198.699219 L 1317.539062 719.59375 L 1364.398438 719.59375 Z M 200.792969 444.28125 L 367.765625 396.746094 L 1132.230469 396.746094 L 1299.207031 444.28125 Z M 200.792969 444.28125 " fill-opacity="1" fill-rule="nonzero"/></g></svg>