<svg xmlns="http://www.w3.org/2000/svg" xmlns:xlink="http://www.w3.org/1999/xlink" width="2000" zoomAndPan="magnify" viewBox="0 0 1500 430.499987" height="574" preserveAspectRatio="xMidYMid meet" version="1.0"><defs><g/><clipPath id="1da2648858"><path d="M 0.871094 0 L 1499.128906 0 L 1499.128906 430 L 0.871094 430 Z M 0.871094 0 " clip-rule="nonzero"/></clipPath><clipPath id="83e69e9713"><path d="M 0.871094 0 L 1392 0 L 1392 430 L 0.871094 430 Z M 0.871094 0 " clip-rule="nonzero"/></clipPath><clipPath id="16d68e021b"><path d="M 339 230 L 477.480469 230 L 477.480469 307 L 339 307 Z M 339 230 " clip-rule="nonzero"/></clipPath><clipPath id="dd64b11fc5"><path d="M 78 352.644531 L 186 352.644531 L 186 429.691406 L 78 429.691406 Z M 78 352.644531 " clip-rule="nonzero"/></clipPath><clipPath id="3c78b1c3fd"><path d="M 108.203125 414 L 140 414 L 140 429.691406 L 108.203125 429.691406 Z M 108.203125 414 " clip-rule="nonzero"/></clipPath><clipPath id="ffc617d734"><path d="M 154.199219 260.742188 L 278 260.742188 L 278 429.691406 L 154.199219 429.691406 Z M 154.199219 260.742188 " clip-rule="nonzero"/></clipPath><clipPath id="94345f6560"><rect x="0" width="1392" y="0" height="430"/></clipPath></defs><g clip-path="url(#1da2648858)"><path fill="#ffffff" d="M 0.871094 0 L 1499.128906 0 L 1499.128906 430 L 0.871094 430 Z M 0.871094 0 " fill-opacity="1" fill-rule="nonzero"/><path fill="#024caa" d="M 0.871094 0 L 1499.128906 0 L 1499.128906 430 L 0.871094 430 Z M 0.871094 0 " fill-opacity="1" fill-rule="nonzero"/></g><g clip-path="url(#83e69e9713)"><g transform="matrix(1, 0, 0, 1, 0.000000000000000222, 0)"><g clip-path="url(#94345f6560)"><path fill="#63c442" d="M 1.242188 153.484375 L 1.230469 138.125 L 16.609375 138.113281 L 16.597656 122.785156 L 47.335938 122.773438 L 47.328125 107.445312 L 62.695312 107.4375 L 62.679688 92.085938 L 108.78125 92.074219 L 108.789062 107.445312 L 93.421875 107.460938 L 93.4375 138.125 L 47.335938 138.136719 L 47.351562 153.484375 L 1.242188 153.484375 " fill-opacity="1" fill-rule="nonzero"/><path fill="#63c442" d="M 47.335938 138.125 L 47.335938 153.472656 L 1.242188 153.472656 L 1.242188 138.125 L 16.609375 138.125 L 16.609375 122.785156 L 47.335938 122.785156 L 47.335938 107.445312 L 62.695312 107.445312 L 62.695312 92.085938 L 108.78125 92.085938 L 108.78125 107.445312 L 93.421875 107.445312 L 93.421875 138.125 L 47.335938 138.125 " fill-opacity="1" fill-rule="nonzero"/><path fill="#63c442" d="M 262.394531 322.285156 L 262.386719 306.9375 L 293.117188 306.929688 L 293.109375 291.585938 L 308.484375 291.578125 L 308.492188 306.9375 L 323.851562 306.929688 L 323.859375 322.285156 L 262.394531 322.285156 " fill-opacity="1" fill-rule="nonzero"/><path fill="#63c442" d="M 308.484375 306.9375 L 323.851562 306.9375 L 323.851562 322.277344 L 262.394531 322.277344 L 262.394531 306.9375 L 293.117188 306.9375 L 293.117188 291.585938 L 308.484375 291.585938 L 308.484375 306.9375 " fill-opacity="1" fill-rule="nonzero"/><path fill="#63c442" d="M 62.695312 276.257812 L 62.679688 260.898438 L 78.046875 260.890625 L 78.039062 245.550781 L 93.421875 245.539062 L 93.414062 230.210938 L 139.496094 230.199219 L 139.507812 245.550781 L 124.144531 245.5625 L 124.152344 260.898438 L 93.421875 260.910156 L 93.4375 276.257812 L 62.695312 276.257812 " fill-opacity="1" fill-rule="nonzero"/><path fill="#63c442" d="M 139.496094 230.210938 L 139.496094 245.550781 L 124.144531 245.550781 L 124.144531 260.898438 L 93.421875 260.898438 L 93.421875 276.25 L 62.695312 276.25 L 62.695312 260.898438 L 78.046875 260.898438 L 78.046875 245.550781 L 93.421875 245.550781 L 93.421875 230.210938 L 139.496094 230.210938 " fill-opacity="1" fill-rule="nonzero"/><path fill="#63c442" d="M 108.78125 76.757812 L 108.765625 46.046875 L 124.144531 46.039062 L 124.132812 30.710938 L 139.496094 30.699219 L 139.488281 15.355469 L 170.230469 15.347656 L 170.214844 0.0078125 L 247.042969 0 L 247.054688 15.355469 L 231.667969 15.371094 L 231.679688 30.710938 L 216.316406 30.71875 L 216.324219 46.046875 L 139.496094 46.058594 L 139.507812 61.386719 L 124.144531 61.394531 L 124.152344 76.757812 L 108.78125 76.757812 " fill-opacity="1" fill-rule="nonzero"/><path fill="#63c442" d="M 231.667969 30.710938 L 216.316406 30.710938 L 216.316406 46.046875 L 139.496094 46.046875 L 139.496094 61.386719 L 124.144531 61.386719 L 124.144531 76.75 L 108.78125 76.75 L 108.78125 46.046875 L 124.144531 46.046875 L 124.144531 30.710938 L 139.496094 30.710938 L 139.496094 15.355469 L 170.230469 15.355469 L 170.230469 0.0078125 L 247.042969 0.0078125 L 247.042969 15.355469 L 231.667969 15.355469 L 231.667969 30.710938 " fill-opacity="1" fill-rule="nonzero"/><path fill="#63c442" d="M 231.667969 184.183594 L 231.660156 168.820312 L 262.394531 168.8125 L 262.386719 153.472656 L 277.753906 153.464844 L 277.738281 138.125 L 308.484375 138.113281 L 308.472656 122.785156 L 354.558594 122.773438 L 354.566406 168.820312 L 308.484375 168.832031 L 308.492188 184.183594 L 231.667969 184.183594 " fill-opacity="1" fill-rule="nonzero"/><path fill="#63c442" d="M 231.667969 184.175781 L 231.667969 168.820312 L 262.394531 168.820312 L 262.394531 153.472656 L 277.753906 153.472656 L 277.753906 138.125 L 308.484375 138.125 L 308.484375 122.785156 L 354.558594 122.785156 L 354.558594 168.820312 L 308.484375 168.820312 L 308.484375 184.175781 L 231.667969 184.175781 " fill-opacity="1" fill-rule="nonzero"/><path fill="#63c442" d="M 308.484375 260.910156 L 308.472656 245.550781 L 323.851562 245.539062 L 323.835938 230.210938 L 354.558594 230.199219 L 354.546875 214.851562 L 385.289062 214.839844 L 385.277344 199.511719 L 416.019531 199.503906 L 416.027344 214.851562 L 400.664062 214.859375 L 400.675781 230.210938 L 369.933594 230.222656 L 369.945312 245.550781 L 339.203125 245.5625 L 339.214844 260.910156 L 308.484375 260.910156 " fill-opacity="1" fill-rule="nonzero"/><path fill="#63c442" d="M 416.019531 199.511719 L 416.019531 214.851562 L 400.664062 214.851562 L 400.664062 230.210938 L 369.933594 230.210938 L 369.933594 245.550781 L 339.203125 245.550781 L 339.203125 260.898438 L 308.484375 260.898438 L 308.484375 245.550781 L 323.851562 245.550781 L 323.851562 230.210938 L 354.558594 230.210938 L 354.558594 214.851562 L 385.289062 214.851562 L 385.289062 199.511719 L 416.019531 199.511719 " fill-opacity="1" fill-rule="nonzero"/><path fill="#398b40" d="M 47.335938 291.601562 L 47.328125 276.25 L 31.960938 276.257812 L 31.953125 260.898438 L 47.335938 260.890625 L 47.328125 245.550781 L 78.046875 245.539062 L 78.058594 260.898438 L 62.695312 260.910156 L 62.703125 276.25 L 93.421875 276.238281 L 93.414062 260.898438 L 124.144531 260.890625 L 124.132812 245.550781 L 170.230469 245.539062 L 170.238281 260.898438 L 139.496094 260.910156 L 139.507812 276.25 L 124.144531 276.257812 L 124.152344 291.601562 L 47.335938 291.601562 " fill-opacity="1" fill-rule="nonzero"/><path fill="#398b40" d="M 170.230469 245.550781 L 170.230469 260.898438 L 139.496094 260.898438 L 139.496094 276.25 L 124.144531 276.25 L 124.144531 291.585938 L 47.335938 291.585938 L 47.335938 276.25 L 31.960938 276.25 L 31.960938 260.898438 L 47.335938 260.898438 L 47.335938 245.550781 L 78.046875 245.550781 L 78.046875 260.898438 L 62.695312 260.898438 L 62.695312 276.25 L 93.421875 276.25 L 93.421875 260.898438 L 124.144531 260.898438 L 124.144531 245.550781 L 170.230469 245.550781 " fill-opacity="1" fill-rule="nonzero"/><path fill="#398b40" d="M 16.609375 168.832031 L 16.597656 153.472656 L 47.335938 153.464844 L 47.328125 138.125 L 93.421875 138.113281 L 93.414062 107.445312 L 108.78125 107.4375 L 108.765625 92.085938 L 124.144531 92.074219 L 124.152344 107.445312 L 154.859375 107.4375 L 154.875 122.785156 L 185.582031 122.773438 L 185.574219 107.445312 L 170.230469 107.460938 L 170.214844 92.085938 L 139.496094 92.097656 L 139.488281 76.75 L 124.144531 76.757812 L 124.132812 61.386719 L 139.496094 61.375 L 139.488281 46.046875 L 216.316406 46.039062 L 216.300781 30.710938 L 293.117188 30.699219 L 293.128906 46.046875 L 308.484375 46.039062 L 308.492188 61.386719 L 323.851562 61.375 L 323.859375 76.75 L 308.484375 76.757812 L 308.492188 92.085938 L 262.394531 92.097656 L 262.410156 107.445312 L 247.042969 107.460938 L 247.054688 122.785156 L 200.9375 122.796875 L 200.945312 138.125 L 170.230469 138.136719 L 170.238281 153.472656 L 93.421875 153.484375 L 93.4375 168.832031 L 16.609375 168.832031 " fill-opacity="1" fill-rule="nonzero"/><path fill="#398b40" d="M 200.9375 138.125 L 170.230469 138.125 L 170.230469 153.472656 L 93.421875 153.472656 L 93.421875 168.820312 L 16.609375 168.820312 L 16.609375 153.472656 L 47.335938 153.472656 L 47.335938 138.125 L 93.421875 138.125 L 93.421875 107.445312 L 108.78125 107.445312 L 108.78125 92.085938 L 124.144531 92.085938 L 124.144531 107.445312 L 154.859375 107.445312 L 154.859375 122.785156 L 185.582031 122.785156 L 185.582031 107.445312 L 170.230469 107.445312 L 170.230469 92.085938 L 139.496094 92.085938 L 139.496094 76.75 L 124.144531 76.75 L 124.144531 61.386719 L 139.496094 61.386719 L 139.496094 46.046875 L 216.316406 46.046875 L 216.316406 30.710938 L 293.117188 30.710938 L 293.117188 46.046875 L 308.484375 46.046875 L 308.484375 61.386719 L 323.851562 61.386719 L 323.851562 76.75 L 308.484375 76.75 L 308.484375 92.085938 L 262.394531 92.085938 L 262.394531 107.445312 L 247.042969 107.445312 L 247.042969 122.785156 L 200.9375 122.785156 L 200.9375 138.125 " fill-opacity="1" fill-rule="nonzero"/><path fill="#398b40" d="M 200.9375 337.632812 L 200.925781 322.277344 L 216.316406 322.265625 L 216.300781 306.9375 L 262.394531 306.929688 L 262.410156 322.277344 L 247.042969 322.285156 L 247.054688 337.632812 L 200.9375 337.632812 " fill-opacity="1" fill-rule="nonzero"/><path fill="#398b40" d="M 262.394531 306.9375 L 262.394531 322.277344 L 247.042969 322.277344 L 247.042969 337.625 L 200.9375 337.625 L 200.9375 322.277344 L 216.316406 322.277344 L 216.316406 306.9375 L 262.394531 306.9375 " fill-opacity="1" fill-rule="nonzero"/><path fill="#398b40" d="M 354.558594 168.832031 L 354.546875 138.125 L 369.933594 138.113281 L 369.945312 168.832031 L 354.558594 168.832031 " fill-opacity="1" fill-rule="nonzero"/><path fill="#398b40" d="M 369.933594 168.820312 L 354.558594 168.820312 L 354.558594 138.125 L 369.933594 138.125 L 369.933594 168.820312 " fill-opacity="1" fill-rule="nonzero"/><path fill="#398b40" d="M 277.753906 337.632812 L 277.738281 322.277344 L 323.851562 322.265625 L 323.835938 306.9375 L 308.484375 306.949219 L 308.472656 276.25 L 339.203125 276.238281 L 339.214844 291.585938 L 354.558594 291.578125 L 354.566406 322.277344 L 385.289062 322.265625 L 385.300781 337.632812 L 277.753906 337.632812 " fill-opacity="1" fill-rule="nonzero"/><path fill="#398b40" d="M 339.203125 276.25 L 339.203125 291.585938 L 354.558594 291.585938 L 354.558594 322.277344 L 385.289062 322.277344 L 385.289062 337.625 L 277.753906 337.625 L 277.753906 322.277344 L 323.851562 322.277344 L 323.851562 306.9375 L 308.484375 306.9375 L 308.484375 276.25 L 339.203125 276.25 " fill-opacity="1" fill-rule="nonzero"/><path fill="#398b40" d="M 231.667969 199.523438 L 231.660156 184.175781 L 308.484375 184.160156 L 308.472656 168.820312 L 354.558594 168.8125 L 354.566406 184.175781 L 323.851562 184.183594 L 323.859375 199.523438 L 231.667969 199.523438 " fill-opacity="1" fill-rule="nonzero"/><path fill="#398b40" d="M 354.558594 168.820312 L 354.558594 184.175781 L 323.851562 184.175781 L 323.851562 199.511719 L 231.667969 199.511719 L 231.667969 184.175781 L 308.484375 184.175781 L 308.484375 168.820312 L 354.558594 168.820312 " fill-opacity="1" fill-rule="nonzero"/><path fill="#398b40" d="M 262.394531 306.949219 L 262.386719 291.585938 L 293.117188 291.578125 L 293.128906 306.949219 L 262.394531 306.949219 " fill-opacity="1" fill-rule="nonzero"/><path fill="#398b40" d="M 262.394531 306.9375 L 262.394531 291.585938 L 293.117188 291.585938 L 293.117188 306.9375 L 262.394531 306.9375 " fill-opacity="1" fill-rule="nonzero"/><path fill="#398b40" d="M 385.289062 291.601562 L 385.277344 276.25 L 339.203125 276.257812 L 339.195312 245.550781 L 369.933594 245.539062 L 369.921875 230.210938 L 400.664062 230.199219 L 400.65625 214.851562 L 431.371094 214.839844 L 431.386719 260.898438 L 446.742188 260.890625 L 446.75 276.25 L 416.019531 276.257812 L 416.027344 291.601562 L 385.289062 291.601562 " fill-opacity="1" fill-rule="nonzero"/><path fill="#398b40" d="M 446.742188 260.898438 L 446.742188 276.25 L 416.019531 276.25 L 416.019531 291.585938 L 385.289062 291.585938 L 385.289062 276.25 L 339.203125 276.25 L 339.203125 245.550781 L 369.933594 245.550781 L 369.933594 230.210938 L 400.664062 230.210938 L 400.664062 214.851562 L 431.371094 214.851562 L 431.371094 260.898438 L 446.742188 260.898438 " fill-opacity="1" fill-rule="nonzero"/><path fill="#1f373a" d="M 262.394531 291.601562 L 262.386719 276.25 L 308.484375 276.238281 L 308.492188 291.601562 L 262.394531 291.601562 " fill-opacity="1" fill-rule="nonzero"/><path fill="#1f373a" d="M 262.394531 291.585938 L 262.394531 276.25 L 308.484375 276.25 L 308.484375 291.585938 L 262.394531 291.585938 " fill-opacity="1" fill-rule="nonzero"/><path fill="#1f373a" d="M 247.042969 352.988281 L 247.035156 322.277344 L 277.753906 322.265625 L 277.765625 337.625 L 339.203125 337.617188 L 339.214844 352.988281 L 247.042969 352.988281 " fill-opacity="1" fill-rule="nonzero"/><path fill="#1f373a" d="M 339.203125 337.625 L 339.203125 352.976562 L 247.042969 352.976562 L 247.042969 322.277344 L 277.753906 322.277344 L 277.753906 337.625 L 339.203125 337.625 " fill-opacity="1" fill-rule="nonzero"/><path fill="#1f373a" d="M 323.851562 276.257812 L 323.835938 260.898438 L 339.203125 260.890625 L 339.214844 276.257812 L 323.851562 276.257812 " fill-opacity="1" fill-rule="nonzero"/><path fill="#1f373a" d="M 339.203125 260.898438 L 339.203125 276.25 L 323.851562 276.25 L 323.851562 260.898438 L 339.203125 260.898438 " fill-opacity="1" fill-rule="nonzero"/><path fill="#1f373a" d="M 277.753906 214.859375 L 277.738281 199.511719 L 323.851562 199.503906 L 323.835938 184.175781 L 354.558594 184.160156 L 354.546875 168.820312 L 369.933594 168.8125 L 369.921875 153.472656 L 385.289062 153.464844 L 385.300781 184.175781 L 369.933594 184.183594 L 369.945312 199.511719 L 339.203125 199.523438 L 339.214844 214.859375 L 277.753906 214.859375 " fill-opacity="1" fill-rule="nonzero"/><path fill="#1f373a" d="M 354.558594 184.175781 L 354.558594 168.820312 L 369.933594 168.820312 L 369.933594 153.472656 L 385.289062 153.472656 L 385.289062 184.175781 L 369.933594 184.175781 L 369.933594 199.511719 L 339.203125 199.511719 L 339.203125 214.851562 L 277.753906 214.851562 L 277.753906 199.511719 L 323.851562 199.511719 L 323.851562 184.175781 L 354.558594 184.175781 " fill-opacity="1" fill-rule="nonzero"/><g clip-path="url(#16d68e021b)"><path fill="#1f373a" d="M 369.933594 306.949219 L 369.921875 291.585938 L 339.203125 291.601562 L 339.195312 276.25 L 385.289062 276.238281 L 385.300781 291.585938 L 416.019531 291.578125 L 416.007812 276.25 L 446.742188 276.238281 L 446.730469 260.898438 L 431.371094 260.910156 L 431.363281 230.210938 L 446.742188 230.199219 L 446.75 245.550781 L 462.105469 245.539062 L 462.113281 260.898438 L 477.472656 260.890625 L 477.480469 276.25 L 462.105469 276.257812 L 462.113281 291.585938 L 431.371094 291.601562 L 431.386719 306.949219 L 369.933594 306.949219 " fill-opacity="1" fill-rule="nonzero"/><path fill="#1f373a" d="M 477.472656 260.898438 L 477.472656 276.25 L 462.105469 276.25 L 462.105469 291.585938 L 431.371094 291.585938 L 431.371094 306.9375 L 369.933594 306.9375 L 369.933594 291.585938 L 339.203125 291.585938 L 339.203125 276.25 L 385.289062 276.25 L 385.289062 291.585938 L 416.019531 291.585938 L 416.019531 276.25 L 446.742188 276.25 L 446.742188 260.898438 L 431.371094 260.898438 L 431.371094 230.210938 L 446.742188 230.210938 L 446.742188 245.550781 L 462.105469 245.550781 L 462.105469 260.898438 L 477.472656 260.898438 " fill-opacity="1" fill-rule="nonzero"/></g><path fill="#1f373a" d="M 154.859375 122.796875 L 154.851562 107.445312 L 124.144531 107.460938 L 124.132812 92.085938 L 108.78125 92.097656 L 108.765625 76.75 L 139.496094 76.734375 L 139.507812 92.085938 L 170.230469 92.074219 L 170.238281 107.445312 L 185.582031 107.4375 L 185.59375 122.796875 L 154.859375 122.796875 " fill-opacity="1" fill-rule="nonzero"/><path fill="#1f373a" d="M 124.144531 92.085938 L 108.78125 92.085938 L 108.78125 76.75 L 139.496094 76.75 L 139.496094 92.085938 L 170.230469 92.085938 L 170.230469 107.445312 L 185.582031 107.445312 L 185.582031 122.785156 L 154.859375 122.785156 L 154.859375 107.445312 L 124.144531 107.445312 L 124.144531 92.085938 " fill-opacity="1" fill-rule="nonzero"/><path fill="#1f373a" d="M 78.046875 199.523438 L 78.039062 184.175781 L 62.695312 184.183594 L 62.679688 168.820312 L 93.421875 168.8125 L 93.414062 153.472656 L 170.230469 153.464844 L 170.214844 138.125 L 200.9375 138.113281 L 200.925781 122.785156 L 247.042969 122.773438 L 247.035156 107.445312 L 262.394531 107.4375 L 262.386719 92.085938 L 308.484375 92.074219 L 308.472656 76.75 L 339.203125 76.734375 L 339.214844 92.085938 L 323.851562 92.097656 L 323.859375 107.445312 L 277.753906 107.460938 L 277.765625 122.785156 L 262.394531 122.796875 L 262.410156 138.125 L 216.316406 138.136719 L 216.324219 153.472656 L 185.582031 153.484375 L 185.59375 168.820312 L 124.144531 168.832031 L 124.152344 184.175781 L 108.78125 184.183594 L 108.789062 199.523438 L 78.046875 199.523438 " fill-opacity="1" fill-rule="nonzero"/><path fill="#1f373a" d="M 216.316406 138.125 L 216.316406 153.472656 L 185.582031 153.472656 L 185.582031 168.820312 L 124.144531 168.820312 L 124.144531 184.175781 L 108.78125 184.175781 L 108.78125 199.511719 L 78.046875 199.511719 L 78.046875 184.175781 L 62.695312 184.175781 L 62.695312 168.820312 L 93.421875 168.820312 L 93.421875 153.472656 L 170.230469 153.472656 L 170.230469 138.125 L 200.9375 138.125 L 200.9375 122.785156 L 247.042969 122.785156 L 247.042969 107.445312 L 262.394531 107.445312 L 262.394531 92.085938 L 308.484375 92.085938 L 308.484375 76.75 L 339.203125 76.75 L 339.203125 92.085938 L 323.851562 92.085938 L 323.851562 107.445312 L 277.753906 107.445312 L 277.753906 122.785156 L 262.394531 122.785156 L 262.394531 138.125 L 216.316406 138.125 " fill-opacity="1" fill-rule="nonzero"/><path fill="#1f373a" d="M 139.496094 245.5625 L 139.488281 230.210938 L 154.859375 230.199219 L 154.875 245.5625 L 139.496094 245.5625 " fill-opacity="1" fill-rule="nonzero"/><path fill="#1f373a" d="M 154.859375 245.550781 L 139.496094 245.550781 L 139.496094 230.210938 L 154.859375 230.210938 L 154.859375 245.550781 " fill-opacity="1" fill-rule="nonzero"/><path fill="#1f373a" d="M 78.046875 306.949219 L 78.039062 291.585938 L 124.144531 291.578125 L 124.132812 276.25 L 139.496094 276.238281 L 139.488281 260.898438 L 185.582031 260.890625 L 185.59375 276.25 L 154.859375 276.257812 L 154.875 291.585938 L 139.496094 291.601562 L 139.507812 306.949219 L 78.046875 306.949219 " fill-opacity="1" fill-rule="nonzero"/><path fill="#1f373a" d="M 185.582031 260.898438 L 185.582031 276.25 L 154.859375 276.25 L 154.859375 291.585938 L 139.496094 291.585938 L 139.496094 306.9375 L 78.046875 306.9375 L 78.046875 291.585938 L 124.144531 291.585938 L 124.144531 276.25 L 139.496094 276.25 L 139.496094 260.898438 L 185.582031 260.898438 " fill-opacity="1" fill-rule="nonzero"/><path fill="#1f373a" d="M 231.667969 306.949219 L 231.660156 291.585938 L 262.394531 291.578125 L 262.410156 306.949219 L 231.667969 306.949219 " fill-opacity="1" fill-rule="nonzero"/><path fill="#1f373a" d="M 231.667969 306.9375 L 231.667969 291.585938 L 262.394531 291.585938 L 262.394531 306.9375 L 231.667969 306.9375 " fill-opacity="1" fill-rule="nonzero"/><path fill="#5c4f2f" d="M 185.582031 260.910156 L 185.574219 245.550781 L 200.9375 245.539062 L 200.945312 260.910156 L 185.582031 260.910156 " fill-opacity="1" fill-rule="nonzero"/><path fill="#5c4f2f" d="M 200.9375 245.550781 L 200.9375 260.898438 L 185.582031 260.898438 L 185.582031 245.550781 L 200.9375 245.550781 " fill-opacity="1" fill-rule="nonzero"/><path fill="#5c4f2f" d="M 93.421875 230.222656 L 93.414062 214.851562 L 108.78125 214.839844 L 108.789062 230.222656 L 93.421875 230.222656 " fill-opacity="1" fill-rule="nonzero"/><path fill="#5c4f2f" d="M 108.78125 230.210938 L 93.421875 230.210938 L 93.421875 214.851562 L 108.78125 214.851562 L 108.78125 230.210938 " fill-opacity="1" fill-rule="nonzero"/><path fill="#5c4f2f" d="M 108.78125 214.859375 L 108.765625 199.511719 L 124.144531 199.503906 L 124.152344 214.859375 L 108.78125 214.859375 " fill-opacity="1" fill-rule="nonzero"/><path fill="#5c4f2f" d="M 124.144531 214.851562 L 108.78125 214.851562 L 108.78125 199.511719 L 124.144531 199.511719 L 124.144531 214.851562 " fill-opacity="1" fill-rule="nonzero"/><path fill="#5c4f2f" d="M 78.046875 245.5625 L 78.039062 230.210938 L 93.421875 230.199219 L 93.4375 245.5625 L 78.046875 245.5625 " fill-opacity="1" fill-rule="nonzero"/><path fill="#5c4f2f" d="M 93.421875 245.550781 L 78.046875 245.550781 L 78.046875 230.210938 L 93.421875 230.210938 L 93.421875 245.550781 " fill-opacity="1" fill-rule="nonzero"/><path fill="#5c4f2f" d="M 124.144531 184.183594 L 124.132812 168.820312 L 139.496094 168.8125 L 139.507812 184.183594 L 124.144531 184.183594 " fill-opacity="1" fill-rule="nonzero"/><path fill="#5c4f2f" d="M 139.496094 184.175781 L 124.144531 184.175781 L 124.144531 168.820312 L 139.496094 168.820312 L 139.496094 184.175781 " fill-opacity="1" fill-rule="nonzero"/><g clip-path="url(#dd64b11fc5)"><path fill="#5c4f2f" d="M 139.496094 429.722656 L 139.488281 414.355469 L 108.78125 414.363281 L 108.789062 429.714844 L 78.046875 429.722656 L 78.039062 414.355469 L 93.421875 414.339844 L 93.414062 383.675781 L 108.78125 383.664062 L 108.765625 368.316406 L 139.496094 368.304688 L 139.488281 352.976562 L 170.230469 352.964844 L 170.238281 368.316406 L 185.582031 368.304688 L 185.59375 383.675781 L 170.230469 383.683594 L 170.238281 429.722656 L 139.496094 429.722656 " fill-opacity="1" fill-rule="nonzero"/><path fill="#5c4f2f" d="M 170.230469 368.316406 L 185.582031 368.316406 L 185.582031 383.675781 L 170.230469 383.675781 L 170.230469 429.714844 L 139.496094 429.714844 L 139.496094 414.355469 L 108.78125 414.355469 L 108.78125 429.714844 L 78.046875 429.714844 L 78.046875 414.355469 L 93.421875 414.355469 L 93.421875 383.675781 L 108.78125 383.675781 L 108.78125 368.316406 L 139.496094 368.316406 L 139.496094 352.976562 L 170.230469 352.976562 L 170.230469 368.316406 " fill-opacity="1" fill-rule="nonzero"/></g><path fill="#5c4f2f" d="M 200.9375 306.949219 L 200.925781 291.585938 L 185.582031 291.601562 L 185.574219 276.25 L 200.9375 276.238281 L 200.925781 260.898438 L 216.316406 260.890625 L 216.324219 276.25 L 231.667969 276.238281 L 231.679688 291.585938 L 216.316406 291.601562 L 216.324219 306.949219 L 200.9375 306.949219 " fill-opacity="1" fill-rule="nonzero"/><path fill="#5c4f2f" d="M 231.667969 276.25 L 231.667969 291.585938 L 216.316406 291.585938 L 216.316406 306.9375 L 200.9375 306.9375 L 200.9375 291.585938 L 185.582031 291.585938 L 185.582031 276.25 L 200.9375 276.25 L 200.9375 260.898438 L 216.316406 260.898438 L 216.316406 276.25 L 231.667969 276.25 " fill-opacity="1" fill-rule="nonzero"/><path fill="#3a301e" d="M 170.230469 260.910156 L 170.214844 245.550781 L 185.582031 245.539062 L 185.59375 260.910156 L 170.230469 260.910156 " fill-opacity="1" fill-rule="nonzero"/><path fill="#3a301e" d="M 185.582031 245.550781 L 185.582031 260.898438 L 170.230469 260.898438 L 170.230469 245.550781 L 185.582031 245.550781 " fill-opacity="1" fill-rule="nonzero"/><path fill="#3a301e" d="M 139.496094 399.027344 L 139.488281 383.675781 L 154.859375 383.664062 L 154.875 399.027344 L 139.496094 399.027344 " fill-opacity="1" fill-rule="nonzero"/><path fill="#3a301e" d="M 139.496094 383.675781 L 154.859375 383.675781 L 154.859375 399.011719 L 139.496094 399.011719 L 139.496094 383.675781 " fill-opacity="1" fill-rule="nonzero"/><path fill="#3a301e" d="M 108.78125 230.222656 L 108.765625 214.851562 L 124.144531 214.839844 L 124.132812 184.175781 L 139.496094 184.160156 L 139.488281 168.820312 L 216.316406 168.8125 L 216.324219 184.175781 L 231.667969 184.160156 L 231.679688 199.511719 L 170.230469 199.523438 L 170.238281 214.851562 L 139.496094 214.859375 L 139.507812 230.222656 L 108.78125 230.222656 " fill-opacity="1" fill-rule="nonzero"/><path fill="#3a301e" d="M 108.78125 230.210938 L 108.78125 214.851562 L 124.144531 214.851562 L 124.144531 184.175781 L 139.496094 184.175781 L 139.496094 168.820312 L 216.316406 168.820312 L 216.316406 184.175781 L 231.667969 184.175781 L 231.667969 199.511719 L 170.230469 199.511719 L 170.230469 214.851562 L 139.496094 214.851562 L 139.496094 230.210938 L 108.78125 230.210938 " fill-opacity="1" fill-rule="nonzero"/><g clip-path="url(#3c78b1c3fd)"><path fill="#3a301e" d="M 108.78125 429.722656 L 108.765625 414.355469 L 139.496094 414.339844 L 139.507812 429.722656 L 108.78125 429.722656 " fill-opacity="1" fill-rule="nonzero"/><path fill="#3a301e" d="M 139.496094 414.355469 L 139.496094 429.714844 L 108.78125 429.714844 L 108.78125 414.355469 L 139.496094 414.355469 " fill-opacity="1" fill-rule="nonzero"/></g><g clip-path="url(#ffc617d734)"><path fill="#3a301e" d="M 170.230469 429.722656 L 170.214844 383.675781 L 185.582031 383.664062 L 185.574219 368.316406 L 170.230469 368.324219 L 170.214844 337.625 L 185.582031 337.617188 L 185.574219 306.9375 L 170.230469 306.949219 L 170.214844 291.585938 L 154.859375 291.601562 L 154.851562 276.25 L 185.582031 276.238281 L 185.574219 260.898438 L 200.9375 260.890625 L 200.945312 276.25 L 216.316406 276.238281 L 216.300781 260.898438 L 231.667969 260.890625 L 231.679688 276.25 L 262.394531 276.238281 L 262.410156 291.585938 L 231.667969 291.601562 L 231.679688 306.9375 L 216.316406 306.949219 L 216.324219 322.277344 L 200.9375 322.285156 L 200.945312 337.625 L 247.042969 337.617188 L 247.054688 352.976562 L 216.316406 352.988281 L 216.324219 368.316406 L 231.667969 368.304688 L 231.679688 383.675781 L 247.042969 383.664062 L 247.054688 399.011719 L 262.394531 399.003906 L 262.410156 414.355469 L 277.753906 414.339844 L 277.765625 429.722656 L 170.230469 429.722656 " fill-opacity="1" fill-rule="nonzero"/><path fill="#3a301e" d="M 277.753906 414.355469 L 277.753906 429.714844 L 170.230469 429.714844 L 170.230469 383.675781 L 185.582031 383.675781 L 185.582031 368.316406 L 170.230469 368.316406 L 170.230469 337.625 L 185.582031 337.625 L 185.582031 306.9375 L 170.230469 306.9375 L 170.230469 291.585938 L 154.859375 291.585938 L 154.859375 276.25 L 185.582031 276.25 L 185.582031 260.898438 L 200.9375 260.898438 L 200.9375 276.25 L 216.316406 276.25 L 216.316406 260.898438 L 231.667969 260.898438 L 231.667969 276.25 L 262.394531 276.25 L 262.394531 291.585938 L 231.667969 291.585938 L 231.667969 306.9375 L 216.316406 306.9375 L 216.316406 322.277344 L 200.9375 322.277344 L 200.9375 337.625 L 247.042969 337.625 L 247.042969 352.976562 L 216.316406 352.976562 L 216.316406 368.316406 L 231.667969 368.316406 L 231.667969 383.675781 L 247.042969 383.675781 L 247.042969 399.011719 L 262.394531 399.011719 L 262.394531 414.355469 L 277.753906 414.355469 " fill-opacity="1" fill-rule="nonzero"/></g><g fill="#ffffff" fill-opacity="1"><g transform="translate(585.584804, 285.216575)"><g><path d="M 13.75 34.359375 L 13.75 -95.4375 L 22.90625 -95.4375 L 26.15625 -82.46875 L 27.109375 -82.46875 C 28.378906 -84.25 30.445312 -86.285156 33.3125 -88.578125 C 36.175781 -90.867188 39.738281 -92.90625 44 -94.6875 C 48.257812 -96.46875 52.8125 -97.359375 57.65625 -97.359375 C 65.664062 -97.359375 73.007812 -95.253906 79.6875 -91.046875 C 86.375 -86.847656 91.6875 -80.960938 95.625 -73.390625 C 99.570312 -65.828125 101.546875 -57.269531 101.546875 -47.71875 C 101.546875 -38.175781 99.570312 -29.617188 95.625 -22.046875 C 91.6875 -14.472656 86.375 -8.585938 79.6875 -4.390625 C 73.007812 -0.191406 65.664062 1.90625 57.65625 1.90625 C 52.8125 1.90625 48.257812 1.015625 44 -0.765625 C 39.738281 -2.546875 36.144531 -4.582031 33.21875 -6.875 C 30.289062 -9.164062 28.253906 -11.203125 27.109375 -12.984375 L 26.15625 -12.984375 L 26.15625 34.359375 Z M 57.65625 -9.734375 C 63.375 -9.734375 68.648438 -11.320312 73.484375 -14.5 C 78.328125 -17.6875 82.144531 -22.175781 84.9375 -27.96875 C 87.738281 -33.757812 89.140625 -40.34375 89.140625 -47.71875 C 89.140625 -55.101562 87.738281 -61.691406 84.9375 -67.484375 C 82.144531 -73.273438 78.328125 -77.757812 73.484375 -80.9375 C 68.648438 -84.113281 63.375 -85.703125 57.65625 -85.703125 C 51.925781 -85.703125 46.640625 -84.113281 41.796875 -80.9375 C 36.960938 -77.757812 33.144531 -73.273438 30.34375 -67.484375 C 27.550781 -61.691406 26.15625 -55.101562 26.15625 -47.71875 C 26.15625 -40.34375 27.550781 -33.757812 30.34375 -27.96875 C 33.144531 -22.175781 36.960938 -17.6875 41.796875 -14.5 C 46.640625 -11.320312 51.925781 -9.734375 57.65625 -9.734375 Z M 57.65625 -9.734375 "/></g></g></g><g fill="#ffffff" fill-opacity="1"><g transform="translate(694.575923, 285.216575)"><g><path d="M 62.046875 -67.765625 L 106.140625 0 L 90.484375 0 L 54.21875 -56.890625 L 17.5625 0 L 2.859375 0 L 46.765625 -67.765625 L 4.96875 -133.625 L 20.234375 -133.625 L 54.78125 -78.84375 L 89.140625 -133.625 L 104.03125 -133.625 Z M 62.046875 -67.765625 "/></g></g></g><g fill="#ffffff" fill-opacity="1"><g transform="translate(797.840102, 285.216575)"><g/></g></g><g fill="#ffffff" fill-opacity="1"><g transform="translate(843.26897, 285.216575)"><g><path d="M 51.34375 1.90625 C 43.332031 1.90625 35.984375 -0.191406 29.296875 -4.390625 C 22.617188 -8.585938 17.304688 -14.472656 13.359375 -22.046875 C 9.410156 -29.617188 7.4375 -38.175781 7.4375 -47.71875 C 7.4375 -57.269531 9.410156 -65.828125 13.359375 -73.390625 C 17.304688 -80.960938 22.617188 -86.847656 29.296875 -91.046875 C 35.984375 -95.253906 43.332031 -97.359375 51.34375 -97.359375 C 56.1875 -97.359375 60.738281 -96.46875 65 -94.6875 C 69.257812 -92.90625 72.851562 -90.867188 75.78125 -88.578125 C 78.707031 -86.285156 80.742188 -84.25 81.890625 -82.46875 L 82.84375 -82.46875 L 82.84375 -133.625 L 95.25 -133.625 L 95.25 0 L 86.09375 0 L 82.84375 -12.984375 L 81.890625 -12.984375 C 80.617188 -11.203125 78.550781 -9.164062 75.6875 -6.875 C 72.820312 -4.582031 69.257812 -2.546875 65 -0.765625 C 60.738281 1.015625 56.1875 1.90625 51.34375 1.90625 Z M 51.34375 -9.734375 C 57.070312 -9.734375 62.351562 -11.320312 67.1875 -14.5 C 72.03125 -17.6875 75.847656 -22.175781 78.640625 -27.96875 C 81.441406 -33.757812 82.84375 -40.34375 82.84375 -47.71875 C 82.84375 -55.101562 81.441406 -61.691406 78.640625 -67.484375 C 75.847656 -73.273438 72.03125 -77.757812 67.1875 -80.9375 C 62.351562 -84.113281 57.070312 -85.703125 51.34375 -85.703125 C 45.625 -85.703125 40.34375 -84.113281 35.5 -80.9375 C 30.664062 -77.757812 26.847656 -73.273438 24.046875 -67.484375 C 21.253906 -61.691406 19.859375 -55.101562 19.859375 -47.71875 C 19.859375 -40.34375 21.253906 -33.757812 24.046875 -27.96875 C 26.847656 -22.175781 30.664062 -17.6875 35.5 -14.5 C 40.34375 -11.320312 45.625 -9.734375 51.34375 -9.734375 Z M 51.34375 -9.734375 "/></g></g></g><g fill="#ffffff" fill-opacity="1"><g transform="translate(953.214509, 285.216575)"><g><path d="M 95.0625 -50.59375 C 95.0625 -46.644531 94.804688 -43.648438 94.296875 -41.609375 L 20.234375 -41.609375 C 21.253906 -31.816406 24.722656 -24.054688 30.640625 -18.328125 C 36.554688 -12.597656 43.90625 -9.734375 52.6875 -9.734375 C 64.394531 -9.734375 73.238281 -14.757812 79.21875 -24.8125 L 91.625 -24.8125 C 88.695312 -17.050781 83.671875 -10.65625 76.546875 -5.625 C 69.421875 -0.601562 61.335938 1.90625 52.296875 1.90625 C 43.898438 1.90625 36.296875 -0.191406 29.484375 -4.390625 C 22.679688 -8.585938 17.304688 -14.441406 13.359375 -21.953125 C 9.410156 -29.460938 7.4375 -38.050781 7.4375 -47.71875 C 7.4375 -57.132812 9.441406 -65.628906 13.453125 -73.203125 C 17.460938 -80.773438 22.90625 -86.691406 29.78125 -90.953125 C 36.65625 -95.222656 44.160156 -97.359375 52.296875 -97.359375 C 60.316406 -97.359375 67.601562 -95.289062 74.15625 -91.15625 C 80.707031 -87.019531 85.828125 -81.382812 89.515625 -74.25 C 93.210938 -67.125 95.0625 -59.238281 95.0625 -50.59375 Z M 52.296875 -85.703125 C 46.953125 -85.703125 41.957031 -84.332031 37.3125 -81.59375 C 32.675781 -78.863281 28.796875 -74.984375 25.671875 -69.953125 C 22.554688 -64.929688 20.679688 -59.238281 20.046875 -52.875 L 82.46875 -52.875 C 81.832031 -62.414062 78.710938 -70.269531 73.109375 -76.4375 C 67.515625 -82.613281 60.578125 -85.703125 52.296875 -85.703125 Z M 52.296875 -85.703125 "/></g></g></g><g fill="#ffffff" fill-opacity="1"><g transform="translate(1055.715784, 285.216575)"><g><path d="M 42.5625 1.90625 C 36.070312 1.90625 30.21875 0.539062 25 -2.1875 C 19.789062 -4.925781 15.65625 -8.585938 12.59375 -13.171875 C 9.539062 -17.753906 7.820312 -22.585938 7.4375 -27.671875 L 19.859375 -27.671875 C 20.492188 -22.328125 22.78125 -18 26.71875 -14.6875 C 30.664062 -11.382812 35.945312 -9.734375 42.5625 -9.734375 C 49.050781 -9.734375 54.046875 -11.195312 57.546875 -14.125 C 61.046875 -17.050781 62.796875 -20.742188 62.796875 -25.203125 C 62.796875 -28.503906 61.773438 -31.238281 59.734375 -33.40625 C 57.703125 -35.570312 55.222656 -37.320312 52.296875 -38.65625 C 49.367188 -39.988281 45.234375 -41.484375 39.890625 -43.140625 C 33.398438 -45.179688 28.179688 -47.125 24.234375 -48.96875 C 20.296875 -50.8125 16.925781 -53.484375 14.125 -56.984375 C 11.320312 -60.484375 9.921875 -65.03125 9.921875 -70.625 C 9.921875 -75.59375 11.222656 -80.113281 13.828125 -84.1875 C 16.441406 -88.257812 20.101562 -91.472656 24.8125 -93.828125 C 29.519531 -96.179688 34.992188 -97.359375 41.234375 -97.359375 C 47.335938 -97.359375 52.804688 -96.082031 57.640625 -93.53125 C 62.484375 -90.988281 66.300781 -87.519531 69.09375 -83.125 C 71.894531 -78.738281 73.488281 -73.9375 73.875 -68.71875 L 61.46875 -68.71875 C 60.832031 -74.0625 58.796875 -78.226562 55.359375 -81.21875 C 51.921875 -84.207031 47.210938 -85.703125 41.234375 -85.703125 C 35.253906 -85.703125 30.609375 -84.332031 27.296875 -81.59375 C 23.984375 -78.863281 22.328125 -75.398438 22.328125 -71.203125 C 22.328125 -66.617188 24.171875 -63.148438 27.859375 -60.796875 C 31.554688 -58.441406 37.222656 -56.054688 44.859375 -53.640625 C 51.347656 -51.472656 56.597656 -49.40625 60.609375 -47.4375 C 64.617188 -45.46875 68.050781 -42.695312 70.90625 -39.125 C 73.769531 -35.5625 75.203125 -30.921875 75.203125 -25.203125 C 75.203125 -17.429688 72.273438 -10.96875 66.421875 -5.8125 C 60.578125 -0.664062 52.625 1.90625 42.5625 1.90625 Z M 42.5625 1.90625 "/></g></g></g><g fill="#ffffff" fill-opacity="1"><g transform="translate(1138.74758, 285.216575)"><g><path d="M 26.15625 0 L 13.75 0 L 13.75 -95.4375 L 26.15625 -95.4375 Z M 20.046875 -110.71875 C 17.628906 -110.71875 15.59375 -111.539062 13.9375 -113.1875 C 12.28125 -114.84375 11.453125 -116.882812 11.453125 -119.3125 C 11.453125 -121.851562 12.28125 -123.914062 13.9375 -125.5 C 15.59375 -127.09375 17.628906 -127.890625 20.046875 -127.890625 C 22.585938 -127.890625 24.648438 -127.09375 26.234375 -125.5 C 27.828125 -123.914062 28.625 -121.851562 28.625 -119.3125 C 28.625 -116.882812 27.796875 -114.84375 26.140625 -113.1875 C 24.492188 -111.539062 22.460938 -110.71875 20.046875 -110.71875 Z M 20.046875 -110.71875 "/></g></g></g><g fill="#ffffff" fill-opacity="1"><g transform="translate(1178.641006, 285.216575)"><g><path d="M 52.109375 36.265625 C 41.804688 36.265625 33.023438 33.65625 25.765625 28.4375 C 18.515625 23.21875 13.804688 16.21875 11.640625 7.4375 L 24.046875 7.4375 C 25.828125 12.789062 29.164062 16.992188 34.0625 20.046875 C 38.96875 23.097656 44.984375 24.625 52.109375 24.625 C 60.640625 24.625 67.515625 22.078125 72.734375 16.984375 C 77.953125 11.898438 80.5625 5.15625 80.5625 -3.25 L 80.5625 -18.328125 L 79.59375 -18.328125 C 78.457031 -16.546875 76.488281 -14.476562 73.6875 -12.125 C 70.882812 -9.769531 67.445312 -7.703125 63.375 -5.921875 C 59.300781 -4.140625 54.910156 -3.25 50.203125 -3.25 C 42.441406 -3.25 35.28125 -5.285156 28.71875 -9.359375 C 22.164062 -13.429688 16.976562 -19.0625 13.15625 -26.25 C 9.34375 -33.4375 7.4375 -41.421875 7.4375 -50.203125 C 7.4375 -59.109375 9.34375 -67.15625 13.15625 -74.34375 C 16.976562 -81.539062 22.164062 -87.175781 28.71875 -91.25 C 35.28125 -95.320312 42.441406 -97.359375 50.203125 -97.359375 C 54.910156 -97.359375 59.300781 -96.5 63.375 -94.78125 C 67.445312 -93.0625 70.882812 -91.023438 73.6875 -88.671875 C 76.488281 -86.316406 78.457031 -84.25 79.59375 -82.46875 L 80.5625 -82.46875 L 83.796875 -95.4375 L 92.96875 -95.4375 L 92.96875 -3.25 C 92.96875 4.519531 91.25 11.394531 87.8125 17.375 C 84.375 23.351562 79.566406 27.992188 73.390625 31.296875 C 67.222656 34.609375 60.128906 36.265625 52.109375 36.265625 Z M 50.203125 -14.890625 C 55.546875 -14.890625 60.539062 -16.414062 65.1875 -19.46875 C 69.832031 -22.519531 73.554688 -26.75 76.359375 -32.15625 C 79.160156 -37.570312 80.5625 -43.585938 80.5625 -50.203125 C 80.5625 -56.953125 79.160156 -63.03125 76.359375 -68.4375 C 73.554688 -73.84375 69.832031 -78.070312 65.1875 -81.125 C 60.539062 -84.175781 55.546875 -85.703125 50.203125 -85.703125 C 44.734375 -85.703125 39.675781 -84.175781 35.03125 -81.125 C 30.382812 -78.070312 26.691406 -73.84375 23.953125 -68.4375 C 21.222656 -63.03125 19.859375 -56.953125 19.859375 -50.203125 C 19.859375 -43.585938 21.222656 -37.570312 23.953125 -32.15625 C 26.691406 -26.75 30.382812 -22.519531 35.03125 -19.46875 C 39.675781 -16.414062 44.734375 -14.890625 50.203125 -14.890625 Z M 50.203125 -14.890625 "/></g></g></g><g fill="#ffffff" fill-opacity="1"><g transform="translate(1285.341601, 285.216575)"><g><path d="M 13.75 0 L 13.75 -95.4375 L 22.90625 -95.4375 L 26.15625 -82.46875 L 27.109375 -82.46875 C 29.648438 -86.40625 33.367188 -89.867188 38.265625 -92.859375 C 43.171875 -95.859375 48.804688 -97.359375 55.171875 -97.359375 C 62.296875 -97.359375 68.753906 -95.640625 74.546875 -92.203125 C 80.335938 -88.765625 84.882812 -83.863281 88.1875 -77.5 C 91.5 -71.132812 93.15625 -63.753906 93.15625 -55.359375 L 93.15625 0 L 80.75 0 L 80.75 -55.359375 C 80.75 -64.773438 78.265625 -72.1875 73.296875 -77.59375 C 68.335938 -83 61.910156 -85.703125 54.015625 -85.703125 C 45.617188 -85.703125 38.875 -83 33.78125 -77.59375 C 28.695312 -72.1875 26.15625 -64.773438 26.15625 -55.359375 L 26.15625 0 Z M 13.75 0 "/></g></g></g></g></g></g></svg>